%TF.GenerationSoftware,KiCad,Pcbnew,5.1.10-88a1d61d58~90~ubuntu20.04.1*%
%TF.CreationDate,2021-10-19T21:58:50+02:00*%
%TF.ProjectId,PrawnBlaster,50726177-6e42-46c6-9173-7465722e6b69,v1.0*%
%TF.SameCoordinates,Original*%
%TF.FileFunction,Soldermask,Bot*%
%TF.FilePolarity,Negative*%
%FSLAX45Y45*%
G04 Gerber Fmt 4.5, Leading zero omitted, Abs format (unit mm)*
G04 Created by KiCad (PCBNEW 5.1.10-88a1d61d58~90~ubuntu20.04.1) date 2021-10-19 21:58:50*
%MOMM*%
%LPD*%
G01*
G04 APERTURE LIST*
%ADD10C,3.500000*%
%ADD11O,1.700000X1.700000*%
%ADD12R,1.700000X1.700000*%
%ADD13O,3.500000X3.500000*%
%ADD14R,1.905000X2.000000*%
%ADD15O,1.905000X2.000000*%
%ADD16O,1.500000X1.500000*%
%ADD17O,1.800000X1.800000*%
%ADD18C,1.800000*%
%ADD19C,2.900000*%
%ADD20R,1.600000X1.600000*%
%ADD21C,1.600000*%
G04 APERTURE END LIST*
D10*
%TO.C,REF\u002A\u002A*%
X8561000Y-13946000D03*
X4751000Y-13946000D03*
X4751000Y-11660000D03*
X8561000Y-11660000D03*
%TD*%
D11*
%TO.C,J10*%
X11820000Y-12666000D03*
X11820000Y-12412000D03*
X11820000Y-12158000D03*
X11820000Y-11904000D03*
X11820000Y-11650000D03*
X11820000Y-11396000D03*
X11820000Y-11142000D03*
X11820000Y-10888000D03*
X11820000Y-10634000D03*
X11820000Y-10380000D03*
X11820000Y-10126000D03*
X11820000Y-9872000D03*
X11820000Y-9618000D03*
X11820000Y-9364000D03*
X11820000Y-9110000D03*
X11820000Y-8856000D03*
X11820000Y-8602000D03*
X11820000Y-8348000D03*
X11820000Y-8094000D03*
D12*
X11820000Y-7840000D03*
%TD*%
D11*
%TO.C,J1*%
X5562000Y-8570000D03*
X5816000Y-8570000D03*
X5562000Y-8316000D03*
X5816000Y-8316000D03*
X5562000Y-8062000D03*
X5816000Y-8062000D03*
X5562000Y-7808000D03*
X5816000Y-7808000D03*
X5562000Y-7554000D03*
X5816000Y-7554000D03*
X5562000Y-7300000D03*
D12*
X5816000Y-7300000D03*
%TD*%
D13*
%TO.C,U3*%
X17800000Y-12729000D03*
D14*
X18054000Y-11063000D03*
D15*
X17800000Y-11063000D03*
X17546000Y-11063000D03*
%TD*%
D11*
%TO.C,U1*%
X13934000Y-12640000D03*
D12*
X13680000Y-12640000D03*
D11*
X13426000Y-12640000D03*
D16*
X13922500Y-8153000D03*
X13437500Y-8153000D03*
D17*
X13952500Y-7850000D03*
X13407500Y-7850000D03*
D11*
X14569000Y-7837000D03*
X14569000Y-8091000D03*
D12*
X14569000Y-8345000D03*
D11*
X14569000Y-8599000D03*
X14569000Y-8853000D03*
X14569000Y-9107000D03*
X14569000Y-9361000D03*
D12*
X14569000Y-9615000D03*
D11*
X14569000Y-9869000D03*
X14569000Y-10123000D03*
X14569000Y-10377000D03*
X14569000Y-10631000D03*
D12*
X14569000Y-10885000D03*
D11*
X14569000Y-11139000D03*
X14569000Y-11393000D03*
X14569000Y-11647000D03*
X14569000Y-11901000D03*
D12*
X14569000Y-12155000D03*
D11*
X14569000Y-12409000D03*
X14569000Y-12663000D03*
X12791000Y-12663000D03*
X12791000Y-12409000D03*
D12*
X12791000Y-12155000D03*
D11*
X12791000Y-11901000D03*
X12791000Y-11647000D03*
X12791000Y-11393000D03*
X12791000Y-11139000D03*
D12*
X12791000Y-10885000D03*
D11*
X12791000Y-10631000D03*
X12791000Y-10377000D03*
X12791000Y-10123000D03*
X12791000Y-9869000D03*
D12*
X12791000Y-9615000D03*
D11*
X12791000Y-9361000D03*
X12791000Y-9107000D03*
X12791000Y-8853000D03*
X12791000Y-8599000D03*
D12*
X12791000Y-8345000D03*
D11*
X12791000Y-8091000D03*
X12791000Y-7837000D03*
%TD*%
%TO.C,J9*%
X13938000Y-13540000D03*
X13684000Y-13540000D03*
D12*
X13430000Y-13540000D03*
%TD*%
D11*
%TO.C,J8*%
X15570000Y-7837000D03*
X15570000Y-8091000D03*
X15570000Y-8345000D03*
X15570000Y-8599000D03*
X15570000Y-8853000D03*
X15570000Y-9107000D03*
X15570000Y-9361000D03*
X15570000Y-9615000D03*
X15570000Y-9869000D03*
X15570000Y-10123000D03*
X15570000Y-10377000D03*
X15570000Y-10631000D03*
X15570000Y-10885000D03*
X15570000Y-11139000D03*
X15570000Y-11393000D03*
X15570000Y-11647000D03*
X15570000Y-11901000D03*
X15570000Y-12155000D03*
X15570000Y-12409000D03*
D12*
X15570000Y-12663000D03*
%TD*%
D18*
%TO.C,J6*%
X19570000Y-5863000D03*
X19570000Y-6117000D03*
X19570000Y-6625000D03*
X19570000Y-6371000D03*
X19570000Y-6879000D03*
X19570000Y-7133000D03*
X19570000Y-7387000D03*
X19570000Y-7641000D03*
X19570000Y-7895000D03*
X19570000Y-8149000D03*
X19570000Y-8403000D03*
X19570000Y-8657000D03*
X19570000Y-8911000D03*
X19570000Y-9165000D03*
X19570000Y-9419000D03*
X19570000Y-9673000D03*
X19570000Y-9927000D03*
X19570000Y-10181000D03*
X19570000Y-10435000D03*
X19570000Y-10689000D03*
X19570000Y-10943000D03*
X19570000Y-11197000D03*
X19570000Y-11451000D03*
X19570000Y-11705000D03*
X19570000Y-11959000D03*
X19570000Y-12213000D03*
X19570000Y-12467000D03*
X19570000Y-12721000D03*
X19570000Y-12975000D03*
X19570000Y-13229000D03*
X19570000Y-13483000D03*
X19570000Y-13737000D03*
X19062000Y-5863000D03*
X19062000Y-6117000D03*
X19062000Y-6625000D03*
X19062000Y-6371000D03*
X19062000Y-6879000D03*
X19062000Y-7133000D03*
X19062000Y-7387000D03*
X19062000Y-7641000D03*
X19062000Y-7895000D03*
X19062000Y-8149000D03*
X19062000Y-8403000D03*
X19062000Y-8657000D03*
X19062000Y-8911000D03*
X19062000Y-9165000D03*
X19062000Y-9419000D03*
X19062000Y-9673000D03*
X19062000Y-9927000D03*
X19062000Y-10181000D03*
X19062000Y-10435000D03*
X19062000Y-10689000D03*
X19062000Y-10943000D03*
X19062000Y-11197000D03*
X19062000Y-11451000D03*
X19062000Y-11705000D03*
X19062000Y-11959000D03*
X19062000Y-12213000D03*
X19062000Y-12467000D03*
X19062000Y-12721000D03*
X19062000Y-12975000D03*
X19062000Y-13229000D03*
X19062000Y-13483000D03*
X19062000Y-13737000D03*
D19*
X19824000Y-14245000D03*
X19824000Y-5355000D03*
%TD*%
D20*
%TO.C,C2*%
X17554000Y-9663000D03*
D21*
X17304000Y-9663000D03*
%TD*%
%TO.C,C1*%
X18254000Y-9663000D03*
D20*
X18004000Y-9663000D03*
%TD*%
M02*
