%TF.GenerationSoftware,KiCad,Pcbnew,5.1.10-88a1d61d58~90~ubuntu20.04.1*%
%TF.CreationDate,2021-11-12T13:47:04+01:00*%
%TF.ProjectId,PrawnBlaster,50726177-6e42-46c6-9173-7465722e6b69,v1.0*%
%TF.SameCoordinates,Original*%
%TF.FileFunction,Soldermask,Top*%
%TF.FilePolarity,Negative*%
%FSLAX45Y45*%
G04 Gerber Fmt 4.5, Leading zero omitted, Abs format (unit mm)*
G04 Created by KiCad (PCBNEW 5.1.10-88a1d61d58~90~ubuntu20.04.1) date 2021-11-12 13:47:04*
%MOMM*%
%LPD*%
G01*
G04 APERTURE LIST*
%ADD10C,3.500000*%
%ADD11R,1.000000X1.500000*%
%ADD12R,1.800000X2.500000*%
%ADD13R,0.650000X1.060000*%
%ADD14O,1.700000X1.700000*%
%ADD15R,1.700000X1.700000*%
%ADD16O,3.500000X3.500000*%
%ADD17R,1.905000X2.000000*%
%ADD18O,1.905000X2.000000*%
%ADD19R,1.700000X3.500000*%
%ADD20O,1.500000X1.500000*%
%ADD21O,1.800000X1.800000*%
%ADD22R,3.500000X1.700000*%
%ADD23R,1.060000X0.650000*%
%ADD24C,1.800000*%
%ADD25C,2.900000*%
%ADD26R,1.600000X1.600000*%
%ADD27C,1.600000*%
%ADD28R,0.600000X0.450000*%
%ADD29R,2.500000X2.300000*%
%ADD30R,3.800000X2.000000*%
%ADD31R,1.500000X2.000000*%
G04 APERTURE END LIST*
D10*
%TO.C,U6*%
X8351000Y-12946000D03*
X4541000Y-12946000D03*
X4541000Y-10660000D03*
X8351000Y-10660000D03*
%TD*%
%TO.C,R11*%
G36*
G01*
X7137500Y-7282500D02*
X7137500Y-7157500D01*
G75*
G02*
X7162500Y-7132500I25000J0D01*
G01*
X7225000Y-7132500D01*
G75*
G02*
X7250000Y-7157500I0J-25000D01*
G01*
X7250000Y-7282500D01*
G75*
G02*
X7225000Y-7307500I-25000J0D01*
G01*
X7162500Y-7307500D01*
G75*
G02*
X7137500Y-7282500I0J25000D01*
G01*
G37*
G36*
G01*
X6845000Y-7282500D02*
X6845000Y-7157500D01*
G75*
G02*
X6870000Y-7132500I25000J0D01*
G01*
X6932500Y-7132500D01*
G75*
G02*
X6957500Y-7157500I0J-25000D01*
G01*
X6957500Y-7282500D01*
G75*
G02*
X6932500Y-7307500I-25000J0D01*
G01*
X6870000Y-7307500D01*
G75*
G02*
X6845000Y-7282500I0J25000D01*
G01*
G37*
%TD*%
%TO.C,R10*%
G36*
G01*
X7137500Y-7612500D02*
X7137500Y-7487500D01*
G75*
G02*
X7162500Y-7462500I25000J0D01*
G01*
X7225000Y-7462500D01*
G75*
G02*
X7250000Y-7487500I0J-25000D01*
G01*
X7250000Y-7612500D01*
G75*
G02*
X7225000Y-7637500I-25000J0D01*
G01*
X7162500Y-7637500D01*
G75*
G02*
X7137500Y-7612500I0J25000D01*
G01*
G37*
G36*
G01*
X6845000Y-7612500D02*
X6845000Y-7487500D01*
G75*
G02*
X6870000Y-7462500I25000J0D01*
G01*
X6932500Y-7462500D01*
G75*
G02*
X6957500Y-7487500I0J-25000D01*
G01*
X6957500Y-7612500D01*
G75*
G02*
X6932500Y-7637500I-25000J0D01*
G01*
X6870000Y-7637500D01*
G75*
G02*
X6845000Y-7612500I0J25000D01*
G01*
G37*
%TD*%
D11*
%TO.C,JP1*%
X16665000Y-8090000D03*
X16535000Y-8090000D03*
%TD*%
D12*
%TO.C,D3*%
X17090000Y-8490000D03*
X17090000Y-8090000D03*
%TD*%
%TO.C,C6*%
G36*
G01*
X11395000Y-7370000D02*
X11345000Y-7370000D01*
G75*
G02*
X11322500Y-7347500I0J22500D01*
G01*
X11322500Y-7302500D01*
G75*
G02*
X11345000Y-7280000I22500J0D01*
G01*
X11395000Y-7280000D01*
G75*
G02*
X11417500Y-7302500I0J-22500D01*
G01*
X11417500Y-7347500D01*
G75*
G02*
X11395000Y-7370000I-22500J0D01*
G01*
G37*
G36*
G01*
X11395000Y-7525000D02*
X11345000Y-7525000D01*
G75*
G02*
X11322500Y-7502500I0J22500D01*
G01*
X11322500Y-7457500D01*
G75*
G02*
X11345000Y-7435000I22500J0D01*
G01*
X11395000Y-7435000D01*
G75*
G02*
X11417500Y-7457500I0J-22500D01*
G01*
X11417500Y-7502500D01*
G75*
G02*
X11395000Y-7525000I-22500J0D01*
G01*
G37*
%TD*%
%TO.C,C5*%
G36*
G01*
X16370000Y-11455500D02*
X16420000Y-11455500D01*
G75*
G02*
X16442500Y-11478000I0J-22500D01*
G01*
X16442500Y-11523000D01*
G75*
G02*
X16420000Y-11545500I-22500J0D01*
G01*
X16370000Y-11545500D01*
G75*
G02*
X16347500Y-11523000I0J22500D01*
G01*
X16347500Y-11478000D01*
G75*
G02*
X16370000Y-11455500I22500J0D01*
G01*
G37*
G36*
G01*
X16370000Y-11300500D02*
X16420000Y-11300500D01*
G75*
G02*
X16442500Y-11323000I0J-22500D01*
G01*
X16442500Y-11368000D01*
G75*
G02*
X16420000Y-11390500I-22500J0D01*
G01*
X16370000Y-11390500D01*
G75*
G02*
X16347500Y-11368000I0J22500D01*
G01*
X16347500Y-11323000D01*
G75*
G02*
X16370000Y-11300500I22500J0D01*
G01*
G37*
%TD*%
D13*
%TO.C,U5*%
X16395000Y-11150000D03*
X16205000Y-11150000D03*
X16205000Y-10930000D03*
X16300000Y-10930000D03*
X16395000Y-10930000D03*
%TD*%
%TO.C,C3*%
G36*
G01*
X9172500Y-9525000D02*
X9172500Y-9575000D01*
G75*
G02*
X9150000Y-9597500I-22500J0D01*
G01*
X9105000Y-9597500D01*
G75*
G02*
X9082500Y-9575000I0J22500D01*
G01*
X9082500Y-9525000D01*
G75*
G02*
X9105000Y-9502500I22500J0D01*
G01*
X9150000Y-9502500D01*
G75*
G02*
X9172500Y-9525000I0J-22500D01*
G01*
G37*
G36*
G01*
X9017500Y-9525000D02*
X9017500Y-9575000D01*
G75*
G02*
X8995000Y-9597500I-22500J0D01*
G01*
X8950000Y-9597500D01*
G75*
G02*
X8927500Y-9575000I0J22500D01*
G01*
X8927500Y-9525000D01*
G75*
G02*
X8950000Y-9502500I22500J0D01*
G01*
X8995000Y-9502500D01*
G75*
G02*
X9017500Y-9525000I0J-22500D01*
G01*
G37*
%TD*%
%TO.C,C4*%
G36*
G01*
X9355000Y-9740000D02*
X9355000Y-9960000D01*
G75*
G02*
X9330000Y-9985000I-25000J0D01*
G01*
X9265000Y-9985000D01*
G75*
G02*
X9240000Y-9960000I0J25000D01*
G01*
X9240000Y-9740000D01*
G75*
G02*
X9265000Y-9715000I25000J0D01*
G01*
X9330000Y-9715000D01*
G75*
G02*
X9355000Y-9740000I0J-25000D01*
G01*
G37*
G36*
G01*
X9060000Y-9740000D02*
X9060000Y-9960000D01*
G75*
G02*
X9035000Y-9985000I-25000J0D01*
G01*
X8970000Y-9985000D01*
G75*
G02*
X8945000Y-9960000I0J25000D01*
G01*
X8945000Y-9740000D01*
G75*
G02*
X8970000Y-9715000I25000J0D01*
G01*
X9035000Y-9715000D01*
G75*
G02*
X9060000Y-9740000I0J-25000D01*
G01*
G37*
%TD*%
%TO.C,R6*%
G36*
G01*
X10507500Y-8395000D02*
X10507500Y-8305000D01*
G75*
G02*
X10532500Y-8280000I25000J0D01*
G01*
X10585000Y-8280000D01*
G75*
G02*
X10610000Y-8305000I0J-25000D01*
G01*
X10610000Y-8395000D01*
G75*
G02*
X10585000Y-8420000I-25000J0D01*
G01*
X10532500Y-8420000D01*
G75*
G02*
X10507500Y-8395000I0J25000D01*
G01*
G37*
G36*
G01*
X10690000Y-8395000D02*
X10690000Y-8305000D01*
G75*
G02*
X10715000Y-8280000I25000J0D01*
G01*
X10767500Y-8280000D01*
G75*
G02*
X10792500Y-8305000I0J-25000D01*
G01*
X10792500Y-8395000D01*
G75*
G02*
X10767500Y-8420000I-25000J0D01*
G01*
X10715000Y-8420000D01*
G75*
G02*
X10690000Y-8395000I0J25000D01*
G01*
G37*
%TD*%
%TO.C,R8*%
G36*
G01*
X10507500Y-8920000D02*
X10507500Y-8830000D01*
G75*
G02*
X10532500Y-8805000I25000J0D01*
G01*
X10585000Y-8805000D01*
G75*
G02*
X10610000Y-8830000I0J-25000D01*
G01*
X10610000Y-8920000D01*
G75*
G02*
X10585000Y-8945000I-25000J0D01*
G01*
X10532500Y-8945000D01*
G75*
G02*
X10507500Y-8920000I0J25000D01*
G01*
G37*
G36*
G01*
X10690000Y-8920000D02*
X10690000Y-8830000D01*
G75*
G02*
X10715000Y-8805000I25000J0D01*
G01*
X10767500Y-8805000D01*
G75*
G02*
X10792500Y-8830000I0J-25000D01*
G01*
X10792500Y-8920000D01*
G75*
G02*
X10767500Y-8945000I-25000J0D01*
G01*
X10715000Y-8945000D01*
G75*
G02*
X10690000Y-8920000I0J25000D01*
G01*
G37*
%TD*%
%TO.C,R3*%
G36*
G01*
X8153900Y-8793700D02*
X8153900Y-8918700D01*
G75*
G02*
X8128900Y-8943700I-25000J0D01*
G01*
X8066400Y-8943700D01*
G75*
G02*
X8041400Y-8918700I0J25000D01*
G01*
X8041400Y-8793700D01*
G75*
G02*
X8066400Y-8768700I25000J0D01*
G01*
X8128900Y-8768700D01*
G75*
G02*
X8153900Y-8793700I0J-25000D01*
G01*
G37*
G36*
G01*
X7861400Y-8793700D02*
X7861400Y-8918700D01*
G75*
G02*
X7836400Y-8943700I-25000J0D01*
G01*
X7773900Y-8943700D01*
G75*
G02*
X7748900Y-8918700I0J25000D01*
G01*
X7748900Y-8793700D01*
G75*
G02*
X7773900Y-8768700I25000J0D01*
G01*
X7836400Y-8768700D01*
G75*
G02*
X7861400Y-8793700I0J-25000D01*
G01*
G37*
%TD*%
%TO.C,R1*%
G36*
G01*
X8153900Y-8293700D02*
X8153900Y-8418700D01*
G75*
G02*
X8128900Y-8443700I-25000J0D01*
G01*
X8066400Y-8443700D01*
G75*
G02*
X8041400Y-8418700I0J25000D01*
G01*
X8041400Y-8293700D01*
G75*
G02*
X8066400Y-8268700I25000J0D01*
G01*
X8128900Y-8268700D01*
G75*
G02*
X8153900Y-8293700I0J-25000D01*
G01*
G37*
G36*
G01*
X7861400Y-8293700D02*
X7861400Y-8418700D01*
G75*
G02*
X7836400Y-8443700I-25000J0D01*
G01*
X7773900Y-8443700D01*
G75*
G02*
X7748900Y-8418700I0J25000D01*
G01*
X7748900Y-8293700D01*
G75*
G02*
X7773900Y-8268700I25000J0D01*
G01*
X7836400Y-8268700D01*
G75*
G02*
X7861400Y-8293700I0J-25000D01*
G01*
G37*
%TD*%
%TO.C,U4*%
G36*
G01*
X10167500Y-9356500D02*
X10167500Y-9386500D01*
G75*
G02*
X10152500Y-9401500I-15000J0D01*
G01*
X9977500Y-9401500D01*
G75*
G02*
X9962500Y-9386500I0J15000D01*
G01*
X9962500Y-9356500D01*
G75*
G02*
X9977500Y-9341500I15000J0D01*
G01*
X10152500Y-9341500D01*
G75*
G02*
X10167500Y-9356500I0J-15000D01*
G01*
G37*
G36*
G01*
X10167500Y-9229500D02*
X10167500Y-9259500D01*
G75*
G02*
X10152500Y-9274500I-15000J0D01*
G01*
X9977500Y-9274500D01*
G75*
G02*
X9962500Y-9259500I0J15000D01*
G01*
X9962500Y-9229500D01*
G75*
G02*
X9977500Y-9214500I15000J0D01*
G01*
X10152500Y-9214500D01*
G75*
G02*
X10167500Y-9229500I0J-15000D01*
G01*
G37*
G36*
G01*
X10167500Y-9102500D02*
X10167500Y-9132500D01*
G75*
G02*
X10152500Y-9147500I-15000J0D01*
G01*
X9977500Y-9147500D01*
G75*
G02*
X9962500Y-9132500I0J15000D01*
G01*
X9962500Y-9102500D01*
G75*
G02*
X9977500Y-9087500I15000J0D01*
G01*
X10152500Y-9087500D01*
G75*
G02*
X10167500Y-9102500I0J-15000D01*
G01*
G37*
G36*
G01*
X10167500Y-8975500D02*
X10167500Y-9005500D01*
G75*
G02*
X10152500Y-9020500I-15000J0D01*
G01*
X9977500Y-9020500D01*
G75*
G02*
X9962500Y-9005500I0J15000D01*
G01*
X9962500Y-8975500D01*
G75*
G02*
X9977500Y-8960500I15000J0D01*
G01*
X10152500Y-8960500D01*
G75*
G02*
X10167500Y-8975500I0J-15000D01*
G01*
G37*
G36*
G01*
X10167500Y-8848500D02*
X10167500Y-8878500D01*
G75*
G02*
X10152500Y-8893500I-15000J0D01*
G01*
X9977500Y-8893500D01*
G75*
G02*
X9962500Y-8878500I0J15000D01*
G01*
X9962500Y-8848500D01*
G75*
G02*
X9977500Y-8833500I15000J0D01*
G01*
X10152500Y-8833500D01*
G75*
G02*
X10167500Y-8848500I0J-15000D01*
G01*
G37*
G36*
G01*
X10167500Y-8721500D02*
X10167500Y-8751500D01*
G75*
G02*
X10152500Y-8766500I-15000J0D01*
G01*
X9977500Y-8766500D01*
G75*
G02*
X9962500Y-8751500I0J15000D01*
G01*
X9962500Y-8721500D01*
G75*
G02*
X9977500Y-8706500I15000J0D01*
G01*
X10152500Y-8706500D01*
G75*
G02*
X10167500Y-8721500I0J-15000D01*
G01*
G37*
G36*
G01*
X10167500Y-8594500D02*
X10167500Y-8624500D01*
G75*
G02*
X10152500Y-8639500I-15000J0D01*
G01*
X9977500Y-8639500D01*
G75*
G02*
X9962500Y-8624500I0J15000D01*
G01*
X9962500Y-8594500D01*
G75*
G02*
X9977500Y-8579500I15000J0D01*
G01*
X10152500Y-8579500D01*
G75*
G02*
X10167500Y-8594500I0J-15000D01*
G01*
G37*
G36*
G01*
X10167500Y-8467500D02*
X10167500Y-8497500D01*
G75*
G02*
X10152500Y-8512500I-15000J0D01*
G01*
X9977500Y-8512500D01*
G75*
G02*
X9962500Y-8497500I0J15000D01*
G01*
X9962500Y-8467500D01*
G75*
G02*
X9977500Y-8452500I15000J0D01*
G01*
X10152500Y-8452500D01*
G75*
G02*
X10167500Y-8467500I0J-15000D01*
G01*
G37*
G36*
G01*
X10167500Y-8340500D02*
X10167500Y-8370500D01*
G75*
G02*
X10152500Y-8385500I-15000J0D01*
G01*
X9977500Y-8385500D01*
G75*
G02*
X9962500Y-8370500I0J15000D01*
G01*
X9962500Y-8340500D01*
G75*
G02*
X9977500Y-8325500I15000J0D01*
G01*
X10152500Y-8325500D01*
G75*
G02*
X10167500Y-8340500I0J-15000D01*
G01*
G37*
G36*
G01*
X10167500Y-8213500D02*
X10167500Y-8243500D01*
G75*
G02*
X10152500Y-8258500I-15000J0D01*
G01*
X9977500Y-8258500D01*
G75*
G02*
X9962500Y-8243500I0J15000D01*
G01*
X9962500Y-8213500D01*
G75*
G02*
X9977500Y-8198500I15000J0D01*
G01*
X10152500Y-8198500D01*
G75*
G02*
X10167500Y-8213500I0J-15000D01*
G01*
G37*
G36*
G01*
X9237500Y-8213500D02*
X9237500Y-8243500D01*
G75*
G02*
X9222500Y-8258500I-15000J0D01*
G01*
X9047500Y-8258500D01*
G75*
G02*
X9032500Y-8243500I0J15000D01*
G01*
X9032500Y-8213500D01*
G75*
G02*
X9047500Y-8198500I15000J0D01*
G01*
X9222500Y-8198500D01*
G75*
G02*
X9237500Y-8213500I0J-15000D01*
G01*
G37*
G36*
G01*
X9237500Y-8340500D02*
X9237500Y-8370500D01*
G75*
G02*
X9222500Y-8385500I-15000J0D01*
G01*
X9047500Y-8385500D01*
G75*
G02*
X9032500Y-8370500I0J15000D01*
G01*
X9032500Y-8340500D01*
G75*
G02*
X9047500Y-8325500I15000J0D01*
G01*
X9222500Y-8325500D01*
G75*
G02*
X9237500Y-8340500I0J-15000D01*
G01*
G37*
G36*
G01*
X9237500Y-8467500D02*
X9237500Y-8497500D01*
G75*
G02*
X9222500Y-8512500I-15000J0D01*
G01*
X9047500Y-8512500D01*
G75*
G02*
X9032500Y-8497500I0J15000D01*
G01*
X9032500Y-8467500D01*
G75*
G02*
X9047500Y-8452500I15000J0D01*
G01*
X9222500Y-8452500D01*
G75*
G02*
X9237500Y-8467500I0J-15000D01*
G01*
G37*
G36*
G01*
X9237500Y-8594500D02*
X9237500Y-8624500D01*
G75*
G02*
X9222500Y-8639500I-15000J0D01*
G01*
X9047500Y-8639500D01*
G75*
G02*
X9032500Y-8624500I0J15000D01*
G01*
X9032500Y-8594500D01*
G75*
G02*
X9047500Y-8579500I15000J0D01*
G01*
X9222500Y-8579500D01*
G75*
G02*
X9237500Y-8594500I0J-15000D01*
G01*
G37*
G36*
G01*
X9237500Y-8721500D02*
X9237500Y-8751500D01*
G75*
G02*
X9222500Y-8766500I-15000J0D01*
G01*
X9047500Y-8766500D01*
G75*
G02*
X9032500Y-8751500I0J15000D01*
G01*
X9032500Y-8721500D01*
G75*
G02*
X9047500Y-8706500I15000J0D01*
G01*
X9222500Y-8706500D01*
G75*
G02*
X9237500Y-8721500I0J-15000D01*
G01*
G37*
G36*
G01*
X9237500Y-8848500D02*
X9237500Y-8878500D01*
G75*
G02*
X9222500Y-8893500I-15000J0D01*
G01*
X9047500Y-8893500D01*
G75*
G02*
X9032500Y-8878500I0J15000D01*
G01*
X9032500Y-8848500D01*
G75*
G02*
X9047500Y-8833500I15000J0D01*
G01*
X9222500Y-8833500D01*
G75*
G02*
X9237500Y-8848500I0J-15000D01*
G01*
G37*
G36*
G01*
X9237500Y-8975500D02*
X9237500Y-9005500D01*
G75*
G02*
X9222500Y-9020500I-15000J0D01*
G01*
X9047500Y-9020500D01*
G75*
G02*
X9032500Y-9005500I0J15000D01*
G01*
X9032500Y-8975500D01*
G75*
G02*
X9047500Y-8960500I15000J0D01*
G01*
X9222500Y-8960500D01*
G75*
G02*
X9237500Y-8975500I0J-15000D01*
G01*
G37*
G36*
G01*
X9237500Y-9102500D02*
X9237500Y-9132500D01*
G75*
G02*
X9222500Y-9147500I-15000J0D01*
G01*
X9047500Y-9147500D01*
G75*
G02*
X9032500Y-9132500I0J15000D01*
G01*
X9032500Y-9102500D01*
G75*
G02*
X9047500Y-9087500I15000J0D01*
G01*
X9222500Y-9087500D01*
G75*
G02*
X9237500Y-9102500I0J-15000D01*
G01*
G37*
G36*
G01*
X9237500Y-9229500D02*
X9237500Y-9259500D01*
G75*
G02*
X9222500Y-9274500I-15000J0D01*
G01*
X9047500Y-9274500D01*
G75*
G02*
X9032500Y-9259500I0J15000D01*
G01*
X9032500Y-9229500D01*
G75*
G02*
X9047500Y-9214500I15000J0D01*
G01*
X9222500Y-9214500D01*
G75*
G02*
X9237500Y-9229500I0J-15000D01*
G01*
G37*
G36*
G01*
X9237500Y-9356500D02*
X9237500Y-9386500D01*
G75*
G02*
X9222500Y-9401500I-15000J0D01*
G01*
X9047500Y-9401500D01*
G75*
G02*
X9032500Y-9386500I0J15000D01*
G01*
X9032500Y-9356500D01*
G75*
G02*
X9047500Y-9341500I15000J0D01*
G01*
X9222500Y-9341500D01*
G75*
G02*
X9237500Y-9356500I0J-15000D01*
G01*
G37*
%TD*%
%TO.C,R4*%
G36*
G01*
X8153900Y-9043700D02*
X8153900Y-9168700D01*
G75*
G02*
X8128900Y-9193700I-25000J0D01*
G01*
X8066400Y-9193700D01*
G75*
G02*
X8041400Y-9168700I0J25000D01*
G01*
X8041400Y-9043700D01*
G75*
G02*
X8066400Y-9018700I25000J0D01*
G01*
X8128900Y-9018700D01*
G75*
G02*
X8153900Y-9043700I0J-25000D01*
G01*
G37*
G36*
G01*
X7861400Y-9043700D02*
X7861400Y-9168700D01*
G75*
G02*
X7836400Y-9193700I-25000J0D01*
G01*
X7773900Y-9193700D01*
G75*
G02*
X7748900Y-9168700I0J25000D01*
G01*
X7748900Y-9043700D01*
G75*
G02*
X7773900Y-9018700I25000J0D01*
G01*
X7836400Y-9018700D01*
G75*
G02*
X7861400Y-9043700I0J-25000D01*
G01*
G37*
%TD*%
%TO.C,R7*%
G36*
G01*
X10507500Y-8645000D02*
X10507500Y-8555000D01*
G75*
G02*
X10532500Y-8530000I25000J0D01*
G01*
X10585000Y-8530000D01*
G75*
G02*
X10610000Y-8555000I0J-25000D01*
G01*
X10610000Y-8645000D01*
G75*
G02*
X10585000Y-8670000I-25000J0D01*
G01*
X10532500Y-8670000D01*
G75*
G02*
X10507500Y-8645000I0J25000D01*
G01*
G37*
G36*
G01*
X10690000Y-8645000D02*
X10690000Y-8555000D01*
G75*
G02*
X10715000Y-8530000I25000J0D01*
G01*
X10767500Y-8530000D01*
G75*
G02*
X10792500Y-8555000I0J-25000D01*
G01*
X10792500Y-8645000D01*
G75*
G02*
X10767500Y-8670000I-25000J0D01*
G01*
X10715000Y-8670000D01*
G75*
G02*
X10690000Y-8645000I0J25000D01*
G01*
G37*
%TD*%
%TO.C,R2*%
G36*
G01*
X8153900Y-8543700D02*
X8153900Y-8668700D01*
G75*
G02*
X8128900Y-8693700I-25000J0D01*
G01*
X8066400Y-8693700D01*
G75*
G02*
X8041400Y-8668700I0J25000D01*
G01*
X8041400Y-8543700D01*
G75*
G02*
X8066400Y-8518700I25000J0D01*
G01*
X8128900Y-8518700D01*
G75*
G02*
X8153900Y-8543700I0J-25000D01*
G01*
G37*
G36*
G01*
X7861400Y-8543700D02*
X7861400Y-8668700D01*
G75*
G02*
X7836400Y-8693700I-25000J0D01*
G01*
X7773900Y-8693700D01*
G75*
G02*
X7748900Y-8668700I0J25000D01*
G01*
X7748900Y-8543700D01*
G75*
G02*
X7773900Y-8518700I25000J0D01*
G01*
X7836400Y-8518700D01*
G75*
G02*
X7861400Y-8543700I0J-25000D01*
G01*
G37*
%TD*%
%TO.C,R9*%
G36*
G01*
X10507500Y-9170000D02*
X10507500Y-9080000D01*
G75*
G02*
X10532500Y-9055000I25000J0D01*
G01*
X10585000Y-9055000D01*
G75*
G02*
X10610000Y-9080000I0J-25000D01*
G01*
X10610000Y-9170000D01*
G75*
G02*
X10585000Y-9195000I-25000J0D01*
G01*
X10532500Y-9195000D01*
G75*
G02*
X10507500Y-9170000I0J25000D01*
G01*
G37*
G36*
G01*
X10690000Y-9170000D02*
X10690000Y-9080000D01*
G75*
G02*
X10715000Y-9055000I25000J0D01*
G01*
X10767500Y-9055000D01*
G75*
G02*
X10792500Y-9080000I0J-25000D01*
G01*
X10792500Y-9170000D01*
G75*
G02*
X10767500Y-9195000I-25000J0D01*
G01*
X10715000Y-9195000D01*
G75*
G02*
X10690000Y-9170000I0J25000D01*
G01*
G37*
%TD*%
%TO.C,R17*%
G36*
G01*
X6590250Y-7088750D02*
X6500250Y-7088750D01*
G75*
G02*
X6475250Y-7063750I0J25000D01*
G01*
X6475250Y-7011250D01*
G75*
G02*
X6500250Y-6986250I25000J0D01*
G01*
X6590250Y-6986250D01*
G75*
G02*
X6615250Y-7011250I0J-25000D01*
G01*
X6615250Y-7063750D01*
G75*
G02*
X6590250Y-7088750I-25000J0D01*
G01*
G37*
G36*
G01*
X6590250Y-7271250D02*
X6500250Y-7271250D01*
G75*
G02*
X6475250Y-7246250I0J25000D01*
G01*
X6475250Y-7193750D01*
G75*
G02*
X6500250Y-7168750I25000J0D01*
G01*
X6590250Y-7168750D01*
G75*
G02*
X6615250Y-7193750I0J-25000D01*
G01*
X6615250Y-7246250D01*
G75*
G02*
X6590250Y-7271250I-25000J0D01*
G01*
G37*
%TD*%
%TO.C,R16*%
G36*
G01*
X6495000Y-7681250D02*
X6585000Y-7681250D01*
G75*
G02*
X6610000Y-7706250I0J-25000D01*
G01*
X6610000Y-7758750D01*
G75*
G02*
X6585000Y-7783750I-25000J0D01*
G01*
X6495000Y-7783750D01*
G75*
G02*
X6470000Y-7758750I0J25000D01*
G01*
X6470000Y-7706250D01*
G75*
G02*
X6495000Y-7681250I25000J0D01*
G01*
G37*
G36*
G01*
X6495000Y-7498750D02*
X6585000Y-7498750D01*
G75*
G02*
X6610000Y-7523750I0J-25000D01*
G01*
X6610000Y-7576250D01*
G75*
G02*
X6585000Y-7601250I-25000J0D01*
G01*
X6495000Y-7601250D01*
G75*
G02*
X6470000Y-7576250I0J25000D01*
G01*
X6470000Y-7523750D01*
G75*
G02*
X6495000Y-7498750I25000J0D01*
G01*
G37*
%TD*%
D14*
%TO.C,J10*%
X11820000Y-12666000D03*
X11820000Y-12412000D03*
X11820000Y-12158000D03*
X11820000Y-11904000D03*
X11820000Y-11650000D03*
X11820000Y-11396000D03*
X11820000Y-11142000D03*
X11820000Y-10888000D03*
X11820000Y-10634000D03*
X11820000Y-10380000D03*
X11820000Y-10126000D03*
X11820000Y-9872000D03*
X11820000Y-9618000D03*
X11820000Y-9364000D03*
X11820000Y-9110000D03*
X11820000Y-8856000D03*
X11820000Y-8602000D03*
X11820000Y-8348000D03*
X11820000Y-8094000D03*
D15*
X11820000Y-7840000D03*
%TD*%
D14*
%TO.C,J1*%
X5416000Y-8570000D03*
X5670000Y-8570000D03*
X5416000Y-8316000D03*
X5670000Y-8316000D03*
X5416000Y-8062000D03*
X5670000Y-8062000D03*
X5416000Y-7808000D03*
X5670000Y-7808000D03*
X5416000Y-7554000D03*
X5670000Y-7554000D03*
X5416000Y-7300000D03*
D15*
X5670000Y-7300000D03*
%TD*%
D16*
%TO.C,U3*%
X17800000Y-12729000D03*
D17*
X18054000Y-11063000D03*
D18*
X17800000Y-11063000D03*
X17546000Y-11063000D03*
%TD*%
D14*
%TO.C,U1*%
X13934000Y-12640000D03*
D19*
X13934000Y-12730000D03*
D15*
X13680000Y-12640000D03*
D19*
X13680000Y-12730000D03*
D14*
X13426000Y-12640000D03*
D19*
X13426000Y-12730000D03*
D20*
X13922500Y-8153000D03*
X13437500Y-8153000D03*
D21*
X13952500Y-7850000D03*
X13407500Y-7850000D03*
D22*
X14659000Y-12663000D03*
X14659000Y-12409000D03*
X14659000Y-12155000D03*
X14659000Y-11901000D03*
X14659000Y-11647000D03*
X14659000Y-11393000D03*
X14659000Y-11139000D03*
X14659000Y-10885000D03*
X14659000Y-10631000D03*
X14659000Y-10377000D03*
X14659000Y-10123000D03*
X14659000Y-9869000D03*
X14659000Y-9615000D03*
X14659000Y-9361000D03*
X14659000Y-9107000D03*
X14659000Y-8853000D03*
X14659000Y-8599000D03*
X14659000Y-8345000D03*
X14659000Y-8091000D03*
X14659000Y-7837000D03*
X12701000Y-12663000D03*
X12701000Y-12409000D03*
X12701000Y-12155000D03*
X12701000Y-11901000D03*
X12701000Y-11647000D03*
X12701000Y-11393000D03*
X12701000Y-11139000D03*
X12701000Y-10885000D03*
X12701000Y-10631000D03*
X12701000Y-10377000D03*
X12701000Y-10123000D03*
X12701000Y-9869000D03*
X12701000Y-9615000D03*
X12701000Y-9361000D03*
X12701000Y-9107000D03*
X12701000Y-8853000D03*
X12701000Y-8599000D03*
X12701000Y-8345000D03*
X12701000Y-8091000D03*
X12701000Y-7837000D03*
D14*
X14569000Y-7837000D03*
X14569000Y-8091000D03*
D15*
X14569000Y-8345000D03*
D14*
X14569000Y-8599000D03*
X14569000Y-8853000D03*
X14569000Y-9107000D03*
X14569000Y-9361000D03*
D15*
X14569000Y-9615000D03*
D14*
X14569000Y-9869000D03*
X14569000Y-10123000D03*
X14569000Y-10377000D03*
X14569000Y-10631000D03*
D15*
X14569000Y-10885000D03*
D14*
X14569000Y-11139000D03*
X14569000Y-11393000D03*
X14569000Y-11647000D03*
X14569000Y-11901000D03*
D15*
X14569000Y-12155000D03*
D14*
X14569000Y-12409000D03*
X14569000Y-12663000D03*
X12791000Y-12663000D03*
X12791000Y-12409000D03*
D15*
X12791000Y-12155000D03*
D14*
X12791000Y-11901000D03*
X12791000Y-11647000D03*
X12791000Y-11393000D03*
X12791000Y-11139000D03*
D15*
X12791000Y-10885000D03*
D14*
X12791000Y-10631000D03*
X12791000Y-10377000D03*
X12791000Y-10123000D03*
X12791000Y-9869000D03*
D15*
X12791000Y-9615000D03*
D14*
X12791000Y-9361000D03*
X12791000Y-9107000D03*
X12791000Y-8853000D03*
X12791000Y-8599000D03*
D15*
X12791000Y-8345000D03*
D14*
X12791000Y-8091000D03*
X12791000Y-7837000D03*
%TD*%
%TO.C,J9*%
X13938000Y-13540000D03*
X13684000Y-13540000D03*
D15*
X13430000Y-13540000D03*
%TD*%
D14*
%TO.C,J8*%
X15570000Y-7837000D03*
X15570000Y-8091000D03*
X15570000Y-8345000D03*
X15570000Y-8599000D03*
X15570000Y-8853000D03*
X15570000Y-9107000D03*
X15570000Y-9361000D03*
X15570000Y-9615000D03*
X15570000Y-9869000D03*
X15570000Y-10123000D03*
X15570000Y-10377000D03*
X15570000Y-10631000D03*
X15570000Y-10885000D03*
X15570000Y-11139000D03*
X15570000Y-11393000D03*
X15570000Y-11647000D03*
X15570000Y-11901000D03*
X15570000Y-12155000D03*
X15570000Y-12409000D03*
D15*
X15570000Y-12663000D03*
%TD*%
D23*
%TO.C,U2*%
X11370000Y-7650000D03*
X11370000Y-7840000D03*
X11150000Y-7840000D03*
X11150000Y-7745000D03*
X11150000Y-7650000D03*
%TD*%
D24*
%TO.C,J6*%
X19570000Y-5863000D03*
X19570000Y-6117000D03*
X19570000Y-6625000D03*
X19570000Y-6371000D03*
X19570000Y-6879000D03*
X19570000Y-7133000D03*
X19570000Y-7387000D03*
X19570000Y-7641000D03*
X19570000Y-7895000D03*
X19570000Y-8149000D03*
X19570000Y-8403000D03*
X19570000Y-8657000D03*
X19570000Y-8911000D03*
X19570000Y-9165000D03*
X19570000Y-9419000D03*
X19570000Y-9673000D03*
X19570000Y-9927000D03*
X19570000Y-10181000D03*
X19570000Y-10435000D03*
X19570000Y-10689000D03*
X19570000Y-10943000D03*
X19570000Y-11197000D03*
X19570000Y-11451000D03*
X19570000Y-11705000D03*
X19570000Y-11959000D03*
X19570000Y-12213000D03*
X19570000Y-12467000D03*
X19570000Y-12721000D03*
X19570000Y-12975000D03*
X19570000Y-13229000D03*
X19570000Y-13483000D03*
X19570000Y-13737000D03*
X19062000Y-5863000D03*
X19062000Y-6117000D03*
X19062000Y-6625000D03*
X19062000Y-6371000D03*
X19062000Y-6879000D03*
X19062000Y-7133000D03*
X19062000Y-7387000D03*
X19062000Y-7641000D03*
X19062000Y-7895000D03*
X19062000Y-8149000D03*
X19062000Y-8403000D03*
X19062000Y-8657000D03*
X19062000Y-8911000D03*
X19062000Y-9165000D03*
X19062000Y-9419000D03*
X19062000Y-9673000D03*
X19062000Y-9927000D03*
X19062000Y-10181000D03*
X19062000Y-10435000D03*
X19062000Y-10689000D03*
X19062000Y-10943000D03*
X19062000Y-11197000D03*
X19062000Y-11451000D03*
X19062000Y-11705000D03*
X19062000Y-11959000D03*
X19062000Y-12213000D03*
X19062000Y-12467000D03*
X19062000Y-12721000D03*
X19062000Y-12975000D03*
X19062000Y-13229000D03*
X19062000Y-13483000D03*
X19062000Y-13737000D03*
D25*
X19824000Y-14245000D03*
X19824000Y-5355000D03*
%TD*%
D26*
%TO.C,C2*%
X17554000Y-9663000D03*
D27*
X17304000Y-9663000D03*
%TD*%
%TO.C,C1*%
X18254000Y-9663000D03*
D26*
X18004000Y-9663000D03*
%TD*%
D28*
%TO.C,D2*%
X17909000Y-9013000D03*
X17699000Y-9013000D03*
%TD*%
D29*
%TO.C,D1*%
X17639000Y-10463000D03*
X18069000Y-10463000D03*
%TD*%
D30*
%TO.C,Q1*%
X17754000Y-7998000D03*
D31*
X17754000Y-8628000D03*
X17984000Y-8628000D03*
X17524000Y-8628000D03*
%TD*%
%TO.C,R5*%
G36*
G01*
X17459000Y-8961750D02*
X17549000Y-8961750D01*
G75*
G02*
X17574000Y-8986750I0J-25000D01*
G01*
X17574000Y-9039250D01*
G75*
G02*
X17549000Y-9064250I-25000J0D01*
G01*
X17459000Y-9064250D01*
G75*
G02*
X17434000Y-9039250I0J25000D01*
G01*
X17434000Y-8986750D01*
G75*
G02*
X17459000Y-8961750I25000J0D01*
G01*
G37*
G36*
G01*
X17459000Y-9144250D02*
X17549000Y-9144250D01*
G75*
G02*
X17574000Y-9169250I0J-25000D01*
G01*
X17574000Y-9221750D01*
G75*
G02*
X17549000Y-9246750I-25000J0D01*
G01*
X17459000Y-9246750D01*
G75*
G02*
X17434000Y-9221750I0J25000D01*
G01*
X17434000Y-9169250D01*
G75*
G02*
X17459000Y-9144250I25000J0D01*
G01*
G37*
%TD*%
M02*
