%TF.GenerationSoftware,KiCad,Pcbnew,5.1.10*%
%TF.CreationDate,2021-10-25T15:31:06+02:00*%
%TF.ProjectId,PrawnBlaster,50726177-6e42-46c6-9173-7465722e6b69,v1.0*%
%TF.SameCoordinates,Original*%
%TF.FileFunction,Legend,Top*%
%TF.FilePolarity,Positive*%
%FSLAX45Y45*%
G04 Gerber Fmt 4.5, Leading zero omitted, Abs format (unit mm)*
G04 Created by KiCad (PCBNEW 5.1.10) date 2021-10-25 15:31:06*
%MOMM*%
%LPD*%
G01*
G04 APERTURE LIST*
%ADD10C,0.100000*%
%ADD11C,0.120000*%
%ADD12C,0.050000*%
%ADD13C,0.010000*%
%ADD14C,0.250000*%
%ADD15C,0.150000*%
%ADD16C,0.300000*%
G04 APERTURE END LIST*
D10*
X16317548Y-6193190D02*
X16317548Y-6113190D01*
X16348024Y-6113190D01*
X16355643Y-6117000D01*
X16359452Y-6120809D01*
X16363262Y-6128428D01*
X16363262Y-6139857D01*
X16359452Y-6147476D01*
X16355643Y-6151286D01*
X16348024Y-6155095D01*
X16317548Y-6155095D01*
X16397548Y-6193190D02*
X16397548Y-6139857D01*
X16397548Y-6155095D02*
X16401357Y-6147476D01*
X16405167Y-6143667D01*
X16412786Y-6139857D01*
X16420405Y-6139857D01*
X16481357Y-6193190D02*
X16481357Y-6151286D01*
X16477548Y-6143667D01*
X16469928Y-6139857D01*
X16454690Y-6139857D01*
X16447071Y-6143667D01*
X16481357Y-6189381D02*
X16473738Y-6193190D01*
X16454690Y-6193190D01*
X16447071Y-6189381D01*
X16443262Y-6181762D01*
X16443262Y-6174143D01*
X16447071Y-6166524D01*
X16454690Y-6162714D01*
X16473738Y-6162714D01*
X16481357Y-6158905D01*
X16511833Y-6139857D02*
X16527071Y-6193190D01*
X16542309Y-6155095D01*
X16557548Y-6193190D01*
X16572786Y-6139857D01*
X16603262Y-6139857D02*
X16603262Y-6193190D01*
X16603262Y-6147476D02*
X16607071Y-6143667D01*
X16614690Y-6139857D01*
X16626119Y-6139857D01*
X16633738Y-6143667D01*
X16637548Y-6151286D01*
X16637548Y-6193190D01*
X16675643Y-6193190D02*
X16675643Y-6113190D01*
X16675643Y-6143667D02*
X16683262Y-6139857D01*
X16698500Y-6139857D01*
X16706119Y-6143667D01*
X16709928Y-6147476D01*
X16713738Y-6155095D01*
X16713738Y-6177952D01*
X16709928Y-6185571D01*
X16706119Y-6189381D01*
X16698500Y-6193190D01*
X16683262Y-6193190D01*
X16675643Y-6189381D01*
X16759452Y-6193190D02*
X16751833Y-6189381D01*
X16748024Y-6181762D01*
X16748024Y-6113190D01*
X16824214Y-6193190D02*
X16824214Y-6151286D01*
X16820405Y-6143667D01*
X16812786Y-6139857D01*
X16797548Y-6139857D01*
X16789929Y-6143667D01*
X16824214Y-6189381D02*
X16816595Y-6193190D01*
X16797548Y-6193190D01*
X16789929Y-6189381D01*
X16786119Y-6181762D01*
X16786119Y-6174143D01*
X16789929Y-6166524D01*
X16797548Y-6162714D01*
X16816595Y-6162714D01*
X16824214Y-6158905D01*
X16858500Y-6189381D02*
X16866119Y-6193190D01*
X16881357Y-6193190D01*
X16888976Y-6189381D01*
X16892786Y-6181762D01*
X16892786Y-6177952D01*
X16888976Y-6170333D01*
X16881357Y-6166524D01*
X16869929Y-6166524D01*
X16862310Y-6162714D01*
X16858500Y-6155095D01*
X16858500Y-6151286D01*
X16862310Y-6143667D01*
X16869929Y-6139857D01*
X16881357Y-6139857D01*
X16888976Y-6143667D01*
X16915643Y-6139857D02*
X16946119Y-6139857D01*
X16927071Y-6113190D02*
X16927071Y-6181762D01*
X16930881Y-6189381D01*
X16938500Y-6193190D01*
X16946119Y-6193190D01*
X17003262Y-6189381D02*
X16995643Y-6193190D01*
X16980405Y-6193190D01*
X16972786Y-6189381D01*
X16968976Y-6181762D01*
X16968976Y-6151286D01*
X16972786Y-6143667D01*
X16980405Y-6139857D01*
X16995643Y-6139857D01*
X17003262Y-6143667D01*
X17007071Y-6151286D01*
X17007071Y-6158905D01*
X16968976Y-6166524D01*
X17041357Y-6193190D02*
X17041357Y-6139857D01*
X17041357Y-6155095D02*
X17045167Y-6147476D01*
X17048976Y-6143667D01*
X17056595Y-6139857D01*
X17064214Y-6139857D01*
X17178500Y-6151286D02*
X17189929Y-6155095D01*
X17193738Y-6158905D01*
X17197548Y-6166524D01*
X17197548Y-6177952D01*
X17193738Y-6185571D01*
X17189929Y-6189381D01*
X17182310Y-6193190D01*
X17151833Y-6193190D01*
X17151833Y-6113190D01*
X17178500Y-6113190D01*
X17186119Y-6117000D01*
X17189929Y-6120809D01*
X17193738Y-6128428D01*
X17193738Y-6136048D01*
X17189929Y-6143667D01*
X17186119Y-6147476D01*
X17178500Y-6151286D01*
X17151833Y-6151286D01*
X17231833Y-6193190D02*
X17231833Y-6139857D01*
X17231833Y-6155095D02*
X17235643Y-6147476D01*
X17239452Y-6143667D01*
X17247071Y-6139857D01*
X17254690Y-6139857D01*
X17311833Y-6189381D02*
X17304214Y-6193190D01*
X17288976Y-6193190D01*
X17281357Y-6189381D01*
X17277548Y-6181762D01*
X17277548Y-6151286D01*
X17281357Y-6143667D01*
X17288976Y-6139857D01*
X17304214Y-6139857D01*
X17311833Y-6143667D01*
X17315643Y-6151286D01*
X17315643Y-6158905D01*
X17277548Y-6166524D01*
X17384214Y-6193190D02*
X17384214Y-6151286D01*
X17380405Y-6143667D01*
X17372786Y-6139857D01*
X17357548Y-6139857D01*
X17349929Y-6143667D01*
X17384214Y-6189381D02*
X17376595Y-6193190D01*
X17357548Y-6193190D01*
X17349929Y-6189381D01*
X17346119Y-6181762D01*
X17346119Y-6174143D01*
X17349929Y-6166524D01*
X17357548Y-6162714D01*
X17376595Y-6162714D01*
X17384214Y-6158905D01*
X17422310Y-6193190D02*
X17422310Y-6113190D01*
X17429929Y-6162714D02*
X17452786Y-6193190D01*
X17452786Y-6139857D02*
X17422310Y-6170333D01*
X17498500Y-6193190D02*
X17490881Y-6189381D01*
X17487071Y-6185571D01*
X17483262Y-6177952D01*
X17483262Y-6155095D01*
X17487071Y-6147476D01*
X17490881Y-6143667D01*
X17498500Y-6139857D01*
X17509929Y-6139857D01*
X17517548Y-6143667D01*
X17521357Y-6147476D01*
X17525167Y-6155095D01*
X17525167Y-6177952D01*
X17521357Y-6185571D01*
X17517548Y-6189381D01*
X17509929Y-6193190D01*
X17498500Y-6193190D01*
X17593738Y-6139857D02*
X17593738Y-6193190D01*
X17559452Y-6139857D02*
X17559452Y-6181762D01*
X17563262Y-6189381D01*
X17570881Y-6193190D01*
X17582310Y-6193190D01*
X17589929Y-6189381D01*
X17593738Y-6185571D01*
X17620405Y-6139857D02*
X17650881Y-6139857D01*
X17631833Y-6113190D02*
X17631833Y-6181762D01*
X17635643Y-6189381D01*
X17643262Y-6193190D01*
X17650881Y-6193190D01*
X16317548Y-6323190D02*
X16317548Y-6243190D01*
X16336595Y-6243190D01*
X16348024Y-6247000D01*
X16355643Y-6254619D01*
X16359452Y-6262238D01*
X16363262Y-6277476D01*
X16363262Y-6288905D01*
X16359452Y-6304143D01*
X16355643Y-6311762D01*
X16348024Y-6319381D01*
X16336595Y-6323190D01*
X16317548Y-6323190D01*
X16428024Y-6319381D02*
X16420405Y-6323190D01*
X16405167Y-6323190D01*
X16397548Y-6319381D01*
X16393738Y-6311762D01*
X16393738Y-6281286D01*
X16397548Y-6273667D01*
X16405167Y-6269857D01*
X16420405Y-6269857D01*
X16428024Y-6273667D01*
X16431833Y-6281286D01*
X16431833Y-6288905D01*
X16393738Y-6296524D01*
X16462309Y-6319381D02*
X16469928Y-6323190D01*
X16485167Y-6323190D01*
X16492786Y-6319381D01*
X16496595Y-6311762D01*
X16496595Y-6307952D01*
X16492786Y-6300333D01*
X16485167Y-6296524D01*
X16473738Y-6296524D01*
X16466119Y-6292714D01*
X16462309Y-6285095D01*
X16462309Y-6281286D01*
X16466119Y-6273667D01*
X16473738Y-6269857D01*
X16485167Y-6269857D01*
X16492786Y-6273667D01*
X16530881Y-6323190D02*
X16530881Y-6269857D01*
X16530881Y-6243190D02*
X16527071Y-6247000D01*
X16530881Y-6250809D01*
X16534690Y-6247000D01*
X16530881Y-6243190D01*
X16530881Y-6250809D01*
X16603262Y-6269857D02*
X16603262Y-6334619D01*
X16599452Y-6342238D01*
X16595643Y-6346048D01*
X16588024Y-6349857D01*
X16576595Y-6349857D01*
X16568976Y-6346048D01*
X16603262Y-6319381D02*
X16595643Y-6323190D01*
X16580405Y-6323190D01*
X16572786Y-6319381D01*
X16568976Y-6315571D01*
X16565167Y-6307952D01*
X16565167Y-6285095D01*
X16568976Y-6277476D01*
X16572786Y-6273667D01*
X16580405Y-6269857D01*
X16595643Y-6269857D01*
X16603262Y-6273667D01*
X16641357Y-6269857D02*
X16641357Y-6323190D01*
X16641357Y-6277476D02*
X16645167Y-6273667D01*
X16652786Y-6269857D01*
X16664214Y-6269857D01*
X16671833Y-6273667D01*
X16675643Y-6281286D01*
X16675643Y-6323190D01*
X16713738Y-6315571D02*
X16717548Y-6319381D01*
X16713738Y-6323190D01*
X16709928Y-6319381D01*
X16713738Y-6315571D01*
X16713738Y-6323190D01*
X16713738Y-6273667D02*
X16717548Y-6277476D01*
X16713738Y-6281286D01*
X16709928Y-6277476D01*
X16713738Y-6273667D01*
X16713738Y-6281286D01*
X16850881Y-6323190D02*
X16812786Y-6323190D01*
X16812786Y-6243190D01*
X16911833Y-6323190D02*
X16911833Y-6281286D01*
X16908024Y-6273667D01*
X16900405Y-6269857D01*
X16885167Y-6269857D01*
X16877548Y-6273667D01*
X16911833Y-6319381D02*
X16904214Y-6323190D01*
X16885167Y-6323190D01*
X16877548Y-6319381D01*
X16873738Y-6311762D01*
X16873738Y-6304143D01*
X16877548Y-6296524D01*
X16885167Y-6292714D01*
X16904214Y-6292714D01*
X16911833Y-6288905D01*
X16949929Y-6323190D02*
X16949929Y-6269857D01*
X16949929Y-6285095D02*
X16953738Y-6277476D01*
X16957548Y-6273667D01*
X16965167Y-6269857D01*
X16972786Y-6269857D01*
X16995643Y-6319381D02*
X17003262Y-6323190D01*
X17018500Y-6323190D01*
X17026119Y-6319381D01*
X17029929Y-6311762D01*
X17029929Y-6307952D01*
X17026119Y-6300333D01*
X17018500Y-6296524D01*
X17007071Y-6296524D01*
X16999452Y-6292714D01*
X16995643Y-6285095D01*
X16995643Y-6281286D01*
X16999452Y-6273667D01*
X17007071Y-6269857D01*
X17018500Y-6269857D01*
X17026119Y-6273667D01*
X17125167Y-6323190D02*
X17125167Y-6243190D01*
X17155643Y-6243190D01*
X17163262Y-6247000D01*
X17167071Y-6250809D01*
X17170881Y-6258428D01*
X17170881Y-6269857D01*
X17167071Y-6277476D01*
X17163262Y-6281286D01*
X17155643Y-6285095D01*
X17125167Y-6285095D01*
X17239452Y-6323190D02*
X17239452Y-6281286D01*
X17235643Y-6273667D01*
X17228024Y-6269857D01*
X17212786Y-6269857D01*
X17205167Y-6273667D01*
X17239452Y-6319381D02*
X17231833Y-6323190D01*
X17212786Y-6323190D01*
X17205167Y-6319381D01*
X17201357Y-6311762D01*
X17201357Y-6304143D01*
X17205167Y-6296524D01*
X17212786Y-6292714D01*
X17231833Y-6292714D01*
X17239452Y-6288905D01*
X17311833Y-6269857D02*
X17311833Y-6323190D01*
X17277548Y-6269857D02*
X17277548Y-6311762D01*
X17281357Y-6319381D01*
X17288976Y-6323190D01*
X17300405Y-6323190D01*
X17308024Y-6319381D01*
X17311833Y-6315571D01*
X17346119Y-6319381D02*
X17353738Y-6323190D01*
X17368976Y-6323190D01*
X17376595Y-6319381D01*
X17380405Y-6311762D01*
X17380405Y-6307952D01*
X17376595Y-6300333D01*
X17368976Y-6296524D01*
X17357548Y-6296524D01*
X17349929Y-6292714D01*
X17346119Y-6285095D01*
X17346119Y-6281286D01*
X17349929Y-6273667D01*
X17357548Y-6269857D01*
X17368976Y-6269857D01*
X17376595Y-6273667D01*
X17445167Y-6319381D02*
X17437548Y-6323190D01*
X17422310Y-6323190D01*
X17414690Y-6319381D01*
X17410881Y-6311762D01*
X17410881Y-6281286D01*
X17414690Y-6273667D01*
X17422310Y-6269857D01*
X17437548Y-6269857D01*
X17445167Y-6273667D01*
X17448976Y-6281286D01*
X17448976Y-6288905D01*
X17410881Y-6296524D01*
X16317548Y-6453190D02*
X16317548Y-6373190D01*
X16336595Y-6373190D01*
X16348024Y-6377000D01*
X16355643Y-6384619D01*
X16359452Y-6392238D01*
X16363262Y-6407476D01*
X16363262Y-6418905D01*
X16359452Y-6434143D01*
X16355643Y-6441762D01*
X16348024Y-6449381D01*
X16336595Y-6453190D01*
X16317548Y-6453190D01*
X16431833Y-6453190D02*
X16431833Y-6411286D01*
X16428024Y-6403667D01*
X16420405Y-6399857D01*
X16405167Y-6399857D01*
X16397548Y-6403667D01*
X16431833Y-6449381D02*
X16424214Y-6453190D01*
X16405167Y-6453190D01*
X16397548Y-6449381D01*
X16393738Y-6441762D01*
X16393738Y-6434143D01*
X16397548Y-6426524D01*
X16405167Y-6422714D01*
X16424214Y-6422714D01*
X16431833Y-6418905D01*
X16458500Y-6399857D02*
X16488976Y-6399857D01*
X16469928Y-6373190D02*
X16469928Y-6441762D01*
X16473738Y-6449381D01*
X16481357Y-6453190D01*
X16488976Y-6453190D01*
X16546119Y-6449381D02*
X16538500Y-6453190D01*
X16523262Y-6453190D01*
X16515643Y-6449381D01*
X16511833Y-6441762D01*
X16511833Y-6411286D01*
X16515643Y-6403667D01*
X16523262Y-6399857D01*
X16538500Y-6399857D01*
X16546119Y-6403667D01*
X16549928Y-6411286D01*
X16549928Y-6418905D01*
X16511833Y-6426524D01*
X16584214Y-6445571D02*
X16588024Y-6449381D01*
X16584214Y-6453190D01*
X16580405Y-6449381D01*
X16584214Y-6445571D01*
X16584214Y-6453190D01*
X16584214Y-6403667D02*
X16588024Y-6407476D01*
X16584214Y-6411286D01*
X16580405Y-6407476D01*
X16584214Y-6403667D01*
X16584214Y-6411286D01*
X16679452Y-6380809D02*
X16683262Y-6377000D01*
X16690881Y-6373190D01*
X16709928Y-6373190D01*
X16717548Y-6377000D01*
X16721357Y-6380809D01*
X16725167Y-6388428D01*
X16725167Y-6396048D01*
X16721357Y-6407476D01*
X16675643Y-6453190D01*
X16725167Y-6453190D01*
X16774690Y-6373190D02*
X16782310Y-6373190D01*
X16789929Y-6377000D01*
X16793738Y-6380809D01*
X16797548Y-6388428D01*
X16801357Y-6403667D01*
X16801357Y-6422714D01*
X16797548Y-6437952D01*
X16793738Y-6445571D01*
X16789929Y-6449381D01*
X16782310Y-6453190D01*
X16774690Y-6453190D01*
X16767071Y-6449381D01*
X16763262Y-6445571D01*
X16759452Y-6437952D01*
X16755643Y-6422714D01*
X16755643Y-6403667D01*
X16759452Y-6388428D01*
X16763262Y-6380809D01*
X16767071Y-6377000D01*
X16774690Y-6373190D01*
X16831833Y-6380809D02*
X16835643Y-6377000D01*
X16843262Y-6373190D01*
X16862310Y-6373190D01*
X16869929Y-6377000D01*
X16873738Y-6380809D01*
X16877548Y-6388428D01*
X16877548Y-6396048D01*
X16873738Y-6407476D01*
X16828024Y-6453190D01*
X16877548Y-6453190D01*
X16953738Y-6453190D02*
X16908024Y-6453190D01*
X16930881Y-6453190D02*
X16930881Y-6373190D01*
X16923262Y-6384619D01*
X16915643Y-6392238D01*
X16908024Y-6396048D01*
X16988024Y-6422714D02*
X17048976Y-6422714D01*
X17128976Y-6453190D02*
X17083262Y-6453190D01*
X17106119Y-6453190D02*
X17106119Y-6373190D01*
X17098500Y-6384619D01*
X17090881Y-6392238D01*
X17083262Y-6396048D01*
X17178500Y-6373190D02*
X17186119Y-6373190D01*
X17193738Y-6377000D01*
X17197548Y-6380809D01*
X17201357Y-6388428D01*
X17205167Y-6403667D01*
X17205167Y-6422714D01*
X17201357Y-6437952D01*
X17197548Y-6445571D01*
X17193738Y-6449381D01*
X17186119Y-6453190D01*
X17178500Y-6453190D01*
X17170881Y-6449381D01*
X17167071Y-6445571D01*
X17163262Y-6437952D01*
X17159452Y-6422714D01*
X17159452Y-6403667D01*
X17163262Y-6388428D01*
X17167071Y-6380809D01*
X17170881Y-6377000D01*
X17178500Y-6373190D01*
X16306119Y-6503190D02*
X16332786Y-6583190D01*
X16359452Y-6503190D01*
X16416595Y-6579381D02*
X16408976Y-6583190D01*
X16393738Y-6583190D01*
X16386119Y-6579381D01*
X16382309Y-6571762D01*
X16382309Y-6541286D01*
X16386119Y-6533667D01*
X16393738Y-6529857D01*
X16408976Y-6529857D01*
X16416595Y-6533667D01*
X16420405Y-6541286D01*
X16420405Y-6548905D01*
X16382309Y-6556524D01*
X16454690Y-6583190D02*
X16454690Y-6529857D01*
X16454690Y-6545095D02*
X16458500Y-6537476D01*
X16462309Y-6533667D01*
X16469928Y-6529857D01*
X16477548Y-6529857D01*
X16500405Y-6579381D02*
X16508024Y-6583190D01*
X16523262Y-6583190D01*
X16530881Y-6579381D01*
X16534690Y-6571762D01*
X16534690Y-6567952D01*
X16530881Y-6560333D01*
X16523262Y-6556524D01*
X16511833Y-6556524D01*
X16504214Y-6552714D01*
X16500405Y-6545095D01*
X16500405Y-6541286D01*
X16504214Y-6533667D01*
X16511833Y-6529857D01*
X16523262Y-6529857D01*
X16530881Y-6533667D01*
X16568976Y-6583190D02*
X16568976Y-6529857D01*
X16568976Y-6503190D02*
X16565167Y-6507000D01*
X16568976Y-6510809D01*
X16572786Y-6507000D01*
X16568976Y-6503190D01*
X16568976Y-6510809D01*
X16618500Y-6583190D02*
X16610881Y-6579381D01*
X16607071Y-6575571D01*
X16603262Y-6567952D01*
X16603262Y-6545095D01*
X16607071Y-6537476D01*
X16610881Y-6533667D01*
X16618500Y-6529857D01*
X16629928Y-6529857D01*
X16637548Y-6533667D01*
X16641357Y-6537476D01*
X16645167Y-6545095D01*
X16645167Y-6567952D01*
X16641357Y-6575571D01*
X16637548Y-6579381D01*
X16629928Y-6583190D01*
X16618500Y-6583190D01*
X16679452Y-6529857D02*
X16679452Y-6583190D01*
X16679452Y-6537476D02*
X16683262Y-6533667D01*
X16690881Y-6529857D01*
X16702309Y-6529857D01*
X16709928Y-6533667D01*
X16713738Y-6541286D01*
X16713738Y-6583190D01*
X16751833Y-6575571D02*
X16755643Y-6579381D01*
X16751833Y-6583190D01*
X16748024Y-6579381D01*
X16751833Y-6575571D01*
X16751833Y-6583190D01*
X16751833Y-6533667D02*
X16755643Y-6537476D01*
X16751833Y-6541286D01*
X16748024Y-6537476D01*
X16751833Y-6533667D01*
X16751833Y-6541286D01*
X16892786Y-6583190D02*
X16847071Y-6583190D01*
X16869929Y-6583190D02*
X16869929Y-6503190D01*
X16862310Y-6514619D01*
X16854690Y-6522238D01*
X16847071Y-6526048D01*
X16927071Y-6575571D02*
X16930881Y-6579381D01*
X16927071Y-6583190D01*
X16923262Y-6579381D01*
X16927071Y-6575571D01*
X16927071Y-6583190D01*
X16980405Y-6503190D02*
X16988024Y-6503190D01*
X16995643Y-6507000D01*
X16999452Y-6510809D01*
X17003262Y-6518428D01*
X17007071Y-6533667D01*
X17007071Y-6552714D01*
X17003262Y-6567952D01*
X16999452Y-6575571D01*
X16995643Y-6579381D01*
X16988024Y-6583190D01*
X16980405Y-6583190D01*
X16972786Y-6579381D01*
X16968976Y-6575571D01*
X16965167Y-6567952D01*
X16961357Y-6552714D01*
X16961357Y-6533667D01*
X16965167Y-6518428D01*
X16968976Y-6510809D01*
X16972786Y-6507000D01*
X16980405Y-6503190D01*
D11*
%TO.C,U6*%
X4400000Y-13190000D02*
X5320000Y-13190000D01*
X4400000Y-12410000D02*
X5320000Y-12410000D01*
X4400000Y-12410000D02*
X4400000Y-13190000D01*
D12*
X4370000Y-11660000D02*
X4370000Y-13946000D01*
X8561000Y-11279000D02*
X4751000Y-11279000D01*
X8942000Y-13946000D02*
X8942000Y-11660000D01*
X4751000Y-14327000D02*
X8561000Y-14327000D01*
D11*
X9590000Y-12060000D02*
X9590000Y-13540000D01*
X9590000Y-13540000D02*
X8950000Y-13540000D01*
X9590000Y-12060000D02*
X8950000Y-12060000D01*
D12*
X4370000Y-11660000D02*
G75*
G02*
X4751000Y-11279000I381000J0D01*
G01*
X8561000Y-11279000D02*
G75*
G02*
X8942000Y-11660000I0J-381000D01*
G01*
X8942000Y-13946000D02*
G75*
G02*
X8561000Y-14327000I-381000J0D01*
G01*
X4751000Y-14327000D02*
G75*
G02*
X4370000Y-13946000I0J381000D01*
G01*
D11*
%TO.C,R11*%
X6974794Y-7311000D02*
X7120206Y-7311000D01*
X6974794Y-7129000D02*
X7120206Y-7129000D01*
%TO.C,R10*%
X6974794Y-7641000D02*
X7120206Y-7641000D01*
X6974794Y-7459000D02*
X7120206Y-7459000D01*
%TO.C,JP1*%
X16740000Y-7990000D02*
X16740000Y-8190000D01*
X16460000Y-7990000D02*
X16740000Y-7990000D01*
X16460000Y-8190000D02*
X16460000Y-7990000D01*
X16740000Y-8190000D02*
X16460000Y-8190000D01*
%TO.C,D3*%
X17255000Y-7950000D02*
X16925000Y-7950000D01*
X16925000Y-7950000D02*
X16925000Y-8490000D01*
X17255000Y-7950000D02*
X17255000Y-8490000D01*
%TO.C,C6*%
X11319000Y-7416558D02*
X11319000Y-7388442D01*
X11421000Y-7416558D02*
X11421000Y-7388442D01*
%TO.C,C5*%
X16446000Y-11408942D02*
X16446000Y-11437058D01*
X16344000Y-11408942D02*
X16344000Y-11437058D01*
%TO.C,U5*%
X16461000Y-11130000D02*
X16461000Y-10885000D01*
X16139000Y-10950000D02*
X16139000Y-11130000D01*
%TO.C,C3*%
X9304058Y-10561000D02*
X9275942Y-10561000D01*
X9304058Y-10459000D02*
X9275942Y-10459000D01*
%TO.C,C4*%
X9461125Y-10946000D02*
X9318875Y-10946000D01*
X9461125Y-10674000D02*
X9318875Y-10674000D01*
%TO.C,R6*%
X10867294Y-9236500D02*
X10912706Y-9236500D01*
X10867294Y-9383500D02*
X10912706Y-9383500D01*
%TO.C,R8*%
X10867294Y-9761500D02*
X10912706Y-9761500D01*
X10867294Y-9908500D02*
X10912706Y-9908500D01*
%TO.C,R3*%
X8264106Y-9907200D02*
X8118694Y-9907200D01*
X8264106Y-9725200D02*
X8118694Y-9725200D01*
%TO.C,R1*%
X8264106Y-9407200D02*
X8118694Y-9407200D01*
X8264106Y-9225200D02*
X8118694Y-9225200D01*
%TO.C,U4*%
X9840000Y-9109000D02*
X9454000Y-9109000D01*
X9454000Y-9109000D02*
X9454000Y-9132500D01*
X9840000Y-9109000D02*
X10226000Y-9109000D01*
X10226000Y-9109000D02*
X10226000Y-9132500D01*
X9840000Y-10411000D02*
X9454000Y-10411000D01*
X9454000Y-10411000D02*
X9454000Y-10387500D01*
X9840000Y-10411000D02*
X10226000Y-10411000D01*
X10226000Y-10411000D02*
X10226000Y-10387500D01*
X10226000Y-10387500D02*
X10407500Y-10387500D01*
%TO.C,R4*%
X8264106Y-10157200D02*
X8118694Y-10157200D01*
X8264106Y-9975200D02*
X8118694Y-9975200D01*
%TO.C,R7*%
X10867294Y-9486500D02*
X10912706Y-9486500D01*
X10867294Y-9633500D02*
X10912706Y-9633500D01*
%TO.C,R2*%
X8264106Y-9657200D02*
X8118694Y-9657200D01*
X8264106Y-9475200D02*
X8118694Y-9475200D01*
%TO.C,R9*%
X10867294Y-10011500D02*
X10912706Y-10011500D01*
X10867294Y-10158500D02*
X10912706Y-10158500D01*
%TO.C,R17*%
X6471750Y-7151456D02*
X6471750Y-7106044D01*
X6618750Y-7151456D02*
X6618750Y-7106044D01*
%TO.C,R16*%
X6613500Y-7618544D02*
X6613500Y-7663956D01*
X6466500Y-7618544D02*
X6466500Y-7663956D01*
%TO.C,J10*%
X11687000Y-7707000D02*
X11820000Y-7707000D01*
X11687000Y-7840000D02*
X11687000Y-7707000D01*
X11687000Y-7967000D02*
X11953000Y-7967000D01*
X11953000Y-7967000D02*
X11953000Y-12799000D01*
X11687000Y-7967000D02*
X11687000Y-12799000D01*
X11687000Y-12799000D02*
X11953000Y-12799000D01*
%TO.C,J1*%
X5816000Y-7167000D02*
X5927000Y-7167000D01*
X5927000Y-7167000D02*
X5927000Y-7300000D01*
X4553000Y-7167000D02*
X4553000Y-8703000D01*
X4553000Y-8703000D02*
X5416000Y-8703000D01*
X5416000Y-7167000D02*
X5416000Y-8703000D01*
X4553000Y-7167000D02*
X5416000Y-7167000D01*
X4553000Y-8443000D02*
X5416000Y-8443000D01*
X4553000Y-8189000D02*
X5416000Y-8189000D01*
X4553000Y-7935000D02*
X5416000Y-7935000D01*
X4553000Y-7681000D02*
X5416000Y-7681000D01*
X4553000Y-7427000D02*
X5416000Y-7427000D01*
X5667000Y-8606000D02*
X5711000Y-8606000D01*
X5416000Y-8606000D02*
X5457000Y-8606000D01*
X5667000Y-8534000D02*
X5711000Y-8534000D01*
X5416000Y-8534000D02*
X5457000Y-8534000D01*
X5667000Y-8352000D02*
X5711000Y-8352000D01*
X5416000Y-8352000D02*
X5457000Y-8352000D01*
X5667000Y-8280000D02*
X5711000Y-8280000D01*
X5416000Y-8280000D02*
X5457000Y-8280000D01*
X5667000Y-8098000D02*
X5711000Y-8098000D01*
X5416000Y-8098000D02*
X5457000Y-8098000D01*
X5667000Y-8026000D02*
X5711000Y-8026000D01*
X5416000Y-8026000D02*
X5457000Y-8026000D01*
X5667000Y-7844000D02*
X5711000Y-7844000D01*
X5416000Y-7844000D02*
X5457000Y-7844000D01*
X5667000Y-7772000D02*
X5711000Y-7772000D01*
X5416000Y-7772000D02*
X5457000Y-7772000D01*
X5667000Y-7590000D02*
X5711000Y-7590000D01*
X5416000Y-7590000D02*
X5457000Y-7590000D01*
X5667000Y-7518000D02*
X5711000Y-7518000D01*
X5416000Y-7518000D02*
X5457000Y-7518000D01*
X5667000Y-7336000D02*
X5705000Y-7336000D01*
X5416000Y-7336000D02*
X5457000Y-7336000D01*
X5667000Y-7264000D02*
X5705000Y-7264000D01*
X5416000Y-7264000D02*
X5457000Y-7264000D01*
X4553000Y-7415190D02*
X5416000Y-7415190D01*
X4553000Y-7403380D02*
X5416000Y-7403380D01*
X4553000Y-7391571D02*
X5416000Y-7391571D01*
X4553000Y-7379761D02*
X5416000Y-7379761D01*
X4553000Y-7367952D02*
X5416000Y-7367952D01*
X4553000Y-7356142D02*
X5416000Y-7356142D01*
X4553000Y-7344333D02*
X5416000Y-7344333D01*
X4553000Y-7332523D02*
X5416000Y-7332523D01*
X4553000Y-7320714D02*
X5416000Y-7320714D01*
X4553000Y-7308904D02*
X5416000Y-7308904D01*
X4553000Y-7297095D02*
X5416000Y-7297095D01*
X4553000Y-7285285D02*
X5416000Y-7285285D01*
X4553000Y-7273476D02*
X5416000Y-7273476D01*
X4553000Y-7261666D02*
X5416000Y-7261666D01*
X4553000Y-7249857D02*
X5416000Y-7249857D01*
X4553000Y-7238047D02*
X5416000Y-7238047D01*
X4553000Y-7226238D02*
X5416000Y-7226238D01*
X4553000Y-7214428D02*
X5416000Y-7214428D01*
X4553000Y-7202619D02*
X5416000Y-7202619D01*
X4553000Y-7190809D02*
X5416000Y-7190809D01*
X4553000Y-7179000D02*
X5416000Y-7179000D01*
%TO.C,U3*%
X18312000Y-11432000D02*
X17288000Y-11432000D01*
X18312000Y-13021000D02*
X17288000Y-13021000D01*
X18312000Y-13021000D02*
X18312000Y-11432000D01*
X17288000Y-13021000D02*
X17288000Y-11432000D01*
X18054000Y-11432000D02*
X18054000Y-11178000D01*
X17800000Y-11432000D02*
X17800000Y-11178000D01*
X17546000Y-11432000D02*
X17546000Y-11178000D01*
%TO.C,U1*%
X13790000Y-12800000D02*
X13830000Y-12800000D01*
X13530000Y-12800000D02*
X13570000Y-12800000D01*
X14730000Y-12800000D02*
X14050000Y-12800000D01*
X14730000Y-11760000D02*
X14730000Y-11800000D01*
X14730000Y-10990000D02*
X14730000Y-11030000D01*
X14730000Y-8450000D02*
X14730000Y-8490000D01*
X14730000Y-7700000D02*
X14730000Y-7730000D01*
X14730000Y-9980000D02*
X14730000Y-10020000D01*
X14730000Y-11500000D02*
X14730000Y-11540000D01*
X14730000Y-9470000D02*
X14730000Y-9510000D01*
X14730000Y-8960000D02*
X14730000Y-9000000D01*
X14730000Y-10230000D02*
X14730000Y-10270000D01*
X14730000Y-10740000D02*
X14730000Y-10780000D01*
X14730000Y-12260000D02*
X14730000Y-12300000D01*
X14730000Y-12520000D02*
X14730000Y-12560000D01*
X14730000Y-12010000D02*
X14730000Y-12050000D01*
X14730000Y-8710000D02*
X14730000Y-8750000D01*
X14730000Y-7940000D02*
X14730000Y-7980000D01*
X14730000Y-8200000D02*
X14730000Y-8240000D01*
X14730000Y-11250000D02*
X14730000Y-11290000D01*
X14730000Y-10480000D02*
X14730000Y-10520000D01*
X14730000Y-9720000D02*
X14730000Y-9760000D01*
X14730000Y-9210000D02*
X14730000Y-9250000D01*
X12630000Y-12520000D02*
X12630000Y-12560000D01*
X12630000Y-12260000D02*
X12630000Y-12300000D01*
X12630000Y-12010000D02*
X12630000Y-12050000D01*
X12630000Y-11760000D02*
X12630000Y-11800000D01*
X12630000Y-11500000D02*
X12630000Y-11540000D01*
X12630000Y-11250000D02*
X12630000Y-11290000D01*
X12630000Y-10990000D02*
X12630000Y-11030000D01*
X12630000Y-10740000D02*
X12630000Y-10780000D01*
X12630000Y-10480000D02*
X12630000Y-10520000D01*
X12630000Y-10230000D02*
X12630000Y-10270000D01*
X12630000Y-9980000D02*
X12630000Y-10020000D01*
X12630000Y-9720000D02*
X12630000Y-9760000D01*
X12630000Y-9470000D02*
X12630000Y-9510000D01*
X12630000Y-9210000D02*
X12630000Y-9250000D01*
X12630000Y-8960000D02*
X12630000Y-9000000D01*
X12630000Y-8710000D02*
X12630000Y-8750000D01*
X12630000Y-8450000D02*
X12630000Y-8490000D01*
X12630000Y-8200000D02*
X12630000Y-8240000D01*
X12630000Y-7940000D02*
X12630000Y-7980000D01*
X12630000Y-7700000D02*
X12630000Y-7730000D01*
X12930700Y-7966700D02*
X12930700Y-7700000D01*
X12630000Y-7966700D02*
X12930700Y-7966700D01*
X13310000Y-12800000D02*
X12630000Y-12800000D01*
X12630000Y-7700000D02*
X14730000Y-7700000D01*
%TO.C,J9*%
X13297000Y-13673000D02*
X13297000Y-13540000D01*
X13430000Y-13673000D02*
X13297000Y-13673000D01*
X13557000Y-13673000D02*
X13557000Y-13407000D01*
X13557000Y-13407000D02*
X14071000Y-13407000D01*
X13557000Y-13673000D02*
X14071000Y-13673000D01*
X14071000Y-13673000D02*
X14071000Y-13407000D01*
%TO.C,J8*%
X15703000Y-12796000D02*
X15570000Y-12796000D01*
X15703000Y-12663000D02*
X15703000Y-12796000D01*
X15703000Y-12536000D02*
X15437000Y-12536000D01*
X15437000Y-12536000D02*
X15437000Y-7704000D01*
X15703000Y-12536000D02*
X15703000Y-7704000D01*
X15703000Y-7704000D02*
X15437000Y-7704000D01*
%TO.C,U2*%
X11170000Y-7906000D02*
X11350000Y-7906000D01*
X11350000Y-7584000D02*
X11105000Y-7584000D01*
%TO.C,J6*%
X19570000Y-14511700D02*
X19570000Y-13876700D01*
X20100000Y-14511700D02*
X19570000Y-14511700D01*
X20100000Y-5088300D02*
X20100000Y-14511700D01*
X19570000Y-5088300D02*
X20100000Y-5088300D01*
X19570000Y-5088300D02*
X19570000Y-5723300D01*
D13*
%TO.C,LOGO2*%
G36*
X16380336Y-5632247D02*
G01*
X16383859Y-5633987D01*
X16388204Y-5637021D01*
X16391371Y-5640328D01*
X16393539Y-5644482D01*
X16394890Y-5650052D01*
X16395604Y-5657611D01*
X16395860Y-5667730D01*
X16395875Y-5672080D01*
X16395831Y-5681613D01*
X16395650Y-5688427D01*
X16395254Y-5693142D01*
X16394570Y-5696379D01*
X16393521Y-5698760D01*
X16392430Y-5700384D01*
X16385462Y-5707295D01*
X16377257Y-5711452D01*
X16368405Y-5712702D01*
X16359498Y-5710893D01*
X16356676Y-5709614D01*
X16349921Y-5706093D01*
X16349921Y-5761270D01*
X16354851Y-5758720D01*
X16361347Y-5756748D01*
X16369332Y-5756243D01*
X16377305Y-5757176D01*
X16383326Y-5759271D01*
X16388321Y-5763263D01*
X16392588Y-5768974D01*
X16392909Y-5769560D01*
X16394262Y-5772323D01*
X16395250Y-5775107D01*
X16395931Y-5778479D01*
X16396360Y-5783007D01*
X16396595Y-5789256D01*
X16396693Y-5797793D01*
X16396710Y-5807401D01*
X16396710Y-5838053D01*
X16378329Y-5838053D01*
X16378329Y-5781534D01*
X16373187Y-5777208D01*
X16367847Y-5773747D01*
X16362789Y-5773118D01*
X16357703Y-5774737D01*
X16354992Y-5776323D01*
X16352975Y-5778581D01*
X16351540Y-5781994D01*
X16350578Y-5787043D01*
X16349976Y-5794211D01*
X16349626Y-5803979D01*
X16349503Y-5810480D01*
X16349085Y-5837217D01*
X16340312Y-5837722D01*
X16331539Y-5838227D01*
X16331539Y-5672310D01*
X16349921Y-5672310D01*
X16350390Y-5681560D01*
X16351969Y-5687981D01*
X16354918Y-5691976D01*
X16359498Y-5693948D01*
X16364125Y-5694342D01*
X16369363Y-5693889D01*
X16372839Y-5692107D01*
X16375013Y-5689752D01*
X16376724Y-5687219D01*
X16377743Y-5684397D01*
X16378196Y-5680443D01*
X16378211Y-5674514D01*
X16378058Y-5669550D01*
X16377708Y-5662071D01*
X16377187Y-5657161D01*
X16376309Y-5654047D01*
X16374889Y-5651954D01*
X16373548Y-5650745D01*
X16367949Y-5648108D01*
X16361321Y-5647682D01*
X16357516Y-5648591D01*
X16353748Y-5651820D01*
X16351252Y-5658101D01*
X16350042Y-5667389D01*
X16349921Y-5672310D01*
X16331539Y-5672310D01*
X16331539Y-5630842D01*
X16340730Y-5630842D01*
X16346248Y-5631060D01*
X16349095Y-5631835D01*
X16349921Y-5633347D01*
X16349921Y-5633392D01*
X16350304Y-5634872D01*
X16351993Y-5634704D01*
X16355352Y-5633077D01*
X16363178Y-5630589D01*
X16371983Y-5630327D01*
X16380336Y-5632247D01*
G37*
X16380336Y-5632247D02*
X16383859Y-5633987D01*
X16388204Y-5637021D01*
X16391371Y-5640328D01*
X16393539Y-5644482D01*
X16394890Y-5650052D01*
X16395604Y-5657611D01*
X16395860Y-5667730D01*
X16395875Y-5672080D01*
X16395831Y-5681613D01*
X16395650Y-5688427D01*
X16395254Y-5693142D01*
X16394570Y-5696379D01*
X16393521Y-5698760D01*
X16392430Y-5700384D01*
X16385462Y-5707295D01*
X16377257Y-5711452D01*
X16368405Y-5712702D01*
X16359498Y-5710893D01*
X16356676Y-5709614D01*
X16349921Y-5706093D01*
X16349921Y-5761270D01*
X16354851Y-5758720D01*
X16361347Y-5756748D01*
X16369332Y-5756243D01*
X16377305Y-5757176D01*
X16383326Y-5759271D01*
X16388321Y-5763263D01*
X16392588Y-5768974D01*
X16392909Y-5769560D01*
X16394262Y-5772323D01*
X16395250Y-5775107D01*
X16395931Y-5778479D01*
X16396360Y-5783007D01*
X16396595Y-5789256D01*
X16396693Y-5797793D01*
X16396710Y-5807401D01*
X16396710Y-5838053D01*
X16378329Y-5838053D01*
X16378329Y-5781534D01*
X16373187Y-5777208D01*
X16367847Y-5773747D01*
X16362789Y-5773118D01*
X16357703Y-5774737D01*
X16354992Y-5776323D01*
X16352975Y-5778581D01*
X16351540Y-5781994D01*
X16350578Y-5787043D01*
X16349976Y-5794211D01*
X16349626Y-5803979D01*
X16349503Y-5810480D01*
X16349085Y-5837217D01*
X16340312Y-5837722D01*
X16331539Y-5838227D01*
X16331539Y-5672310D01*
X16349921Y-5672310D01*
X16350390Y-5681560D01*
X16351969Y-5687981D01*
X16354918Y-5691976D01*
X16359498Y-5693948D01*
X16364125Y-5694342D01*
X16369363Y-5693889D01*
X16372839Y-5692107D01*
X16375013Y-5689752D01*
X16376724Y-5687219D01*
X16377743Y-5684397D01*
X16378196Y-5680443D01*
X16378211Y-5674514D01*
X16378058Y-5669550D01*
X16377708Y-5662071D01*
X16377187Y-5657161D01*
X16376309Y-5654047D01*
X16374889Y-5651954D01*
X16373548Y-5650745D01*
X16367949Y-5648108D01*
X16361321Y-5647682D01*
X16357516Y-5648591D01*
X16353748Y-5651820D01*
X16351252Y-5658101D01*
X16350042Y-5667389D01*
X16349921Y-5672310D01*
X16331539Y-5672310D01*
X16331539Y-5630842D01*
X16340730Y-5630842D01*
X16346248Y-5631060D01*
X16349095Y-5631835D01*
X16349921Y-5633347D01*
X16349921Y-5633392D01*
X16350304Y-5634872D01*
X16351993Y-5634704D01*
X16355352Y-5633077D01*
X16363178Y-5630589D01*
X16371983Y-5630327D01*
X16380336Y-5632247D01*
G36*
X16450046Y-5756818D02*
G01*
X16457907Y-5758916D01*
X16463892Y-5762718D01*
X16468115Y-5767698D01*
X16469427Y-5769823D01*
X16470397Y-5772049D01*
X16471074Y-5774897D01*
X16471512Y-5778887D01*
X16471762Y-5784540D01*
X16471877Y-5792377D01*
X16471907Y-5802918D01*
X16471908Y-5805714D01*
X16471908Y-5838053D01*
X16463887Y-5838053D01*
X16458771Y-5837694D01*
X16454988Y-5836787D01*
X16454040Y-5836227D01*
X16451449Y-5835261D01*
X16448802Y-5836227D01*
X16444445Y-5837433D01*
X16438116Y-5837918D01*
X16431101Y-5837708D01*
X16424686Y-5836826D01*
X16420941Y-5835694D01*
X16413693Y-5831041D01*
X16409164Y-5824585D01*
X16407128Y-5816000D01*
X16407109Y-5815780D01*
X16407287Y-5811971D01*
X16423447Y-5811971D01*
X16424860Y-5816303D01*
X16427161Y-5818741D01*
X16431780Y-5820584D01*
X16437877Y-5821320D01*
X16444095Y-5820958D01*
X16449075Y-5819507D01*
X16450470Y-5818576D01*
X16452908Y-5814275D01*
X16453526Y-5809386D01*
X16453526Y-5802960D01*
X16444282Y-5802960D01*
X16435499Y-5803637D01*
X16428842Y-5805552D01*
X16424700Y-5808538D01*
X16423447Y-5811971D01*
X16407287Y-5811971D01*
X16407549Y-5806400D01*
X16410642Y-5798985D01*
X16416458Y-5793377D01*
X16417262Y-5792866D01*
X16420716Y-5791205D01*
X16424992Y-5790200D01*
X16430969Y-5789711D01*
X16438069Y-5789598D01*
X16453526Y-5789592D01*
X16453526Y-5783112D01*
X16452871Y-5778085D01*
X16451197Y-5774717D01*
X16451002Y-5774538D01*
X16447278Y-5773064D01*
X16441658Y-5772493D01*
X16435447Y-5772774D01*
X16429951Y-5773856D01*
X16426690Y-5775478D01*
X16424923Y-5776778D01*
X16423057Y-5777026D01*
X16420482Y-5775961D01*
X16416587Y-5773322D01*
X16410763Y-5768846D01*
X16410228Y-5768427D01*
X16410502Y-5766876D01*
X16412788Y-5764296D01*
X16416261Y-5761429D01*
X16420099Y-5759017D01*
X16421305Y-5758447D01*
X16425703Y-5757310D01*
X16432149Y-5756499D01*
X16439350Y-5756174D01*
X16439686Y-5756174D01*
X16450046Y-5756818D01*
G37*
X16450046Y-5756818D02*
X16457907Y-5758916D01*
X16463892Y-5762718D01*
X16468115Y-5767698D01*
X16469427Y-5769823D01*
X16470397Y-5772049D01*
X16471074Y-5774897D01*
X16471512Y-5778887D01*
X16471762Y-5784540D01*
X16471877Y-5792377D01*
X16471907Y-5802918D01*
X16471908Y-5805714D01*
X16471908Y-5838053D01*
X16463887Y-5838053D01*
X16458771Y-5837694D01*
X16454988Y-5836787D01*
X16454040Y-5836227D01*
X16451449Y-5835261D01*
X16448802Y-5836227D01*
X16444445Y-5837433D01*
X16438116Y-5837918D01*
X16431101Y-5837708D01*
X16424686Y-5836826D01*
X16420941Y-5835694D01*
X16413693Y-5831041D01*
X16409164Y-5824585D01*
X16407128Y-5816000D01*
X16407109Y-5815780D01*
X16407287Y-5811971D01*
X16423447Y-5811971D01*
X16424860Y-5816303D01*
X16427161Y-5818741D01*
X16431780Y-5820584D01*
X16437877Y-5821320D01*
X16444095Y-5820958D01*
X16449075Y-5819507D01*
X16450470Y-5818576D01*
X16452908Y-5814275D01*
X16453526Y-5809386D01*
X16453526Y-5802960D01*
X16444282Y-5802960D01*
X16435499Y-5803637D01*
X16428842Y-5805552D01*
X16424700Y-5808538D01*
X16423447Y-5811971D01*
X16407287Y-5811971D01*
X16407549Y-5806400D01*
X16410642Y-5798985D01*
X16416458Y-5793377D01*
X16417262Y-5792866D01*
X16420716Y-5791205D01*
X16424992Y-5790200D01*
X16430969Y-5789711D01*
X16438069Y-5789598D01*
X16453526Y-5789592D01*
X16453526Y-5783112D01*
X16452871Y-5778085D01*
X16451197Y-5774717D01*
X16451002Y-5774538D01*
X16447278Y-5773064D01*
X16441658Y-5772493D01*
X16435447Y-5772774D01*
X16429951Y-5773856D01*
X16426690Y-5775478D01*
X16424923Y-5776778D01*
X16423057Y-5777026D01*
X16420482Y-5775961D01*
X16416587Y-5773322D01*
X16410763Y-5768846D01*
X16410228Y-5768427D01*
X16410502Y-5766876D01*
X16412788Y-5764296D01*
X16416261Y-5761429D01*
X16420099Y-5759017D01*
X16421305Y-5758447D01*
X16425703Y-5757310D01*
X16432149Y-5756499D01*
X16439350Y-5756174D01*
X16439686Y-5756174D01*
X16450046Y-5756818D01*
G36*
X16501988Y-5756349D02*
G01*
X16504489Y-5757098D01*
X16505295Y-5758745D01*
X16505329Y-5759489D01*
X16505474Y-5761559D01*
X16506470Y-5761884D01*
X16509161Y-5760465D01*
X16510760Y-5759495D01*
X16515803Y-5757417D01*
X16521827Y-5756390D01*
X16528143Y-5756311D01*
X16534064Y-5757079D01*
X16538900Y-5758590D01*
X16541965Y-5760743D01*
X16542569Y-5763437D01*
X16542264Y-5764166D01*
X16540041Y-5767194D01*
X16536593Y-5770917D01*
X16535969Y-5771519D01*
X16532683Y-5774287D01*
X16529848Y-5775182D01*
X16525883Y-5774558D01*
X16524294Y-5774143D01*
X16519351Y-5773147D01*
X16515875Y-5773595D01*
X16512940Y-5775175D01*
X16510251Y-5777295D01*
X16508271Y-5779961D01*
X16506895Y-5783683D01*
X16506018Y-5788967D01*
X16505537Y-5796324D01*
X16505347Y-5806260D01*
X16505329Y-5812260D01*
X16505329Y-5838053D01*
X16488618Y-5838053D01*
X16488618Y-5756171D01*
X16496974Y-5756171D01*
X16501988Y-5756349D01*
G37*
X16501988Y-5756349D02*
X16504489Y-5757098D01*
X16505295Y-5758745D01*
X16505329Y-5759489D01*
X16505474Y-5761559D01*
X16506470Y-5761884D01*
X16509161Y-5760465D01*
X16510760Y-5759495D01*
X16515803Y-5757417D01*
X16521827Y-5756390D01*
X16528143Y-5756311D01*
X16534064Y-5757079D01*
X16538900Y-5758590D01*
X16541965Y-5760743D01*
X16542569Y-5763437D01*
X16542264Y-5764166D01*
X16540041Y-5767194D01*
X16536593Y-5770917D01*
X16535969Y-5771519D01*
X16532683Y-5774287D01*
X16529848Y-5775182D01*
X16525883Y-5774558D01*
X16524294Y-5774143D01*
X16519351Y-5773147D01*
X16515875Y-5773595D01*
X16512940Y-5775175D01*
X16510251Y-5777295D01*
X16508271Y-5779961D01*
X16506895Y-5783683D01*
X16506018Y-5788967D01*
X16505537Y-5796324D01*
X16505347Y-5806260D01*
X16505329Y-5812260D01*
X16505329Y-5838053D01*
X16488618Y-5838053D01*
X16488618Y-5756171D01*
X16496974Y-5756171D01*
X16501988Y-5756349D01*
G36*
X16607263Y-5838053D02*
G01*
X16598072Y-5838053D01*
X16592738Y-5837896D01*
X16589959Y-5837248D01*
X16588959Y-5835842D01*
X16588881Y-5834891D01*
X16588713Y-5832983D01*
X16587649Y-5832617D01*
X16584853Y-5833793D01*
X16582679Y-5834891D01*
X16574333Y-5837491D01*
X16565260Y-5837642D01*
X16557884Y-5835702D01*
X16551015Y-5831016D01*
X16545779Y-5824100D01*
X16542912Y-5815943D01*
X16542839Y-5815487D01*
X16542413Y-5810510D01*
X16542201Y-5803366D01*
X16542218Y-5797963D01*
X16560472Y-5797963D01*
X16560895Y-5805144D01*
X16561857Y-5811063D01*
X16563159Y-5814406D01*
X16568086Y-5818974D01*
X16573935Y-5820611D01*
X16579967Y-5819287D01*
X16585122Y-5815337D01*
X16587074Y-5812681D01*
X16588215Y-5809511D01*
X16588750Y-5804883D01*
X16588881Y-5797933D01*
X16588646Y-5791050D01*
X16588023Y-5785003D01*
X16587141Y-5780956D01*
X16586994Y-5780593D01*
X16583435Y-5776280D01*
X16578240Y-5773912D01*
X16572428Y-5773530D01*
X16567016Y-5775174D01*
X16563023Y-5778884D01*
X16562608Y-5779622D01*
X16561312Y-5784124D01*
X16560605Y-5790597D01*
X16560472Y-5797963D01*
X16542218Y-5797963D01*
X16542227Y-5795223D01*
X16542347Y-5790840D01*
X16543164Y-5779999D01*
X16544863Y-5771859D01*
X16547689Y-5765841D01*
X16551887Y-5761367D01*
X16555963Y-5758740D01*
X16561658Y-5756893D01*
X16568741Y-5756260D01*
X16575994Y-5756776D01*
X16582199Y-5758377D01*
X16585477Y-5760292D01*
X16588881Y-5763373D01*
X16588881Y-5724421D01*
X16607263Y-5724421D01*
X16607263Y-5838053D01*
G37*
X16607263Y-5838053D02*
X16598072Y-5838053D01*
X16592738Y-5837896D01*
X16589959Y-5837248D01*
X16588959Y-5835842D01*
X16588881Y-5834891D01*
X16588713Y-5832983D01*
X16587649Y-5832617D01*
X16584853Y-5833793D01*
X16582679Y-5834891D01*
X16574333Y-5837491D01*
X16565260Y-5837642D01*
X16557884Y-5835702D01*
X16551015Y-5831016D01*
X16545779Y-5824100D01*
X16542912Y-5815943D01*
X16542839Y-5815487D01*
X16542413Y-5810510D01*
X16542201Y-5803366D01*
X16542218Y-5797963D01*
X16560472Y-5797963D01*
X16560895Y-5805144D01*
X16561857Y-5811063D01*
X16563159Y-5814406D01*
X16568086Y-5818974D01*
X16573935Y-5820611D01*
X16579967Y-5819287D01*
X16585122Y-5815337D01*
X16587074Y-5812681D01*
X16588215Y-5809511D01*
X16588750Y-5804883D01*
X16588881Y-5797933D01*
X16588646Y-5791050D01*
X16588023Y-5785003D01*
X16587141Y-5780956D01*
X16586994Y-5780593D01*
X16583435Y-5776280D01*
X16578240Y-5773912D01*
X16572428Y-5773530D01*
X16567016Y-5775174D01*
X16563023Y-5778884D01*
X16562608Y-5779622D01*
X16561312Y-5784124D01*
X16560605Y-5790597D01*
X16560472Y-5797963D01*
X16542218Y-5797963D01*
X16542227Y-5795223D01*
X16542347Y-5790840D01*
X16543164Y-5779999D01*
X16544863Y-5771859D01*
X16547689Y-5765841D01*
X16551887Y-5761367D01*
X16555963Y-5758740D01*
X16561658Y-5756893D01*
X16568741Y-5756260D01*
X16575994Y-5756776D01*
X16582199Y-5758377D01*
X16585477Y-5760292D01*
X16588881Y-5763373D01*
X16588881Y-5724421D01*
X16607263Y-5724421D01*
X16607263Y-5838053D01*
G36*
X16671413Y-5756510D02*
G01*
X16678022Y-5757007D01*
X16686663Y-5782908D01*
X16695303Y-5808809D01*
X16698012Y-5799618D01*
X16699643Y-5793938D01*
X16701787Y-5786262D01*
X16704103Y-5777825D01*
X16705328Y-5773299D01*
X16709934Y-5756171D01*
X16728939Y-5756171D01*
X16723258Y-5774135D01*
X16720461Y-5782970D01*
X16717081Y-5793628D01*
X16713552Y-5804745D01*
X16710401Y-5814658D01*
X16703225Y-5837217D01*
X16687729Y-5838225D01*
X16683527Y-5824353D01*
X16680936Y-5815735D01*
X16678108Y-5806235D01*
X16675637Y-5797844D01*
X16675539Y-5797510D01*
X16673693Y-5791825D01*
X16672065Y-5787946D01*
X16670924Y-5786479D01*
X16670690Y-5786648D01*
X16669867Y-5788922D01*
X16668304Y-5793794D01*
X16666190Y-5800650D01*
X16663717Y-5808878D01*
X16662379Y-5813405D01*
X16655131Y-5838053D01*
X16639749Y-5838053D01*
X16627453Y-5799201D01*
X16623999Y-5788302D01*
X16620852Y-5778405D01*
X16618162Y-5769974D01*
X16616076Y-5763473D01*
X16614744Y-5759369D01*
X16614339Y-5758170D01*
X16614659Y-5756942D01*
X16617176Y-5756405D01*
X16622415Y-5756458D01*
X16623234Y-5756499D01*
X16632948Y-5757007D01*
X16639310Y-5780401D01*
X16641648Y-5788933D01*
X16643738Y-5796433D01*
X16645395Y-5802251D01*
X16646435Y-5805734D01*
X16646628Y-5806302D01*
X16647424Y-5805649D01*
X16649030Y-5802265D01*
X16651262Y-5796613D01*
X16653934Y-5789151D01*
X16656194Y-5782411D01*
X16664804Y-5756014D01*
X16671413Y-5756510D01*
G37*
X16671413Y-5756510D02*
X16678022Y-5757007D01*
X16686663Y-5782908D01*
X16695303Y-5808809D01*
X16698012Y-5799618D01*
X16699643Y-5793938D01*
X16701787Y-5786262D01*
X16704103Y-5777825D01*
X16705328Y-5773299D01*
X16709934Y-5756171D01*
X16728939Y-5756171D01*
X16723258Y-5774135D01*
X16720461Y-5782970D01*
X16717081Y-5793628D01*
X16713552Y-5804745D01*
X16710401Y-5814658D01*
X16703225Y-5837217D01*
X16687729Y-5838225D01*
X16683527Y-5824353D01*
X16680936Y-5815735D01*
X16678108Y-5806235D01*
X16675637Y-5797844D01*
X16675539Y-5797510D01*
X16673693Y-5791825D01*
X16672065Y-5787946D01*
X16670924Y-5786479D01*
X16670690Y-5786648D01*
X16669867Y-5788922D01*
X16668304Y-5793794D01*
X16666190Y-5800650D01*
X16663717Y-5808878D01*
X16662379Y-5813405D01*
X16655131Y-5838053D01*
X16639749Y-5838053D01*
X16627453Y-5799201D01*
X16623999Y-5788302D01*
X16620852Y-5778405D01*
X16618162Y-5769974D01*
X16616076Y-5763473D01*
X16614744Y-5759369D01*
X16614339Y-5758170D01*
X16614659Y-5756942D01*
X16617176Y-5756405D01*
X16622415Y-5756458D01*
X16623234Y-5756499D01*
X16632948Y-5757007D01*
X16639310Y-5780401D01*
X16641648Y-5788933D01*
X16643738Y-5796433D01*
X16645395Y-5802251D01*
X16646435Y-5805734D01*
X16646628Y-5806302D01*
X16647424Y-5805649D01*
X16649030Y-5802265D01*
X16651262Y-5796613D01*
X16653934Y-5789151D01*
X16656194Y-5782411D01*
X16664804Y-5756014D01*
X16671413Y-5756510D01*
G36*
X16771999Y-5756667D02*
G01*
X16779043Y-5758378D01*
X16781079Y-5759284D01*
X16785025Y-5761658D01*
X16788054Y-5764332D01*
X16790295Y-5767770D01*
X16791879Y-5772436D01*
X16792934Y-5778795D01*
X16793592Y-5787310D01*
X16793983Y-5798446D01*
X16794131Y-5805885D01*
X16794677Y-5838053D01*
X16785358Y-5838053D01*
X16779705Y-5837816D01*
X16776792Y-5837005D01*
X16776039Y-5835645D01*
X16775642Y-5834174D01*
X16773865Y-5834455D01*
X16771444Y-5835635D01*
X16765383Y-5837443D01*
X16757593Y-5837930D01*
X16749399Y-5837133D01*
X16742128Y-5835089D01*
X16741476Y-5834805D01*
X16734830Y-5830136D01*
X16730449Y-5823646D01*
X16728433Y-5816060D01*
X16728587Y-5813334D01*
X16745034Y-5813334D01*
X16746484Y-5817002D01*
X16750780Y-5819631D01*
X16757713Y-5821042D01*
X16761418Y-5821229D01*
X16767592Y-5820749D01*
X16771696Y-5818886D01*
X16772697Y-5818000D01*
X16775410Y-5813181D01*
X16776039Y-5808809D01*
X16776039Y-5802960D01*
X16767893Y-5802960D01*
X16758423Y-5803443D01*
X16751781Y-5804961D01*
X16747585Y-5807620D01*
X16746645Y-5808805D01*
X16745034Y-5813334D01*
X16728587Y-5813334D01*
X16728883Y-5808103D01*
X16731898Y-5800499D01*
X16736013Y-5795361D01*
X16738505Y-5793140D01*
X16740945Y-5791680D01*
X16744119Y-5790790D01*
X16748815Y-5790277D01*
X16755820Y-5789951D01*
X16758599Y-5789858D01*
X16776039Y-5789288D01*
X16776014Y-5784009D01*
X16775338Y-5778460D01*
X16772896Y-5775105D01*
X16767963Y-5772962D01*
X16767831Y-5772924D01*
X16760836Y-5772081D01*
X16753991Y-5773182D01*
X16748905Y-5775858D01*
X16746864Y-5777180D01*
X16744665Y-5776997D01*
X16741283Y-5775082D01*
X16739296Y-5773731D01*
X16735411Y-5770843D01*
X16733004Y-5768679D01*
X16732618Y-5768059D01*
X16734208Y-5764852D01*
X16738906Y-5761022D01*
X16740947Y-5759730D01*
X16746814Y-5757504D01*
X16754721Y-5756243D01*
X16763504Y-5755960D01*
X16771999Y-5756667D01*
G37*
X16771999Y-5756667D02*
X16779043Y-5758378D01*
X16781079Y-5759284D01*
X16785025Y-5761658D01*
X16788054Y-5764332D01*
X16790295Y-5767770D01*
X16791879Y-5772436D01*
X16792934Y-5778795D01*
X16793592Y-5787310D01*
X16793983Y-5798446D01*
X16794131Y-5805885D01*
X16794677Y-5838053D01*
X16785358Y-5838053D01*
X16779705Y-5837816D01*
X16776792Y-5837005D01*
X16776039Y-5835645D01*
X16775642Y-5834174D01*
X16773865Y-5834455D01*
X16771444Y-5835635D01*
X16765383Y-5837443D01*
X16757593Y-5837930D01*
X16749399Y-5837133D01*
X16742128Y-5835089D01*
X16741476Y-5834805D01*
X16734830Y-5830136D01*
X16730449Y-5823646D01*
X16728433Y-5816060D01*
X16728587Y-5813334D01*
X16745034Y-5813334D01*
X16746484Y-5817002D01*
X16750780Y-5819631D01*
X16757713Y-5821042D01*
X16761418Y-5821229D01*
X16767592Y-5820749D01*
X16771696Y-5818886D01*
X16772697Y-5818000D01*
X16775410Y-5813181D01*
X16776039Y-5808809D01*
X16776039Y-5802960D01*
X16767893Y-5802960D01*
X16758423Y-5803443D01*
X16751781Y-5804961D01*
X16747585Y-5807620D01*
X16746645Y-5808805D01*
X16745034Y-5813334D01*
X16728587Y-5813334D01*
X16728883Y-5808103D01*
X16731898Y-5800499D01*
X16736013Y-5795361D01*
X16738505Y-5793140D01*
X16740945Y-5791680D01*
X16744119Y-5790790D01*
X16748815Y-5790277D01*
X16755820Y-5789951D01*
X16758599Y-5789858D01*
X16776039Y-5789288D01*
X16776014Y-5784009D01*
X16775338Y-5778460D01*
X16772896Y-5775105D01*
X16767963Y-5772962D01*
X16767831Y-5772924D01*
X16760836Y-5772081D01*
X16753991Y-5773182D01*
X16748905Y-5775858D01*
X16746864Y-5777180D01*
X16744665Y-5776997D01*
X16741283Y-5775082D01*
X16739296Y-5773731D01*
X16735411Y-5770843D01*
X16733004Y-5768679D01*
X16732618Y-5768059D01*
X16734208Y-5764852D01*
X16738906Y-5761022D01*
X16740947Y-5759730D01*
X16746814Y-5757504D01*
X16754721Y-5756243D01*
X16763504Y-5755960D01*
X16771999Y-5756667D01*
G36*
X16851317Y-5756145D02*
G01*
X16857741Y-5757411D01*
X16861398Y-5759286D01*
X16865245Y-5762402D01*
X16859772Y-5769313D01*
X16856397Y-5773498D01*
X16854105Y-5775540D01*
X16851828Y-5775852D01*
X16848496Y-5774847D01*
X16846931Y-5774279D01*
X16840554Y-5773440D01*
X16834714Y-5775238D01*
X16830426Y-5779298D01*
X16829730Y-5780593D01*
X16828971Y-5784022D01*
X16828386Y-5790343D01*
X16828001Y-5799106D01*
X16827844Y-5809864D01*
X16827842Y-5811394D01*
X16827842Y-5838053D01*
X16809461Y-5838053D01*
X16809461Y-5756171D01*
X16818651Y-5756171D01*
X16823951Y-5756309D01*
X16826712Y-5756925D01*
X16827732Y-5758319D01*
X16827842Y-5759634D01*
X16827842Y-5763098D01*
X16832245Y-5759634D01*
X16837294Y-5757272D01*
X16844076Y-5756103D01*
X16851317Y-5756145D01*
G37*
X16851317Y-5756145D02*
X16857741Y-5757411D01*
X16861398Y-5759286D01*
X16865245Y-5762402D01*
X16859772Y-5769313D01*
X16856397Y-5773498D01*
X16854105Y-5775540D01*
X16851828Y-5775852D01*
X16848496Y-5774847D01*
X16846931Y-5774279D01*
X16840554Y-5773440D01*
X16834714Y-5775238D01*
X16830426Y-5779298D01*
X16829730Y-5780593D01*
X16828971Y-5784022D01*
X16828386Y-5790343D01*
X16828001Y-5799106D01*
X16827844Y-5809864D01*
X16827842Y-5811394D01*
X16827842Y-5838053D01*
X16809461Y-5838053D01*
X16809461Y-5756171D01*
X16818651Y-5756171D01*
X16823951Y-5756309D01*
X16826712Y-5756925D01*
X16827732Y-5758319D01*
X16827842Y-5759634D01*
X16827842Y-5763098D01*
X16832245Y-5759634D01*
X16837294Y-5757272D01*
X16844076Y-5756103D01*
X16851317Y-5756145D01*
G36*
X16904119Y-5756608D02*
G01*
X16912107Y-5758684D01*
X16918796Y-5762970D01*
X16922035Y-5766172D01*
X16927345Y-5773741D01*
X16930387Y-5782522D01*
X16931433Y-5793315D01*
X16931438Y-5794187D01*
X16931447Y-5802960D01*
X16880953Y-5802960D01*
X16882030Y-5807556D01*
X16883973Y-5811718D01*
X16887375Y-5816054D01*
X16888086Y-5816747D01*
X16894200Y-5820493D01*
X16901173Y-5821129D01*
X16909199Y-5818664D01*
X16910559Y-5818000D01*
X16914732Y-5815982D01*
X16917527Y-5814832D01*
X16918015Y-5814726D01*
X16919717Y-5815758D01*
X16922963Y-5818284D01*
X16924611Y-5819665D01*
X16928026Y-5822836D01*
X16929148Y-5824930D01*
X16928370Y-5826856D01*
X16927954Y-5827383D01*
X16925136Y-5829688D01*
X16920486Y-5832489D01*
X16917243Y-5834125D01*
X16908039Y-5837006D01*
X16897848Y-5837939D01*
X16888196Y-5836833D01*
X16885493Y-5836041D01*
X16877128Y-5831558D01*
X16870927Y-5824660D01*
X16866855Y-5815279D01*
X16864876Y-5803350D01*
X16864658Y-5797112D01*
X16865293Y-5788030D01*
X16881316Y-5788030D01*
X16882866Y-5788701D01*
X16887031Y-5789228D01*
X16893088Y-5789539D01*
X16897191Y-5789592D01*
X16904571Y-5789541D01*
X16909229Y-5789301D01*
X16911785Y-5788742D01*
X16912857Y-5787736D01*
X16913066Y-5786276D01*
X16911633Y-5781780D01*
X16908026Y-5777335D01*
X16903282Y-5773924D01*
X16898535Y-5772529D01*
X16892088Y-5773767D01*
X16886507Y-5777345D01*
X16882637Y-5782503D01*
X16881316Y-5788030D01*
X16865293Y-5788030D01*
X16865582Y-5783887D01*
X16868434Y-5773350D01*
X16873273Y-5765418D01*
X16880160Y-5760007D01*
X16889157Y-5757034D01*
X16894030Y-5756462D01*
X16904119Y-5756608D01*
G37*
X16904119Y-5756608D02*
X16912107Y-5758684D01*
X16918796Y-5762970D01*
X16922035Y-5766172D01*
X16927345Y-5773741D01*
X16930387Y-5782522D01*
X16931433Y-5793315D01*
X16931438Y-5794187D01*
X16931447Y-5802960D01*
X16880953Y-5802960D01*
X16882030Y-5807556D01*
X16883973Y-5811718D01*
X16887375Y-5816054D01*
X16888086Y-5816747D01*
X16894200Y-5820493D01*
X16901173Y-5821129D01*
X16909199Y-5818664D01*
X16910559Y-5818000D01*
X16914732Y-5815982D01*
X16917527Y-5814832D01*
X16918015Y-5814726D01*
X16919717Y-5815758D01*
X16922963Y-5818284D01*
X16924611Y-5819665D01*
X16928026Y-5822836D01*
X16929148Y-5824930D01*
X16928370Y-5826856D01*
X16927954Y-5827383D01*
X16925136Y-5829688D01*
X16920486Y-5832489D01*
X16917243Y-5834125D01*
X16908039Y-5837006D01*
X16897848Y-5837939D01*
X16888196Y-5836833D01*
X16885493Y-5836041D01*
X16877128Y-5831558D01*
X16870927Y-5824660D01*
X16866855Y-5815279D01*
X16864876Y-5803350D01*
X16864658Y-5797112D01*
X16865293Y-5788030D01*
X16881316Y-5788030D01*
X16882866Y-5788701D01*
X16887031Y-5789228D01*
X16893088Y-5789539D01*
X16897191Y-5789592D01*
X16904571Y-5789541D01*
X16909229Y-5789301D01*
X16911785Y-5788742D01*
X16912857Y-5787736D01*
X16913066Y-5786276D01*
X16911633Y-5781780D01*
X16908026Y-5777335D01*
X16903282Y-5773924D01*
X16898535Y-5772529D01*
X16892088Y-5773767D01*
X16886507Y-5777345D01*
X16882637Y-5782503D01*
X16881316Y-5788030D01*
X16865293Y-5788030D01*
X16865582Y-5783887D01*
X16868434Y-5773350D01*
X16873273Y-5765418D01*
X16880160Y-5760007D01*
X16889157Y-5757034D01*
X16894030Y-5756462D01*
X16904119Y-5756608D01*
G36*
X16296678Y-5631710D02*
G01*
X16305420Y-5635575D01*
X16312057Y-5642029D01*
X16316598Y-5651081D01*
X16319052Y-5662742D01*
X16319228Y-5664562D01*
X16319366Y-5677398D01*
X16317578Y-5688650D01*
X16313975Y-5697769D01*
X16312045Y-5700702D01*
X16305324Y-5706911D01*
X16296765Y-5710932D01*
X16287189Y-5712600D01*
X16277419Y-5711752D01*
X16269992Y-5709138D01*
X16263605Y-5704733D01*
X16258385Y-5698959D01*
X16258294Y-5698824D01*
X16256174Y-5695259D01*
X16254797Y-5691675D01*
X16253962Y-5687152D01*
X16253473Y-5680770D01*
X16253257Y-5675537D01*
X16253167Y-5670791D01*
X16269874Y-5670791D01*
X16270038Y-5675515D01*
X16270630Y-5681805D01*
X16271676Y-5685841D01*
X16273562Y-5688712D01*
X16275328Y-5690390D01*
X16281589Y-5693902D01*
X16288141Y-5694371D01*
X16294242Y-5691844D01*
X16297293Y-5689012D01*
X16299491Y-5686159D01*
X16300777Y-5683428D01*
X16301341Y-5679875D01*
X16301375Y-5674552D01*
X16301201Y-5669651D01*
X16300827Y-5662648D01*
X16300234Y-5658106D01*
X16299165Y-5655144D01*
X16297364Y-5652880D01*
X16295936Y-5651585D01*
X16289965Y-5648186D01*
X16283523Y-5648016D01*
X16278122Y-5650030D01*
X16273514Y-5654235D01*
X16270769Y-5661143D01*
X16269874Y-5670791D01*
X16253167Y-5670791D01*
X16253060Y-5665130D01*
X16253396Y-5657347D01*
X16254404Y-5651493D01*
X16256223Y-5646874D01*
X16258989Y-5642794D01*
X16260015Y-5641583D01*
X16266428Y-5635547D01*
X16273307Y-5632022D01*
X16281719Y-5630545D01*
X16285821Y-5630424D01*
X16296678Y-5631710D01*
G37*
X16296678Y-5631710D02*
X16305420Y-5635575D01*
X16312057Y-5642029D01*
X16316598Y-5651081D01*
X16319052Y-5662742D01*
X16319228Y-5664562D01*
X16319366Y-5677398D01*
X16317578Y-5688650D01*
X16313975Y-5697769D01*
X16312045Y-5700702D01*
X16305324Y-5706911D01*
X16296765Y-5710932D01*
X16287189Y-5712600D01*
X16277419Y-5711752D01*
X16269992Y-5709138D01*
X16263605Y-5704733D01*
X16258385Y-5698959D01*
X16258294Y-5698824D01*
X16256174Y-5695259D01*
X16254797Y-5691675D01*
X16253962Y-5687152D01*
X16253473Y-5680770D01*
X16253257Y-5675537D01*
X16253167Y-5670791D01*
X16269874Y-5670791D01*
X16270038Y-5675515D01*
X16270630Y-5681805D01*
X16271676Y-5685841D01*
X16273562Y-5688712D01*
X16275328Y-5690390D01*
X16281589Y-5693902D01*
X16288141Y-5694371D01*
X16294242Y-5691844D01*
X16297293Y-5689012D01*
X16299491Y-5686159D01*
X16300777Y-5683428D01*
X16301341Y-5679875D01*
X16301375Y-5674552D01*
X16301201Y-5669651D01*
X16300827Y-5662648D01*
X16300234Y-5658106D01*
X16299165Y-5655144D01*
X16297364Y-5652880D01*
X16295936Y-5651585D01*
X16289965Y-5648186D01*
X16283523Y-5648016D01*
X16278122Y-5650030D01*
X16273514Y-5654235D01*
X16270769Y-5661143D01*
X16269874Y-5670791D01*
X16253167Y-5670791D01*
X16253060Y-5665130D01*
X16253396Y-5657347D01*
X16254404Y-5651493D01*
X16256223Y-5646874D01*
X16258989Y-5642794D01*
X16260015Y-5641583D01*
X16266428Y-5635547D01*
X16273307Y-5632022D01*
X16281719Y-5630545D01*
X16285821Y-5630424D01*
X16296678Y-5631710D01*
G36*
X16453702Y-5632703D02*
G01*
X16455367Y-5633487D01*
X16461130Y-5637709D01*
X16466580Y-5643870D01*
X16470650Y-5650654D01*
X16471807Y-5653773D01*
X16472863Y-5659345D01*
X16473493Y-5666078D01*
X16473570Y-5668858D01*
X16473579Y-5677632D01*
X16423085Y-5677632D01*
X16424161Y-5682227D01*
X16426803Y-5687662D01*
X16431422Y-5692359D01*
X16436917Y-5695385D01*
X16440419Y-5696013D01*
X16445168Y-5695251D01*
X16450833Y-5693338D01*
X16452758Y-5692458D01*
X16459876Y-5688904D01*
X16465950Y-5693537D01*
X16469455Y-5696670D01*
X16471320Y-5699257D01*
X16471415Y-5700016D01*
X16469748Y-5701856D01*
X16466097Y-5704651D01*
X16462783Y-5706833D01*
X16453839Y-5710754D01*
X16443813Y-5712528D01*
X16433875Y-5712067D01*
X16425954Y-5709655D01*
X16417788Y-5704488D01*
X16411985Y-5697686D01*
X16408355Y-5688884D01*
X16406707Y-5677722D01*
X16406561Y-5672614D01*
X16407146Y-5660909D01*
X16407217Y-5660569D01*
X16423949Y-5660569D01*
X16424410Y-5661666D01*
X16426304Y-5662271D01*
X16430210Y-5662531D01*
X16436708Y-5662591D01*
X16439210Y-5662592D01*
X16446822Y-5662501D01*
X16451650Y-5662172D01*
X16454246Y-5661518D01*
X16455165Y-5660454D01*
X16455197Y-5660112D01*
X16454149Y-5657396D01*
X16451524Y-5653590D01*
X16450396Y-5652258D01*
X16446207Y-5648490D01*
X16441841Y-5647008D01*
X16439488Y-5646884D01*
X16433124Y-5648433D01*
X16427787Y-5652593D01*
X16424402Y-5658635D01*
X16424342Y-5658832D01*
X16423949Y-5660569D01*
X16407217Y-5660569D01*
X16409090Y-5651693D01*
X16412592Y-5644319D01*
X16416876Y-5639085D01*
X16424795Y-5633409D01*
X16434104Y-5630376D01*
X16444005Y-5630102D01*
X16453702Y-5632703D01*
G37*
X16453702Y-5632703D02*
X16455367Y-5633487D01*
X16461130Y-5637709D01*
X16466580Y-5643870D01*
X16470650Y-5650654D01*
X16471807Y-5653773D01*
X16472863Y-5659345D01*
X16473493Y-5666078D01*
X16473570Y-5668858D01*
X16473579Y-5677632D01*
X16423085Y-5677632D01*
X16424161Y-5682227D01*
X16426803Y-5687662D01*
X16431422Y-5692359D01*
X16436917Y-5695385D01*
X16440419Y-5696013D01*
X16445168Y-5695251D01*
X16450833Y-5693338D01*
X16452758Y-5692458D01*
X16459876Y-5688904D01*
X16465950Y-5693537D01*
X16469455Y-5696670D01*
X16471320Y-5699257D01*
X16471415Y-5700016D01*
X16469748Y-5701856D01*
X16466097Y-5704651D01*
X16462783Y-5706833D01*
X16453839Y-5710754D01*
X16443813Y-5712528D01*
X16433875Y-5712067D01*
X16425954Y-5709655D01*
X16417788Y-5704488D01*
X16411985Y-5697686D01*
X16408355Y-5688884D01*
X16406707Y-5677722D01*
X16406561Y-5672614D01*
X16407146Y-5660909D01*
X16407217Y-5660569D01*
X16423949Y-5660569D01*
X16424410Y-5661666D01*
X16426304Y-5662271D01*
X16430210Y-5662531D01*
X16436708Y-5662591D01*
X16439210Y-5662592D01*
X16446822Y-5662501D01*
X16451650Y-5662172D01*
X16454246Y-5661518D01*
X16455165Y-5660454D01*
X16455197Y-5660112D01*
X16454149Y-5657396D01*
X16451524Y-5653590D01*
X16450396Y-5652258D01*
X16446207Y-5648490D01*
X16441841Y-5647008D01*
X16439488Y-5646884D01*
X16433124Y-5648433D01*
X16427787Y-5652593D01*
X16424402Y-5658635D01*
X16424342Y-5658832D01*
X16423949Y-5660569D01*
X16407217Y-5660569D01*
X16409090Y-5651693D01*
X16412592Y-5644319D01*
X16416876Y-5639085D01*
X16424795Y-5633409D01*
X16434104Y-5630376D01*
X16444005Y-5630102D01*
X16453702Y-5632703D01*
G36*
X16635863Y-5630555D02*
G01*
X16642191Y-5631755D01*
X16648756Y-5634265D01*
X16649457Y-5634585D01*
X16654436Y-5637203D01*
X16657883Y-5639635D01*
X16658998Y-5641194D01*
X16657937Y-5643735D01*
X16655359Y-5647485D01*
X16654215Y-5648885D01*
X16649499Y-5654395D01*
X16643420Y-5650809D01*
X16637635Y-5648419D01*
X16630950Y-5647142D01*
X16624539Y-5647061D01*
X16619576Y-5648261D01*
X16618385Y-5649010D01*
X16616117Y-5652445D01*
X16615842Y-5656401D01*
X16617539Y-5659492D01*
X16618543Y-5660091D01*
X16621551Y-5660836D01*
X16626839Y-5661711D01*
X16633357Y-5662547D01*
X16634560Y-5662678D01*
X16645030Y-5664489D01*
X16652623Y-5667565D01*
X16657659Y-5672191D01*
X16660456Y-5678650D01*
X16661328Y-5686539D01*
X16660124Y-5695506D01*
X16656215Y-5702549D01*
X16649585Y-5707678D01*
X16640219Y-5710907D01*
X16629822Y-5712181D01*
X16621344Y-5712165D01*
X16614466Y-5711008D01*
X16609770Y-5709411D01*
X16603835Y-5706627D01*
X16598351Y-5703397D01*
X16596401Y-5701975D01*
X16591388Y-5697883D01*
X16603480Y-5685648D01*
X16610354Y-5690197D01*
X16617249Y-5693613D01*
X16624611Y-5695400D01*
X16631688Y-5695589D01*
X16637727Y-5694210D01*
X16641976Y-5691295D01*
X16643347Y-5688835D01*
X16643142Y-5684890D01*
X16639733Y-5681874D01*
X16633131Y-5679791D01*
X16625897Y-5678828D01*
X16614765Y-5676991D01*
X16606495Y-5673525D01*
X16600976Y-5668330D01*
X16598099Y-5661302D01*
X16597700Y-5652971D01*
X16599669Y-5644268D01*
X16604159Y-5637690D01*
X16611209Y-5633207D01*
X16620860Y-5630788D01*
X16628010Y-5630314D01*
X16635863Y-5630555D01*
G37*
X16635863Y-5630555D02*
X16642191Y-5631755D01*
X16648756Y-5634265D01*
X16649457Y-5634585D01*
X16654436Y-5637203D01*
X16657883Y-5639635D01*
X16658998Y-5641194D01*
X16657937Y-5643735D01*
X16655359Y-5647485D01*
X16654215Y-5648885D01*
X16649499Y-5654395D01*
X16643420Y-5650809D01*
X16637635Y-5648419D01*
X16630950Y-5647142D01*
X16624539Y-5647061D01*
X16619576Y-5648261D01*
X16618385Y-5649010D01*
X16616117Y-5652445D01*
X16615842Y-5656401D01*
X16617539Y-5659492D01*
X16618543Y-5660091D01*
X16621551Y-5660836D01*
X16626839Y-5661711D01*
X16633357Y-5662547D01*
X16634560Y-5662678D01*
X16645030Y-5664489D01*
X16652623Y-5667565D01*
X16657659Y-5672191D01*
X16660456Y-5678650D01*
X16661328Y-5686539D01*
X16660124Y-5695506D01*
X16656215Y-5702549D01*
X16649585Y-5707678D01*
X16640219Y-5710907D01*
X16629822Y-5712181D01*
X16621344Y-5712165D01*
X16614466Y-5711008D01*
X16609770Y-5709411D01*
X16603835Y-5706627D01*
X16598351Y-5703397D01*
X16596401Y-5701975D01*
X16591388Y-5697883D01*
X16603480Y-5685648D01*
X16610354Y-5690197D01*
X16617249Y-5693613D01*
X16624611Y-5695400D01*
X16631688Y-5695589D01*
X16637727Y-5694210D01*
X16641976Y-5691295D01*
X16643347Y-5688835D01*
X16643142Y-5684890D01*
X16639733Y-5681874D01*
X16633131Y-5679791D01*
X16625897Y-5678828D01*
X16614765Y-5676991D01*
X16606495Y-5673525D01*
X16600976Y-5668330D01*
X16598099Y-5661302D01*
X16597700Y-5652971D01*
X16599669Y-5644268D01*
X16604159Y-5637690D01*
X16611209Y-5633207D01*
X16620860Y-5630788D01*
X16628010Y-5630314D01*
X16635863Y-5630555D01*
G36*
X16715167Y-5631831D02*
G01*
X16723619Y-5636434D01*
X16730232Y-5643701D01*
X16733348Y-5649611D01*
X16734685Y-5654830D01*
X16735552Y-5662272D01*
X16735924Y-5670844D01*
X16735775Y-5679457D01*
X16735083Y-5687019D01*
X16734274Y-5691058D01*
X16731546Y-5696584D01*
X16726822Y-5702453D01*
X16721128Y-5707585D01*
X16715492Y-5710900D01*
X16715355Y-5710953D01*
X16708362Y-5712402D01*
X16700074Y-5712438D01*
X16692198Y-5711119D01*
X16689157Y-5710062D01*
X16681324Y-5705620D01*
X16675714Y-5699801D01*
X16672029Y-5692096D01*
X16669968Y-5682000D01*
X16669502Y-5676712D01*
X16669561Y-5670066D01*
X16687474Y-5670066D01*
X16688077Y-5679763D01*
X16689814Y-5687152D01*
X16692574Y-5691874D01*
X16694540Y-5693224D01*
X16699579Y-5694165D01*
X16705567Y-5693886D01*
X16710745Y-5692532D01*
X16712103Y-5691786D01*
X16715685Y-5687445D01*
X16718049Y-5680801D01*
X16719056Y-5672716D01*
X16718564Y-5664050D01*
X16717465Y-5658835D01*
X16714311Y-5652795D01*
X16709331Y-5649020D01*
X16703334Y-5647714D01*
X16697126Y-5649085D01*
X16692358Y-5652437D01*
X16689852Y-5655203D01*
X16688390Y-5657929D01*
X16687693Y-5661619D01*
X16687483Y-5667275D01*
X16687474Y-5670066D01*
X16669561Y-5670066D01*
X16669628Y-5662599D01*
X16671926Y-5651027D01*
X16676397Y-5641994D01*
X16683040Y-5635500D01*
X16691856Y-5631544D01*
X16693749Y-5631086D01*
X16705127Y-5630009D01*
X16715167Y-5631831D01*
G37*
X16715167Y-5631831D02*
X16723619Y-5636434D01*
X16730232Y-5643701D01*
X16733348Y-5649611D01*
X16734685Y-5654830D01*
X16735552Y-5662272D01*
X16735924Y-5670844D01*
X16735775Y-5679457D01*
X16735083Y-5687019D01*
X16734274Y-5691058D01*
X16731546Y-5696584D01*
X16726822Y-5702453D01*
X16721128Y-5707585D01*
X16715492Y-5710900D01*
X16715355Y-5710953D01*
X16708362Y-5712402D01*
X16700074Y-5712438D01*
X16692198Y-5711119D01*
X16689157Y-5710062D01*
X16681324Y-5705620D01*
X16675714Y-5699801D01*
X16672029Y-5692096D01*
X16669968Y-5682000D01*
X16669502Y-5676712D01*
X16669561Y-5670066D01*
X16687474Y-5670066D01*
X16688077Y-5679763D01*
X16689814Y-5687152D01*
X16692574Y-5691874D01*
X16694540Y-5693224D01*
X16699579Y-5694165D01*
X16705567Y-5693886D01*
X16710745Y-5692532D01*
X16712103Y-5691786D01*
X16715685Y-5687445D01*
X16718049Y-5680801D01*
X16719056Y-5672716D01*
X16718564Y-5664050D01*
X16717465Y-5658835D01*
X16714311Y-5652795D01*
X16709331Y-5649020D01*
X16703334Y-5647714D01*
X16697126Y-5649085D01*
X16692358Y-5652437D01*
X16689852Y-5655203D01*
X16688390Y-5657929D01*
X16687693Y-5661619D01*
X16687483Y-5667275D01*
X16687474Y-5670066D01*
X16669561Y-5670066D01*
X16669628Y-5662599D01*
X16671926Y-5651027D01*
X16676397Y-5641994D01*
X16683040Y-5635500D01*
X16691856Y-5631544D01*
X16693749Y-5631086D01*
X16705127Y-5630009D01*
X16715167Y-5631831D01*
G36*
X16766013Y-5656853D02*
G01*
X16766171Y-5669109D01*
X16766748Y-5678418D01*
X16767899Y-5685165D01*
X16769779Y-5689735D01*
X16772543Y-5692514D01*
X16776345Y-5693885D01*
X16781053Y-5694236D01*
X16785983Y-5693843D01*
X16789728Y-5692409D01*
X16792443Y-5689548D01*
X16794282Y-5684875D01*
X16795399Y-5678006D01*
X16795951Y-5668555D01*
X16796092Y-5656853D01*
X16796092Y-5630842D01*
X16814474Y-5630842D01*
X16814474Y-5711053D01*
X16805283Y-5711053D01*
X16799742Y-5710828D01*
X16796889Y-5710040D01*
X16796092Y-5708543D01*
X16795612Y-5707210D01*
X16793701Y-5707492D01*
X16789850Y-5709378D01*
X16781024Y-5712289D01*
X16771662Y-5712082D01*
X16762692Y-5708922D01*
X16758420Y-5706426D01*
X16755162Y-5703723D01*
X16752782Y-5700340D01*
X16751144Y-5695807D01*
X16750113Y-5689649D01*
X16749554Y-5681394D01*
X16749331Y-5670570D01*
X16749303Y-5662200D01*
X16749303Y-5630842D01*
X16766013Y-5630842D01*
X16766013Y-5656853D01*
G37*
X16766013Y-5656853D02*
X16766171Y-5669109D01*
X16766748Y-5678418D01*
X16767899Y-5685165D01*
X16769779Y-5689735D01*
X16772543Y-5692514D01*
X16776345Y-5693885D01*
X16781053Y-5694236D01*
X16785983Y-5693843D01*
X16789728Y-5692409D01*
X16792443Y-5689548D01*
X16794282Y-5684875D01*
X16795399Y-5678006D01*
X16795951Y-5668555D01*
X16796092Y-5656853D01*
X16796092Y-5630842D01*
X16814474Y-5630842D01*
X16814474Y-5711053D01*
X16805283Y-5711053D01*
X16799742Y-5710828D01*
X16796889Y-5710040D01*
X16796092Y-5708543D01*
X16795612Y-5707210D01*
X16793701Y-5707492D01*
X16789850Y-5709378D01*
X16781024Y-5712289D01*
X16771662Y-5712082D01*
X16762692Y-5708922D01*
X16758420Y-5706426D01*
X16755162Y-5703723D01*
X16752782Y-5700340D01*
X16751144Y-5695807D01*
X16750113Y-5689649D01*
X16749554Y-5681394D01*
X16749331Y-5670570D01*
X16749303Y-5662200D01*
X16749303Y-5630842D01*
X16766013Y-5630842D01*
X16766013Y-5656853D01*
G36*
X16928658Y-5631542D02*
G01*
X16938340Y-5635655D01*
X16941389Y-5637657D01*
X16945287Y-5640734D01*
X16947733Y-5643153D01*
X16948158Y-5643941D01*
X16946958Y-5645690D01*
X16943889Y-5648657D01*
X16941431Y-5650728D01*
X16934705Y-5656134D01*
X16929393Y-5651664D01*
X16925288Y-5648779D01*
X16921286Y-5647783D01*
X16916706Y-5648026D01*
X16909432Y-5649834D01*
X16904426Y-5653588D01*
X16901383Y-5659656D01*
X16900002Y-5668408D01*
X16900001Y-5668414D01*
X16900121Y-5678196D01*
X16901977Y-5685373D01*
X16905680Y-5690259D01*
X16908205Y-5691914D01*
X16914910Y-5693975D01*
X16922071Y-5693976D01*
X16928302Y-5691977D01*
X16929776Y-5691000D01*
X16933475Y-5688505D01*
X16936367Y-5688096D01*
X16939486Y-5689953D01*
X16942934Y-5693289D01*
X16948391Y-5698920D01*
X16942332Y-5703914D01*
X16932970Y-5709551D01*
X16922413Y-5712329D01*
X16911380Y-5712128D01*
X16904134Y-5710286D01*
X16895666Y-5705731D01*
X16888893Y-5698565D01*
X16885816Y-5693507D01*
X16883324Y-5686249D01*
X16882077Y-5677057D01*
X16882067Y-5667095D01*
X16883287Y-5657527D01*
X16885729Y-5649517D01*
X16886114Y-5648696D01*
X16891809Y-5640641D01*
X16899521Y-5634777D01*
X16908639Y-5631225D01*
X16918554Y-5630106D01*
X16928658Y-5631542D01*
G37*
X16928658Y-5631542D02*
X16938340Y-5635655D01*
X16941389Y-5637657D01*
X16945287Y-5640734D01*
X16947733Y-5643153D01*
X16948158Y-5643941D01*
X16946958Y-5645690D01*
X16943889Y-5648657D01*
X16941431Y-5650728D01*
X16934705Y-5656134D01*
X16929393Y-5651664D01*
X16925288Y-5648779D01*
X16921286Y-5647783D01*
X16916706Y-5648026D01*
X16909432Y-5649834D01*
X16904426Y-5653588D01*
X16901383Y-5659656D01*
X16900002Y-5668408D01*
X16900001Y-5668414D01*
X16900121Y-5678196D01*
X16901977Y-5685373D01*
X16905680Y-5690259D01*
X16908205Y-5691914D01*
X16914910Y-5693975D01*
X16922071Y-5693976D01*
X16928302Y-5691977D01*
X16929776Y-5691000D01*
X16933475Y-5688505D01*
X16936367Y-5688096D01*
X16939486Y-5689953D01*
X16942934Y-5693289D01*
X16948391Y-5698920D01*
X16942332Y-5703914D01*
X16932970Y-5709551D01*
X16922413Y-5712329D01*
X16911380Y-5712128D01*
X16904134Y-5710286D01*
X16895666Y-5705731D01*
X16888893Y-5698565D01*
X16885816Y-5693507D01*
X16883324Y-5686249D01*
X16882077Y-5677057D01*
X16882067Y-5667095D01*
X16883287Y-5657527D01*
X16885729Y-5649517D01*
X16886114Y-5648696D01*
X16891809Y-5640641D01*
X16899521Y-5634777D01*
X16908639Y-5631225D01*
X16918554Y-5630106D01*
X16928658Y-5631542D01*
G36*
X16989878Y-5630555D02*
G01*
X16994157Y-5631595D01*
X17002361Y-5635401D01*
X17009376Y-5641215D01*
X17014231Y-5648185D01*
X17014898Y-5649750D01*
X17015812Y-5653850D01*
X17016453Y-5659914D01*
X17016671Y-5666043D01*
X17016671Y-5677632D01*
X16992441Y-5677632D01*
X16982447Y-5677669D01*
X16975407Y-5677899D01*
X16970931Y-5678494D01*
X16968632Y-5679628D01*
X16968119Y-5681477D01*
X16969005Y-5684214D01*
X16970592Y-5687415D01*
X16975018Y-5692759D01*
X16981170Y-5695421D01*
X16988689Y-5695335D01*
X16997205Y-5692437D01*
X17004566Y-5688861D01*
X17010673Y-5693690D01*
X17016781Y-5698520D01*
X17011035Y-5703828D01*
X17003364Y-5708844D01*
X16993930Y-5711869D01*
X16983783Y-5712715D01*
X16973971Y-5711197D01*
X16972388Y-5710682D01*
X16963765Y-5706179D01*
X16957350Y-5699465D01*
X16953009Y-5690340D01*
X16950606Y-5678604D01*
X16950578Y-5678353D01*
X16950363Y-5665563D01*
X16951233Y-5661000D01*
X16968211Y-5661000D01*
X16969770Y-5661701D01*
X16974003Y-5662239D01*
X16980243Y-5662546D01*
X16984198Y-5662592D01*
X16991573Y-5662563D01*
X16996184Y-5662378D01*
X16998610Y-5661891D01*
X16999429Y-5660955D01*
X16999221Y-5659424D01*
X16999046Y-5658832D01*
X16996056Y-5653267D01*
X16991354Y-5648781D01*
X16987205Y-5646810D01*
X16981693Y-5646929D01*
X16976107Y-5649387D01*
X16971421Y-5653457D01*
X16968609Y-5658411D01*
X16968211Y-5661000D01*
X16951233Y-5661000D01*
X16952507Y-5654313D01*
X16956761Y-5644873D01*
X16962875Y-5637509D01*
X16970599Y-5632489D01*
X16979683Y-5630082D01*
X16989878Y-5630555D01*
G37*
X16989878Y-5630555D02*
X16994157Y-5631595D01*
X17002361Y-5635401D01*
X17009376Y-5641215D01*
X17014231Y-5648185D01*
X17014898Y-5649750D01*
X17015812Y-5653850D01*
X17016453Y-5659914D01*
X17016671Y-5666043D01*
X17016671Y-5677632D01*
X16992441Y-5677632D01*
X16982447Y-5677669D01*
X16975407Y-5677899D01*
X16970931Y-5678494D01*
X16968632Y-5679628D01*
X16968119Y-5681477D01*
X16969005Y-5684214D01*
X16970592Y-5687415D01*
X16975018Y-5692759D01*
X16981170Y-5695421D01*
X16988689Y-5695335D01*
X16997205Y-5692437D01*
X17004566Y-5688861D01*
X17010673Y-5693690D01*
X17016781Y-5698520D01*
X17011035Y-5703828D01*
X17003364Y-5708844D01*
X16993930Y-5711869D01*
X16983783Y-5712715D01*
X16973971Y-5711197D01*
X16972388Y-5710682D01*
X16963765Y-5706179D01*
X16957350Y-5699465D01*
X16953009Y-5690340D01*
X16950606Y-5678604D01*
X16950578Y-5678353D01*
X16950363Y-5665563D01*
X16951233Y-5661000D01*
X16968211Y-5661000D01*
X16969770Y-5661701D01*
X16974003Y-5662239D01*
X16980243Y-5662546D01*
X16984198Y-5662592D01*
X16991573Y-5662563D01*
X16996184Y-5662378D01*
X16998610Y-5661891D01*
X16999429Y-5660955D01*
X16999221Y-5659424D01*
X16999046Y-5658832D01*
X16996056Y-5653267D01*
X16991354Y-5648781D01*
X16987205Y-5646810D01*
X16981693Y-5646929D01*
X16976107Y-5649387D01*
X16971421Y-5653457D01*
X16968609Y-5658411D01*
X16968211Y-5661000D01*
X16951233Y-5661000D01*
X16952507Y-5654313D01*
X16956761Y-5644873D01*
X16962875Y-5637509D01*
X16970599Y-5632489D01*
X16979683Y-5630082D01*
X16989878Y-5630555D01*
G36*
X16533796Y-5632223D02*
G01*
X16537955Y-5634209D01*
X16541982Y-5637078D01*
X16545051Y-5640381D01*
X16547286Y-5644593D01*
X16548814Y-5650191D01*
X16549759Y-5657653D01*
X16550249Y-5667453D01*
X16550408Y-5680070D01*
X16550411Y-5681391D01*
X16550447Y-5711053D01*
X16532066Y-5711053D01*
X16532066Y-5683708D01*
X16532053Y-5673578D01*
X16531962Y-5666235D01*
X16531717Y-5661127D01*
X16531241Y-5657699D01*
X16530457Y-5655397D01*
X16529288Y-5653667D01*
X16527660Y-5651958D01*
X16521963Y-5648286D01*
X16515744Y-5647604D01*
X16509820Y-5649926D01*
X16507759Y-5651654D01*
X16506247Y-5653279D01*
X16505161Y-5655019D01*
X16504431Y-5657421D01*
X16503986Y-5661032D01*
X16503756Y-5666399D01*
X16503670Y-5674068D01*
X16503658Y-5683404D01*
X16503658Y-5711053D01*
X16485276Y-5711053D01*
X16485276Y-5630842D01*
X16494467Y-5630842D01*
X16499985Y-5631060D01*
X16502832Y-5631835D01*
X16503657Y-5633347D01*
X16503658Y-5633392D01*
X16504041Y-5634872D01*
X16505730Y-5634704D01*
X16509089Y-5633077D01*
X16516706Y-5630684D01*
X16525420Y-5630418D01*
X16533796Y-5632223D01*
G37*
X16533796Y-5632223D02*
X16537955Y-5634209D01*
X16541982Y-5637078D01*
X16545051Y-5640381D01*
X16547286Y-5644593D01*
X16548814Y-5650191D01*
X16549759Y-5657653D01*
X16550249Y-5667453D01*
X16550408Y-5680070D01*
X16550411Y-5681391D01*
X16550447Y-5711053D01*
X16532066Y-5711053D01*
X16532066Y-5683708D01*
X16532053Y-5673578D01*
X16531962Y-5666235D01*
X16531717Y-5661127D01*
X16531241Y-5657699D01*
X16530457Y-5655397D01*
X16529288Y-5653667D01*
X16527660Y-5651958D01*
X16521963Y-5648286D01*
X16515744Y-5647604D01*
X16509820Y-5649926D01*
X16507759Y-5651654D01*
X16506247Y-5653279D01*
X16505161Y-5655019D01*
X16504431Y-5657421D01*
X16503986Y-5661032D01*
X16503756Y-5666399D01*
X16503670Y-5674068D01*
X16503658Y-5683404D01*
X16503658Y-5711053D01*
X16485276Y-5711053D01*
X16485276Y-5630842D01*
X16494467Y-5630842D01*
X16499985Y-5631060D01*
X16502832Y-5631835D01*
X16503657Y-5633347D01*
X16503658Y-5633392D01*
X16504041Y-5634872D01*
X16505730Y-5634704D01*
X16509089Y-5633077D01*
X16516706Y-5630684D01*
X16525420Y-5630418D01*
X16533796Y-5632223D01*
G36*
X16873139Y-5630764D02*
G01*
X16878887Y-5632521D01*
X16882587Y-5634739D01*
X16883793Y-5636494D01*
X16883461Y-5638574D01*
X16881308Y-5641842D01*
X16879487Y-5644156D01*
X16875734Y-5648340D01*
X16872915Y-5650100D01*
X16870511Y-5649986D01*
X16863381Y-5648171D01*
X16858144Y-5648253D01*
X16853892Y-5650310D01*
X16852464Y-5651513D01*
X16847895Y-5655748D01*
X16847895Y-5711053D01*
X16829513Y-5711053D01*
X16829513Y-5630842D01*
X16838704Y-5630842D01*
X16844222Y-5631060D01*
X16847069Y-5631835D01*
X16847894Y-5633347D01*
X16847895Y-5633392D01*
X16848285Y-5634975D01*
X16850047Y-5634768D01*
X16852490Y-5633626D01*
X16857535Y-5631500D01*
X16861632Y-5630222D01*
X16866903Y-5629894D01*
X16873139Y-5630764D01*
G37*
X16873139Y-5630764D02*
X16878887Y-5632521D01*
X16882587Y-5634739D01*
X16883793Y-5636494D01*
X16883461Y-5638574D01*
X16881308Y-5641842D01*
X16879487Y-5644156D01*
X16875734Y-5648340D01*
X16872915Y-5650100D01*
X16870511Y-5649986D01*
X16863381Y-5648171D01*
X16858144Y-5648253D01*
X16853892Y-5650310D01*
X16852464Y-5651513D01*
X16847895Y-5655748D01*
X16847895Y-5711053D01*
X16829513Y-5711053D01*
X16829513Y-5630842D01*
X16838704Y-5630842D01*
X16844222Y-5631060D01*
X16847069Y-5631835D01*
X16847894Y-5633347D01*
X16847895Y-5633392D01*
X16848285Y-5634975D01*
X16850047Y-5634768D01*
X16852490Y-5633626D01*
X16857535Y-5631500D01*
X16861632Y-5630222D01*
X16866903Y-5629894D01*
X16873139Y-5630764D01*
G36*
X16684096Y-5076858D02*
G01*
X16691651Y-5116932D01*
X16747404Y-5139915D01*
X16780847Y-5117175D01*
X16790212Y-5110843D01*
X16798678Y-5105190D01*
X16805850Y-5100473D01*
X16811331Y-5096950D01*
X16814728Y-5094881D01*
X16815653Y-5094434D01*
X16817320Y-5095582D01*
X16820881Y-5098755D01*
X16825937Y-5103548D01*
X16832090Y-5109556D01*
X16838940Y-5116373D01*
X16846088Y-5123595D01*
X16853135Y-5130814D01*
X16859681Y-5137627D01*
X16865328Y-5143628D01*
X16869676Y-5148412D01*
X16872327Y-5151573D01*
X16872961Y-5152631D01*
X16872049Y-5154581D01*
X16869492Y-5158853D01*
X16865560Y-5165030D01*
X16860520Y-5172693D01*
X16854643Y-5181425D01*
X16851237Y-5186405D01*
X16845029Y-5195499D01*
X16839513Y-5203706D01*
X16834955Y-5210616D01*
X16831625Y-5215822D01*
X16829789Y-5218915D01*
X16829513Y-5219565D01*
X16830139Y-5221412D01*
X16831843Y-5225717D01*
X16834370Y-5231875D01*
X16837462Y-5239280D01*
X16840862Y-5247327D01*
X16844312Y-5255411D01*
X16847555Y-5262926D01*
X16850334Y-5269267D01*
X16852392Y-5273829D01*
X16853472Y-5276007D01*
X16853536Y-5276093D01*
X16855231Y-5276508D01*
X16859745Y-5277436D01*
X16866611Y-5278784D01*
X16875360Y-5280462D01*
X16885525Y-5282378D01*
X16891456Y-5283483D01*
X16902317Y-5285551D01*
X16912128Y-5287519D01*
X16920391Y-5289279D01*
X16926610Y-5290723D01*
X16930290Y-5291745D01*
X16931030Y-5292069D01*
X16931754Y-5294262D01*
X16932339Y-5299215D01*
X16932784Y-5306349D01*
X16933089Y-5315084D01*
X16933257Y-5324842D01*
X16933285Y-5335043D01*
X16933176Y-5345108D01*
X16932929Y-5354457D01*
X16932546Y-5362513D01*
X16932025Y-5368694D01*
X16931368Y-5372423D01*
X16930974Y-5373199D01*
X16928619Y-5374130D01*
X16923628Y-5375460D01*
X16916662Y-5377034D01*
X16908381Y-5378695D01*
X16905491Y-5379232D01*
X16891553Y-5381785D01*
X16880544Y-5383841D01*
X16872098Y-5385482D01*
X16865853Y-5386789D01*
X16861444Y-5387844D01*
X16858509Y-5388729D01*
X16856682Y-5389526D01*
X16855600Y-5390317D01*
X16855449Y-5390473D01*
X16853938Y-5392989D01*
X16851633Y-5397885D01*
X16848764Y-5404562D01*
X16845562Y-5412421D01*
X16842257Y-5420861D01*
X16839077Y-5429283D01*
X16836255Y-5437088D01*
X16834019Y-5443676D01*
X16832601Y-5448447D01*
X16832229Y-5450803D01*
X16832260Y-5450885D01*
X16833519Y-5452810D01*
X16836374Y-5457046D01*
X16840527Y-5463152D01*
X16845676Y-5470687D01*
X16851521Y-5479210D01*
X16853186Y-5481632D01*
X16859122Y-5490412D01*
X16864345Y-5498424D01*
X16868571Y-5505206D01*
X16871515Y-5510299D01*
X16872894Y-5513243D01*
X16872961Y-5513605D01*
X16871802Y-5515506D01*
X16868602Y-5519271D01*
X16863772Y-5524497D01*
X16857722Y-5530779D01*
X16850864Y-5537711D01*
X16843610Y-5544889D01*
X16836371Y-5551908D01*
X16829558Y-5558364D01*
X16823583Y-5563851D01*
X16818857Y-5567966D01*
X16815791Y-5570303D01*
X16814943Y-5570684D01*
X16812969Y-5569786D01*
X16808927Y-5567362D01*
X16803476Y-5563821D01*
X16799282Y-5560971D01*
X16791683Y-5555742D01*
X16782683Y-5549585D01*
X16773656Y-5543437D01*
X16768803Y-5540147D01*
X16752376Y-5529036D01*
X16738587Y-5536492D01*
X16732305Y-5539758D01*
X16726963Y-5542297D01*
X16723348Y-5543745D01*
X16722428Y-5543946D01*
X16721322Y-5542458D01*
X16719139Y-5538255D01*
X16716043Y-5531723D01*
X16712197Y-5523250D01*
X16707763Y-5513225D01*
X16702905Y-5502034D01*
X16697785Y-5490066D01*
X16692566Y-5477708D01*
X16687411Y-5465349D01*
X16682484Y-5453376D01*
X16677947Y-5442176D01*
X16673962Y-5432138D01*
X16670694Y-5423649D01*
X16668305Y-5417097D01*
X16666957Y-5412869D01*
X16666741Y-5411417D01*
X16668458Y-5409565D01*
X16672219Y-5406559D01*
X16677237Y-5403023D01*
X16677658Y-5402743D01*
X16690626Y-5392363D01*
X16701083Y-5380252D01*
X16708938Y-5366798D01*
X16714100Y-5352388D01*
X16716478Y-5337411D01*
X16715982Y-5322252D01*
X16712522Y-5307299D01*
X16706006Y-5292940D01*
X16704089Y-5289798D01*
X16694117Y-5277113D01*
X16682338Y-5266926D01*
X16669157Y-5259290D01*
X16654983Y-5254260D01*
X16640224Y-5251888D01*
X16625287Y-5252227D01*
X16610580Y-5255329D01*
X16596511Y-5261248D01*
X16583487Y-5270037D01*
X16579459Y-5273604D01*
X16569205Y-5284771D01*
X16561734Y-5296526D01*
X16556609Y-5309702D01*
X16553755Y-5322751D01*
X16553050Y-5337422D01*
X16555400Y-5352165D01*
X16560565Y-5366483D01*
X16568307Y-5379878D01*
X16578387Y-5391850D01*
X16590568Y-5401901D01*
X16592168Y-5402961D01*
X16597240Y-5406431D01*
X16601095Y-5409437D01*
X16602938Y-5411357D01*
X16602965Y-5411417D01*
X16602569Y-5413494D01*
X16601001Y-5418206D01*
X16598422Y-5425167D01*
X16594997Y-5433989D01*
X16590888Y-5444284D01*
X16586258Y-5455665D01*
X16581270Y-5467744D01*
X16576087Y-5480132D01*
X16570872Y-5492443D01*
X16565788Y-5504289D01*
X16560999Y-5515282D01*
X16556666Y-5525035D01*
X16552954Y-5533159D01*
X16550024Y-5539268D01*
X16548041Y-5542973D01*
X16547243Y-5543946D01*
X16544802Y-5543188D01*
X16540236Y-5541156D01*
X16534331Y-5538213D01*
X16531084Y-5536492D01*
X16517295Y-5529036D01*
X16500868Y-5540147D01*
X16492482Y-5545839D01*
X16483301Y-5552103D01*
X16474698Y-5558001D01*
X16470389Y-5560971D01*
X16464328Y-5565041D01*
X16459195Y-5568266D01*
X16455661Y-5570238D01*
X16454514Y-5570655D01*
X16452843Y-5569531D01*
X16449145Y-5566391D01*
X16443779Y-5561562D01*
X16437104Y-5555371D01*
X16429477Y-5548142D01*
X16424653Y-5543501D01*
X16416213Y-5535209D01*
X16408920Y-5527792D01*
X16403067Y-5521568D01*
X16398950Y-5516854D01*
X16396863Y-5513967D01*
X16396663Y-5513382D01*
X16397592Y-5511153D01*
X16400159Y-5506648D01*
X16404080Y-5500321D01*
X16409070Y-5492630D01*
X16414843Y-5484029D01*
X16416485Y-5481632D01*
X16422468Y-5472917D01*
X16427835Y-5465071D01*
X16432287Y-5458535D01*
X16435523Y-5453748D01*
X16437244Y-5451154D01*
X16437411Y-5450885D01*
X16437162Y-5448817D01*
X16435842Y-5444270D01*
X16433681Y-5437844D01*
X16430910Y-5430139D01*
X16427757Y-5421753D01*
X16424454Y-5413287D01*
X16421230Y-5405339D01*
X16418316Y-5398510D01*
X16415941Y-5393400D01*
X16414336Y-5390607D01*
X16414222Y-5390473D01*
X16413241Y-5389675D01*
X16411584Y-5388885D01*
X16408887Y-5388023D01*
X16404786Y-5387006D01*
X16398918Y-5385753D01*
X16390919Y-5384182D01*
X16380424Y-5382211D01*
X16367071Y-5379759D01*
X16364180Y-5379232D01*
X16355612Y-5377576D01*
X16348142Y-5375957D01*
X16342431Y-5374530D01*
X16339138Y-5373451D01*
X16338697Y-5373199D01*
X16337969Y-5370970D01*
X16337378Y-5365987D01*
X16336923Y-5358830D01*
X16336605Y-5350079D01*
X16336425Y-5340313D01*
X16336382Y-5330110D01*
X16336478Y-5320050D01*
X16336712Y-5310713D01*
X16337084Y-5302677D01*
X16337597Y-5296521D01*
X16338248Y-5292825D01*
X16338641Y-5292069D01*
X16340829Y-5291306D01*
X16345811Y-5290064D01*
X16353090Y-5288452D01*
X16362171Y-5286577D01*
X16372557Y-5284547D01*
X16378215Y-5283483D01*
X16388951Y-5281476D01*
X16398525Y-5279658D01*
X16406469Y-5278120D01*
X16412315Y-5276953D01*
X16415595Y-5276249D01*
X16416135Y-5276093D01*
X16417048Y-5274332D01*
X16418976Y-5270092D01*
X16421664Y-5263977D01*
X16424855Y-5256594D01*
X16428290Y-5248549D01*
X16431713Y-5240447D01*
X16434867Y-5232894D01*
X16437495Y-5226496D01*
X16439339Y-5221858D01*
X16440143Y-5219587D01*
X16440158Y-5219488D01*
X16439246Y-5217696D01*
X16436691Y-5213573D01*
X16432761Y-5207529D01*
X16427724Y-5199973D01*
X16421849Y-5191315D01*
X16418434Y-5186342D01*
X16412211Y-5177224D01*
X16406684Y-5168945D01*
X16402122Y-5161925D01*
X16398795Y-5156582D01*
X16396974Y-5153336D01*
X16396710Y-5152608D01*
X16397841Y-5150915D01*
X16400968Y-5147298D01*
X16405691Y-5142164D01*
X16411611Y-5135917D01*
X16418328Y-5128963D01*
X16425443Y-5121707D01*
X16432557Y-5114554D01*
X16439271Y-5107909D01*
X16445184Y-5102177D01*
X16449897Y-5097765D01*
X16453012Y-5095076D01*
X16454054Y-5094434D01*
X16455751Y-5095337D01*
X16459809Y-5097872D01*
X16465834Y-5101781D01*
X16473431Y-5106807D01*
X16482205Y-5112692D01*
X16488824Y-5117175D01*
X16522267Y-5139915D01*
X16550143Y-5128424D01*
X16578020Y-5116932D01*
X16585575Y-5076858D01*
X16593129Y-5036783D01*
X16676541Y-5036783D01*
X16684096Y-5076858D01*
G37*
X16684096Y-5076858D02*
X16691651Y-5116932D01*
X16747404Y-5139915D01*
X16780847Y-5117175D01*
X16790212Y-5110843D01*
X16798678Y-5105190D01*
X16805850Y-5100473D01*
X16811331Y-5096950D01*
X16814728Y-5094881D01*
X16815653Y-5094434D01*
X16817320Y-5095582D01*
X16820881Y-5098755D01*
X16825937Y-5103548D01*
X16832090Y-5109556D01*
X16838940Y-5116373D01*
X16846088Y-5123595D01*
X16853135Y-5130814D01*
X16859681Y-5137627D01*
X16865328Y-5143628D01*
X16869676Y-5148412D01*
X16872327Y-5151573D01*
X16872961Y-5152631D01*
X16872049Y-5154581D01*
X16869492Y-5158853D01*
X16865560Y-5165030D01*
X16860520Y-5172693D01*
X16854643Y-5181425D01*
X16851237Y-5186405D01*
X16845029Y-5195499D01*
X16839513Y-5203706D01*
X16834955Y-5210616D01*
X16831625Y-5215822D01*
X16829789Y-5218915D01*
X16829513Y-5219565D01*
X16830139Y-5221412D01*
X16831843Y-5225717D01*
X16834370Y-5231875D01*
X16837462Y-5239280D01*
X16840862Y-5247327D01*
X16844312Y-5255411D01*
X16847555Y-5262926D01*
X16850334Y-5269267D01*
X16852392Y-5273829D01*
X16853472Y-5276007D01*
X16853536Y-5276093D01*
X16855231Y-5276508D01*
X16859745Y-5277436D01*
X16866611Y-5278784D01*
X16875360Y-5280462D01*
X16885525Y-5282378D01*
X16891456Y-5283483D01*
X16902317Y-5285551D01*
X16912128Y-5287519D01*
X16920391Y-5289279D01*
X16926610Y-5290723D01*
X16930290Y-5291745D01*
X16931030Y-5292069D01*
X16931754Y-5294262D01*
X16932339Y-5299215D01*
X16932784Y-5306349D01*
X16933089Y-5315084D01*
X16933257Y-5324842D01*
X16933285Y-5335043D01*
X16933176Y-5345108D01*
X16932929Y-5354457D01*
X16932546Y-5362513D01*
X16932025Y-5368694D01*
X16931368Y-5372423D01*
X16930974Y-5373199D01*
X16928619Y-5374130D01*
X16923628Y-5375460D01*
X16916662Y-5377034D01*
X16908381Y-5378695D01*
X16905491Y-5379232D01*
X16891553Y-5381785D01*
X16880544Y-5383841D01*
X16872098Y-5385482D01*
X16865853Y-5386789D01*
X16861444Y-5387844D01*
X16858509Y-5388729D01*
X16856682Y-5389526D01*
X16855600Y-5390317D01*
X16855449Y-5390473D01*
X16853938Y-5392989D01*
X16851633Y-5397885D01*
X16848764Y-5404562D01*
X16845562Y-5412421D01*
X16842257Y-5420861D01*
X16839077Y-5429283D01*
X16836255Y-5437088D01*
X16834019Y-5443676D01*
X16832601Y-5448447D01*
X16832229Y-5450803D01*
X16832260Y-5450885D01*
X16833519Y-5452810D01*
X16836374Y-5457046D01*
X16840527Y-5463152D01*
X16845676Y-5470687D01*
X16851521Y-5479210D01*
X16853186Y-5481632D01*
X16859122Y-5490412D01*
X16864345Y-5498424D01*
X16868571Y-5505206D01*
X16871515Y-5510299D01*
X16872894Y-5513243D01*
X16872961Y-5513605D01*
X16871802Y-5515506D01*
X16868602Y-5519271D01*
X16863772Y-5524497D01*
X16857722Y-5530779D01*
X16850864Y-5537711D01*
X16843610Y-5544889D01*
X16836371Y-5551908D01*
X16829558Y-5558364D01*
X16823583Y-5563851D01*
X16818857Y-5567966D01*
X16815791Y-5570303D01*
X16814943Y-5570684D01*
X16812969Y-5569786D01*
X16808927Y-5567362D01*
X16803476Y-5563821D01*
X16799282Y-5560971D01*
X16791683Y-5555742D01*
X16782683Y-5549585D01*
X16773656Y-5543437D01*
X16768803Y-5540147D01*
X16752376Y-5529036D01*
X16738587Y-5536492D01*
X16732305Y-5539758D01*
X16726963Y-5542297D01*
X16723348Y-5543745D01*
X16722428Y-5543946D01*
X16721322Y-5542458D01*
X16719139Y-5538255D01*
X16716043Y-5531723D01*
X16712197Y-5523250D01*
X16707763Y-5513225D01*
X16702905Y-5502034D01*
X16697785Y-5490066D01*
X16692566Y-5477708D01*
X16687411Y-5465349D01*
X16682484Y-5453376D01*
X16677947Y-5442176D01*
X16673962Y-5432138D01*
X16670694Y-5423649D01*
X16668305Y-5417097D01*
X16666957Y-5412869D01*
X16666741Y-5411417D01*
X16668458Y-5409565D01*
X16672219Y-5406559D01*
X16677237Y-5403023D01*
X16677658Y-5402743D01*
X16690626Y-5392363D01*
X16701083Y-5380252D01*
X16708938Y-5366798D01*
X16714100Y-5352388D01*
X16716478Y-5337411D01*
X16715982Y-5322252D01*
X16712522Y-5307299D01*
X16706006Y-5292940D01*
X16704089Y-5289798D01*
X16694117Y-5277113D01*
X16682338Y-5266926D01*
X16669157Y-5259290D01*
X16654983Y-5254260D01*
X16640224Y-5251888D01*
X16625287Y-5252227D01*
X16610580Y-5255329D01*
X16596511Y-5261248D01*
X16583487Y-5270037D01*
X16579459Y-5273604D01*
X16569205Y-5284771D01*
X16561734Y-5296526D01*
X16556609Y-5309702D01*
X16553755Y-5322751D01*
X16553050Y-5337422D01*
X16555400Y-5352165D01*
X16560565Y-5366483D01*
X16568307Y-5379878D01*
X16578387Y-5391850D01*
X16590568Y-5401901D01*
X16592168Y-5402961D01*
X16597240Y-5406431D01*
X16601095Y-5409437D01*
X16602938Y-5411357D01*
X16602965Y-5411417D01*
X16602569Y-5413494D01*
X16601001Y-5418206D01*
X16598422Y-5425167D01*
X16594997Y-5433989D01*
X16590888Y-5444284D01*
X16586258Y-5455665D01*
X16581270Y-5467744D01*
X16576087Y-5480132D01*
X16570872Y-5492443D01*
X16565788Y-5504289D01*
X16560999Y-5515282D01*
X16556666Y-5525035D01*
X16552954Y-5533159D01*
X16550024Y-5539268D01*
X16548041Y-5542973D01*
X16547243Y-5543946D01*
X16544802Y-5543188D01*
X16540236Y-5541156D01*
X16534331Y-5538213D01*
X16531084Y-5536492D01*
X16517295Y-5529036D01*
X16500868Y-5540147D01*
X16492482Y-5545839D01*
X16483301Y-5552103D01*
X16474698Y-5558001D01*
X16470389Y-5560971D01*
X16464328Y-5565041D01*
X16459195Y-5568266D01*
X16455661Y-5570238D01*
X16454514Y-5570655D01*
X16452843Y-5569531D01*
X16449145Y-5566391D01*
X16443779Y-5561562D01*
X16437104Y-5555371D01*
X16429477Y-5548142D01*
X16424653Y-5543501D01*
X16416213Y-5535209D01*
X16408920Y-5527792D01*
X16403067Y-5521568D01*
X16398950Y-5516854D01*
X16396863Y-5513967D01*
X16396663Y-5513382D01*
X16397592Y-5511153D01*
X16400159Y-5506648D01*
X16404080Y-5500321D01*
X16409070Y-5492630D01*
X16414843Y-5484029D01*
X16416485Y-5481632D01*
X16422468Y-5472917D01*
X16427835Y-5465071D01*
X16432287Y-5458535D01*
X16435523Y-5453748D01*
X16437244Y-5451154D01*
X16437411Y-5450885D01*
X16437162Y-5448817D01*
X16435842Y-5444270D01*
X16433681Y-5437844D01*
X16430910Y-5430139D01*
X16427757Y-5421753D01*
X16424454Y-5413287D01*
X16421230Y-5405339D01*
X16418316Y-5398510D01*
X16415941Y-5393400D01*
X16414336Y-5390607D01*
X16414222Y-5390473D01*
X16413241Y-5389675D01*
X16411584Y-5388885D01*
X16408887Y-5388023D01*
X16404786Y-5387006D01*
X16398918Y-5385753D01*
X16390919Y-5384182D01*
X16380424Y-5382211D01*
X16367071Y-5379759D01*
X16364180Y-5379232D01*
X16355612Y-5377576D01*
X16348142Y-5375957D01*
X16342431Y-5374530D01*
X16339138Y-5373451D01*
X16338697Y-5373199D01*
X16337969Y-5370970D01*
X16337378Y-5365987D01*
X16336923Y-5358830D01*
X16336605Y-5350079D01*
X16336425Y-5340313D01*
X16336382Y-5330110D01*
X16336478Y-5320050D01*
X16336712Y-5310713D01*
X16337084Y-5302677D01*
X16337597Y-5296521D01*
X16338248Y-5292825D01*
X16338641Y-5292069D01*
X16340829Y-5291306D01*
X16345811Y-5290064D01*
X16353090Y-5288452D01*
X16362171Y-5286577D01*
X16372557Y-5284547D01*
X16378215Y-5283483D01*
X16388951Y-5281476D01*
X16398525Y-5279658D01*
X16406469Y-5278120D01*
X16412315Y-5276953D01*
X16415595Y-5276249D01*
X16416135Y-5276093D01*
X16417048Y-5274332D01*
X16418976Y-5270092D01*
X16421664Y-5263977D01*
X16424855Y-5256594D01*
X16428290Y-5248549D01*
X16431713Y-5240447D01*
X16434867Y-5232894D01*
X16437495Y-5226496D01*
X16439339Y-5221858D01*
X16440143Y-5219587D01*
X16440158Y-5219488D01*
X16439246Y-5217696D01*
X16436691Y-5213573D01*
X16432761Y-5207529D01*
X16427724Y-5199973D01*
X16421849Y-5191315D01*
X16418434Y-5186342D01*
X16412211Y-5177224D01*
X16406684Y-5168945D01*
X16402122Y-5161925D01*
X16398795Y-5156582D01*
X16396974Y-5153336D01*
X16396710Y-5152608D01*
X16397841Y-5150915D01*
X16400968Y-5147298D01*
X16405691Y-5142164D01*
X16411611Y-5135917D01*
X16418328Y-5128963D01*
X16425443Y-5121707D01*
X16432557Y-5114554D01*
X16439271Y-5107909D01*
X16445184Y-5102177D01*
X16449897Y-5097765D01*
X16453012Y-5095076D01*
X16454054Y-5094434D01*
X16455751Y-5095337D01*
X16459809Y-5097872D01*
X16465834Y-5101781D01*
X16473431Y-5106807D01*
X16482205Y-5112692D01*
X16488824Y-5117175D01*
X16522267Y-5139915D01*
X16550143Y-5128424D01*
X16578020Y-5116932D01*
X16585575Y-5076858D01*
X16593129Y-5036783D01*
X16676541Y-5036783D01*
X16684096Y-5076858D01*
D14*
%TO.C,LOGO1*%
X17480500Y-5439000D02*
G75*
G03*
X17480500Y-5439000I-12500J0D01*
G01*
X17580500Y-5439000D02*
G75*
G03*
X17580500Y-5439000I-12500J0D01*
G01*
X17680500Y-5439000D02*
G75*
G03*
X17680500Y-5439000I-12500J0D01*
G01*
X17680500Y-5339000D02*
G75*
G03*
X17680500Y-5339000I-12500J0D01*
G01*
X17580500Y-5339000D02*
G75*
G03*
X17580500Y-5339000I-12500J0D01*
G01*
X17480500Y-5339000D02*
G75*
G03*
X17480500Y-5339000I-12500J0D01*
G01*
X17580500Y-5239000D02*
G75*
G03*
X17580500Y-5239000I-12500J0D01*
G01*
X17480500Y-5239000D02*
G75*
G03*
X17480500Y-5239000I-12500J0D01*
G01*
X17680500Y-5239000D02*
G75*
G03*
X17680500Y-5239000I-12500J0D01*
G01*
D11*
%TO.C,C2*%
X17756000Y-9663000D02*
G75*
G03*
X17756000Y-9663000I-327000J0D01*
G01*
X17429000Y-9986000D02*
X17429000Y-9340000D01*
X17425000Y-9986000D02*
X17425000Y-9340000D01*
X17421000Y-9986000D02*
X17421000Y-9340000D01*
X17417000Y-9985800D02*
X17417000Y-9340200D01*
X17413000Y-9985700D02*
X17413000Y-9340300D01*
X17409000Y-9985400D02*
X17409000Y-9340600D01*
X17405000Y-9985200D02*
X17405000Y-9767000D01*
X17405000Y-9559000D02*
X17405000Y-9340800D01*
X17401000Y-9984800D02*
X17401000Y-9767000D01*
X17401000Y-9559000D02*
X17401000Y-9341200D01*
X17397000Y-9984500D02*
X17397000Y-9767000D01*
X17397000Y-9559000D02*
X17397000Y-9341500D01*
X17393000Y-9984100D02*
X17393000Y-9767000D01*
X17393000Y-9559000D02*
X17393000Y-9341900D01*
X17389000Y-9983600D02*
X17389000Y-9767000D01*
X17389000Y-9559000D02*
X17389000Y-9342400D01*
X17385000Y-9983100D02*
X17385000Y-9767000D01*
X17385000Y-9559000D02*
X17385000Y-9342900D01*
X17381000Y-9982500D02*
X17381000Y-9767000D01*
X17381000Y-9559000D02*
X17381000Y-9343500D01*
X17377000Y-9981900D02*
X17377000Y-9767000D01*
X17377000Y-9559000D02*
X17377000Y-9344100D01*
X17373000Y-9981200D02*
X17373000Y-9767000D01*
X17373000Y-9559000D02*
X17373000Y-9344800D01*
X17369000Y-9980500D02*
X17369000Y-9767000D01*
X17369000Y-9559000D02*
X17369000Y-9345500D01*
X17365000Y-9979700D02*
X17365000Y-9767000D01*
X17365000Y-9559000D02*
X17365000Y-9346300D01*
X17361000Y-9978900D02*
X17361000Y-9767000D01*
X17361000Y-9559000D02*
X17361000Y-9347100D01*
X17356900Y-9978000D02*
X17356900Y-9767000D01*
X17356900Y-9559000D02*
X17356900Y-9348000D01*
X17352900Y-9977100D02*
X17352900Y-9767000D01*
X17352900Y-9559000D02*
X17352900Y-9348900D01*
X17348900Y-9976100D02*
X17348900Y-9767000D01*
X17348900Y-9559000D02*
X17348900Y-9349900D01*
X17344900Y-9975100D02*
X17344900Y-9767000D01*
X17344900Y-9559000D02*
X17344900Y-9350900D01*
X17340900Y-9974000D02*
X17340900Y-9767000D01*
X17340900Y-9559000D02*
X17340900Y-9352000D01*
X17336900Y-9972800D02*
X17336900Y-9767000D01*
X17336900Y-9559000D02*
X17336900Y-9353200D01*
X17332900Y-9971600D02*
X17332900Y-9767000D01*
X17332900Y-9559000D02*
X17332900Y-9354400D01*
X17328900Y-9970400D02*
X17328900Y-9767000D01*
X17328900Y-9559000D02*
X17328900Y-9355600D01*
X17324900Y-9969100D02*
X17324900Y-9767000D01*
X17324900Y-9559000D02*
X17324900Y-9356900D01*
X17320900Y-9967700D02*
X17320900Y-9767000D01*
X17320900Y-9559000D02*
X17320900Y-9358300D01*
X17316900Y-9966300D02*
X17316900Y-9767000D01*
X17316900Y-9559000D02*
X17316900Y-9359700D01*
X17312900Y-9964800D02*
X17312900Y-9767000D01*
X17312900Y-9559000D02*
X17312900Y-9361200D01*
X17308900Y-9963200D02*
X17308900Y-9767000D01*
X17308900Y-9559000D02*
X17308900Y-9362800D01*
X17304900Y-9961600D02*
X17304900Y-9767000D01*
X17304900Y-9559000D02*
X17304900Y-9364400D01*
X17300900Y-9960000D02*
X17300900Y-9767000D01*
X17300900Y-9559000D02*
X17300900Y-9366000D01*
X17296900Y-9958200D02*
X17296900Y-9767000D01*
X17296900Y-9559000D02*
X17296900Y-9367800D01*
X17292900Y-9956400D02*
X17292900Y-9767000D01*
X17292900Y-9559000D02*
X17292900Y-9369600D01*
X17288900Y-9954600D02*
X17288900Y-9767000D01*
X17288900Y-9559000D02*
X17288900Y-9371400D01*
X17284900Y-9952600D02*
X17284900Y-9767000D01*
X17284900Y-9559000D02*
X17284900Y-9373400D01*
X17280900Y-9950600D02*
X17280900Y-9767000D01*
X17280900Y-9559000D02*
X17280900Y-9375400D01*
X17276900Y-9948600D02*
X17276900Y-9767000D01*
X17276900Y-9559000D02*
X17276900Y-9377400D01*
X17272900Y-9946400D02*
X17272900Y-9767000D01*
X17272900Y-9559000D02*
X17272900Y-9379600D01*
X17268900Y-9944200D02*
X17268900Y-9767000D01*
X17268900Y-9559000D02*
X17268900Y-9381800D01*
X17264900Y-9942000D02*
X17264900Y-9767000D01*
X17264900Y-9559000D02*
X17264900Y-9384000D01*
X17260900Y-9939600D02*
X17260900Y-9767000D01*
X17260900Y-9559000D02*
X17260900Y-9386400D01*
X17256900Y-9937200D02*
X17256900Y-9767000D01*
X17256900Y-9559000D02*
X17256900Y-9388800D01*
X17252900Y-9934600D02*
X17252900Y-9767000D01*
X17252900Y-9559000D02*
X17252900Y-9391400D01*
X17248900Y-9932000D02*
X17248900Y-9767000D01*
X17248900Y-9559000D02*
X17248900Y-9394000D01*
X17244900Y-9929400D02*
X17244900Y-9767000D01*
X17244900Y-9559000D02*
X17244900Y-9396600D01*
X17240900Y-9926600D02*
X17240900Y-9767000D01*
X17240900Y-9559000D02*
X17240900Y-9399400D01*
X17236900Y-9923700D02*
X17236900Y-9767000D01*
X17236900Y-9559000D02*
X17236900Y-9402300D01*
X17232900Y-9920800D02*
X17232900Y-9767000D01*
X17232900Y-9559000D02*
X17232900Y-9405200D01*
X17228900Y-9917800D02*
X17228900Y-9767000D01*
X17228900Y-9559000D02*
X17228900Y-9408200D01*
X17224900Y-9914600D02*
X17224900Y-9767000D01*
X17224900Y-9559000D02*
X17224900Y-9411400D01*
X17220900Y-9911400D02*
X17220900Y-9767000D01*
X17220900Y-9559000D02*
X17220900Y-9414600D01*
X17216900Y-9908000D02*
X17216900Y-9767000D01*
X17216900Y-9559000D02*
X17216900Y-9418000D01*
X17212900Y-9904600D02*
X17212900Y-9767000D01*
X17212900Y-9559000D02*
X17212900Y-9421400D01*
X17208900Y-9901000D02*
X17208900Y-9767000D01*
X17208900Y-9559000D02*
X17208900Y-9425000D01*
X17204900Y-9897300D02*
X17204900Y-9767000D01*
X17204900Y-9559000D02*
X17204900Y-9428700D01*
X17200900Y-9893500D02*
X17200900Y-9767000D01*
X17200900Y-9559000D02*
X17200900Y-9432500D01*
X17196900Y-9889500D02*
X17196900Y-9436500D01*
X17192900Y-9885400D02*
X17192900Y-9440600D01*
X17188900Y-9881200D02*
X17188900Y-9444800D01*
X17184900Y-9876700D02*
X17184900Y-9449300D01*
X17180900Y-9872200D02*
X17180900Y-9453800D01*
X17176900Y-9867400D02*
X17176900Y-9458600D01*
X17172900Y-9862500D02*
X17172900Y-9463500D01*
X17168900Y-9857400D02*
X17168900Y-9468600D01*
X17164900Y-9852000D02*
X17164900Y-9474000D01*
X17160900Y-9846400D02*
X17160900Y-9479600D01*
X17156900Y-9840600D02*
X17156900Y-9485400D01*
X17152900Y-9834400D02*
X17152900Y-9491600D01*
X17148900Y-9828000D02*
X17148900Y-9498000D01*
X17144900Y-9821100D02*
X17144900Y-9504900D01*
X17140900Y-9813900D02*
X17140900Y-9512100D01*
X17136900Y-9806200D02*
X17136900Y-9519800D01*
X17132900Y-9798000D02*
X17132900Y-9528000D01*
X17128900Y-9789200D02*
X17128900Y-9536800D01*
X17124900Y-9779500D02*
X17124900Y-9546500D01*
X17120900Y-9768900D02*
X17120900Y-9557100D01*
X17116900Y-9757000D02*
X17116900Y-9569000D01*
X17112900Y-9743200D02*
X17112900Y-9582800D01*
X17108900Y-9726300D02*
X17108900Y-9599700D01*
X17104900Y-9703200D02*
X17104900Y-9622800D01*
X17779024Y-9846900D02*
X17716024Y-9846900D01*
X17747524Y-9878400D02*
X17747524Y-9815400D01*
%TO.C,C1*%
X17810476Y-9447600D02*
X17810476Y-9510600D01*
X17778976Y-9479100D02*
X17841976Y-9479100D01*
X18453100Y-9622800D02*
X18453100Y-9703200D01*
X18449100Y-9599700D02*
X18449100Y-9726300D01*
X18445100Y-9582800D02*
X18445100Y-9743200D01*
X18441100Y-9569000D02*
X18441100Y-9757000D01*
X18437100Y-9557100D02*
X18437100Y-9768900D01*
X18433100Y-9546500D02*
X18433100Y-9779500D01*
X18429100Y-9536800D02*
X18429100Y-9789200D01*
X18425100Y-9528000D02*
X18425100Y-9798000D01*
X18421100Y-9519800D02*
X18421100Y-9806200D01*
X18417100Y-9512100D02*
X18417100Y-9813900D01*
X18413100Y-9504900D02*
X18413100Y-9821100D01*
X18409100Y-9498000D02*
X18409100Y-9828000D01*
X18405100Y-9491600D02*
X18405100Y-9834400D01*
X18401100Y-9485400D02*
X18401100Y-9840600D01*
X18397100Y-9479600D02*
X18397100Y-9846400D01*
X18393100Y-9474000D02*
X18393100Y-9852000D01*
X18389100Y-9468600D02*
X18389100Y-9857400D01*
X18385100Y-9463500D02*
X18385100Y-9862500D01*
X18381100Y-9458600D02*
X18381100Y-9867400D01*
X18377100Y-9453800D02*
X18377100Y-9872200D01*
X18373100Y-9449300D02*
X18373100Y-9876700D01*
X18369100Y-9444800D02*
X18369100Y-9881200D01*
X18365100Y-9440600D02*
X18365100Y-9885400D01*
X18361100Y-9436500D02*
X18361100Y-9889500D01*
X18357100Y-9767000D02*
X18357100Y-9893500D01*
X18357100Y-9432500D02*
X18357100Y-9559000D01*
X18353100Y-9767000D02*
X18353100Y-9897300D01*
X18353100Y-9428700D02*
X18353100Y-9559000D01*
X18349100Y-9767000D02*
X18349100Y-9901000D01*
X18349100Y-9425000D02*
X18349100Y-9559000D01*
X18345100Y-9767000D02*
X18345100Y-9904600D01*
X18345100Y-9421400D02*
X18345100Y-9559000D01*
X18341100Y-9767000D02*
X18341100Y-9908000D01*
X18341100Y-9418000D02*
X18341100Y-9559000D01*
X18337100Y-9767000D02*
X18337100Y-9911400D01*
X18337100Y-9414600D02*
X18337100Y-9559000D01*
X18333100Y-9767000D02*
X18333100Y-9914600D01*
X18333100Y-9411400D02*
X18333100Y-9559000D01*
X18329100Y-9767000D02*
X18329100Y-9917800D01*
X18329100Y-9408200D02*
X18329100Y-9559000D01*
X18325100Y-9767000D02*
X18325100Y-9920800D01*
X18325100Y-9405200D02*
X18325100Y-9559000D01*
X18321100Y-9767000D02*
X18321100Y-9923700D01*
X18321100Y-9402300D02*
X18321100Y-9559000D01*
X18317100Y-9767000D02*
X18317100Y-9926600D01*
X18317100Y-9399400D02*
X18317100Y-9559000D01*
X18313100Y-9767000D02*
X18313100Y-9929400D01*
X18313100Y-9396600D02*
X18313100Y-9559000D01*
X18309100Y-9767000D02*
X18309100Y-9932000D01*
X18309100Y-9394000D02*
X18309100Y-9559000D01*
X18305100Y-9767000D02*
X18305100Y-9934600D01*
X18305100Y-9391400D02*
X18305100Y-9559000D01*
X18301100Y-9767000D02*
X18301100Y-9937200D01*
X18301100Y-9388800D02*
X18301100Y-9559000D01*
X18297100Y-9767000D02*
X18297100Y-9939600D01*
X18297100Y-9386400D02*
X18297100Y-9559000D01*
X18293100Y-9767000D02*
X18293100Y-9942000D01*
X18293100Y-9384000D02*
X18293100Y-9559000D01*
X18289100Y-9767000D02*
X18289100Y-9944200D01*
X18289100Y-9381800D02*
X18289100Y-9559000D01*
X18285100Y-9767000D02*
X18285100Y-9946400D01*
X18285100Y-9379600D02*
X18285100Y-9559000D01*
X18281100Y-9767000D02*
X18281100Y-9948600D01*
X18281100Y-9377400D02*
X18281100Y-9559000D01*
X18277100Y-9767000D02*
X18277100Y-9950600D01*
X18277100Y-9375400D02*
X18277100Y-9559000D01*
X18273100Y-9767000D02*
X18273100Y-9952600D01*
X18273100Y-9373400D02*
X18273100Y-9559000D01*
X18269100Y-9767000D02*
X18269100Y-9954600D01*
X18269100Y-9371400D02*
X18269100Y-9559000D01*
X18265100Y-9767000D02*
X18265100Y-9956400D01*
X18265100Y-9369600D02*
X18265100Y-9559000D01*
X18261100Y-9767000D02*
X18261100Y-9958200D01*
X18261100Y-9367800D02*
X18261100Y-9559000D01*
X18257100Y-9767000D02*
X18257100Y-9960000D01*
X18257100Y-9366000D02*
X18257100Y-9559000D01*
X18253100Y-9767000D02*
X18253100Y-9961600D01*
X18253100Y-9364400D02*
X18253100Y-9559000D01*
X18249100Y-9767000D02*
X18249100Y-9963200D01*
X18249100Y-9362800D02*
X18249100Y-9559000D01*
X18245100Y-9767000D02*
X18245100Y-9964800D01*
X18245100Y-9361200D02*
X18245100Y-9559000D01*
X18241100Y-9767000D02*
X18241100Y-9966300D01*
X18241100Y-9359700D02*
X18241100Y-9559000D01*
X18237100Y-9767000D02*
X18237100Y-9967700D01*
X18237100Y-9358300D02*
X18237100Y-9559000D01*
X18233100Y-9767000D02*
X18233100Y-9969100D01*
X18233100Y-9356900D02*
X18233100Y-9559000D01*
X18229100Y-9767000D02*
X18229100Y-9970400D01*
X18229100Y-9355600D02*
X18229100Y-9559000D01*
X18225100Y-9767000D02*
X18225100Y-9971600D01*
X18225100Y-9354400D02*
X18225100Y-9559000D01*
X18221100Y-9767000D02*
X18221100Y-9972800D01*
X18221100Y-9353200D02*
X18221100Y-9559000D01*
X18217100Y-9767000D02*
X18217100Y-9974000D01*
X18217100Y-9352000D02*
X18217100Y-9559000D01*
X18213100Y-9767000D02*
X18213100Y-9975100D01*
X18213100Y-9350900D02*
X18213100Y-9559000D01*
X18209100Y-9767000D02*
X18209100Y-9976100D01*
X18209100Y-9349900D02*
X18209100Y-9559000D01*
X18205100Y-9767000D02*
X18205100Y-9977100D01*
X18205100Y-9348900D02*
X18205100Y-9559000D01*
X18201100Y-9767000D02*
X18201100Y-9978000D01*
X18201100Y-9348000D02*
X18201100Y-9559000D01*
X18197000Y-9767000D02*
X18197000Y-9978900D01*
X18197000Y-9347100D02*
X18197000Y-9559000D01*
X18193000Y-9767000D02*
X18193000Y-9979700D01*
X18193000Y-9346300D02*
X18193000Y-9559000D01*
X18189000Y-9767000D02*
X18189000Y-9980500D01*
X18189000Y-9345500D02*
X18189000Y-9559000D01*
X18185000Y-9767000D02*
X18185000Y-9981200D01*
X18185000Y-9344800D02*
X18185000Y-9559000D01*
X18181000Y-9767000D02*
X18181000Y-9981900D01*
X18181000Y-9344100D02*
X18181000Y-9559000D01*
X18177000Y-9767000D02*
X18177000Y-9982500D01*
X18177000Y-9343500D02*
X18177000Y-9559000D01*
X18173000Y-9767000D02*
X18173000Y-9983100D01*
X18173000Y-9342900D02*
X18173000Y-9559000D01*
X18169000Y-9767000D02*
X18169000Y-9983600D01*
X18169000Y-9342400D02*
X18169000Y-9559000D01*
X18165000Y-9767000D02*
X18165000Y-9984100D01*
X18165000Y-9341900D02*
X18165000Y-9559000D01*
X18161000Y-9767000D02*
X18161000Y-9984500D01*
X18161000Y-9341500D02*
X18161000Y-9559000D01*
X18157000Y-9767000D02*
X18157000Y-9984800D01*
X18157000Y-9341200D02*
X18157000Y-9559000D01*
X18153000Y-9767000D02*
X18153000Y-9985200D01*
X18153000Y-9340800D02*
X18153000Y-9559000D01*
X18149000Y-9340600D02*
X18149000Y-9985400D01*
X18145000Y-9340300D02*
X18145000Y-9985700D01*
X18141000Y-9340200D02*
X18141000Y-9985800D01*
X18137000Y-9340000D02*
X18137000Y-9986000D01*
X18133000Y-9340000D02*
X18133000Y-9986000D01*
X18129000Y-9340000D02*
X18129000Y-9986000D01*
X18456000Y-9663000D02*
G75*
G03*
X18456000Y-9663000I-327000J0D01*
G01*
%TO.C,D2*%
X17954000Y-9098000D02*
X17954000Y-8928000D01*
X17954000Y-8928000D02*
X17699000Y-8928000D01*
X17954000Y-9098000D02*
X17699000Y-9098000D01*
%TO.C,D1*%
X18209000Y-10678000D02*
X17639000Y-10678000D01*
X18209000Y-10248000D02*
X17639000Y-10248000D01*
X18209000Y-10678000D02*
X18209000Y-10248000D01*
%TO.C,Q1*%
X18095000Y-8122000D02*
X17969000Y-8122000D01*
X17413000Y-8122000D02*
X17539000Y-8122000D01*
X18095000Y-8498000D02*
X18095000Y-8122000D01*
X17413000Y-8723000D02*
X17413000Y-8122000D01*
%TO.C,R5*%
X17577500Y-9081544D02*
X17577500Y-9126956D01*
X17430500Y-9081544D02*
X17430500Y-9126956D01*
%TO.C,U6*%
D15*
X6573809Y-12805238D02*
X6573809Y-12886190D01*
X6578571Y-12895714D01*
X6583333Y-12900476D01*
X6592857Y-12905238D01*
X6611905Y-12905238D01*
X6621428Y-12900476D01*
X6626190Y-12895714D01*
X6630952Y-12886190D01*
X6630952Y-12805238D01*
X6721428Y-12805238D02*
X6702381Y-12805238D01*
X6692857Y-12810000D01*
X6688095Y-12814762D01*
X6678571Y-12829048D01*
X6673809Y-12848095D01*
X6673809Y-12886190D01*
X6678571Y-12895714D01*
X6683333Y-12900476D01*
X6692857Y-12905238D01*
X6711905Y-12905238D01*
X6721428Y-12900476D01*
X6726190Y-12895714D01*
X6730952Y-12886190D01*
X6730952Y-12862381D01*
X6726190Y-12852857D01*
X6721428Y-12848095D01*
X6711905Y-12843333D01*
X6692857Y-12843333D01*
X6683333Y-12848095D01*
X6678571Y-12852857D01*
X6673809Y-12862381D01*
%TO.C,R11*%
X6983214Y-7083238D02*
X6949881Y-7035619D01*
X6926071Y-7083238D02*
X6926071Y-6983238D01*
X6964167Y-6983238D01*
X6973690Y-6988000D01*
X6978452Y-6992762D01*
X6983214Y-7002286D01*
X6983214Y-7016571D01*
X6978452Y-7026095D01*
X6973690Y-7030857D01*
X6964167Y-7035619D01*
X6926071Y-7035619D01*
X7078452Y-7083238D02*
X7021309Y-7083238D01*
X7049881Y-7083238D02*
X7049881Y-6983238D01*
X7040357Y-6997524D01*
X7030833Y-7007048D01*
X7021309Y-7011809D01*
X7173690Y-7083238D02*
X7116548Y-7083238D01*
X7145119Y-7083238D02*
X7145119Y-6983238D01*
X7135595Y-6997524D01*
X7126071Y-7007048D01*
X7116548Y-7011809D01*
%TO.C,R10*%
X6983214Y-7413238D02*
X6949881Y-7365619D01*
X6926071Y-7413238D02*
X6926071Y-7313238D01*
X6964167Y-7313238D01*
X6973690Y-7318000D01*
X6978452Y-7322762D01*
X6983214Y-7332286D01*
X6983214Y-7346571D01*
X6978452Y-7356095D01*
X6973690Y-7360857D01*
X6964167Y-7365619D01*
X6926071Y-7365619D01*
X7078452Y-7413238D02*
X7021309Y-7413238D01*
X7049881Y-7413238D02*
X7049881Y-7313238D01*
X7040357Y-7327524D01*
X7030833Y-7337048D01*
X7021309Y-7341809D01*
X7140357Y-7313238D02*
X7149881Y-7313238D01*
X7159405Y-7318000D01*
X7164167Y-7322762D01*
X7168928Y-7332286D01*
X7173690Y-7351333D01*
X7173690Y-7375143D01*
X7168928Y-7394190D01*
X7164167Y-7403714D01*
X7159405Y-7408476D01*
X7149881Y-7413238D01*
X7140357Y-7413238D01*
X7130833Y-7408476D01*
X7126071Y-7403714D01*
X7121309Y-7394190D01*
X7116548Y-7375143D01*
X7116548Y-7351333D01*
X7121309Y-7332286D01*
X7126071Y-7322762D01*
X7130833Y-7318000D01*
X7140357Y-7313238D01*
%TO.C,JP1*%
X16516667Y-8215238D02*
X16516667Y-8286667D01*
X16511905Y-8300952D01*
X16502381Y-8310476D01*
X16488095Y-8315238D01*
X16478571Y-8315238D01*
X16564286Y-8315238D02*
X16564286Y-8215238D01*
X16602381Y-8215238D01*
X16611905Y-8220000D01*
X16616667Y-8224762D01*
X16621428Y-8234286D01*
X16621428Y-8248571D01*
X16616667Y-8258095D01*
X16611905Y-8262857D01*
X16602381Y-8267619D01*
X16564286Y-8267619D01*
X16716667Y-8315238D02*
X16659524Y-8315238D01*
X16688095Y-8315238D02*
X16688095Y-8215238D01*
X16678571Y-8229524D01*
X16669048Y-8239048D01*
X16659524Y-8243809D01*
%TO.C,D3*%
X17385238Y-8363809D02*
X17285238Y-8363809D01*
X17285238Y-8340000D01*
X17290000Y-8325714D01*
X17299524Y-8316190D01*
X17309048Y-8311428D01*
X17328095Y-8306667D01*
X17342381Y-8306667D01*
X17361429Y-8311428D01*
X17370952Y-8316190D01*
X17380476Y-8325714D01*
X17385238Y-8340000D01*
X17385238Y-8363809D01*
X17285238Y-8273333D02*
X17285238Y-8211428D01*
X17323333Y-8244762D01*
X17323333Y-8230476D01*
X17328095Y-8220952D01*
X17332857Y-8216190D01*
X17342381Y-8211428D01*
X17366190Y-8211428D01*
X17375714Y-8216190D01*
X17380476Y-8220952D01*
X17385238Y-8230476D01*
X17385238Y-8259048D01*
X17380476Y-8268571D01*
X17375714Y-8273333D01*
%TO.C,C6*%
X11262714Y-7419167D02*
X11267476Y-7423928D01*
X11272238Y-7438214D01*
X11272238Y-7447738D01*
X11267476Y-7462024D01*
X11257952Y-7471548D01*
X11248428Y-7476309D01*
X11229381Y-7481071D01*
X11215095Y-7481071D01*
X11196048Y-7476309D01*
X11186524Y-7471548D01*
X11177000Y-7462024D01*
X11172238Y-7447738D01*
X11172238Y-7438214D01*
X11177000Y-7423928D01*
X11181762Y-7419167D01*
X11172238Y-7333452D02*
X11172238Y-7352500D01*
X11177000Y-7362024D01*
X11181762Y-7366786D01*
X11196048Y-7376309D01*
X11215095Y-7381071D01*
X11253190Y-7381071D01*
X11262714Y-7376309D01*
X11267476Y-7371548D01*
X11272238Y-7362024D01*
X11272238Y-7342976D01*
X11267476Y-7333452D01*
X11262714Y-7328690D01*
X11253190Y-7323928D01*
X11229381Y-7323928D01*
X11219857Y-7328690D01*
X11215095Y-7333452D01*
X11210333Y-7342976D01*
X11210333Y-7362024D01*
X11215095Y-7371548D01*
X11219857Y-7376309D01*
X11229381Y-7381071D01*
%TO.C,C5*%
X16430714Y-11687667D02*
X16435476Y-11692428D01*
X16440238Y-11706714D01*
X16440238Y-11716238D01*
X16435476Y-11730524D01*
X16425952Y-11740048D01*
X16416428Y-11744809D01*
X16397381Y-11749571D01*
X16383095Y-11749571D01*
X16364048Y-11744809D01*
X16354524Y-11740048D01*
X16345000Y-11730524D01*
X16340238Y-11716238D01*
X16340238Y-11706714D01*
X16345000Y-11692428D01*
X16349762Y-11687667D01*
X16340238Y-11597190D02*
X16340238Y-11644809D01*
X16387857Y-11649571D01*
X16383095Y-11644809D01*
X16378333Y-11635286D01*
X16378333Y-11611476D01*
X16383095Y-11601952D01*
X16387857Y-11597190D01*
X16397381Y-11592428D01*
X16421190Y-11592428D01*
X16430714Y-11597190D01*
X16435476Y-11601952D01*
X16440238Y-11611476D01*
X16440238Y-11635286D01*
X16435476Y-11644809D01*
X16430714Y-11649571D01*
%TO.C,U5*%
X16361238Y-10831190D02*
X16442190Y-10831190D01*
X16451714Y-10826429D01*
X16456476Y-10821667D01*
X16461238Y-10812143D01*
X16461238Y-10793095D01*
X16456476Y-10783571D01*
X16451714Y-10778810D01*
X16442190Y-10774048D01*
X16361238Y-10774048D01*
X16361238Y-10678810D02*
X16361238Y-10726429D01*
X16408857Y-10731190D01*
X16404095Y-10726429D01*
X16399333Y-10716905D01*
X16399333Y-10693095D01*
X16404095Y-10683571D01*
X16408857Y-10678810D01*
X16418381Y-10674048D01*
X16442190Y-10674048D01*
X16451714Y-10678810D01*
X16456476Y-10683571D01*
X16461238Y-10693095D01*
X16461238Y-10716905D01*
X16456476Y-10726429D01*
X16451714Y-10731190D01*
%TO.C,C3*%
X8923333Y-10545714D02*
X8918571Y-10550476D01*
X8904286Y-10555238D01*
X8894762Y-10555238D01*
X8880476Y-10550476D01*
X8870952Y-10540952D01*
X8866190Y-10531429D01*
X8861429Y-10512381D01*
X8861429Y-10498095D01*
X8866190Y-10479048D01*
X8870952Y-10469524D01*
X8880476Y-10460000D01*
X8894762Y-10455238D01*
X8904286Y-10455238D01*
X8918571Y-10460000D01*
X8923333Y-10464762D01*
X8956667Y-10455238D02*
X9018571Y-10455238D01*
X8985238Y-10493333D01*
X8999524Y-10493333D01*
X9009048Y-10498095D01*
X9013810Y-10502857D01*
X9018571Y-10512381D01*
X9018571Y-10536190D01*
X9013810Y-10545714D01*
X9009048Y-10550476D01*
X8999524Y-10555238D01*
X8970952Y-10555238D01*
X8961429Y-10550476D01*
X8956667Y-10545714D01*
%TO.C,C4*%
X8923333Y-10845714D02*
X8918571Y-10850476D01*
X8904286Y-10855238D01*
X8894762Y-10855238D01*
X8880476Y-10850476D01*
X8870952Y-10840952D01*
X8866190Y-10831429D01*
X8861429Y-10812381D01*
X8861429Y-10798095D01*
X8866190Y-10779048D01*
X8870952Y-10769524D01*
X8880476Y-10760000D01*
X8894762Y-10755238D01*
X8904286Y-10755238D01*
X8918571Y-10760000D01*
X8923333Y-10764762D01*
X9009048Y-10788571D02*
X9009048Y-10855238D01*
X8985238Y-10750476D02*
X8961429Y-10821905D01*
X9023333Y-10821905D01*
%TO.C,R6*%
X11235333Y-9340238D02*
X11202000Y-9292619D01*
X11178190Y-9340238D02*
X11178190Y-9240238D01*
X11216286Y-9240238D01*
X11225809Y-9245000D01*
X11230571Y-9249762D01*
X11235333Y-9259286D01*
X11235333Y-9273571D01*
X11230571Y-9283095D01*
X11225809Y-9287857D01*
X11216286Y-9292619D01*
X11178190Y-9292619D01*
X11321048Y-9240238D02*
X11302000Y-9240238D01*
X11292476Y-9245000D01*
X11287714Y-9249762D01*
X11278190Y-9264048D01*
X11273428Y-9283095D01*
X11273428Y-9321190D01*
X11278190Y-9330714D01*
X11282952Y-9335476D01*
X11292476Y-9340238D01*
X11311524Y-9340238D01*
X11321048Y-9335476D01*
X11325809Y-9330714D01*
X11330571Y-9321190D01*
X11330571Y-9297381D01*
X11325809Y-9287857D01*
X11321048Y-9283095D01*
X11311524Y-9278333D01*
X11292476Y-9278333D01*
X11282952Y-9283095D01*
X11278190Y-9287857D01*
X11273428Y-9297381D01*
%TO.C,R8*%
X11235333Y-9857238D02*
X11202000Y-9809619D01*
X11178190Y-9857238D02*
X11178190Y-9757238D01*
X11216286Y-9757238D01*
X11225809Y-9762000D01*
X11230571Y-9766762D01*
X11235333Y-9776286D01*
X11235333Y-9790571D01*
X11230571Y-9800095D01*
X11225809Y-9804857D01*
X11216286Y-9809619D01*
X11178190Y-9809619D01*
X11292476Y-9800095D02*
X11282952Y-9795333D01*
X11278190Y-9790571D01*
X11273428Y-9781048D01*
X11273428Y-9776286D01*
X11278190Y-9766762D01*
X11282952Y-9762000D01*
X11292476Y-9757238D01*
X11311524Y-9757238D01*
X11321048Y-9762000D01*
X11325809Y-9766762D01*
X11330571Y-9776286D01*
X11330571Y-9781048D01*
X11325809Y-9790571D01*
X11321048Y-9795333D01*
X11311524Y-9800095D01*
X11292476Y-9800095D01*
X11282952Y-9804857D01*
X11278190Y-9809619D01*
X11273428Y-9819143D01*
X11273428Y-9838190D01*
X11278190Y-9847714D01*
X11282952Y-9852476D01*
X11292476Y-9857238D01*
X11311524Y-9857238D01*
X11321048Y-9852476D01*
X11325809Y-9847714D01*
X11330571Y-9838190D01*
X11330571Y-9819143D01*
X11325809Y-9809619D01*
X11321048Y-9804857D01*
X11311524Y-9800095D01*
%TO.C,R3*%
X7774733Y-9860438D02*
X7741400Y-9812819D01*
X7717590Y-9860438D02*
X7717590Y-9760438D01*
X7755686Y-9760438D01*
X7765209Y-9765200D01*
X7769971Y-9769962D01*
X7774733Y-9779486D01*
X7774733Y-9793771D01*
X7769971Y-9803295D01*
X7765209Y-9808057D01*
X7755686Y-9812819D01*
X7717590Y-9812819D01*
X7808067Y-9760438D02*
X7869971Y-9760438D01*
X7836638Y-9798533D01*
X7850924Y-9798533D01*
X7860448Y-9803295D01*
X7865209Y-9808057D01*
X7869971Y-9817581D01*
X7869971Y-9841390D01*
X7865209Y-9850914D01*
X7860448Y-9855676D01*
X7850924Y-9860438D01*
X7822352Y-9860438D01*
X7812828Y-9855676D01*
X7808067Y-9850914D01*
%TO.C,R1*%
X7774733Y-9361438D02*
X7741400Y-9313819D01*
X7717590Y-9361438D02*
X7717590Y-9261438D01*
X7755686Y-9261438D01*
X7765209Y-9266200D01*
X7769971Y-9270962D01*
X7774733Y-9280486D01*
X7774733Y-9294771D01*
X7769971Y-9304295D01*
X7765209Y-9309057D01*
X7755686Y-9313819D01*
X7717590Y-9313819D01*
X7869971Y-9361438D02*
X7812828Y-9361438D01*
X7841400Y-9361438D02*
X7841400Y-9261438D01*
X7831876Y-9275724D01*
X7822352Y-9285248D01*
X7812828Y-9290010D01*
%TO.C,U4*%
X9763810Y-10440238D02*
X9763810Y-10521190D01*
X9768571Y-10530714D01*
X9773333Y-10535476D01*
X9782857Y-10540238D01*
X9801905Y-10540238D01*
X9811429Y-10535476D01*
X9816190Y-10530714D01*
X9820952Y-10521190D01*
X9820952Y-10440238D01*
X9911429Y-10473571D02*
X9911429Y-10540238D01*
X9887619Y-10435476D02*
X9863810Y-10506905D01*
X9925714Y-10506905D01*
%TO.C,R4*%
X7774733Y-10111438D02*
X7741400Y-10063819D01*
X7717590Y-10111438D02*
X7717590Y-10011438D01*
X7755686Y-10011438D01*
X7765209Y-10016200D01*
X7769971Y-10020962D01*
X7774733Y-10030486D01*
X7774733Y-10044771D01*
X7769971Y-10054295D01*
X7765209Y-10059057D01*
X7755686Y-10063819D01*
X7717590Y-10063819D01*
X7860448Y-10044771D02*
X7860448Y-10111438D01*
X7836638Y-10006676D02*
X7812828Y-10078105D01*
X7874733Y-10078105D01*
%TO.C,R7*%
X11235333Y-9586238D02*
X11202000Y-9538619D01*
X11178190Y-9586238D02*
X11178190Y-9486238D01*
X11216286Y-9486238D01*
X11225809Y-9491000D01*
X11230571Y-9495762D01*
X11235333Y-9505286D01*
X11235333Y-9519571D01*
X11230571Y-9529095D01*
X11225809Y-9533857D01*
X11216286Y-9538619D01*
X11178190Y-9538619D01*
X11268667Y-9486238D02*
X11335333Y-9486238D01*
X11292476Y-9586238D01*
%TO.C,R2*%
X7774733Y-9611438D02*
X7741400Y-9563819D01*
X7717590Y-9611438D02*
X7717590Y-9511438D01*
X7755686Y-9511438D01*
X7765209Y-9516200D01*
X7769971Y-9520962D01*
X7774733Y-9530486D01*
X7774733Y-9544771D01*
X7769971Y-9554295D01*
X7765209Y-9559057D01*
X7755686Y-9563819D01*
X7717590Y-9563819D01*
X7812828Y-9520962D02*
X7817590Y-9516200D01*
X7827114Y-9511438D01*
X7850924Y-9511438D01*
X7860448Y-9516200D01*
X7865209Y-9520962D01*
X7869971Y-9530486D01*
X7869971Y-9540010D01*
X7865209Y-9554295D01*
X7808067Y-9611438D01*
X7869971Y-9611438D01*
%TO.C,R9*%
X11235333Y-10128238D02*
X11202000Y-10080619D01*
X11178190Y-10128238D02*
X11178190Y-10028238D01*
X11216286Y-10028238D01*
X11225809Y-10033000D01*
X11230571Y-10037762D01*
X11235333Y-10047286D01*
X11235333Y-10061571D01*
X11230571Y-10071095D01*
X11225809Y-10075857D01*
X11216286Y-10080619D01*
X11178190Y-10080619D01*
X11282952Y-10128238D02*
X11302000Y-10128238D01*
X11311524Y-10123476D01*
X11316286Y-10118714D01*
X11325809Y-10104429D01*
X11330571Y-10085381D01*
X11330571Y-10047286D01*
X11325809Y-10037762D01*
X11321048Y-10033000D01*
X11311524Y-10028238D01*
X11292476Y-10028238D01*
X11282952Y-10033000D01*
X11278190Y-10037762D01*
X11273428Y-10047286D01*
X11273428Y-10071095D01*
X11278190Y-10080619D01*
X11282952Y-10085381D01*
X11292476Y-10090143D01*
X11311524Y-10090143D01*
X11321048Y-10085381D01*
X11325809Y-10080619D01*
X11330571Y-10071095D01*
%TO.C,R17*%
X6425488Y-7193036D02*
X6377869Y-7226369D01*
X6425488Y-7250178D02*
X6325488Y-7250178D01*
X6325488Y-7212083D01*
X6330250Y-7202559D01*
X6335012Y-7197798D01*
X6344536Y-7193036D01*
X6358821Y-7193036D01*
X6368345Y-7197798D01*
X6373107Y-7202559D01*
X6377869Y-7212083D01*
X6377869Y-7250178D01*
X6425488Y-7097798D02*
X6425488Y-7154940D01*
X6425488Y-7126369D02*
X6325488Y-7126369D01*
X6339774Y-7135893D01*
X6349298Y-7145417D01*
X6354059Y-7154940D01*
X6325488Y-7064464D02*
X6325488Y-6997798D01*
X6425488Y-7040655D01*
%TO.C,R16*%
X6750238Y-7705536D02*
X6702619Y-7738869D01*
X6750238Y-7762678D02*
X6650238Y-7762678D01*
X6650238Y-7724583D01*
X6655000Y-7715059D01*
X6659762Y-7710298D01*
X6669286Y-7705536D01*
X6683571Y-7705536D01*
X6693095Y-7710298D01*
X6697857Y-7715059D01*
X6702619Y-7724583D01*
X6702619Y-7762678D01*
X6750238Y-7610298D02*
X6750238Y-7667440D01*
X6750238Y-7638869D02*
X6650238Y-7638869D01*
X6664524Y-7648393D01*
X6674048Y-7657917D01*
X6678809Y-7667440D01*
X6650238Y-7524583D02*
X6650238Y-7543631D01*
X6655000Y-7553155D01*
X6659762Y-7557917D01*
X6674048Y-7567440D01*
X6693095Y-7572202D01*
X6731190Y-7572202D01*
X6740714Y-7567440D01*
X6745476Y-7562678D01*
X6750238Y-7553155D01*
X6750238Y-7534107D01*
X6745476Y-7524583D01*
X6740714Y-7519821D01*
X6731190Y-7515059D01*
X6707381Y-7515059D01*
X6697857Y-7519821D01*
X6693095Y-7524583D01*
X6688333Y-7534107D01*
X6688333Y-7553155D01*
X6693095Y-7562678D01*
X6697857Y-7567440D01*
X6707381Y-7572202D01*
%TO.C,J10*%
X11739048Y-7552238D02*
X11739048Y-7623667D01*
X11734286Y-7637952D01*
X11724762Y-7647476D01*
X11710476Y-7652238D01*
X11700952Y-7652238D01*
X11839048Y-7652238D02*
X11781905Y-7652238D01*
X11810476Y-7652238D02*
X11810476Y-7552238D01*
X11800952Y-7566524D01*
X11791428Y-7576048D01*
X11781905Y-7580809D01*
X11900952Y-7552238D02*
X11910476Y-7552238D01*
X11920000Y-7557000D01*
X11924762Y-7561762D01*
X11929524Y-7571286D01*
X11934286Y-7590333D01*
X11934286Y-7614143D01*
X11929524Y-7633190D01*
X11924762Y-7642714D01*
X11920000Y-7647476D01*
X11910476Y-7652238D01*
X11900952Y-7652238D01*
X11891428Y-7647476D01*
X11886667Y-7642714D01*
X11881905Y-7633190D01*
X11877143Y-7614143D01*
X11877143Y-7590333D01*
X11881905Y-7571286D01*
X11886667Y-7561762D01*
X11891428Y-7557000D01*
X11900952Y-7552238D01*
%TO.C,J1*%
X5217667Y-6968238D02*
X5217667Y-7039667D01*
X5212905Y-7053952D01*
X5203381Y-7063476D01*
X5189095Y-7068238D01*
X5179571Y-7068238D01*
X5317667Y-7068238D02*
X5260524Y-7068238D01*
X5289095Y-7068238D02*
X5289095Y-6968238D01*
X5279571Y-6982524D01*
X5270048Y-6992048D01*
X5260524Y-6996809D01*
%TO.C,U3*%
X17723810Y-13066238D02*
X17723810Y-13147190D01*
X17728571Y-13156714D01*
X17733333Y-13161476D01*
X17742857Y-13166238D01*
X17761905Y-13166238D01*
X17771429Y-13161476D01*
X17776190Y-13156714D01*
X17780952Y-13147190D01*
X17780952Y-13066238D01*
X17819048Y-13066238D02*
X17880952Y-13066238D01*
X17847619Y-13104333D01*
X17861905Y-13104333D01*
X17871429Y-13109095D01*
X17876190Y-13113857D01*
X17880952Y-13123381D01*
X17880952Y-13147190D01*
X17876190Y-13156714D01*
X17871429Y-13161476D01*
X17861905Y-13166238D01*
X17833333Y-13166238D01*
X17823810Y-13161476D01*
X17819048Y-13156714D01*
%TO.C,U1*%
X13605809Y-7467238D02*
X13605809Y-7548190D01*
X13610571Y-7557714D01*
X13615333Y-7562476D01*
X13624857Y-7567238D01*
X13643905Y-7567238D01*
X13653428Y-7562476D01*
X13658190Y-7557714D01*
X13662952Y-7548190D01*
X13662952Y-7467238D01*
X13762952Y-7567238D02*
X13705809Y-7567238D01*
X13734381Y-7567238D02*
X13734381Y-7467238D01*
X13724857Y-7481524D01*
X13715333Y-7491048D01*
X13705809Y-7495809D01*
X14070476Y-12902381D02*
X14081905Y-12906190D01*
X14100952Y-12906190D01*
X14108571Y-12902381D01*
X14112381Y-12898571D01*
X14116190Y-12890952D01*
X14116190Y-12883333D01*
X14112381Y-12875714D01*
X14108571Y-12871905D01*
X14100952Y-12868095D01*
X14085714Y-12864286D01*
X14078095Y-12860476D01*
X14074286Y-12856667D01*
X14070476Y-12849048D01*
X14070476Y-12841428D01*
X14074286Y-12833809D01*
X14078095Y-12830000D01*
X14085714Y-12826190D01*
X14104762Y-12826190D01*
X14116190Y-12830000D01*
X14142857Y-12826190D02*
X14161905Y-12906190D01*
X14177143Y-12849048D01*
X14192381Y-12906190D01*
X14211428Y-12826190D01*
X14241905Y-12906190D02*
X14241905Y-12826190D01*
X14260952Y-12826190D01*
X14272381Y-12830000D01*
X14280000Y-12837619D01*
X14283809Y-12845238D01*
X14287619Y-12860476D01*
X14287619Y-12871905D01*
X14283809Y-12887143D01*
X14280000Y-12894762D01*
X14272381Y-12902381D01*
X14260952Y-12906190D01*
X14241905Y-12906190D01*
X14321905Y-12906190D02*
X14321905Y-12826190D01*
X14375238Y-12826190D02*
X14390476Y-12826190D01*
X14398095Y-12830000D01*
X14405714Y-12837619D01*
X14409524Y-12852857D01*
X14409524Y-12879524D01*
X14405714Y-12894762D01*
X14398095Y-12902381D01*
X14390476Y-12906190D01*
X14375238Y-12906190D01*
X14367619Y-12902381D01*
X14360000Y-12894762D01*
X14356190Y-12879524D01*
X14356190Y-12852857D01*
X14360000Y-12837619D01*
X14367619Y-12830000D01*
X14375238Y-12826190D01*
X12929048Y-12902381D02*
X12940476Y-12906190D01*
X12959524Y-12906190D01*
X12967143Y-12902381D01*
X12970952Y-12898571D01*
X12974762Y-12890952D01*
X12974762Y-12883333D01*
X12970952Y-12875714D01*
X12967143Y-12871905D01*
X12959524Y-12868095D01*
X12944286Y-12864286D01*
X12936667Y-12860476D01*
X12932857Y-12856667D01*
X12929048Y-12849048D01*
X12929048Y-12841428D01*
X12932857Y-12833809D01*
X12936667Y-12830000D01*
X12944286Y-12826190D01*
X12963333Y-12826190D01*
X12974762Y-12830000D01*
X13001428Y-12826190D02*
X13020476Y-12906190D01*
X13035714Y-12849048D01*
X13050952Y-12906190D01*
X13070000Y-12826190D01*
X13146190Y-12898571D02*
X13142381Y-12902381D01*
X13130952Y-12906190D01*
X13123333Y-12906190D01*
X13111905Y-12902381D01*
X13104286Y-12894762D01*
X13100476Y-12887143D01*
X13096667Y-12871905D01*
X13096667Y-12860476D01*
X13100476Y-12845238D01*
X13104286Y-12837619D01*
X13111905Y-12830000D01*
X13123333Y-12826190D01*
X13130952Y-12826190D01*
X13142381Y-12830000D01*
X13146190Y-12833809D01*
X13218571Y-12906190D02*
X13180476Y-12906190D01*
X13180476Y-12826190D01*
X13245238Y-12906190D02*
X13245238Y-12826190D01*
X13290952Y-12906190D02*
X13256667Y-12860476D01*
X13290952Y-12826190D02*
X13245238Y-12871905D01*
X14895160Y-9724096D02*
X14922097Y-9697159D01*
X14905935Y-9745646D02*
X14868222Y-9670222D01*
X14943647Y-9707934D01*
X14938259Y-9605572D02*
X14930178Y-9608266D01*
X14922097Y-9616347D01*
X14916710Y-9627122D01*
X14916710Y-9637897D01*
X14919403Y-9645978D01*
X14927484Y-9659447D01*
X14935566Y-9667528D01*
X14949034Y-9675609D01*
X14957116Y-9678303D01*
X14967891Y-9678303D01*
X14978666Y-9672915D01*
X14984053Y-9667528D01*
X14989441Y-9656753D01*
X14989441Y-9651365D01*
X14970584Y-9632509D01*
X14959809Y-9643284D01*
X15019072Y-9632509D02*
X14962503Y-9575941D01*
X15051397Y-9600184D01*
X14994828Y-9543616D01*
X15078334Y-9573247D02*
X15021765Y-9516678D01*
X15035234Y-9503210D01*
X15046009Y-9497822D01*
X15056784Y-9497822D01*
X15064865Y-9500516D01*
X15078334Y-9508597D01*
X15086415Y-9516678D01*
X15094496Y-9530147D01*
X15097190Y-9538228D01*
X15097190Y-9549003D01*
X15091803Y-9559778D01*
X15078334Y-9573247D01*
X14888616Y-8359815D02*
X14880535Y-8362509D01*
X14872453Y-8370590D01*
X14867066Y-8381365D01*
X14867066Y-8392140D01*
X14869760Y-8400222D01*
X14877841Y-8413690D01*
X14885922Y-8421772D01*
X14899391Y-8429853D01*
X14907472Y-8432547D01*
X14918247Y-8432547D01*
X14929022Y-8427159D01*
X14934409Y-8421772D01*
X14939797Y-8410997D01*
X14939797Y-8405609D01*
X14920941Y-8386753D01*
X14910166Y-8397528D01*
X14969428Y-8386753D02*
X14912859Y-8330184D01*
X15001753Y-8354428D01*
X14945184Y-8297859D01*
X15028690Y-8327491D02*
X14972122Y-8270922D01*
X14985590Y-8257453D01*
X14996365Y-8252066D01*
X15007140Y-8252066D01*
X15015222Y-8254760D01*
X15028690Y-8262841D01*
X15036771Y-8270922D01*
X15044853Y-8284391D01*
X15047546Y-8292472D01*
X15047546Y-8303247D01*
X15042159Y-8314022D01*
X15028690Y-8327491D01*
X14888616Y-10899816D02*
X14880535Y-10902509D01*
X14872453Y-10910591D01*
X14867066Y-10921365D01*
X14867066Y-10932140D01*
X14869760Y-10940222D01*
X14877841Y-10953690D01*
X14885922Y-10961772D01*
X14899391Y-10969853D01*
X14907472Y-10972547D01*
X14918247Y-10972547D01*
X14929022Y-10967159D01*
X14934409Y-10961772D01*
X14939797Y-10950997D01*
X14939797Y-10945609D01*
X14920941Y-10926753D01*
X14910166Y-10937528D01*
X14969428Y-10926753D02*
X14912859Y-10870184D01*
X15001753Y-10894428D01*
X14945184Y-10837860D01*
X15028690Y-10867491D02*
X14972122Y-10810922D01*
X14985590Y-10797453D01*
X14996365Y-10792066D01*
X15007140Y-10792066D01*
X15015222Y-10794760D01*
X15028690Y-10802841D01*
X15036771Y-10810922D01*
X15044853Y-10824391D01*
X15047546Y-10832472D01*
X15047546Y-10843247D01*
X15042159Y-10854022D01*
X15028690Y-10867491D01*
X14888616Y-12169815D02*
X14880535Y-12172509D01*
X14872453Y-12180590D01*
X14867066Y-12191365D01*
X14867066Y-12202140D01*
X14869760Y-12210222D01*
X14877841Y-12223690D01*
X14885922Y-12231771D01*
X14899391Y-12239853D01*
X14907472Y-12242546D01*
X14918247Y-12242546D01*
X14929022Y-12237159D01*
X14934409Y-12231771D01*
X14939797Y-12220997D01*
X14939797Y-12215609D01*
X14920941Y-12196753D01*
X14910166Y-12207528D01*
X14969428Y-12196753D02*
X14912859Y-12140184D01*
X15001753Y-12164428D01*
X14945184Y-12107859D01*
X15028690Y-12137491D02*
X14972122Y-12080922D01*
X14985590Y-12067453D01*
X14996365Y-12062066D01*
X15007140Y-12062066D01*
X15015222Y-12064760D01*
X15028690Y-12072841D01*
X15036771Y-12080922D01*
X15044853Y-12094391D01*
X15047546Y-12102472D01*
X15047546Y-12113247D01*
X15042159Y-12124022D01*
X15028690Y-12137491D01*
X12328616Y-12169815D02*
X12320535Y-12172509D01*
X12312453Y-12180590D01*
X12307066Y-12191365D01*
X12307066Y-12202140D01*
X12309760Y-12210222D01*
X12317841Y-12223690D01*
X12325922Y-12231771D01*
X12339391Y-12239853D01*
X12347472Y-12242546D01*
X12358247Y-12242546D01*
X12369022Y-12237159D01*
X12374409Y-12231771D01*
X12379797Y-12220997D01*
X12379797Y-12215609D01*
X12360941Y-12196753D01*
X12350166Y-12207528D01*
X12409428Y-12196753D02*
X12352859Y-12140184D01*
X12441753Y-12164428D01*
X12385184Y-12107859D01*
X12468690Y-12137491D02*
X12412122Y-12080922D01*
X12425590Y-12067453D01*
X12436365Y-12062066D01*
X12447140Y-12062066D01*
X12455222Y-12064760D01*
X12468690Y-12072841D01*
X12476771Y-12080922D01*
X12484853Y-12094391D01*
X12487546Y-12102472D01*
X12487546Y-12113247D01*
X12482159Y-12124022D01*
X12468690Y-12137491D01*
X12328616Y-10899816D02*
X12320535Y-10902509D01*
X12312453Y-10910591D01*
X12307066Y-10921365D01*
X12307066Y-10932140D01*
X12309760Y-10940222D01*
X12317841Y-10953690D01*
X12325922Y-10961772D01*
X12339391Y-10969853D01*
X12347472Y-10972547D01*
X12358247Y-10972547D01*
X12369022Y-10967159D01*
X12374409Y-10961772D01*
X12379797Y-10950997D01*
X12379797Y-10945609D01*
X12360941Y-10926753D01*
X12350166Y-10937528D01*
X12409428Y-10926753D02*
X12352859Y-10870184D01*
X12441753Y-10894428D01*
X12385184Y-10837860D01*
X12468690Y-10867491D02*
X12412122Y-10810922D01*
X12425590Y-10797453D01*
X12436365Y-10792066D01*
X12447140Y-10792066D01*
X12455222Y-10794760D01*
X12468690Y-10802841D01*
X12476771Y-10810922D01*
X12484853Y-10824391D01*
X12487546Y-10832472D01*
X12487546Y-10843247D01*
X12482159Y-10854022D01*
X12468690Y-10867491D01*
X12328616Y-9629816D02*
X12320535Y-9632509D01*
X12312453Y-9640591D01*
X12307066Y-9651365D01*
X12307066Y-9662140D01*
X12309760Y-9670222D01*
X12317841Y-9683690D01*
X12325922Y-9691772D01*
X12339391Y-9699853D01*
X12347472Y-9702547D01*
X12358247Y-9702547D01*
X12369022Y-9697159D01*
X12374409Y-9691772D01*
X12379797Y-9680997D01*
X12379797Y-9675609D01*
X12360941Y-9656753D01*
X12350166Y-9667528D01*
X12409428Y-9656753D02*
X12352859Y-9600184D01*
X12441753Y-9624428D01*
X12385184Y-9567860D01*
X12468690Y-9597491D02*
X12412122Y-9540922D01*
X12425590Y-9527453D01*
X12436365Y-9522066D01*
X12447140Y-9522066D01*
X12455222Y-9524760D01*
X12468690Y-9532841D01*
X12476771Y-9540922D01*
X12484853Y-9554391D01*
X12487546Y-9562472D01*
X12487546Y-9573247D01*
X12482159Y-9584022D01*
X12468690Y-9597491D01*
X12328616Y-8359815D02*
X12320535Y-8362509D01*
X12312453Y-8370590D01*
X12307066Y-8381365D01*
X12307066Y-8392140D01*
X12309760Y-8400222D01*
X12317841Y-8413690D01*
X12325922Y-8421772D01*
X12339391Y-8429853D01*
X12347472Y-8432547D01*
X12358247Y-8432547D01*
X12369022Y-8427159D01*
X12374409Y-8421772D01*
X12379797Y-8410997D01*
X12379797Y-8405609D01*
X12360941Y-8386753D01*
X12350166Y-8397528D01*
X12409428Y-8386753D02*
X12352859Y-8330184D01*
X12441753Y-8354428D01*
X12385184Y-8297859D01*
X12468690Y-8327491D02*
X12412122Y-8270922D01*
X12425590Y-8257453D01*
X12436365Y-8252066D01*
X12447140Y-8252066D01*
X12455222Y-8254760D01*
X12468690Y-8262841D01*
X12476771Y-8270922D01*
X12484853Y-8284391D01*
X12487546Y-8292472D01*
X12487546Y-8303247D01*
X12482159Y-8314022D01*
X12468690Y-8327491D01*
X14875313Y-7902731D02*
X14950738Y-7940443D01*
X14913025Y-7865019D01*
X14977675Y-7854244D02*
X14988450Y-7848856D01*
X14993837Y-7848856D01*
X15001919Y-7851550D01*
X15010000Y-7859631D01*
X15012694Y-7867712D01*
X15012694Y-7873100D01*
X15010000Y-7881181D01*
X14988450Y-7902731D01*
X14931881Y-7846162D01*
X14950738Y-7827306D01*
X14958819Y-7824612D01*
X14964206Y-7824612D01*
X14972288Y-7827306D01*
X14977675Y-7832694D01*
X14980369Y-7840775D01*
X14980369Y-7846162D01*
X14977675Y-7854244D01*
X14958819Y-7873100D01*
X14988450Y-7789594D02*
X15034244Y-7835387D01*
X15042325Y-7838081D01*
X15047712Y-7838081D01*
X15055793Y-7835387D01*
X15066568Y-7824612D01*
X15069262Y-7816531D01*
X15069262Y-7811144D01*
X15066568Y-7803062D01*
X15020775Y-7757269D01*
X15098893Y-7786900D02*
X15109668Y-7781513D01*
X15123137Y-7768044D01*
X15125831Y-7759963D01*
X15125831Y-7754575D01*
X15123137Y-7746494D01*
X15117750Y-7741106D01*
X15109668Y-7738413D01*
X15104281Y-7738413D01*
X15096200Y-7741106D01*
X15082731Y-7749188D01*
X15074650Y-7751881D01*
X15069262Y-7751881D01*
X15061181Y-7749188D01*
X15055793Y-7743800D01*
X15053100Y-7735719D01*
X15053100Y-7730332D01*
X15055793Y-7722250D01*
X15069262Y-7708782D01*
X15080037Y-7703394D01*
X14872047Y-8156997D02*
X14947472Y-8194709D01*
X14909760Y-8119284D01*
X14979797Y-8156997D02*
X14990572Y-8151609D01*
X15004041Y-8138140D01*
X15006734Y-8130059D01*
X15006734Y-8124672D01*
X15004041Y-8116590D01*
X14998653Y-8111203D01*
X14990572Y-8108509D01*
X14985184Y-8108509D01*
X14977103Y-8111203D01*
X14963634Y-8119284D01*
X14955553Y-8121978D01*
X14950166Y-8121978D01*
X14942084Y-8119284D01*
X14936697Y-8113897D01*
X14934003Y-8105815D01*
X14934003Y-8100428D01*
X14936697Y-8092347D01*
X14950166Y-8078878D01*
X14960941Y-8073491D01*
X15022897Y-8065409D02*
X15049834Y-8092347D01*
X14974409Y-8054634D02*
X15022897Y-8065409D01*
X15012122Y-8016922D01*
X15082159Y-8054634D02*
X15092934Y-8049247D01*
X15106403Y-8035778D01*
X15109096Y-8027697D01*
X15109096Y-8022310D01*
X15106403Y-8014228D01*
X15101015Y-8008841D01*
X15092934Y-8006147D01*
X15087546Y-8006147D01*
X15079465Y-8008841D01*
X15065997Y-8016922D01*
X15057915Y-8019616D01*
X15052528Y-8019616D01*
X15044447Y-8016922D01*
X15039059Y-8011535D01*
X15036365Y-8003453D01*
X15036365Y-7998066D01*
X15039059Y-7989985D01*
X15052528Y-7976516D01*
X15063303Y-7971128D01*
X14872213Y-8645831D02*
X14907232Y-8610812D01*
X14909925Y-8651218D01*
X14918007Y-8643137D01*
X14926088Y-8640443D01*
X14931475Y-8640443D01*
X14939557Y-8643137D01*
X14953025Y-8656606D01*
X14955719Y-8664687D01*
X14955719Y-8670074D01*
X14953025Y-8678156D01*
X14936863Y-8694318D01*
X14928782Y-8697012D01*
X14923394Y-8697012D01*
X14923394Y-8594650D02*
X14998819Y-8632362D01*
X14961106Y-8556937D01*
X14974575Y-8543469D02*
X15009594Y-8508450D01*
X15012288Y-8548856D01*
X15020369Y-8540775D01*
X15028450Y-8538081D01*
X15033837Y-8538081D01*
X15041919Y-8540775D01*
X15055387Y-8554244D01*
X15058081Y-8562325D01*
X15058081Y-8567712D01*
X15055387Y-8575794D01*
X15039225Y-8591956D01*
X15031144Y-8594650D01*
X15025756Y-8594650D01*
X15082325Y-8559631D02*
X15125425Y-8516531D01*
X15103875Y-8468044D02*
X15122731Y-8449188D01*
X15160443Y-8470738D02*
X15133506Y-8497675D01*
X15076937Y-8441107D01*
X15103875Y-8414169D01*
X15184687Y-8446494D02*
X15128118Y-8389926D01*
X15217012Y-8414169D01*
X15160443Y-8357601D01*
X14868985Y-8899059D02*
X14904003Y-8864041D01*
X14906697Y-8904447D01*
X14914778Y-8896365D01*
X14922859Y-8893672D01*
X14928247Y-8893672D01*
X14936328Y-8896365D01*
X14949797Y-8909834D01*
X14952491Y-8917915D01*
X14952491Y-8923303D01*
X14949797Y-8931384D01*
X14933634Y-8947547D01*
X14925553Y-8950240D01*
X14920166Y-8950240D01*
X14920166Y-8847878D02*
X14995590Y-8885591D01*
X14957878Y-8810166D01*
X14971347Y-8796697D02*
X15006365Y-8761678D01*
X15009059Y-8802085D01*
X15017140Y-8794003D01*
X15025222Y-8791310D01*
X15030609Y-8791310D01*
X15038690Y-8794003D01*
X15052159Y-8807472D01*
X15054853Y-8815553D01*
X15054853Y-8820941D01*
X15052159Y-8829022D01*
X15035997Y-8845184D01*
X15027915Y-8847878D01*
X15022528Y-8847878D01*
X14895479Y-9203377D02*
X14922416Y-9176440D01*
X14906254Y-9224927D02*
X14868541Y-9149503D01*
X14943966Y-9187215D01*
X14962822Y-9168359D02*
X14906254Y-9111790D01*
X14919722Y-9098322D01*
X14930497Y-9092934D01*
X14941272Y-9092934D01*
X14949354Y-9095628D01*
X14962822Y-9103709D01*
X14970903Y-9111790D01*
X14978985Y-9125259D01*
X14981678Y-9133340D01*
X14981678Y-9144115D01*
X14976291Y-9154890D01*
X14962822Y-9168359D01*
X15046328Y-9074078D02*
X15046328Y-9079465D01*
X15040941Y-9090240D01*
X15035553Y-9095628D01*
X15024778Y-9101015D01*
X15014003Y-9101015D01*
X15005922Y-9098322D01*
X14992453Y-9090240D01*
X14984372Y-9082159D01*
X14976291Y-9068690D01*
X14973597Y-9060609D01*
X14973597Y-9049834D01*
X14978985Y-9039059D01*
X14984372Y-9033672D01*
X14995147Y-9028284D01*
X15000535Y-9028284D01*
X15067878Y-9074078D02*
X15110978Y-9030978D01*
X15054409Y-8963635D02*
X15129834Y-9001347D01*
X15092122Y-8925922D01*
X15199871Y-8931310D02*
X15154078Y-8923228D01*
X15167546Y-8963635D02*
X15110978Y-8907066D01*
X15132528Y-8885516D01*
X15140609Y-8882822D01*
X15145997Y-8882822D01*
X15154078Y-8885516D01*
X15162159Y-8893597D01*
X15164853Y-8901678D01*
X15164853Y-8907066D01*
X15162159Y-8915147D01*
X15140609Y-8936697D01*
X15194484Y-8877435D02*
X15213340Y-8858579D01*
X15251052Y-8880129D02*
X15224115Y-8907066D01*
X15167546Y-8850497D01*
X15194484Y-8823560D01*
X15264521Y-8807398D02*
X15245665Y-8826254D01*
X15275296Y-8855885D02*
X15218728Y-8799316D01*
X15245665Y-8772379D01*
X14889772Y-9374659D02*
X14881691Y-9377353D01*
X14873610Y-9385434D01*
X14868222Y-9396209D01*
X14868222Y-9406984D01*
X14870916Y-9415065D01*
X14878997Y-9428534D01*
X14887078Y-9436615D01*
X14900547Y-9444696D01*
X14908628Y-9447390D01*
X14919403Y-9447390D01*
X14930178Y-9442003D01*
X14935566Y-9436615D01*
X14940953Y-9425840D01*
X14940953Y-9420453D01*
X14922097Y-9401597D01*
X14911322Y-9412372D01*
X14970584Y-9401597D02*
X14914016Y-9345028D01*
X14935566Y-9323478D01*
X14943647Y-9320784D01*
X14949034Y-9320784D01*
X14957116Y-9323478D01*
X14965197Y-9331559D01*
X14967891Y-9339641D01*
X14967891Y-9345028D01*
X14965197Y-9353109D01*
X14943647Y-9374659D01*
X14973278Y-9296541D02*
X14973278Y-9291153D01*
X14975972Y-9283072D01*
X14989441Y-9269603D01*
X14997522Y-9266910D01*
X15002909Y-9266910D01*
X15010990Y-9269603D01*
X15016378Y-9274991D01*
X15021765Y-9285766D01*
X15021765Y-9350416D01*
X15056784Y-9315397D01*
X15056784Y-9250747D02*
X15048703Y-9253441D01*
X15043315Y-9253441D01*
X15035234Y-9250747D01*
X15032540Y-9248053D01*
X15029847Y-9239972D01*
X15029847Y-9234585D01*
X15032540Y-9226504D01*
X15043315Y-9215729D01*
X15051397Y-9213035D01*
X15056784Y-9213035D01*
X15064865Y-9215729D01*
X15067559Y-9218422D01*
X15070253Y-9226504D01*
X15070253Y-9231891D01*
X15067559Y-9239972D01*
X15056784Y-9250747D01*
X15054090Y-9258828D01*
X15054090Y-9264216D01*
X15056784Y-9272297D01*
X15067559Y-9283072D01*
X15075640Y-9285766D01*
X15081028Y-9285766D01*
X15089109Y-9283072D01*
X15099884Y-9272297D01*
X15102578Y-9264216D01*
X15102578Y-9258828D01*
X15099884Y-9250747D01*
X15089109Y-9239972D01*
X15081028Y-9237278D01*
X15075640Y-9237278D01*
X15067559Y-9239972D01*
X14889772Y-9909059D02*
X14881691Y-9911753D01*
X14873610Y-9919834D01*
X14868222Y-9930609D01*
X14868222Y-9941384D01*
X14870916Y-9949465D01*
X14878997Y-9962934D01*
X14887078Y-9971015D01*
X14900547Y-9979096D01*
X14908628Y-9981790D01*
X14919403Y-9981790D01*
X14930178Y-9976403D01*
X14935566Y-9971015D01*
X14940953Y-9960240D01*
X14940953Y-9954853D01*
X14922097Y-9935997D01*
X14911322Y-9946772D01*
X14970584Y-9935997D02*
X14914016Y-9879428D01*
X14935566Y-9857878D01*
X14943647Y-9855184D01*
X14949034Y-9855184D01*
X14957116Y-9857878D01*
X14965197Y-9865959D01*
X14967891Y-9874041D01*
X14967891Y-9879428D01*
X14965197Y-9887509D01*
X14943647Y-9909059D01*
X14973278Y-9830941D02*
X14973278Y-9825553D01*
X14975972Y-9817472D01*
X14989441Y-9804003D01*
X14997522Y-9801310D01*
X15002909Y-9801310D01*
X15010990Y-9804003D01*
X15016378Y-9809391D01*
X15021765Y-9820166D01*
X15021765Y-9884816D01*
X15056784Y-9849797D01*
X15019072Y-9774372D02*
X15056784Y-9736660D01*
X15089109Y-9817472D01*
X14889772Y-10162059D02*
X14881691Y-10164753D01*
X14873610Y-10172834D01*
X14868222Y-10183609D01*
X14868222Y-10194384D01*
X14870916Y-10202465D01*
X14878997Y-10215934D01*
X14887078Y-10224015D01*
X14900547Y-10232096D01*
X14908628Y-10234790D01*
X14919403Y-10234790D01*
X14930178Y-10229403D01*
X14935566Y-10224015D01*
X14940953Y-10213240D01*
X14940953Y-10207853D01*
X14922097Y-10188997D01*
X14911322Y-10199772D01*
X14970584Y-10188997D02*
X14914016Y-10132428D01*
X14935566Y-10110878D01*
X14943647Y-10108184D01*
X14949034Y-10108184D01*
X14957116Y-10110878D01*
X14965197Y-10118959D01*
X14967891Y-10127041D01*
X14967891Y-10132428D01*
X14965197Y-10140509D01*
X14943647Y-10162059D01*
X14973278Y-10083941D02*
X14973278Y-10078553D01*
X14975972Y-10070472D01*
X14989441Y-10057003D01*
X14997522Y-10054310D01*
X15002909Y-10054310D01*
X15010990Y-10057003D01*
X15016378Y-10062391D01*
X15021765Y-10073166D01*
X15021765Y-10137816D01*
X15056784Y-10102797D01*
X15048703Y-9997741D02*
X15037928Y-10008516D01*
X15035234Y-10016597D01*
X15035234Y-10021985D01*
X15037928Y-10035453D01*
X15046009Y-10048922D01*
X15067559Y-10070472D01*
X15075640Y-10073166D01*
X15081028Y-10073166D01*
X15089109Y-10070472D01*
X15099884Y-10059697D01*
X15102578Y-10051616D01*
X15102578Y-10046228D01*
X15099884Y-10038147D01*
X15086415Y-10024678D01*
X15078334Y-10021985D01*
X15072946Y-10021985D01*
X15064865Y-10024678D01*
X15054090Y-10035453D01*
X15051397Y-10043535D01*
X15051397Y-10048922D01*
X15054090Y-10057003D01*
X14963837Y-10444344D02*
X14918044Y-10436262D01*
X14931513Y-10476668D02*
X14874944Y-10420100D01*
X14896494Y-10398550D01*
X14904575Y-10395856D01*
X14909963Y-10395856D01*
X14918044Y-10398550D01*
X14926125Y-10406631D01*
X14928819Y-10414712D01*
X14928819Y-10420100D01*
X14926125Y-10428181D01*
X14904575Y-10449731D01*
X14931513Y-10363531D02*
X14977306Y-10409325D01*
X14985387Y-10412019D01*
X14990775Y-10412019D01*
X14998856Y-10409325D01*
X15009631Y-10398550D01*
X15012325Y-10390469D01*
X15012325Y-10385081D01*
X15009631Y-10377000D01*
X14963837Y-10331206D01*
X15047343Y-10360838D02*
X14990775Y-10304269D01*
X15079668Y-10328513D01*
X15023100Y-10271944D01*
X14889772Y-10670059D02*
X14881691Y-10672753D01*
X14873610Y-10680834D01*
X14868222Y-10691609D01*
X14868222Y-10702384D01*
X14870916Y-10710465D01*
X14878997Y-10723934D01*
X14887078Y-10732015D01*
X14900547Y-10740096D01*
X14908628Y-10742790D01*
X14919403Y-10742790D01*
X14930178Y-10737403D01*
X14935566Y-10732015D01*
X14940953Y-10721240D01*
X14940953Y-10715853D01*
X14922097Y-10696997D01*
X14911322Y-10707772D01*
X14970584Y-10696997D02*
X14914016Y-10640428D01*
X14935566Y-10618878D01*
X14943647Y-10616184D01*
X14949034Y-10616184D01*
X14957116Y-10618878D01*
X14965197Y-10626959D01*
X14967891Y-10635041D01*
X14967891Y-10640428D01*
X14965197Y-10648509D01*
X14943647Y-10670059D01*
X14973278Y-10591941D02*
X14973278Y-10586553D01*
X14975972Y-10578472D01*
X14989441Y-10565003D01*
X14997522Y-10562310D01*
X15002909Y-10562310D01*
X15010990Y-10565003D01*
X15016378Y-10570391D01*
X15021765Y-10581166D01*
X15021765Y-10645816D01*
X15056784Y-10610797D01*
X15027153Y-10538066D02*
X15027153Y-10532678D01*
X15029847Y-10524597D01*
X15043315Y-10511129D01*
X15051397Y-10508435D01*
X15056784Y-10508435D01*
X15064865Y-10511129D01*
X15070253Y-10516516D01*
X15075640Y-10527291D01*
X15075640Y-10591941D01*
X15110659Y-10556922D01*
X14889772Y-11179059D02*
X14881691Y-11181753D01*
X14873610Y-11189834D01*
X14868222Y-11200609D01*
X14868222Y-11211384D01*
X14870916Y-11219465D01*
X14878997Y-11232934D01*
X14887078Y-11241015D01*
X14900547Y-11249096D01*
X14908628Y-11251790D01*
X14919403Y-11251790D01*
X14930178Y-11246403D01*
X14935566Y-11241015D01*
X14940953Y-11230240D01*
X14940953Y-11224853D01*
X14922097Y-11205997D01*
X14911322Y-11216771D01*
X14970584Y-11205997D02*
X14914016Y-11149428D01*
X14935566Y-11127878D01*
X14943647Y-11125184D01*
X14949034Y-11125184D01*
X14957116Y-11127878D01*
X14965197Y-11135959D01*
X14967891Y-11144041D01*
X14967891Y-11149428D01*
X14965197Y-11157509D01*
X14943647Y-11179059D01*
X14973278Y-11100941D02*
X14973278Y-11095553D01*
X14975972Y-11087472D01*
X14989441Y-11074003D01*
X14997522Y-11071310D01*
X15002909Y-11071310D01*
X15010990Y-11074003D01*
X15016378Y-11079391D01*
X15021765Y-11090166D01*
X15021765Y-11154816D01*
X15056784Y-11119797D01*
X15110659Y-11065922D02*
X15078334Y-11098247D01*
X15094496Y-11082085D02*
X15037928Y-11025516D01*
X15040622Y-11038985D01*
X15040622Y-11049760D01*
X15037928Y-11057841D01*
X14889772Y-11432059D02*
X14881691Y-11434753D01*
X14873610Y-11442834D01*
X14868222Y-11453609D01*
X14868222Y-11464384D01*
X14870916Y-11472465D01*
X14878997Y-11485934D01*
X14887078Y-11494015D01*
X14900547Y-11502096D01*
X14908628Y-11504790D01*
X14919403Y-11504790D01*
X14930178Y-11499403D01*
X14935566Y-11494015D01*
X14940953Y-11483240D01*
X14940953Y-11477853D01*
X14922097Y-11458997D01*
X14911322Y-11469771D01*
X14970584Y-11458997D02*
X14914016Y-11402428D01*
X14935566Y-11380878D01*
X14943647Y-11378184D01*
X14949034Y-11378184D01*
X14957116Y-11380878D01*
X14965197Y-11388959D01*
X14967891Y-11397041D01*
X14967891Y-11402428D01*
X14965197Y-11410509D01*
X14943647Y-11432059D01*
X14973278Y-11353941D02*
X14973278Y-11348553D01*
X14975972Y-11340472D01*
X14989441Y-11327003D01*
X14997522Y-11324310D01*
X15002909Y-11324310D01*
X15010990Y-11327003D01*
X15016378Y-11332391D01*
X15021765Y-11343166D01*
X15021765Y-11407815D01*
X15056784Y-11372797D01*
X15035234Y-11281210D02*
X15040622Y-11275822D01*
X15048703Y-11273128D01*
X15054090Y-11273128D01*
X15062171Y-11275822D01*
X15075640Y-11283903D01*
X15089109Y-11297372D01*
X15097190Y-11310841D01*
X15099884Y-11318922D01*
X15099884Y-11324310D01*
X15097190Y-11332391D01*
X15091803Y-11337778D01*
X15083721Y-11340472D01*
X15078334Y-11340472D01*
X15070253Y-11337778D01*
X15056784Y-11329697D01*
X15043315Y-11316228D01*
X15035234Y-11302760D01*
X15032540Y-11294678D01*
X15032540Y-11289291D01*
X15035234Y-11281210D01*
X14889772Y-11686059D02*
X14881691Y-11688753D01*
X14873610Y-11696834D01*
X14868222Y-11707609D01*
X14868222Y-11718384D01*
X14870916Y-11726465D01*
X14878997Y-11739934D01*
X14887078Y-11748015D01*
X14900547Y-11756096D01*
X14908628Y-11758790D01*
X14919403Y-11758790D01*
X14930178Y-11753403D01*
X14935566Y-11748015D01*
X14940953Y-11737240D01*
X14940953Y-11731853D01*
X14922097Y-11712997D01*
X14911322Y-11723771D01*
X14970584Y-11712997D02*
X14914016Y-11656428D01*
X14935566Y-11634878D01*
X14943647Y-11632184D01*
X14949034Y-11632184D01*
X14957116Y-11634878D01*
X14965197Y-11642959D01*
X14967891Y-11651041D01*
X14967891Y-11656428D01*
X14965197Y-11664509D01*
X14943647Y-11686059D01*
X15056784Y-11626797D02*
X15024459Y-11659122D01*
X15040622Y-11642959D02*
X14984053Y-11586391D01*
X14986747Y-11599859D01*
X14986747Y-11610634D01*
X14984053Y-11618716D01*
X15083721Y-11599859D02*
X15094496Y-11589084D01*
X15097190Y-11581003D01*
X15097190Y-11575616D01*
X15094496Y-11562147D01*
X15086415Y-11548678D01*
X15064865Y-11527128D01*
X15056784Y-11524435D01*
X15051397Y-11524435D01*
X15043315Y-11527128D01*
X15032540Y-11537903D01*
X15029847Y-11545985D01*
X15029847Y-11551372D01*
X15032540Y-11559453D01*
X15046009Y-11572922D01*
X15054090Y-11575616D01*
X15059478Y-11575616D01*
X15067559Y-11572922D01*
X15078334Y-11562147D01*
X15081028Y-11554066D01*
X15081028Y-11548678D01*
X15078334Y-11540597D01*
X14889772Y-11940059D02*
X14881691Y-11942753D01*
X14873610Y-11950834D01*
X14868222Y-11961609D01*
X14868222Y-11972384D01*
X14870916Y-11980465D01*
X14878997Y-11993934D01*
X14887078Y-12002015D01*
X14900547Y-12010096D01*
X14908628Y-12012790D01*
X14919403Y-12012790D01*
X14930178Y-12007403D01*
X14935566Y-12002015D01*
X14940953Y-11991240D01*
X14940953Y-11985853D01*
X14922097Y-11966997D01*
X14911322Y-11977771D01*
X14970584Y-11966997D02*
X14914016Y-11910428D01*
X14935566Y-11888878D01*
X14943647Y-11886184D01*
X14949034Y-11886184D01*
X14957116Y-11888878D01*
X14965197Y-11896959D01*
X14967891Y-11905041D01*
X14967891Y-11910428D01*
X14965197Y-11918509D01*
X14943647Y-11940059D01*
X15056784Y-11880797D02*
X15024459Y-11913122D01*
X15040622Y-11896959D02*
X14984053Y-11840391D01*
X14986747Y-11853859D01*
X14986747Y-11864634D01*
X14984053Y-11872716D01*
X15056784Y-11816147D02*
X15048703Y-11818841D01*
X15043315Y-11818841D01*
X15035234Y-11816147D01*
X15032540Y-11813453D01*
X15029847Y-11805372D01*
X15029847Y-11799985D01*
X15032540Y-11791903D01*
X15043315Y-11781128D01*
X15051397Y-11778435D01*
X15056784Y-11778435D01*
X15064865Y-11781128D01*
X15067559Y-11783822D01*
X15070253Y-11791903D01*
X15070253Y-11797291D01*
X15067559Y-11805372D01*
X15056784Y-11816147D01*
X15054090Y-11824228D01*
X15054090Y-11829616D01*
X15056784Y-11837697D01*
X15067559Y-11848472D01*
X15075640Y-11851166D01*
X15081028Y-11851166D01*
X15089109Y-11848472D01*
X15099884Y-11837697D01*
X15102578Y-11829616D01*
X15102578Y-11824228D01*
X15099884Y-11816147D01*
X15089109Y-11805372D01*
X15081028Y-11802678D01*
X15075640Y-11802678D01*
X15067559Y-11805372D01*
X14889772Y-12448059D02*
X14881691Y-12450753D01*
X14873610Y-12458834D01*
X14868222Y-12469609D01*
X14868222Y-12480384D01*
X14870916Y-12488465D01*
X14878997Y-12501934D01*
X14887078Y-12510015D01*
X14900547Y-12518096D01*
X14908628Y-12520790D01*
X14919403Y-12520790D01*
X14930178Y-12515403D01*
X14935566Y-12510015D01*
X14940953Y-12499240D01*
X14940953Y-12493853D01*
X14922097Y-12474997D01*
X14911322Y-12485771D01*
X14970584Y-12474997D02*
X14914016Y-12418428D01*
X14935566Y-12396878D01*
X14943647Y-12394184D01*
X14949034Y-12394184D01*
X14957116Y-12396878D01*
X14965197Y-12404959D01*
X14967891Y-12413041D01*
X14967891Y-12418428D01*
X14965197Y-12426509D01*
X14943647Y-12448059D01*
X15056784Y-12388797D02*
X15024459Y-12421122D01*
X15040622Y-12404959D02*
X14984053Y-12348391D01*
X14986747Y-12361859D01*
X14986747Y-12372634D01*
X14984053Y-12380716D01*
X15019072Y-12313372D02*
X15056784Y-12275660D01*
X15089109Y-12356472D01*
X14889772Y-12702059D02*
X14881691Y-12704753D01*
X14873610Y-12712834D01*
X14868222Y-12723609D01*
X14868222Y-12734384D01*
X14870916Y-12742465D01*
X14878997Y-12755934D01*
X14887078Y-12764015D01*
X14900547Y-12772096D01*
X14908628Y-12774790D01*
X14919403Y-12774790D01*
X14930178Y-12769403D01*
X14935566Y-12764015D01*
X14940953Y-12753240D01*
X14940953Y-12747853D01*
X14922097Y-12728997D01*
X14911322Y-12739771D01*
X14970584Y-12728997D02*
X14914016Y-12672428D01*
X14935566Y-12650878D01*
X14943647Y-12648184D01*
X14949034Y-12648184D01*
X14957116Y-12650878D01*
X14965197Y-12658959D01*
X14967891Y-12667041D01*
X14967891Y-12672428D01*
X14965197Y-12680509D01*
X14943647Y-12702059D01*
X15056784Y-12642797D02*
X15024459Y-12675122D01*
X15040622Y-12658959D02*
X14984053Y-12602391D01*
X14986747Y-12615859D01*
X14986747Y-12626634D01*
X14984053Y-12634716D01*
X15048703Y-12537741D02*
X15037928Y-12548516D01*
X15035234Y-12556597D01*
X15035234Y-12561985D01*
X15037928Y-12575453D01*
X15046009Y-12588922D01*
X15067559Y-12610472D01*
X15075640Y-12613166D01*
X15081028Y-12613166D01*
X15089109Y-12610472D01*
X15099884Y-12599697D01*
X15102578Y-12591616D01*
X15102578Y-12586228D01*
X15099884Y-12578147D01*
X15086415Y-12564678D01*
X15078334Y-12561985D01*
X15072946Y-12561985D01*
X15064865Y-12564678D01*
X15054090Y-12575453D01*
X15051397Y-12583535D01*
X15051397Y-12588922D01*
X15054090Y-12597003D01*
X12278972Y-12702059D02*
X12270891Y-12704753D01*
X12262810Y-12712834D01*
X12257422Y-12723609D01*
X12257422Y-12734384D01*
X12260116Y-12742465D01*
X12268197Y-12755934D01*
X12276278Y-12764015D01*
X12289747Y-12772096D01*
X12297828Y-12774790D01*
X12308603Y-12774790D01*
X12319378Y-12769403D01*
X12324766Y-12764015D01*
X12330153Y-12753240D01*
X12330153Y-12747853D01*
X12311297Y-12728997D01*
X12300522Y-12739771D01*
X12359784Y-12728997D02*
X12303216Y-12672428D01*
X12324766Y-12650878D01*
X12332847Y-12648184D01*
X12338234Y-12648184D01*
X12346316Y-12650878D01*
X12354397Y-12658959D01*
X12357091Y-12667041D01*
X12357091Y-12672428D01*
X12354397Y-12680509D01*
X12332847Y-12702059D01*
X12445984Y-12642797D02*
X12413659Y-12675122D01*
X12429822Y-12658959D02*
X12373253Y-12602391D01*
X12375947Y-12615859D01*
X12375947Y-12626634D01*
X12373253Y-12634716D01*
X12440597Y-12535047D02*
X12413659Y-12561985D01*
X12437903Y-12591616D01*
X12437903Y-12586228D01*
X12440597Y-12578147D01*
X12454065Y-12564678D01*
X12462146Y-12561985D01*
X12467534Y-12561985D01*
X12475615Y-12564678D01*
X12489084Y-12578147D01*
X12491778Y-12586228D01*
X12491778Y-12591616D01*
X12489084Y-12599697D01*
X12475615Y-12613166D01*
X12467534Y-12615859D01*
X12462146Y-12615859D01*
X12274372Y-12448059D02*
X12266291Y-12450753D01*
X12258210Y-12458834D01*
X12252822Y-12469609D01*
X12252822Y-12480384D01*
X12255516Y-12488465D01*
X12263597Y-12501934D01*
X12271678Y-12510015D01*
X12285147Y-12518096D01*
X12293228Y-12520790D01*
X12304003Y-12520790D01*
X12314778Y-12515403D01*
X12320166Y-12510015D01*
X12325553Y-12499240D01*
X12325553Y-12493853D01*
X12306697Y-12474997D01*
X12295922Y-12485771D01*
X12355184Y-12474997D02*
X12298616Y-12418428D01*
X12320166Y-12396878D01*
X12328247Y-12394184D01*
X12333634Y-12394184D01*
X12341716Y-12396878D01*
X12349797Y-12404959D01*
X12352491Y-12413041D01*
X12352491Y-12418428D01*
X12349797Y-12426509D01*
X12328247Y-12448059D01*
X12441384Y-12388797D02*
X12409059Y-12421122D01*
X12425222Y-12404959D02*
X12368653Y-12348391D01*
X12371347Y-12361859D01*
X12371347Y-12372634D01*
X12368653Y-12380716D01*
X12452159Y-12302597D02*
X12489871Y-12340310D01*
X12417140Y-12294516D02*
X12444078Y-12348391D01*
X12479096Y-12313372D01*
X12278972Y-11940059D02*
X12270891Y-11942753D01*
X12262810Y-11950834D01*
X12257422Y-11961609D01*
X12257422Y-11972384D01*
X12260116Y-11980465D01*
X12268197Y-11993934D01*
X12276278Y-12002015D01*
X12289747Y-12010096D01*
X12297828Y-12012790D01*
X12308603Y-12012790D01*
X12319378Y-12007403D01*
X12324766Y-12002015D01*
X12330153Y-11991240D01*
X12330153Y-11985853D01*
X12311297Y-11966997D01*
X12300522Y-11977771D01*
X12359784Y-11966997D02*
X12303216Y-11910428D01*
X12324766Y-11888878D01*
X12332847Y-11886184D01*
X12338234Y-11886184D01*
X12346316Y-11888878D01*
X12354397Y-11896959D01*
X12357091Y-11905041D01*
X12357091Y-11910428D01*
X12354397Y-11918509D01*
X12332847Y-11940059D01*
X12445984Y-11880797D02*
X12413659Y-11913122D01*
X12429822Y-11896959D02*
X12373253Y-11840391D01*
X12375947Y-11853859D01*
X12375947Y-11864634D01*
X12373253Y-11872716D01*
X12408272Y-11805372D02*
X12443290Y-11770354D01*
X12445984Y-11810760D01*
X12454065Y-11802678D01*
X12462146Y-11799985D01*
X12467534Y-11799985D01*
X12475615Y-11802678D01*
X12489084Y-11816147D01*
X12491778Y-11824228D01*
X12491778Y-11829616D01*
X12489084Y-11837697D01*
X12472921Y-11853859D01*
X12464840Y-11856553D01*
X12459453Y-11856553D01*
X12264372Y-11686059D02*
X12256291Y-11688753D01*
X12248210Y-11696834D01*
X12242822Y-11707609D01*
X12242822Y-11718384D01*
X12245516Y-11726465D01*
X12253597Y-11739934D01*
X12261678Y-11748015D01*
X12275147Y-11756096D01*
X12283228Y-11758790D01*
X12294003Y-11758790D01*
X12304778Y-11753403D01*
X12310166Y-11748015D01*
X12315553Y-11737240D01*
X12315553Y-11731853D01*
X12296697Y-11712997D01*
X12285922Y-11723771D01*
X12345184Y-11712997D02*
X12288616Y-11656428D01*
X12310166Y-11634878D01*
X12318247Y-11632184D01*
X12323634Y-11632184D01*
X12331716Y-11634878D01*
X12339797Y-11642959D01*
X12342491Y-11651041D01*
X12342491Y-11656428D01*
X12339797Y-11664509D01*
X12318247Y-11686059D01*
X12431384Y-11626797D02*
X12399059Y-11659122D01*
X12415222Y-11642959D02*
X12358653Y-11586391D01*
X12361347Y-11599859D01*
X12361347Y-11610634D01*
X12358653Y-11618716D01*
X12401753Y-11554066D02*
X12401753Y-11548678D01*
X12404447Y-11540597D01*
X12417915Y-11527128D01*
X12425997Y-11524435D01*
X12431384Y-11524435D01*
X12439465Y-11527128D01*
X12444853Y-11532516D01*
X12450240Y-11543291D01*
X12450240Y-11607941D01*
X12485259Y-11572922D01*
X12264372Y-11432059D02*
X12256291Y-11434753D01*
X12248210Y-11442834D01*
X12242822Y-11453609D01*
X12242822Y-11464384D01*
X12245516Y-11472465D01*
X12253597Y-11485934D01*
X12261678Y-11494015D01*
X12275147Y-11502096D01*
X12283228Y-11504790D01*
X12294003Y-11504790D01*
X12304778Y-11499403D01*
X12310166Y-11494015D01*
X12315553Y-11483240D01*
X12315553Y-11477853D01*
X12296697Y-11458997D01*
X12285922Y-11469771D01*
X12345184Y-11458997D02*
X12288616Y-11402428D01*
X12310166Y-11380878D01*
X12318247Y-11378184D01*
X12323634Y-11378184D01*
X12331716Y-11380878D01*
X12339797Y-11388959D01*
X12342491Y-11397041D01*
X12342491Y-11402428D01*
X12339797Y-11410509D01*
X12318247Y-11432059D01*
X12431384Y-11372797D02*
X12399059Y-11405122D01*
X12415222Y-11388959D02*
X12358653Y-11332391D01*
X12361347Y-11345859D01*
X12361347Y-11356634D01*
X12358653Y-11364716D01*
X12485259Y-11318922D02*
X12452934Y-11351247D01*
X12469096Y-11335084D02*
X12412528Y-11278516D01*
X12415222Y-11291985D01*
X12415222Y-11302760D01*
X12412528Y-11310841D01*
X12278972Y-11178059D02*
X12270891Y-11180753D01*
X12262810Y-11188834D01*
X12257422Y-11199609D01*
X12257422Y-11210384D01*
X12260116Y-11218465D01*
X12268197Y-11231934D01*
X12276278Y-11240015D01*
X12289747Y-11248096D01*
X12297828Y-11250790D01*
X12308603Y-11250790D01*
X12319378Y-11245403D01*
X12324766Y-11240015D01*
X12330153Y-11229240D01*
X12330153Y-11223853D01*
X12311297Y-11204997D01*
X12300522Y-11215771D01*
X12359784Y-11204997D02*
X12303216Y-11148428D01*
X12324766Y-11126878D01*
X12332847Y-11124184D01*
X12338234Y-11124184D01*
X12346316Y-11126878D01*
X12354397Y-11134959D01*
X12357091Y-11143041D01*
X12357091Y-11148428D01*
X12354397Y-11156509D01*
X12332847Y-11178059D01*
X12445984Y-11118797D02*
X12413659Y-11151122D01*
X12429822Y-11134959D02*
X12373253Y-11078391D01*
X12375947Y-11091860D01*
X12375947Y-11102635D01*
X12373253Y-11110716D01*
X12424434Y-11027210D02*
X12429822Y-11021822D01*
X12437903Y-11019129D01*
X12443290Y-11019129D01*
X12451371Y-11021822D01*
X12464840Y-11029904D01*
X12478309Y-11043372D01*
X12486390Y-11056841D01*
X12489084Y-11064922D01*
X12489084Y-11070310D01*
X12486390Y-11078391D01*
X12481003Y-11083778D01*
X12472921Y-11086472D01*
X12467534Y-11086472D01*
X12459453Y-11083778D01*
X12445984Y-11075697D01*
X12432515Y-11062228D01*
X12424434Y-11048760D01*
X12421740Y-11040678D01*
X12421740Y-11035291D01*
X12424434Y-11027210D01*
X12331310Y-10643122D02*
X12323228Y-10645816D01*
X12315147Y-10653897D01*
X12309760Y-10664672D01*
X12309760Y-10675447D01*
X12312453Y-10683528D01*
X12320535Y-10696997D01*
X12328616Y-10705078D01*
X12342084Y-10713159D01*
X12350166Y-10715853D01*
X12360941Y-10715853D01*
X12371716Y-10710465D01*
X12377103Y-10705078D01*
X12382491Y-10694303D01*
X12382491Y-10688915D01*
X12363634Y-10670059D01*
X12352859Y-10680834D01*
X12412122Y-10670059D02*
X12355553Y-10613491D01*
X12377103Y-10591941D01*
X12385184Y-10589247D01*
X12390572Y-10589247D01*
X12398653Y-10591941D01*
X12406734Y-10600022D01*
X12409428Y-10608103D01*
X12409428Y-10613491D01*
X12406734Y-10621572D01*
X12385184Y-10643122D01*
X12471384Y-10610797D02*
X12482159Y-10600022D01*
X12484853Y-10591941D01*
X12484853Y-10586553D01*
X12482159Y-10573085D01*
X12474078Y-10559616D01*
X12452528Y-10538066D01*
X12444447Y-10535372D01*
X12439059Y-10535372D01*
X12430978Y-10538066D01*
X12420203Y-10548841D01*
X12417509Y-10556922D01*
X12417509Y-10562310D01*
X12420203Y-10570391D01*
X12433672Y-10583860D01*
X12441753Y-10586553D01*
X12447140Y-10586553D01*
X12455222Y-10583860D01*
X12465997Y-10573085D01*
X12468690Y-10565003D01*
X12468690Y-10559616D01*
X12465997Y-10551535D01*
X12331310Y-10389122D02*
X12323228Y-10391816D01*
X12315147Y-10399897D01*
X12309760Y-10410672D01*
X12309760Y-10421447D01*
X12312453Y-10429528D01*
X12320535Y-10442997D01*
X12328616Y-10451078D01*
X12342084Y-10459159D01*
X12350166Y-10461853D01*
X12360941Y-10461853D01*
X12371716Y-10456465D01*
X12377103Y-10451078D01*
X12382491Y-10440303D01*
X12382491Y-10434915D01*
X12363634Y-10416059D01*
X12352859Y-10426834D01*
X12412122Y-10416059D02*
X12355553Y-10359491D01*
X12377103Y-10337941D01*
X12385184Y-10335247D01*
X12390572Y-10335247D01*
X12398653Y-10337941D01*
X12406734Y-10346022D01*
X12409428Y-10354103D01*
X12409428Y-10359491D01*
X12406734Y-10367572D01*
X12385184Y-10389122D01*
X12444447Y-10319085D02*
X12436365Y-10321778D01*
X12430978Y-10321778D01*
X12422897Y-10319085D01*
X12420203Y-10316391D01*
X12417509Y-10308310D01*
X12417509Y-10302922D01*
X12420203Y-10294841D01*
X12430978Y-10284066D01*
X12439059Y-10281372D01*
X12444447Y-10281372D01*
X12452528Y-10284066D01*
X12455222Y-10286760D01*
X12457915Y-10294841D01*
X12457915Y-10300228D01*
X12455222Y-10308310D01*
X12444447Y-10319085D01*
X12441753Y-10327166D01*
X12441753Y-10332553D01*
X12444447Y-10340635D01*
X12455222Y-10351409D01*
X12463303Y-10354103D01*
X12468690Y-10354103D01*
X12476771Y-10351409D01*
X12487546Y-10340635D01*
X12490240Y-10332553D01*
X12490240Y-10327166D01*
X12487546Y-10319085D01*
X12476771Y-10308310D01*
X12468690Y-10305616D01*
X12463303Y-10305616D01*
X12455222Y-10308310D01*
X12341310Y-10132122D02*
X12333228Y-10134816D01*
X12325147Y-10142897D01*
X12319760Y-10153672D01*
X12319760Y-10164447D01*
X12322453Y-10172528D01*
X12330535Y-10185997D01*
X12338616Y-10194078D01*
X12352084Y-10202159D01*
X12360166Y-10204853D01*
X12370941Y-10204853D01*
X12381716Y-10199465D01*
X12387103Y-10194078D01*
X12392491Y-10183303D01*
X12392491Y-10177915D01*
X12373634Y-10159059D01*
X12362859Y-10169834D01*
X12422122Y-10159059D02*
X12365553Y-10102491D01*
X12387103Y-10080941D01*
X12395184Y-10078247D01*
X12400572Y-10078247D01*
X12408653Y-10080941D01*
X12416734Y-10089022D01*
X12419428Y-10097103D01*
X12419428Y-10102491D01*
X12416734Y-10110572D01*
X12395184Y-10132122D01*
X12416734Y-10051310D02*
X12454447Y-10013597D01*
X12486771Y-10094409D01*
X12331310Y-9881122D02*
X12323228Y-9883816D01*
X12315147Y-9891897D01*
X12309760Y-9902672D01*
X12309760Y-9913447D01*
X12312453Y-9921528D01*
X12320535Y-9934997D01*
X12328616Y-9943078D01*
X12342084Y-9951159D01*
X12350166Y-9953853D01*
X12360941Y-9953853D01*
X12371716Y-9948465D01*
X12377103Y-9943078D01*
X12382491Y-9932303D01*
X12382491Y-9926915D01*
X12363634Y-9908059D01*
X12352859Y-9918834D01*
X12412122Y-9908059D02*
X12355553Y-9851491D01*
X12377103Y-9829941D01*
X12385184Y-9827247D01*
X12390572Y-9827247D01*
X12398653Y-9829941D01*
X12406734Y-9838022D01*
X12409428Y-9846103D01*
X12409428Y-9851491D01*
X12406734Y-9859572D01*
X12385184Y-9881122D01*
X12436365Y-9770678D02*
X12425590Y-9781453D01*
X12422897Y-9789535D01*
X12422897Y-9794922D01*
X12425590Y-9808391D01*
X12433672Y-9821860D01*
X12455222Y-9843409D01*
X12463303Y-9846103D01*
X12468690Y-9846103D01*
X12476771Y-9843409D01*
X12487546Y-9832635D01*
X12490240Y-9824553D01*
X12490240Y-9819166D01*
X12487546Y-9811085D01*
X12474078Y-9797616D01*
X12465997Y-9794922D01*
X12460609Y-9794922D01*
X12452528Y-9797616D01*
X12441753Y-9808391D01*
X12439059Y-9816472D01*
X12439059Y-9821860D01*
X12441753Y-9829941D01*
X12331310Y-9373122D02*
X12323228Y-9375816D01*
X12315147Y-9383897D01*
X12309760Y-9394672D01*
X12309760Y-9405447D01*
X12312453Y-9413528D01*
X12320535Y-9426997D01*
X12328616Y-9435078D01*
X12342084Y-9443159D01*
X12350166Y-9445853D01*
X12360941Y-9445853D01*
X12371716Y-9440465D01*
X12377103Y-9435078D01*
X12382491Y-9424303D01*
X12382491Y-9418915D01*
X12363634Y-9400059D01*
X12352859Y-9410834D01*
X12412122Y-9400059D02*
X12355553Y-9343491D01*
X12377103Y-9321941D01*
X12385184Y-9319247D01*
X12390572Y-9319247D01*
X12398653Y-9321941D01*
X12406734Y-9330022D01*
X12409428Y-9338103D01*
X12409428Y-9343491D01*
X12406734Y-9351572D01*
X12385184Y-9373122D01*
X12439059Y-9259985D02*
X12412122Y-9286922D01*
X12436365Y-9316553D01*
X12436365Y-9311166D01*
X12439059Y-9303085D01*
X12452528Y-9289616D01*
X12460609Y-9286922D01*
X12465997Y-9286922D01*
X12474078Y-9289616D01*
X12487546Y-9303085D01*
X12490240Y-9311166D01*
X12490240Y-9316553D01*
X12487546Y-9324635D01*
X12474078Y-9338103D01*
X12465997Y-9340797D01*
X12460609Y-9340797D01*
X12331310Y-9119122D02*
X12323228Y-9121816D01*
X12315147Y-9129897D01*
X12309760Y-9140672D01*
X12309760Y-9151447D01*
X12312453Y-9159528D01*
X12320535Y-9172997D01*
X12328616Y-9181078D01*
X12342084Y-9189159D01*
X12350166Y-9191853D01*
X12360941Y-9191853D01*
X12371716Y-9186465D01*
X12377103Y-9181078D01*
X12382491Y-9170303D01*
X12382491Y-9164915D01*
X12363634Y-9146059D01*
X12352859Y-9156834D01*
X12412122Y-9146059D02*
X12355553Y-9089491D01*
X12377103Y-9067941D01*
X12385184Y-9065247D01*
X12390572Y-9065247D01*
X12398653Y-9067941D01*
X12406734Y-9076022D01*
X12409428Y-9084103D01*
X12409428Y-9089491D01*
X12406734Y-9097572D01*
X12385184Y-9119122D01*
X12455222Y-9027535D02*
X12492934Y-9065247D01*
X12420203Y-9019453D02*
X12447140Y-9073328D01*
X12482159Y-9038310D01*
X12331310Y-8865122D02*
X12323228Y-8867816D01*
X12315147Y-8875897D01*
X12309760Y-8886672D01*
X12309760Y-8897447D01*
X12312453Y-8905528D01*
X12320535Y-8918997D01*
X12328616Y-8927078D01*
X12342084Y-8935159D01*
X12350166Y-8937853D01*
X12360941Y-8937853D01*
X12371716Y-8932465D01*
X12377103Y-8927078D01*
X12382491Y-8916303D01*
X12382491Y-8910915D01*
X12363634Y-8892059D01*
X12352859Y-8902834D01*
X12412122Y-8892059D02*
X12355553Y-8835491D01*
X12377103Y-8813941D01*
X12385184Y-8811247D01*
X12390572Y-8811247D01*
X12398653Y-8813941D01*
X12406734Y-8822022D01*
X12409428Y-8830103D01*
X12409428Y-8835491D01*
X12406734Y-8843572D01*
X12385184Y-8865122D01*
X12406734Y-8784310D02*
X12441753Y-8749291D01*
X12444447Y-8789697D01*
X12452528Y-8781616D01*
X12460609Y-8778922D01*
X12465997Y-8778922D01*
X12474078Y-8781616D01*
X12487546Y-8795085D01*
X12490240Y-8803166D01*
X12490240Y-8808553D01*
X12487546Y-8816635D01*
X12471384Y-8832797D01*
X12463303Y-8835491D01*
X12457915Y-8835491D01*
X12331310Y-7849122D02*
X12323228Y-7851815D01*
X12315147Y-7859897D01*
X12309760Y-7870672D01*
X12309760Y-7881447D01*
X12312453Y-7889528D01*
X12320535Y-7902997D01*
X12328616Y-7911078D01*
X12342084Y-7919159D01*
X12350166Y-7921853D01*
X12360941Y-7921853D01*
X12371716Y-7916465D01*
X12377103Y-7911078D01*
X12382491Y-7900303D01*
X12382491Y-7894915D01*
X12363634Y-7876059D01*
X12352859Y-7886834D01*
X12412122Y-7876059D02*
X12355553Y-7819491D01*
X12377103Y-7797941D01*
X12385184Y-7795247D01*
X12390572Y-7795247D01*
X12398653Y-7797941D01*
X12406734Y-7806022D01*
X12409428Y-7814103D01*
X12409428Y-7819491D01*
X12406734Y-7827572D01*
X12385184Y-7849122D01*
X12422897Y-7752147D02*
X12428284Y-7746760D01*
X12436365Y-7744066D01*
X12441753Y-7744066D01*
X12449834Y-7746760D01*
X12463303Y-7754841D01*
X12476771Y-7768310D01*
X12484853Y-7781778D01*
X12487546Y-7789859D01*
X12487546Y-7795247D01*
X12484853Y-7803328D01*
X12479465Y-7808716D01*
X12471384Y-7811409D01*
X12465997Y-7811409D01*
X12457915Y-7808716D01*
X12444447Y-7800634D01*
X12430978Y-7787166D01*
X12422897Y-7773697D01*
X12420203Y-7765616D01*
X12420203Y-7760228D01*
X12422897Y-7752147D01*
X12321310Y-8611122D02*
X12313228Y-8613816D01*
X12305147Y-8621897D01*
X12299760Y-8632672D01*
X12299760Y-8643447D01*
X12302453Y-8651528D01*
X12310535Y-8664997D01*
X12318616Y-8673078D01*
X12332084Y-8681159D01*
X12340166Y-8683853D01*
X12350941Y-8683853D01*
X12361716Y-8678465D01*
X12367103Y-8673078D01*
X12372491Y-8662303D01*
X12372491Y-8656915D01*
X12353634Y-8638059D01*
X12342859Y-8648834D01*
X12402122Y-8638059D02*
X12345553Y-8581491D01*
X12367103Y-8559941D01*
X12375184Y-8557247D01*
X12380572Y-8557247D01*
X12388653Y-8559941D01*
X12396734Y-8568022D01*
X12399428Y-8576103D01*
X12399428Y-8581491D01*
X12396734Y-8589572D01*
X12375184Y-8611122D01*
X12404815Y-8533003D02*
X12404815Y-8527616D01*
X12407509Y-8519535D01*
X12420978Y-8506066D01*
X12429059Y-8503372D01*
X12434447Y-8503372D01*
X12442528Y-8506066D01*
X12447915Y-8511453D01*
X12453303Y-8522228D01*
X12453303Y-8586878D01*
X12488321Y-8551860D01*
X12321310Y-8102122D02*
X12313228Y-8104815D01*
X12305147Y-8112897D01*
X12299760Y-8123672D01*
X12299760Y-8134447D01*
X12302453Y-8142528D01*
X12310535Y-8155997D01*
X12318616Y-8164078D01*
X12332084Y-8172159D01*
X12340166Y-8174853D01*
X12350941Y-8174853D01*
X12361716Y-8169465D01*
X12367103Y-8164078D01*
X12372491Y-8153303D01*
X12372491Y-8147915D01*
X12353634Y-8129059D01*
X12342859Y-8139834D01*
X12402122Y-8129059D02*
X12345553Y-8072491D01*
X12367103Y-8050941D01*
X12375184Y-8048247D01*
X12380572Y-8048247D01*
X12388653Y-8050941D01*
X12396734Y-8059022D01*
X12399428Y-8067103D01*
X12399428Y-8072491D01*
X12396734Y-8080572D01*
X12375184Y-8102122D01*
X12488321Y-8042859D02*
X12455997Y-8075184D01*
X12472159Y-8059022D02*
X12415590Y-8002453D01*
X12418284Y-8015922D01*
X12418284Y-8026697D01*
X12415590Y-8034778D01*
%TO.C,J9*%
X13142238Y-13573333D02*
X13213667Y-13573333D01*
X13227952Y-13578095D01*
X13237476Y-13587619D01*
X13242238Y-13601905D01*
X13242238Y-13611428D01*
X13242238Y-13520952D02*
X13242238Y-13501905D01*
X13237476Y-13492381D01*
X13232714Y-13487619D01*
X13218428Y-13478095D01*
X13199381Y-13473333D01*
X13161286Y-13473333D01*
X13151762Y-13478095D01*
X13147000Y-13482857D01*
X13142238Y-13492381D01*
X13142238Y-13511428D01*
X13147000Y-13520952D01*
X13151762Y-13525714D01*
X13161286Y-13530476D01*
X13185095Y-13530476D01*
X13194619Y-13525714D01*
X13199381Y-13520952D01*
X13204143Y-13511428D01*
X13204143Y-13492381D01*
X13199381Y-13482857D01*
X13194619Y-13478095D01*
X13185095Y-13473333D01*
%TO.C,J8*%
X15536667Y-12841238D02*
X15536667Y-12912667D01*
X15531905Y-12926952D01*
X15522381Y-12936476D01*
X15508095Y-12941238D01*
X15498571Y-12941238D01*
X15598571Y-12884095D02*
X15589048Y-12879333D01*
X15584286Y-12874571D01*
X15579524Y-12865048D01*
X15579524Y-12860286D01*
X15584286Y-12850762D01*
X15589048Y-12846000D01*
X15598571Y-12841238D01*
X15617619Y-12841238D01*
X15627143Y-12846000D01*
X15631905Y-12850762D01*
X15636667Y-12860286D01*
X15636667Y-12865048D01*
X15631905Y-12874571D01*
X15627143Y-12879333D01*
X15617619Y-12884095D01*
X15598571Y-12884095D01*
X15589048Y-12888857D01*
X15584286Y-12893619D01*
X15579524Y-12903143D01*
X15579524Y-12922190D01*
X15584286Y-12931714D01*
X15589048Y-12936476D01*
X15598571Y-12941238D01*
X15617619Y-12941238D01*
X15627143Y-12936476D01*
X15631905Y-12931714D01*
X15636667Y-12922190D01*
X15636667Y-12903143D01*
X15631905Y-12893619D01*
X15627143Y-12888857D01*
X15617619Y-12884095D01*
%TO.C,U2*%
X10897810Y-7610238D02*
X10897810Y-7691190D01*
X10902571Y-7700714D01*
X10907333Y-7705476D01*
X10916857Y-7710238D01*
X10935905Y-7710238D01*
X10945429Y-7705476D01*
X10950190Y-7700714D01*
X10954952Y-7691190D01*
X10954952Y-7610238D01*
X10997810Y-7619762D02*
X11002571Y-7615000D01*
X11012095Y-7610238D01*
X11035905Y-7610238D01*
X11045429Y-7615000D01*
X11050190Y-7619762D01*
X11054952Y-7629286D01*
X11054952Y-7638809D01*
X11050190Y-7653095D01*
X10993048Y-7710238D01*
X11054952Y-7710238D01*
%TO.C,J6*%
X18726238Y-9821333D02*
X18797667Y-9821333D01*
X18811952Y-9826095D01*
X18821476Y-9835619D01*
X18826238Y-9849905D01*
X18826238Y-9859429D01*
X18726238Y-9730857D02*
X18726238Y-9749905D01*
X18731000Y-9759429D01*
X18735762Y-9764190D01*
X18750048Y-9773714D01*
X18769095Y-9778476D01*
X18807190Y-9778476D01*
X18816714Y-9773714D01*
X18821476Y-9768952D01*
X18826238Y-9759429D01*
X18826238Y-9740381D01*
X18821476Y-9730857D01*
X18816714Y-9726095D01*
X18807190Y-9721333D01*
X18783381Y-9721333D01*
X18773857Y-9726095D01*
X18769095Y-9730857D01*
X18764333Y-9740381D01*
X18764333Y-9759429D01*
X18769095Y-9768952D01*
X18773857Y-9773714D01*
X18783381Y-9778476D01*
%TO.C,LOGO1*%
D16*
X17765381Y-5375667D02*
X17870143Y-5375667D01*
X17744429Y-5438524D02*
X17817762Y-5218524D01*
X17891095Y-5438524D01*
X17964429Y-5438524D02*
X17964429Y-5218524D01*
X18048238Y-5218524D01*
X18069190Y-5229000D01*
X18079667Y-5239476D01*
X18090143Y-5260429D01*
X18090143Y-5291857D01*
X18079667Y-5312810D01*
X18069190Y-5323286D01*
X18048238Y-5333762D01*
X17964429Y-5333762D01*
X18331095Y-5459476D02*
X18310143Y-5449000D01*
X18289190Y-5428048D01*
X18257762Y-5396619D01*
X18236810Y-5386143D01*
X18215857Y-5386143D01*
X18226333Y-5438524D02*
X18205381Y-5428048D01*
X18184429Y-5407095D01*
X18173952Y-5365190D01*
X18173952Y-5291857D01*
X18184429Y-5249952D01*
X18205381Y-5229000D01*
X18226333Y-5218524D01*
X18268238Y-5218524D01*
X18289190Y-5229000D01*
X18310143Y-5249952D01*
X18320619Y-5291857D01*
X18320619Y-5365190D01*
X18310143Y-5407095D01*
X18289190Y-5428048D01*
X18268238Y-5438524D01*
X18226333Y-5438524D01*
%TO.C,C2*%
D15*
X17119333Y-10037714D02*
X17114571Y-10042476D01*
X17100286Y-10047238D01*
X17090762Y-10047238D01*
X17076476Y-10042476D01*
X17066952Y-10032952D01*
X17062190Y-10023429D01*
X17057429Y-10004381D01*
X17057429Y-9990095D01*
X17062190Y-9971048D01*
X17066952Y-9961524D01*
X17076476Y-9952000D01*
X17090762Y-9947238D01*
X17100286Y-9947238D01*
X17114571Y-9952000D01*
X17119333Y-9956762D01*
X17157429Y-9956762D02*
X17162190Y-9952000D01*
X17171714Y-9947238D01*
X17195524Y-9947238D01*
X17205048Y-9952000D01*
X17209810Y-9956762D01*
X17214571Y-9966286D01*
X17214571Y-9975810D01*
X17209810Y-9990095D01*
X17152667Y-10047238D01*
X17214571Y-10047238D01*
%TO.C,C1*%
X18438333Y-10001714D02*
X18433571Y-10006476D01*
X18419286Y-10011238D01*
X18409762Y-10011238D01*
X18395476Y-10006476D01*
X18385952Y-9996952D01*
X18381190Y-9987429D01*
X18376429Y-9968381D01*
X18376429Y-9954095D01*
X18381190Y-9935048D01*
X18385952Y-9925524D01*
X18395476Y-9916000D01*
X18409762Y-9911238D01*
X18419286Y-9911238D01*
X18433571Y-9916000D01*
X18438333Y-9920762D01*
X18533571Y-10011238D02*
X18476429Y-10011238D01*
X18505000Y-10011238D02*
X18505000Y-9911238D01*
X18495476Y-9925524D01*
X18485952Y-9935048D01*
X18476429Y-9939810D01*
%TO.C,D2*%
X17730190Y-9243238D02*
X17730190Y-9143238D01*
X17754000Y-9143238D01*
X17768286Y-9148000D01*
X17777810Y-9157524D01*
X17782571Y-9167048D01*
X17787333Y-9186095D01*
X17787333Y-9200381D01*
X17782571Y-9219429D01*
X17777810Y-9228952D01*
X17768286Y-9238476D01*
X17754000Y-9243238D01*
X17730190Y-9243238D01*
X17825429Y-9152762D02*
X17830190Y-9148000D01*
X17839714Y-9143238D01*
X17863524Y-9143238D01*
X17873048Y-9148000D01*
X17877810Y-9152762D01*
X17882571Y-9162286D01*
X17882571Y-9171810D01*
X17877810Y-9186095D01*
X17820667Y-9243238D01*
X17882571Y-9243238D01*
%TO.C,D1*%
X17780190Y-10808238D02*
X17780190Y-10708238D01*
X17804000Y-10708238D01*
X17818286Y-10713000D01*
X17827810Y-10722524D01*
X17832571Y-10732048D01*
X17837333Y-10751095D01*
X17837333Y-10765381D01*
X17832571Y-10784429D01*
X17827810Y-10793952D01*
X17818286Y-10803476D01*
X17804000Y-10808238D01*
X17780190Y-10808238D01*
X17932571Y-10808238D02*
X17875429Y-10808238D01*
X17904000Y-10808238D02*
X17904000Y-10708238D01*
X17894476Y-10722524D01*
X17884952Y-10732048D01*
X17875429Y-10736810D01*
%TO.C,Q1*%
X17358762Y-8322524D02*
X17354000Y-8332048D01*
X17344476Y-8341571D01*
X17330190Y-8355857D01*
X17325429Y-8365381D01*
X17325429Y-8374905D01*
X17349238Y-8370143D02*
X17344476Y-8379667D01*
X17334952Y-8389190D01*
X17315905Y-8393952D01*
X17282571Y-8393952D01*
X17263524Y-8389190D01*
X17254000Y-8379667D01*
X17249238Y-8370143D01*
X17249238Y-8351095D01*
X17254000Y-8341571D01*
X17263524Y-8332048D01*
X17282571Y-8327286D01*
X17315905Y-8327286D01*
X17334952Y-8332048D01*
X17344476Y-8341571D01*
X17349238Y-8351095D01*
X17349238Y-8370143D01*
X17349238Y-8232048D02*
X17349238Y-8289190D01*
X17349238Y-8260619D02*
X17249238Y-8260619D01*
X17263524Y-8270143D01*
X17273048Y-8279667D01*
X17277810Y-8289190D01*
%TO.C,R5*%
X17298238Y-9120917D02*
X17250619Y-9154250D01*
X17298238Y-9178060D02*
X17198238Y-9178060D01*
X17198238Y-9139964D01*
X17203000Y-9130440D01*
X17207762Y-9125679D01*
X17217286Y-9120917D01*
X17231571Y-9120917D01*
X17241095Y-9125679D01*
X17245857Y-9130440D01*
X17250619Y-9139964D01*
X17250619Y-9178060D01*
X17198238Y-9030440D02*
X17198238Y-9078060D01*
X17245857Y-9082821D01*
X17241095Y-9078060D01*
X17236333Y-9068536D01*
X17236333Y-9044726D01*
X17241095Y-9035202D01*
X17245857Y-9030440D01*
X17255381Y-9025679D01*
X17279190Y-9025679D01*
X17288714Y-9030440D01*
X17293476Y-9035202D01*
X17298238Y-9044726D01*
X17298238Y-9068536D01*
X17293476Y-9078060D01*
X17288714Y-9082821D01*
%TD*%
M02*
