%TF.GenerationSoftware,KiCad,Pcbnew,5.1.10*%
%TF.CreationDate,2021-10-25T15:31:06+02:00*%
%TF.ProjectId,PrawnBlaster,50726177-6e42-46c6-9173-7465722e6b69,v1.0*%
%TF.SameCoordinates,Original*%
%TF.FileFunction,Other,Fab,Top*%
%FSLAX45Y45*%
G04 Gerber Fmt 4.5, Leading zero omitted, Abs format (unit mm)*
G04 Created by KiCad (PCBNEW 5.1.10) date 2021-10-25 15:31:06*
%MOMM*%
%LPD*%
G01*
G04 APERTURE LIST*
%ADD10C,0.100000*%
%ADD11C,0.120000*%
%ADD12C,0.150000*%
%ADD13C,0.060000*%
%ADD14C,0.080000*%
%ADD15C,0.075000*%
G04 APERTURE END LIST*
D10*
%TO.C,R11*%
X7207500Y-7300000D02*
X6887500Y-7300000D01*
X7207500Y-7140000D02*
X7207500Y-7300000D01*
X6887500Y-7140000D02*
X7207500Y-7140000D01*
X6887500Y-7300000D02*
X6887500Y-7140000D01*
%TO.C,R10*%
X7207500Y-7630000D02*
X6887500Y-7630000D01*
X7207500Y-7470000D02*
X7207500Y-7630000D01*
X6887500Y-7470000D02*
X7207500Y-7470000D01*
X6887500Y-7630000D02*
X6887500Y-7470000D01*
%TO.C,D3*%
X16940000Y-8520000D02*
X16940000Y-8060000D01*
X16940000Y-8060000D02*
X17240000Y-8060000D01*
X17240000Y-8520000D02*
X16940000Y-8520000D01*
X17240000Y-8520000D02*
X17240000Y-8060000D01*
X17089898Y-8225056D02*
X17089898Y-8134886D01*
X17089898Y-8340118D02*
X17089898Y-8439940D01*
X17169908Y-8225056D02*
X17009888Y-8225056D01*
X17014968Y-8340118D02*
X17169908Y-8340118D01*
X17089898Y-8225056D02*
X17014968Y-8340118D01*
X17089898Y-8225056D02*
X17169908Y-8340118D01*
%TO.C,C6*%
X11410000Y-7482500D02*
X11330000Y-7482500D01*
X11330000Y-7482500D02*
X11330000Y-7322500D01*
X11330000Y-7322500D02*
X11410000Y-7322500D01*
X11410000Y-7322500D02*
X11410000Y-7482500D01*
%TO.C,C5*%
X16355000Y-11343000D02*
X16435000Y-11343000D01*
X16435000Y-11343000D02*
X16435000Y-11503000D01*
X16435000Y-11503000D02*
X16355000Y-11503000D01*
X16355000Y-11503000D02*
X16355000Y-11343000D01*
%TO.C,U5*%
X16455000Y-11130000D02*
X16145000Y-11130000D01*
X16145000Y-11130000D02*
X16145000Y-10950000D01*
X16390000Y-10950000D02*
X16145000Y-10950000D01*
X16455000Y-11130000D02*
X16455000Y-11015000D01*
X16390000Y-10950000D02*
X16455000Y-11015000D01*
%TO.C,C3*%
X9370000Y-10470000D02*
X9370000Y-10550000D01*
X9370000Y-10550000D02*
X9210000Y-10550000D01*
X9210000Y-10550000D02*
X9210000Y-10470000D01*
X9210000Y-10470000D02*
X9370000Y-10470000D01*
%TO.C,C4*%
X9550000Y-10685000D02*
X9550000Y-10935000D01*
X9550000Y-10935000D02*
X9230000Y-10935000D01*
X9230000Y-10935000D02*
X9230000Y-10685000D01*
X9230000Y-10685000D02*
X9550000Y-10685000D01*
%TO.C,R6*%
X10790000Y-9372500D02*
X10790000Y-9247500D01*
X10790000Y-9247500D02*
X10990000Y-9247500D01*
X10990000Y-9247500D02*
X10990000Y-9372500D01*
X10990000Y-9372500D02*
X10790000Y-9372500D01*
%TO.C,R8*%
X10790000Y-9897500D02*
X10790000Y-9772500D01*
X10790000Y-9772500D02*
X10990000Y-9772500D01*
X10990000Y-9772500D02*
X10990000Y-9897500D01*
X10990000Y-9897500D02*
X10790000Y-9897500D01*
%TO.C,R3*%
X8351400Y-9736200D02*
X8351400Y-9896200D01*
X8351400Y-9896200D02*
X8031400Y-9896200D01*
X8031400Y-9896200D02*
X8031400Y-9736200D01*
X8031400Y-9736200D02*
X8351400Y-9736200D01*
%TO.C,R1*%
X8351400Y-9236200D02*
X8351400Y-9396200D01*
X8351400Y-9396200D02*
X8031400Y-9396200D01*
X8031400Y-9396200D02*
X8031400Y-9236200D01*
X8031400Y-9236200D02*
X8351400Y-9236200D01*
%TO.C,U4*%
X10115000Y-10400000D02*
X9465000Y-10400000D01*
X9465000Y-10400000D02*
X9465000Y-9120000D01*
X9465000Y-9120000D02*
X10215000Y-9120000D01*
X10215000Y-9120000D02*
X10215000Y-10300000D01*
X10215000Y-10300000D02*
X10115000Y-10400000D01*
%TO.C,R4*%
X8351400Y-9986200D02*
X8351400Y-10146200D01*
X8351400Y-10146200D02*
X8031400Y-10146200D01*
X8031400Y-10146200D02*
X8031400Y-9986200D01*
X8031400Y-9986200D02*
X8351400Y-9986200D01*
%TO.C,R7*%
X10790000Y-9622500D02*
X10790000Y-9497500D01*
X10790000Y-9497500D02*
X10990000Y-9497500D01*
X10990000Y-9497500D02*
X10990000Y-9622500D01*
X10990000Y-9622500D02*
X10790000Y-9622500D01*
%TO.C,R2*%
X8351400Y-9486200D02*
X8351400Y-9646200D01*
X8351400Y-9646200D02*
X8031400Y-9646200D01*
X8031400Y-9646200D02*
X8031400Y-9486200D01*
X8031400Y-9486200D02*
X8351400Y-9486200D01*
%TO.C,R9*%
X10790000Y-10147500D02*
X10790000Y-10022500D01*
X10790000Y-10022500D02*
X10990000Y-10022500D01*
X10990000Y-10022500D02*
X10990000Y-10147500D01*
X10990000Y-10147500D02*
X10790000Y-10147500D01*
%TO.C,R17*%
X6607750Y-7228750D02*
X6482750Y-7228750D01*
X6482750Y-7228750D02*
X6482750Y-7028750D01*
X6482750Y-7028750D02*
X6607750Y-7028750D01*
X6607750Y-7028750D02*
X6607750Y-7228750D01*
%TO.C,R16*%
X6477500Y-7541250D02*
X6602500Y-7541250D01*
X6602500Y-7541250D02*
X6602500Y-7741250D01*
X6602500Y-7741250D02*
X6477500Y-7741250D01*
X6477500Y-7741250D02*
X6477500Y-7541250D01*
%TO.C,J10*%
X11693000Y-7776500D02*
X11756500Y-7713000D01*
X11693000Y-12793000D02*
X11693000Y-7776500D01*
X11947000Y-12793000D02*
X11693000Y-12793000D01*
X11947000Y-7713000D02*
X11947000Y-12793000D01*
X11756500Y-7713000D02*
X11947000Y-7713000D01*
%TO.C,J1*%
X5816000Y-8600000D02*
X5816000Y-8540000D01*
X5410000Y-8600000D02*
X5816000Y-8600000D01*
X5816000Y-8540000D02*
X5410000Y-8540000D01*
X5816000Y-8346000D02*
X5816000Y-8286000D01*
X5410000Y-8346000D02*
X5816000Y-8346000D01*
X5816000Y-8286000D02*
X5410000Y-8286000D01*
X5816000Y-8092000D02*
X5816000Y-8032000D01*
X5410000Y-8092000D02*
X5816000Y-8092000D01*
X5816000Y-8032000D02*
X5410000Y-8032000D01*
X5816000Y-7838000D02*
X5816000Y-7778000D01*
X5410000Y-7838000D02*
X5816000Y-7838000D01*
X5816000Y-7778000D02*
X5410000Y-7778000D01*
X5816000Y-7584000D02*
X5816000Y-7524000D01*
X5410000Y-7584000D02*
X5816000Y-7584000D01*
X5816000Y-7524000D02*
X5410000Y-7524000D01*
X5816000Y-7330000D02*
X5816000Y-7270000D01*
X5410000Y-7330000D02*
X5816000Y-7330000D01*
X5816000Y-7270000D02*
X5410000Y-7270000D01*
X4559000Y-8697000D02*
X4559000Y-7173000D01*
X5410000Y-8697000D02*
X4559000Y-8697000D01*
X5410000Y-7270000D02*
X5410000Y-8697000D01*
X5313000Y-7173000D02*
X5410000Y-7270000D01*
X4559000Y-7173000D02*
X5313000Y-7173000D01*
%TO.C,U3*%
X17985000Y-12729000D02*
G75*
G03*
X17985000Y-12729000I-185000J0D01*
G01*
X18300000Y-12369000D02*
X18300000Y-13009000D01*
X18300000Y-13009000D02*
X17300000Y-13009000D01*
X17300000Y-13009000D02*
X17300000Y-12369000D01*
X17300000Y-12369000D02*
X18300000Y-12369000D01*
X18300000Y-11444000D02*
X18300000Y-12369000D01*
X18300000Y-12369000D02*
X17300000Y-12369000D01*
X17300000Y-12369000D02*
X17300000Y-11444000D01*
X17300000Y-11444000D02*
X18300000Y-11444000D01*
X18054000Y-11444000D02*
X18054000Y-11063000D01*
X17800000Y-11444000D02*
X17800000Y-11063000D01*
X17546000Y-11444000D02*
X17546000Y-11063000D01*
D11*
%TO.C,U1*%
X12630000Y-7830000D02*
X12760000Y-7700000D01*
X12630000Y-12800000D02*
X12630000Y-7700000D01*
X14730000Y-12800000D02*
X12630000Y-12800000D01*
X14730000Y-7700000D02*
X14730000Y-12800000D01*
X12630000Y-7700000D02*
X14730000Y-7700000D01*
D10*
%TO.C,J9*%
X13366500Y-13667000D02*
X13303000Y-13603500D01*
X14065000Y-13667000D02*
X13366500Y-13667000D01*
X14065000Y-13413000D02*
X14065000Y-13667000D01*
X13303000Y-13413000D02*
X14065000Y-13413000D01*
X13303000Y-13603500D02*
X13303000Y-13413000D01*
%TO.C,J8*%
X15697000Y-12726500D02*
X15633500Y-12790000D01*
X15697000Y-7710000D02*
X15697000Y-12726500D01*
X15443000Y-7710000D02*
X15697000Y-7710000D01*
X15443000Y-12790000D02*
X15443000Y-7710000D01*
X15633500Y-12790000D02*
X15443000Y-12790000D01*
%TO.C,U2*%
X11170000Y-7655000D02*
X11235000Y-7590000D01*
X11350000Y-7590000D02*
X11235000Y-7590000D01*
X11170000Y-7655000D02*
X11170000Y-7900000D01*
X11350000Y-7900000D02*
X11170000Y-7900000D01*
X11350000Y-7590000D02*
X11350000Y-7900000D01*
%TO.C,C2*%
X17744000Y-9663000D02*
G75*
G03*
X17744000Y-9663000I-315000J0D01*
G01*
X17698397Y-9800350D02*
X17635397Y-9800350D01*
X17666897Y-9831850D02*
X17666897Y-9768850D01*
%TO.C,C1*%
X17891103Y-9494150D02*
X17891103Y-9557150D01*
X17859603Y-9525650D02*
X17922603Y-9525650D01*
X18444000Y-9663000D02*
G75*
G03*
X18444000Y-9663000I-315000J0D01*
G01*
%TO.C,D2*%
X17784000Y-9013000D02*
X17759000Y-9013000D01*
X17784000Y-8978000D02*
X17834000Y-9013000D01*
X17784000Y-9048000D02*
X17784000Y-8978000D01*
X17834000Y-9013000D02*
X17784000Y-9048000D01*
X17834000Y-9013000D02*
X17854000Y-9013000D01*
X17834000Y-9048000D02*
X17834000Y-8978000D01*
X17894000Y-8943000D02*
X17894000Y-9083000D01*
X17714000Y-8943000D02*
X17894000Y-8943000D01*
X17714000Y-9083000D02*
X17714000Y-8943000D01*
X17894000Y-9083000D02*
X17714000Y-9083000D01*
%TO.C,D1*%
X17918944Y-10462898D02*
X17803882Y-10542908D01*
X17918944Y-10462898D02*
X17803882Y-10387968D01*
X17803882Y-10387968D02*
X17803882Y-10542908D01*
X17918944Y-10542908D02*
X17918944Y-10382888D01*
X17803882Y-10462898D02*
X17704060Y-10462898D01*
X17918944Y-10462898D02*
X18009114Y-10462898D01*
X17624000Y-10663000D02*
X18084000Y-10663000D01*
X17624000Y-10663000D02*
X17624000Y-10263000D01*
X18084000Y-10263000D02*
X18084000Y-10663000D01*
X17624000Y-10263000D02*
X18084000Y-10263000D01*
%TO.C,Q1*%
X17524000Y-8498000D02*
X17419000Y-8393000D01*
X17524000Y-8498000D02*
X18089000Y-8498000D01*
X17419000Y-8393000D02*
X17419000Y-8128000D01*
X18089000Y-8498000D02*
X18089000Y-8128000D01*
X17419000Y-8128000D02*
X18089000Y-8128000D01*
%TO.C,R5*%
X17441500Y-9004250D02*
X17566500Y-9004250D01*
X17566500Y-9004250D02*
X17566500Y-9204250D01*
X17566500Y-9204250D02*
X17441500Y-9204250D01*
X17441500Y-9204250D02*
X17441500Y-9004250D01*
%TD*%
%TO.C,U6*%
D12*
X5930952Y-12805238D02*
X5930952Y-12752857D01*
X5926190Y-12743333D01*
X5916667Y-12738571D01*
X5897619Y-12738571D01*
X5888095Y-12743333D01*
X5930952Y-12800476D02*
X5921428Y-12805238D01*
X5897619Y-12805238D01*
X5888095Y-12800476D01*
X5883333Y-12790952D01*
X5883333Y-12781428D01*
X5888095Y-12771905D01*
X5897619Y-12767143D01*
X5921428Y-12767143D01*
X5930952Y-12762381D01*
X6021428Y-12805238D02*
X6021428Y-12705238D01*
X6021428Y-12800476D02*
X6011905Y-12805238D01*
X5992857Y-12805238D01*
X5983333Y-12800476D01*
X5978571Y-12795714D01*
X5973809Y-12786190D01*
X5973809Y-12757619D01*
X5978571Y-12748095D01*
X5983333Y-12743333D01*
X5992857Y-12738571D01*
X6011905Y-12738571D01*
X6021428Y-12743333D01*
X6111905Y-12805238D02*
X6111905Y-12752857D01*
X6107143Y-12743333D01*
X6097619Y-12738571D01*
X6078571Y-12738571D01*
X6069048Y-12743333D01*
X6111905Y-12800476D02*
X6102381Y-12805238D01*
X6078571Y-12805238D01*
X6069048Y-12800476D01*
X6064286Y-12790952D01*
X6064286Y-12781428D01*
X6069048Y-12771905D01*
X6078571Y-12767143D01*
X6102381Y-12767143D01*
X6111905Y-12762381D01*
X6145238Y-12738571D02*
X6183333Y-12738571D01*
X6159524Y-12805238D02*
X6159524Y-12719524D01*
X6164286Y-12710000D01*
X6173809Y-12705238D01*
X6183333Y-12705238D01*
X6216667Y-12805238D02*
X6216667Y-12738571D01*
X6216667Y-12757619D02*
X6221428Y-12748095D01*
X6226190Y-12743333D01*
X6235714Y-12738571D01*
X6245238Y-12738571D01*
X6321428Y-12738571D02*
X6321428Y-12805238D01*
X6278571Y-12738571D02*
X6278571Y-12790952D01*
X6283333Y-12800476D01*
X6292857Y-12805238D01*
X6307143Y-12805238D01*
X6316667Y-12800476D01*
X6321428Y-12795714D01*
X6369048Y-12805238D02*
X6369048Y-12738571D01*
X6369048Y-12705238D02*
X6364286Y-12710000D01*
X6369048Y-12714762D01*
X6373809Y-12710000D01*
X6369048Y-12705238D01*
X6369048Y-12714762D01*
X6402381Y-12738571D02*
X6440476Y-12738571D01*
X6416667Y-12705238D02*
X6416667Y-12790952D01*
X6421428Y-12800476D01*
X6430952Y-12805238D01*
X6440476Y-12805238D01*
X6450000Y-12814762D02*
X6526190Y-12814762D01*
X6592857Y-12738571D02*
X6592857Y-12805238D01*
X6550000Y-12738571D02*
X6550000Y-12790952D01*
X6554762Y-12800476D01*
X6564286Y-12805238D01*
X6578571Y-12805238D01*
X6588095Y-12800476D01*
X6592857Y-12795714D01*
X6635714Y-12800476D02*
X6645238Y-12805238D01*
X6664286Y-12805238D01*
X6673809Y-12800476D01*
X6678571Y-12790952D01*
X6678571Y-12786190D01*
X6673809Y-12776667D01*
X6664286Y-12771905D01*
X6650000Y-12771905D01*
X6640476Y-12767143D01*
X6635714Y-12757619D01*
X6635714Y-12752857D01*
X6640476Y-12743333D01*
X6650000Y-12738571D01*
X6664286Y-12738571D01*
X6673809Y-12743333D01*
X6721428Y-12805238D02*
X6721428Y-12705238D01*
X6721428Y-12743333D02*
X6730952Y-12738571D01*
X6750000Y-12738571D01*
X6759524Y-12743333D01*
X6764286Y-12748095D01*
X6769048Y-12757619D01*
X6769048Y-12786190D01*
X6764286Y-12795714D01*
X6759524Y-12800476D01*
X6750000Y-12805238D01*
X6730952Y-12805238D01*
X6721428Y-12800476D01*
X6788095Y-12814762D02*
X6864286Y-12814762D01*
X6888095Y-12805238D02*
X6888095Y-12738571D01*
X6888095Y-12705238D02*
X6883333Y-12710000D01*
X6888095Y-12714762D01*
X6892857Y-12710000D01*
X6888095Y-12705238D01*
X6888095Y-12714762D01*
X6930952Y-12800476D02*
X6940476Y-12805238D01*
X6959524Y-12805238D01*
X6969048Y-12800476D01*
X6973809Y-12790952D01*
X6973809Y-12786190D01*
X6969048Y-12776667D01*
X6959524Y-12771905D01*
X6945238Y-12771905D01*
X6935714Y-12767143D01*
X6930952Y-12757619D01*
X6930952Y-12752857D01*
X6935714Y-12743333D01*
X6945238Y-12738571D01*
X6959524Y-12738571D01*
X6969048Y-12743333D01*
X7030952Y-12805238D02*
X7021428Y-12800476D01*
X7016667Y-12795714D01*
X7011905Y-12786190D01*
X7011905Y-12757619D01*
X7016667Y-12748095D01*
X7021428Y-12743333D01*
X7030952Y-12738571D01*
X7045238Y-12738571D01*
X7054762Y-12743333D01*
X7059524Y-12748095D01*
X7064286Y-12757619D01*
X7064286Y-12786190D01*
X7059524Y-12795714D01*
X7054762Y-12800476D01*
X7045238Y-12805238D01*
X7030952Y-12805238D01*
X7121428Y-12805238D02*
X7111905Y-12800476D01*
X7107143Y-12790952D01*
X7107143Y-12705238D01*
X7202381Y-12805238D02*
X7202381Y-12752857D01*
X7197619Y-12743333D01*
X7188095Y-12738571D01*
X7169048Y-12738571D01*
X7159524Y-12743333D01*
X7202381Y-12800476D02*
X7192857Y-12805238D01*
X7169048Y-12805238D01*
X7159524Y-12800476D01*
X7154762Y-12790952D01*
X7154762Y-12781428D01*
X7159524Y-12771905D01*
X7169048Y-12767143D01*
X7192857Y-12767143D01*
X7202381Y-12762381D01*
X7235714Y-12738571D02*
X7273809Y-12738571D01*
X7250000Y-12705238D02*
X7250000Y-12790952D01*
X7254762Y-12800476D01*
X7264286Y-12805238D01*
X7273809Y-12805238D01*
X7321428Y-12805238D02*
X7311905Y-12800476D01*
X7307143Y-12795714D01*
X7302381Y-12786190D01*
X7302381Y-12757619D01*
X7307143Y-12748095D01*
X7311905Y-12743333D01*
X7321428Y-12738571D01*
X7335714Y-12738571D01*
X7345238Y-12743333D01*
X7350000Y-12748095D01*
X7354762Y-12757619D01*
X7354762Y-12786190D01*
X7350000Y-12795714D01*
X7345238Y-12800476D01*
X7335714Y-12805238D01*
X7321428Y-12805238D01*
X7397619Y-12805238D02*
X7397619Y-12738571D01*
X7397619Y-12757619D02*
X7402381Y-12748095D01*
X7407143Y-12743333D01*
X7416667Y-12738571D01*
X7426190Y-12738571D01*
%TO.C,R11*%
X6976071Y-7347238D02*
X6928452Y-7347238D01*
X6923690Y-7394857D01*
X6928452Y-7390095D01*
X6937976Y-7385333D01*
X6961786Y-7385333D01*
X6971309Y-7390095D01*
X6976071Y-7394857D01*
X6980833Y-7404381D01*
X6980833Y-7428190D01*
X6976071Y-7437714D01*
X6971309Y-7442476D01*
X6961786Y-7447238D01*
X6937976Y-7447238D01*
X6928452Y-7442476D01*
X6923690Y-7437714D01*
X7042738Y-7347238D02*
X7052262Y-7347238D01*
X7061786Y-7352000D01*
X7066548Y-7356762D01*
X7071309Y-7366286D01*
X7076071Y-7385333D01*
X7076071Y-7409143D01*
X7071309Y-7428190D01*
X7066548Y-7437714D01*
X7061786Y-7442476D01*
X7052262Y-7447238D01*
X7042738Y-7447238D01*
X7033214Y-7442476D01*
X7028452Y-7437714D01*
X7023690Y-7428190D01*
X7018928Y-7409143D01*
X7018928Y-7385333D01*
X7023690Y-7366286D01*
X7028452Y-7356762D01*
X7033214Y-7352000D01*
X7042738Y-7347238D01*
X7137976Y-7347238D02*
X7147500Y-7347238D01*
X7157024Y-7352000D01*
X7161786Y-7356762D01*
X7166548Y-7366286D01*
X7171309Y-7385333D01*
X7171309Y-7409143D01*
X7166548Y-7428190D01*
X7161786Y-7437714D01*
X7157024Y-7442476D01*
X7147500Y-7447238D01*
X7137976Y-7447238D01*
X7128452Y-7442476D01*
X7123690Y-7437714D01*
X7118928Y-7428190D01*
X7114167Y-7409143D01*
X7114167Y-7385333D01*
X7118928Y-7366286D01*
X7123690Y-7356762D01*
X7128452Y-7352000D01*
X7137976Y-7347238D01*
D11*
X6996071Y-7256190D02*
X6969405Y-7218095D01*
X6950357Y-7256190D02*
X6950357Y-7176190D01*
X6980833Y-7176190D01*
X6988452Y-7180000D01*
X6992262Y-7183809D01*
X6996071Y-7191428D01*
X6996071Y-7202857D01*
X6992262Y-7210476D01*
X6988452Y-7214286D01*
X6980833Y-7218095D01*
X6950357Y-7218095D01*
X7072262Y-7256190D02*
X7026548Y-7256190D01*
X7049405Y-7256190D02*
X7049405Y-7176190D01*
X7041786Y-7187619D01*
X7034167Y-7195238D01*
X7026548Y-7199048D01*
X7148452Y-7256190D02*
X7102738Y-7256190D01*
X7125595Y-7256190D02*
X7125595Y-7176190D01*
X7117976Y-7187619D01*
X7110357Y-7195238D01*
X7102738Y-7199048D01*
%TO.C,R10*%
D12*
X6976071Y-7677238D02*
X6928452Y-7677238D01*
X6923690Y-7724857D01*
X6928452Y-7720095D01*
X6937976Y-7715333D01*
X6961786Y-7715333D01*
X6971309Y-7720095D01*
X6976071Y-7724857D01*
X6980833Y-7734381D01*
X6980833Y-7758190D01*
X6976071Y-7767714D01*
X6971309Y-7772476D01*
X6961786Y-7777238D01*
X6937976Y-7777238D01*
X6928452Y-7772476D01*
X6923690Y-7767714D01*
X7042738Y-7677238D02*
X7052262Y-7677238D01*
X7061786Y-7682000D01*
X7066548Y-7686762D01*
X7071309Y-7696286D01*
X7076071Y-7715333D01*
X7076071Y-7739143D01*
X7071309Y-7758190D01*
X7066548Y-7767714D01*
X7061786Y-7772476D01*
X7052262Y-7777238D01*
X7042738Y-7777238D01*
X7033214Y-7772476D01*
X7028452Y-7767714D01*
X7023690Y-7758190D01*
X7018928Y-7739143D01*
X7018928Y-7715333D01*
X7023690Y-7696286D01*
X7028452Y-7686762D01*
X7033214Y-7682000D01*
X7042738Y-7677238D01*
X7137976Y-7677238D02*
X7147500Y-7677238D01*
X7157024Y-7682000D01*
X7161786Y-7686762D01*
X7166548Y-7696286D01*
X7171309Y-7715333D01*
X7171309Y-7739143D01*
X7166548Y-7758190D01*
X7161786Y-7767714D01*
X7157024Y-7772476D01*
X7147500Y-7777238D01*
X7137976Y-7777238D01*
X7128452Y-7772476D01*
X7123690Y-7767714D01*
X7118928Y-7758190D01*
X7114167Y-7739143D01*
X7114167Y-7715333D01*
X7118928Y-7696286D01*
X7123690Y-7686762D01*
X7128452Y-7682000D01*
X7137976Y-7677238D01*
D11*
X6996071Y-7586190D02*
X6969405Y-7548095D01*
X6950357Y-7586190D02*
X6950357Y-7506190D01*
X6980833Y-7506190D01*
X6988452Y-7510000D01*
X6992262Y-7513809D01*
X6996071Y-7521428D01*
X6996071Y-7532857D01*
X6992262Y-7540476D01*
X6988452Y-7544286D01*
X6980833Y-7548095D01*
X6950357Y-7548095D01*
X7072262Y-7586190D02*
X7026548Y-7586190D01*
X7049405Y-7586190D02*
X7049405Y-7506190D01*
X7041786Y-7517619D01*
X7034167Y-7525238D01*
X7026548Y-7529048D01*
X7121786Y-7506190D02*
X7129405Y-7506190D01*
X7137024Y-7510000D01*
X7140833Y-7513809D01*
X7144643Y-7521428D01*
X7148452Y-7536667D01*
X7148452Y-7555714D01*
X7144643Y-7570952D01*
X7140833Y-7578571D01*
X7137024Y-7582381D01*
X7129405Y-7586190D01*
X7121786Y-7586190D01*
X7114167Y-7582381D01*
X7110357Y-7578571D01*
X7106548Y-7570952D01*
X7102738Y-7555714D01*
X7102738Y-7536667D01*
X7106548Y-7521428D01*
X7110357Y-7513809D01*
X7114167Y-7510000D01*
X7121786Y-7506190D01*
%TO.C,JP1*%
D12*
X15990476Y-7845238D02*
X15990476Y-7916667D01*
X15985714Y-7930952D01*
X15976190Y-7940476D01*
X15961905Y-7945238D01*
X15952381Y-7945238D01*
X16080952Y-7878571D02*
X16080952Y-7945238D01*
X16038095Y-7878571D02*
X16038095Y-7930952D01*
X16042857Y-7940476D01*
X16052381Y-7945238D01*
X16066667Y-7945238D01*
X16076190Y-7940476D01*
X16080952Y-7935714D01*
X16128571Y-7945238D02*
X16128571Y-7878571D01*
X16128571Y-7888095D02*
X16133333Y-7883333D01*
X16142857Y-7878571D01*
X16157143Y-7878571D01*
X16166667Y-7883333D01*
X16171428Y-7892857D01*
X16171428Y-7945238D01*
X16171428Y-7892857D02*
X16176190Y-7883333D01*
X16185714Y-7878571D01*
X16200000Y-7878571D01*
X16209524Y-7883333D01*
X16214286Y-7892857D01*
X16214286Y-7945238D01*
X16261905Y-7878571D02*
X16261905Y-7978571D01*
X16261905Y-7883333D02*
X16271428Y-7878571D01*
X16290476Y-7878571D01*
X16300000Y-7883333D01*
X16304762Y-7888095D01*
X16309524Y-7897619D01*
X16309524Y-7926190D01*
X16304762Y-7935714D01*
X16300000Y-7940476D01*
X16290476Y-7945238D01*
X16271428Y-7945238D01*
X16261905Y-7940476D01*
X16390476Y-7940476D02*
X16380952Y-7945238D01*
X16361905Y-7945238D01*
X16352381Y-7940476D01*
X16347619Y-7930952D01*
X16347619Y-7892857D01*
X16352381Y-7883333D01*
X16361905Y-7878571D01*
X16380952Y-7878571D01*
X16390476Y-7883333D01*
X16395238Y-7892857D01*
X16395238Y-7902381D01*
X16347619Y-7911905D01*
X16438095Y-7945238D02*
X16438095Y-7878571D01*
X16438095Y-7897619D02*
X16442857Y-7888095D01*
X16447619Y-7883333D01*
X16457143Y-7878571D01*
X16466667Y-7878571D01*
X16476190Y-7954762D02*
X16552381Y-7954762D01*
X16576190Y-7945238D02*
X16576190Y-7845238D01*
X16633333Y-7945238D01*
X16633333Y-7845238D01*
X16700000Y-7845238D02*
X16719048Y-7845238D01*
X16728571Y-7850000D01*
X16738095Y-7859524D01*
X16742857Y-7878571D01*
X16742857Y-7911905D01*
X16738095Y-7930952D01*
X16728571Y-7940476D01*
X16719048Y-7945238D01*
X16700000Y-7945238D01*
X16690476Y-7940476D01*
X16680952Y-7930952D01*
X16676190Y-7911905D01*
X16676190Y-7878571D01*
X16680952Y-7859524D01*
X16690476Y-7850000D01*
X16700000Y-7845238D01*
X16761905Y-7954762D02*
X16838095Y-7954762D01*
X16857143Y-7940476D02*
X16871429Y-7945238D01*
X16895238Y-7945238D01*
X16904762Y-7940476D01*
X16909524Y-7935714D01*
X16914286Y-7926190D01*
X16914286Y-7916667D01*
X16909524Y-7907143D01*
X16904762Y-7902381D01*
X16895238Y-7897619D01*
X16876190Y-7892857D01*
X16866667Y-7888095D01*
X16861905Y-7883333D01*
X16857143Y-7873809D01*
X16857143Y-7864286D01*
X16861905Y-7854762D01*
X16866667Y-7850000D01*
X16876190Y-7845238D01*
X16900000Y-7845238D01*
X16914286Y-7850000D01*
X16957143Y-7945238D02*
X16957143Y-7878571D01*
X16957143Y-7888095D02*
X16961905Y-7883333D01*
X16971429Y-7878571D01*
X16985714Y-7878571D01*
X16995238Y-7883333D01*
X17000000Y-7892857D01*
X17000000Y-7945238D01*
X17000000Y-7892857D02*
X17004762Y-7883333D01*
X17014286Y-7878571D01*
X17028571Y-7878571D01*
X17038095Y-7883333D01*
X17042857Y-7892857D01*
X17042857Y-7945238D01*
X17133333Y-7945238D02*
X17133333Y-7892857D01*
X17128571Y-7883333D01*
X17119048Y-7878571D01*
X17100000Y-7878571D01*
X17090476Y-7883333D01*
X17133333Y-7940476D02*
X17123810Y-7945238D01*
X17100000Y-7945238D01*
X17090476Y-7940476D01*
X17085714Y-7930952D01*
X17085714Y-7921428D01*
X17090476Y-7911905D01*
X17100000Y-7907143D01*
X17123810Y-7907143D01*
X17133333Y-7902381D01*
X17195238Y-7945238D02*
X17185714Y-7940476D01*
X17180952Y-7930952D01*
X17180952Y-7845238D01*
X17247619Y-7945238D02*
X17238095Y-7940476D01*
X17233333Y-7930952D01*
X17233333Y-7845238D01*
%TO.C,D3*%
X16875238Y-8670952D02*
X16775238Y-8670952D01*
X16775238Y-8647143D01*
X16780000Y-8632857D01*
X16789524Y-8623333D01*
X16799048Y-8618571D01*
X16818095Y-8613810D01*
X16832381Y-8613810D01*
X16851429Y-8618571D01*
X16860952Y-8623333D01*
X16870476Y-8632857D01*
X16875238Y-8647143D01*
X16875238Y-8670952D01*
X16884762Y-8594762D02*
X16884762Y-8518571D01*
X16870476Y-8499524D02*
X16875238Y-8485238D01*
X16875238Y-8461429D01*
X16870476Y-8451905D01*
X16865714Y-8447143D01*
X16856190Y-8442381D01*
X16846667Y-8442381D01*
X16837143Y-8447143D01*
X16832381Y-8451905D01*
X16827619Y-8461429D01*
X16822857Y-8480476D01*
X16818095Y-8490000D01*
X16813333Y-8494762D01*
X16803810Y-8499524D01*
X16794286Y-8499524D01*
X16784762Y-8494762D01*
X16780000Y-8490000D01*
X16775238Y-8480476D01*
X16775238Y-8456667D01*
X16780000Y-8442381D01*
X16870476Y-8356667D02*
X16875238Y-8366190D01*
X16875238Y-8385238D01*
X16870476Y-8394762D01*
X16865714Y-8399524D01*
X16856190Y-8404286D01*
X16827619Y-8404286D01*
X16818095Y-8399524D01*
X16813333Y-8394762D01*
X16808571Y-8385238D01*
X16808571Y-8366190D01*
X16813333Y-8356667D01*
X16875238Y-8313809D02*
X16775238Y-8313809D01*
X16875238Y-8270952D02*
X16822857Y-8270952D01*
X16813333Y-8275714D01*
X16808571Y-8285238D01*
X16808571Y-8299524D01*
X16813333Y-8309048D01*
X16818095Y-8313809D01*
X16875238Y-8209048D02*
X16870476Y-8218571D01*
X16865714Y-8223333D01*
X16856190Y-8228095D01*
X16827619Y-8228095D01*
X16818095Y-8223333D01*
X16813333Y-8218571D01*
X16808571Y-8209048D01*
X16808571Y-8194762D01*
X16813333Y-8185238D01*
X16818095Y-8180476D01*
X16827619Y-8175714D01*
X16856190Y-8175714D01*
X16865714Y-8180476D01*
X16870476Y-8185238D01*
X16875238Y-8194762D01*
X16875238Y-8209048D01*
X16808571Y-8147143D02*
X16808571Y-8109048D01*
X16775238Y-8132857D02*
X16860952Y-8132857D01*
X16870476Y-8128095D01*
X16875238Y-8118571D01*
X16875238Y-8109048D01*
X16808571Y-8090000D02*
X16808571Y-8051905D01*
X16775238Y-8075714D02*
X16860952Y-8075714D01*
X16870476Y-8070952D01*
X16875238Y-8061428D01*
X16875238Y-8051905D01*
X16875238Y-8018571D02*
X16775238Y-8018571D01*
X16837143Y-8009048D02*
X16875238Y-7980476D01*
X16808571Y-7980476D02*
X16846667Y-8018571D01*
X16808571Y-7947143D02*
X16875238Y-7923333D01*
X16808571Y-7899524D02*
X16875238Y-7923333D01*
X16899048Y-7932857D01*
X16903810Y-7937619D01*
X16908571Y-7947143D01*
X17385238Y-8363809D02*
X17285238Y-8363809D01*
X17285238Y-8340000D01*
X17290000Y-8325714D01*
X17299524Y-8316190D01*
X17309048Y-8311428D01*
X17328095Y-8306667D01*
X17342381Y-8306667D01*
X17361429Y-8311428D01*
X17370952Y-8316190D01*
X17380476Y-8325714D01*
X17385238Y-8340000D01*
X17385238Y-8363809D01*
X17285238Y-8273333D02*
X17285238Y-8211428D01*
X17323333Y-8244762D01*
X17323333Y-8230476D01*
X17328095Y-8220952D01*
X17332857Y-8216190D01*
X17342381Y-8211428D01*
X17366190Y-8211428D01*
X17375714Y-8216190D01*
X17380476Y-8220952D01*
X17385238Y-8230476D01*
X17385238Y-8259048D01*
X17380476Y-8268571D01*
X17375714Y-8273333D01*
%TO.C,C6*%
X11558238Y-7514405D02*
X11558238Y-7571548D01*
X11558238Y-7542976D02*
X11458238Y-7542976D01*
X11472524Y-7552500D01*
X11482048Y-7562024D01*
X11486809Y-7571548D01*
X11458238Y-7452500D02*
X11458238Y-7442976D01*
X11463000Y-7433452D01*
X11467762Y-7428690D01*
X11477286Y-7423928D01*
X11496333Y-7419167D01*
X11520143Y-7419167D01*
X11539190Y-7423928D01*
X11548714Y-7428690D01*
X11553476Y-7433452D01*
X11558238Y-7442976D01*
X11558238Y-7452500D01*
X11553476Y-7462024D01*
X11548714Y-7466786D01*
X11539190Y-7471548D01*
X11520143Y-7476309D01*
X11496333Y-7476309D01*
X11477286Y-7471548D01*
X11467762Y-7466786D01*
X11463000Y-7462024D01*
X11458238Y-7452500D01*
X11458238Y-7357262D02*
X11458238Y-7347738D01*
X11463000Y-7338214D01*
X11467762Y-7333452D01*
X11477286Y-7328690D01*
X11496333Y-7323928D01*
X11520143Y-7323928D01*
X11539190Y-7328690D01*
X11548714Y-7333452D01*
X11553476Y-7338214D01*
X11558238Y-7347738D01*
X11558238Y-7357262D01*
X11553476Y-7366786D01*
X11548714Y-7371548D01*
X11539190Y-7376309D01*
X11520143Y-7381071D01*
X11496333Y-7381071D01*
X11477286Y-7376309D01*
X11467762Y-7371548D01*
X11463000Y-7366786D01*
X11458238Y-7357262D01*
X11491571Y-7281071D02*
X11558238Y-7281071D01*
X11501095Y-7281071D02*
X11496333Y-7276309D01*
X11491571Y-7266786D01*
X11491571Y-7252500D01*
X11496333Y-7242976D01*
X11505857Y-7238214D01*
X11558238Y-7238214D01*
D13*
X11384286Y-7409167D02*
X11386190Y-7411071D01*
X11388095Y-7416786D01*
X11388095Y-7420595D01*
X11386190Y-7426309D01*
X11382381Y-7430119D01*
X11378571Y-7432024D01*
X11370952Y-7433928D01*
X11365238Y-7433928D01*
X11357619Y-7432024D01*
X11353809Y-7430119D01*
X11350000Y-7426309D01*
X11348095Y-7420595D01*
X11348095Y-7416786D01*
X11350000Y-7411071D01*
X11351905Y-7409167D01*
X11348095Y-7374881D02*
X11348095Y-7382500D01*
X11350000Y-7386309D01*
X11351905Y-7388214D01*
X11357619Y-7392024D01*
X11365238Y-7393928D01*
X11380476Y-7393928D01*
X11384286Y-7392024D01*
X11386190Y-7390119D01*
X11388095Y-7386309D01*
X11388095Y-7378690D01*
X11386190Y-7374881D01*
X11384286Y-7372976D01*
X11380476Y-7371071D01*
X11370952Y-7371071D01*
X11367143Y-7372976D01*
X11365238Y-7374881D01*
X11363333Y-7378690D01*
X11363333Y-7386309D01*
X11365238Y-7390119D01*
X11367143Y-7392024D01*
X11370952Y-7393928D01*
%TO.C,C5*%
D12*
X16297238Y-11534905D02*
X16297238Y-11592048D01*
X16297238Y-11563476D02*
X16197238Y-11563476D01*
X16211524Y-11573000D01*
X16221048Y-11582524D01*
X16225809Y-11592048D01*
X16197238Y-11473000D02*
X16197238Y-11463476D01*
X16202000Y-11453952D01*
X16206762Y-11449190D01*
X16216286Y-11444428D01*
X16235333Y-11439667D01*
X16259143Y-11439667D01*
X16278190Y-11444428D01*
X16287714Y-11449190D01*
X16292476Y-11453952D01*
X16297238Y-11463476D01*
X16297238Y-11473000D01*
X16292476Y-11482524D01*
X16287714Y-11487286D01*
X16278190Y-11492048D01*
X16259143Y-11496809D01*
X16235333Y-11496809D01*
X16216286Y-11492048D01*
X16206762Y-11487286D01*
X16202000Y-11482524D01*
X16197238Y-11473000D01*
X16197238Y-11377762D02*
X16197238Y-11368238D01*
X16202000Y-11358714D01*
X16206762Y-11353952D01*
X16216286Y-11349190D01*
X16235333Y-11344428D01*
X16259143Y-11344428D01*
X16278190Y-11349190D01*
X16287714Y-11353952D01*
X16292476Y-11358714D01*
X16297238Y-11368238D01*
X16297238Y-11377762D01*
X16292476Y-11387286D01*
X16287714Y-11392048D01*
X16278190Y-11396809D01*
X16259143Y-11401571D01*
X16235333Y-11401571D01*
X16216286Y-11396809D01*
X16206762Y-11392048D01*
X16202000Y-11387286D01*
X16197238Y-11377762D01*
X16230571Y-11301571D02*
X16297238Y-11301571D01*
X16240095Y-11301571D02*
X16235333Y-11296809D01*
X16230571Y-11287286D01*
X16230571Y-11273000D01*
X16235333Y-11263476D01*
X16244857Y-11258714D01*
X16297238Y-11258714D01*
D13*
X16409286Y-11429667D02*
X16411190Y-11431571D01*
X16413095Y-11437286D01*
X16413095Y-11441095D01*
X16411190Y-11446809D01*
X16407381Y-11450619D01*
X16403571Y-11452524D01*
X16395952Y-11454428D01*
X16390238Y-11454428D01*
X16382619Y-11452524D01*
X16378809Y-11450619D01*
X16375000Y-11446809D01*
X16373095Y-11441095D01*
X16373095Y-11437286D01*
X16375000Y-11431571D01*
X16376905Y-11429667D01*
X16373095Y-11393476D02*
X16373095Y-11412524D01*
X16392143Y-11414428D01*
X16390238Y-11412524D01*
X16388333Y-11408714D01*
X16388333Y-11399190D01*
X16390238Y-11395381D01*
X16392143Y-11393476D01*
X16395952Y-11391571D01*
X16405476Y-11391571D01*
X16409286Y-11393476D01*
X16411190Y-11395381D01*
X16413095Y-11399190D01*
X16413095Y-11408714D01*
X16411190Y-11412524D01*
X16409286Y-11414428D01*
%TO.C,U5*%
D12*
X15955238Y-11447143D02*
X15955238Y-11380476D01*
X16055238Y-11423333D01*
X15988571Y-11299524D02*
X16055238Y-11299524D01*
X15950476Y-11323333D02*
X16021905Y-11347143D01*
X16021905Y-11285238D01*
X16055238Y-11199524D02*
X16055238Y-11247143D01*
X15955238Y-11247143D01*
X15955238Y-11180476D02*
X16055238Y-11147143D01*
X15955238Y-11113810D01*
X16045714Y-11023333D02*
X16050476Y-11028095D01*
X16055238Y-11042381D01*
X16055238Y-11051905D01*
X16050476Y-11066190D01*
X16040952Y-11075714D01*
X16031428Y-11080476D01*
X16012381Y-11085238D01*
X15998095Y-11085238D01*
X15979048Y-11080476D01*
X15969524Y-11075714D01*
X15960000Y-11066190D01*
X15955238Y-11051905D01*
X15955238Y-11042381D01*
X15960000Y-11028095D01*
X15964762Y-11023333D01*
X16055238Y-10928095D02*
X16055238Y-10985238D01*
X16055238Y-10956667D02*
X15955238Y-10956667D01*
X15969524Y-10966190D01*
X15979048Y-10975714D01*
X15983809Y-10985238D01*
X15960000Y-10832857D02*
X15955238Y-10842381D01*
X15955238Y-10856667D01*
X15960000Y-10870952D01*
X15969524Y-10880476D01*
X15979048Y-10885238D01*
X15998095Y-10890000D01*
X16012381Y-10890000D01*
X16031428Y-10885238D01*
X16040952Y-10880476D01*
X16050476Y-10870952D01*
X16055238Y-10856667D01*
X16055238Y-10847143D01*
X16050476Y-10832857D01*
X16045714Y-10828095D01*
X16012381Y-10828095D01*
X16012381Y-10847143D01*
X15955238Y-10766190D02*
X15955238Y-10756667D01*
X15960000Y-10747143D01*
X15964762Y-10742381D01*
X15974286Y-10737619D01*
X15993333Y-10732857D01*
X16017143Y-10732857D01*
X16036190Y-10737619D01*
X16045714Y-10742381D01*
X16050476Y-10747143D01*
X16055238Y-10756667D01*
X16055238Y-10766190D01*
X16050476Y-10775714D01*
X16045714Y-10780476D01*
X16036190Y-10785238D01*
X16017143Y-10790000D01*
X15993333Y-10790000D01*
X15974286Y-10785238D01*
X15964762Y-10780476D01*
X15960000Y-10775714D01*
X15955238Y-10766190D01*
X15955238Y-10699524D02*
X15955238Y-10632857D01*
X16055238Y-10675714D01*
%TO.C,C3*%
X9178095Y-10412238D02*
X9120952Y-10412238D01*
X9149524Y-10412238D02*
X9149524Y-10312238D01*
X9140000Y-10326524D01*
X9130476Y-10336048D01*
X9120952Y-10340810D01*
X9240000Y-10312238D02*
X9249524Y-10312238D01*
X9259048Y-10317000D01*
X9263810Y-10321762D01*
X9268571Y-10331286D01*
X9273333Y-10350333D01*
X9273333Y-10374143D01*
X9268571Y-10393190D01*
X9263810Y-10402714D01*
X9259048Y-10407476D01*
X9249524Y-10412238D01*
X9240000Y-10412238D01*
X9230476Y-10407476D01*
X9225714Y-10402714D01*
X9220952Y-10393190D01*
X9216190Y-10374143D01*
X9216190Y-10350333D01*
X9220952Y-10331286D01*
X9225714Y-10321762D01*
X9230476Y-10317000D01*
X9240000Y-10312238D01*
X9335238Y-10312238D02*
X9344762Y-10312238D01*
X9354286Y-10317000D01*
X9359048Y-10321762D01*
X9363810Y-10331286D01*
X9368571Y-10350333D01*
X9368571Y-10374143D01*
X9363810Y-10393190D01*
X9359048Y-10402714D01*
X9354286Y-10407476D01*
X9344762Y-10412238D01*
X9335238Y-10412238D01*
X9325714Y-10407476D01*
X9320952Y-10402714D01*
X9316190Y-10393190D01*
X9311429Y-10374143D01*
X9311429Y-10350333D01*
X9316190Y-10331286D01*
X9320952Y-10321762D01*
X9325714Y-10317000D01*
X9335238Y-10312238D01*
X9411429Y-10345571D02*
X9411429Y-10412238D01*
X9411429Y-10355095D02*
X9416190Y-10350333D01*
X9425714Y-10345571D01*
X9440000Y-10345571D01*
X9449524Y-10350333D01*
X9454286Y-10359857D01*
X9454286Y-10412238D01*
D13*
X9283333Y-10524286D02*
X9281429Y-10526190D01*
X9275714Y-10528095D01*
X9271905Y-10528095D01*
X9266190Y-10526190D01*
X9262381Y-10522381D01*
X9260476Y-10518571D01*
X9258571Y-10510952D01*
X9258571Y-10505238D01*
X9260476Y-10497619D01*
X9262381Y-10493810D01*
X9266190Y-10490000D01*
X9271905Y-10488095D01*
X9275714Y-10488095D01*
X9281429Y-10490000D01*
X9283333Y-10491905D01*
X9296667Y-10488095D02*
X9321429Y-10488095D01*
X9308095Y-10503333D01*
X9313810Y-10503333D01*
X9317619Y-10505238D01*
X9319524Y-10507143D01*
X9321429Y-10510952D01*
X9321429Y-10520476D01*
X9319524Y-10524286D01*
X9317619Y-10526190D01*
X9313810Y-10528095D01*
X9302381Y-10528095D01*
X9298571Y-10526190D01*
X9296667Y-10524286D01*
%TO.C,C4*%
D12*
X9325714Y-10625238D02*
X9268571Y-10625238D01*
X9297143Y-10625238D02*
X9297143Y-10525238D01*
X9287619Y-10539524D01*
X9278095Y-10549048D01*
X9268571Y-10553810D01*
X9387619Y-10525238D02*
X9397143Y-10525238D01*
X9406667Y-10530000D01*
X9411429Y-10534762D01*
X9416190Y-10544286D01*
X9420952Y-10563333D01*
X9420952Y-10587143D01*
X9416190Y-10606190D01*
X9411429Y-10615714D01*
X9406667Y-10620476D01*
X9397143Y-10625238D01*
X9387619Y-10625238D01*
X9378095Y-10620476D01*
X9373333Y-10615714D01*
X9368571Y-10606190D01*
X9363810Y-10587143D01*
X9363810Y-10563333D01*
X9368571Y-10544286D01*
X9373333Y-10534762D01*
X9378095Y-10530000D01*
X9387619Y-10525238D01*
X9506667Y-10558571D02*
X9506667Y-10625238D01*
X9463810Y-10558571D02*
X9463810Y-10610952D01*
X9468571Y-10620476D01*
X9478095Y-10625238D01*
X9492381Y-10625238D01*
X9501905Y-10620476D01*
X9506667Y-10615714D01*
D11*
X9376667Y-10838571D02*
X9372857Y-10842381D01*
X9361429Y-10846190D01*
X9353810Y-10846190D01*
X9342381Y-10842381D01*
X9334762Y-10834762D01*
X9330952Y-10827143D01*
X9327143Y-10811905D01*
X9327143Y-10800476D01*
X9330952Y-10785238D01*
X9334762Y-10777619D01*
X9342381Y-10770000D01*
X9353810Y-10766190D01*
X9361429Y-10766190D01*
X9372857Y-10770000D01*
X9376667Y-10773810D01*
X9445238Y-10792857D02*
X9445238Y-10846190D01*
X9426190Y-10762381D02*
X9407143Y-10819524D01*
X9456667Y-10819524D01*
%TO.C,R6*%
D12*
X10830476Y-9520238D02*
X10773333Y-9520238D01*
X10801905Y-9520238D02*
X10801905Y-9420238D01*
X10792381Y-9434524D01*
X10782857Y-9444048D01*
X10773333Y-9448810D01*
X10892381Y-9420238D02*
X10901905Y-9420238D01*
X10911429Y-9425000D01*
X10916190Y-9429762D01*
X10920952Y-9439286D01*
X10925714Y-9458333D01*
X10925714Y-9482143D01*
X10920952Y-9501190D01*
X10916190Y-9510714D01*
X10911429Y-9515476D01*
X10901905Y-9520238D01*
X10892381Y-9520238D01*
X10882857Y-9515476D01*
X10878095Y-9510714D01*
X10873333Y-9501190D01*
X10868571Y-9482143D01*
X10868571Y-9458333D01*
X10873333Y-9439286D01*
X10878095Y-9429762D01*
X10882857Y-9425000D01*
X10892381Y-9420238D01*
X10968571Y-9520238D02*
X10968571Y-9420238D01*
X10978095Y-9482143D02*
X11006667Y-9520238D01*
X11006667Y-9453571D02*
X10968571Y-9491667D01*
D14*
X10881667Y-9332619D02*
X10865000Y-9308810D01*
X10853095Y-9332619D02*
X10853095Y-9282619D01*
X10872143Y-9282619D01*
X10876905Y-9285000D01*
X10879286Y-9287381D01*
X10881667Y-9292143D01*
X10881667Y-9299286D01*
X10879286Y-9304048D01*
X10876905Y-9306429D01*
X10872143Y-9308810D01*
X10853095Y-9308810D01*
X10924524Y-9282619D02*
X10915000Y-9282619D01*
X10910238Y-9285000D01*
X10907857Y-9287381D01*
X10903095Y-9294524D01*
X10900714Y-9304048D01*
X10900714Y-9323095D01*
X10903095Y-9327857D01*
X10905476Y-9330238D01*
X10910238Y-9332619D01*
X10919762Y-9332619D01*
X10924524Y-9330238D01*
X10926905Y-9327857D01*
X10929286Y-9323095D01*
X10929286Y-9311190D01*
X10926905Y-9306429D01*
X10924524Y-9304048D01*
X10919762Y-9301667D01*
X10910238Y-9301667D01*
X10905476Y-9304048D01*
X10903095Y-9306429D01*
X10900714Y-9311190D01*
%TO.C,R8*%
D12*
X10830476Y-10045238D02*
X10773333Y-10045238D01*
X10801905Y-10045238D02*
X10801905Y-9945238D01*
X10792381Y-9959524D01*
X10782857Y-9969048D01*
X10773333Y-9973810D01*
X10892381Y-9945238D02*
X10901905Y-9945238D01*
X10911429Y-9950000D01*
X10916190Y-9954762D01*
X10920952Y-9964286D01*
X10925714Y-9983333D01*
X10925714Y-10007143D01*
X10920952Y-10026190D01*
X10916190Y-10035714D01*
X10911429Y-10040476D01*
X10901905Y-10045238D01*
X10892381Y-10045238D01*
X10882857Y-10040476D01*
X10878095Y-10035714D01*
X10873333Y-10026190D01*
X10868571Y-10007143D01*
X10868571Y-9983333D01*
X10873333Y-9964286D01*
X10878095Y-9954762D01*
X10882857Y-9950000D01*
X10892381Y-9945238D01*
X10968571Y-10045238D02*
X10968571Y-9945238D01*
X10978095Y-10007143D02*
X11006667Y-10045238D01*
X11006667Y-9978571D02*
X10968571Y-10016667D01*
D14*
X10881667Y-9857619D02*
X10865000Y-9833810D01*
X10853095Y-9857619D02*
X10853095Y-9807619D01*
X10872143Y-9807619D01*
X10876905Y-9810000D01*
X10879286Y-9812381D01*
X10881667Y-9817143D01*
X10881667Y-9824286D01*
X10879286Y-9829048D01*
X10876905Y-9831429D01*
X10872143Y-9833810D01*
X10853095Y-9833810D01*
X10910238Y-9829048D02*
X10905476Y-9826667D01*
X10903095Y-9824286D01*
X10900714Y-9819524D01*
X10900714Y-9817143D01*
X10903095Y-9812381D01*
X10905476Y-9810000D01*
X10910238Y-9807619D01*
X10919762Y-9807619D01*
X10924524Y-9810000D01*
X10926905Y-9812381D01*
X10929286Y-9817143D01*
X10929286Y-9819524D01*
X10926905Y-9824286D01*
X10924524Y-9826667D01*
X10919762Y-9829048D01*
X10910238Y-9829048D01*
X10905476Y-9831429D01*
X10903095Y-9833810D01*
X10900714Y-9838571D01*
X10900714Y-9848095D01*
X10903095Y-9852857D01*
X10905476Y-9855238D01*
X10910238Y-9857619D01*
X10919762Y-9857619D01*
X10924524Y-9855238D01*
X10926905Y-9852857D01*
X10929286Y-9848095D01*
X10929286Y-9838571D01*
X10926905Y-9833810D01*
X10924524Y-9831429D01*
X10919762Y-9829048D01*
%TO.C,R3*%
D12*
X8091400Y-9612771D02*
X8091400Y-9679438D01*
X8067590Y-9574676D02*
X8043781Y-9646105D01*
X8105686Y-9646105D01*
X8148543Y-9679438D02*
X8167590Y-9679438D01*
X8177114Y-9674676D01*
X8181876Y-9669914D01*
X8191400Y-9655629D01*
X8196162Y-9636581D01*
X8196162Y-9598486D01*
X8191400Y-9588962D01*
X8186638Y-9584200D01*
X8177114Y-9579438D01*
X8158067Y-9579438D01*
X8148543Y-9584200D01*
X8143781Y-9588962D01*
X8139019Y-9598486D01*
X8139019Y-9622295D01*
X8143781Y-9631819D01*
X8148543Y-9636581D01*
X8158067Y-9641343D01*
X8177114Y-9641343D01*
X8186638Y-9636581D01*
X8191400Y-9631819D01*
X8196162Y-9622295D01*
X8239019Y-9669914D02*
X8243781Y-9674676D01*
X8239019Y-9679438D01*
X8234257Y-9674676D01*
X8239019Y-9669914D01*
X8239019Y-9679438D01*
X8291400Y-9679438D02*
X8310448Y-9679438D01*
X8319971Y-9674676D01*
X8324733Y-9669914D01*
X8334257Y-9655629D01*
X8339019Y-9636581D01*
X8339019Y-9598486D01*
X8334257Y-9588962D01*
X8329495Y-9584200D01*
X8319971Y-9579438D01*
X8300924Y-9579438D01*
X8291400Y-9584200D01*
X8286638Y-9588962D01*
X8281876Y-9598486D01*
X8281876Y-9622295D01*
X8286638Y-9631819D01*
X8291400Y-9636581D01*
X8300924Y-9641343D01*
X8319971Y-9641343D01*
X8329495Y-9636581D01*
X8334257Y-9631819D01*
X8339019Y-9622295D01*
D11*
X8178067Y-9852390D02*
X8151400Y-9814295D01*
X8132352Y-9852390D02*
X8132352Y-9772390D01*
X8162828Y-9772390D01*
X8170448Y-9776200D01*
X8174257Y-9780010D01*
X8178067Y-9787629D01*
X8178067Y-9799057D01*
X8174257Y-9806676D01*
X8170448Y-9810486D01*
X8162828Y-9814295D01*
X8132352Y-9814295D01*
X8204733Y-9772390D02*
X8254257Y-9772390D01*
X8227590Y-9802867D01*
X8239019Y-9802867D01*
X8246638Y-9806676D01*
X8250448Y-9810486D01*
X8254257Y-9818105D01*
X8254257Y-9837152D01*
X8250448Y-9844771D01*
X8246638Y-9848581D01*
X8239019Y-9852390D01*
X8216162Y-9852390D01*
X8208543Y-9848581D01*
X8204733Y-9844771D01*
%TO.C,R1*%
D12*
X8091400Y-9112771D02*
X8091400Y-9179438D01*
X8067590Y-9074676D02*
X8043781Y-9146105D01*
X8105686Y-9146105D01*
X8148543Y-9179438D02*
X8167590Y-9179438D01*
X8177114Y-9174676D01*
X8181876Y-9169914D01*
X8191400Y-9155629D01*
X8196162Y-9136581D01*
X8196162Y-9098486D01*
X8191400Y-9088962D01*
X8186638Y-9084200D01*
X8177114Y-9079438D01*
X8158067Y-9079438D01*
X8148543Y-9084200D01*
X8143781Y-9088962D01*
X8139019Y-9098486D01*
X8139019Y-9122295D01*
X8143781Y-9131819D01*
X8148543Y-9136581D01*
X8158067Y-9141343D01*
X8177114Y-9141343D01*
X8186638Y-9136581D01*
X8191400Y-9131819D01*
X8196162Y-9122295D01*
X8239019Y-9169914D02*
X8243781Y-9174676D01*
X8239019Y-9179438D01*
X8234257Y-9174676D01*
X8239019Y-9169914D01*
X8239019Y-9179438D01*
X8291400Y-9179438D02*
X8310448Y-9179438D01*
X8319971Y-9174676D01*
X8324733Y-9169914D01*
X8334257Y-9155629D01*
X8339019Y-9136581D01*
X8339019Y-9098486D01*
X8334257Y-9088962D01*
X8329495Y-9084200D01*
X8319971Y-9079438D01*
X8300924Y-9079438D01*
X8291400Y-9084200D01*
X8286638Y-9088962D01*
X8281876Y-9098486D01*
X8281876Y-9122295D01*
X8286638Y-9131819D01*
X8291400Y-9136581D01*
X8300924Y-9141343D01*
X8319971Y-9141343D01*
X8329495Y-9136581D01*
X8334257Y-9131819D01*
X8339019Y-9122295D01*
D11*
X8178067Y-9352390D02*
X8151400Y-9314295D01*
X8132352Y-9352390D02*
X8132352Y-9272390D01*
X8162828Y-9272390D01*
X8170448Y-9276200D01*
X8174257Y-9280010D01*
X8178067Y-9287629D01*
X8178067Y-9299057D01*
X8174257Y-9306676D01*
X8170448Y-9310486D01*
X8162828Y-9314295D01*
X8132352Y-9314295D01*
X8254257Y-9352390D02*
X8208543Y-9352390D01*
X8231400Y-9352390D02*
X8231400Y-9272390D01*
X8223781Y-9283819D01*
X8216162Y-9291438D01*
X8208543Y-9295248D01*
%TO.C,U4*%
D12*
X9485238Y-8970238D02*
X9551905Y-8970238D01*
X9509048Y-9070238D01*
X9632857Y-9003571D02*
X9632857Y-9070238D01*
X9609048Y-8965476D02*
X9585238Y-9036905D01*
X9647143Y-9036905D01*
X9680476Y-9041667D02*
X9728095Y-9041667D01*
X9670952Y-9070238D02*
X9704286Y-8970238D01*
X9737619Y-9070238D01*
X9804286Y-9017857D02*
X9818571Y-9022619D01*
X9823333Y-9027381D01*
X9828095Y-9036905D01*
X9828095Y-9051190D01*
X9823333Y-9060714D01*
X9818571Y-9065476D01*
X9809048Y-9070238D01*
X9770952Y-9070238D01*
X9770952Y-8970238D01*
X9804286Y-8970238D01*
X9813810Y-8975000D01*
X9818571Y-8979762D01*
X9823333Y-8989286D01*
X9823333Y-8998810D01*
X9818571Y-9008333D01*
X9813810Y-9013095D01*
X9804286Y-9017857D01*
X9770952Y-9017857D01*
X9856667Y-8970238D02*
X9913810Y-8970238D01*
X9885238Y-9070238D02*
X9885238Y-8970238D01*
X9942381Y-8979762D02*
X9947143Y-8975000D01*
X9956667Y-8970238D01*
X9980476Y-8970238D01*
X9990000Y-8975000D01*
X9994762Y-8979762D01*
X9999524Y-8989286D01*
X9999524Y-8998810D01*
X9994762Y-9013095D01*
X9937619Y-9070238D01*
X9999524Y-9070238D01*
X10085238Y-9003571D02*
X10085238Y-9070238D01*
X10061429Y-8965476D02*
X10037619Y-9036905D01*
X10099524Y-9036905D01*
X10185238Y-8970238D02*
X10137619Y-8970238D01*
X10132857Y-9017857D01*
X10137619Y-9013095D01*
X10147143Y-9008333D01*
X10170952Y-9008333D01*
X10180476Y-9013095D01*
X10185238Y-9017857D01*
X10190000Y-9027381D01*
X10190000Y-9051190D01*
X10185238Y-9060714D01*
X10180476Y-9065476D01*
X10170952Y-9070238D01*
X10147143Y-9070238D01*
X10137619Y-9065476D01*
X10132857Y-9060714D01*
X9763810Y-9705238D02*
X9763810Y-9786190D01*
X9768571Y-9795714D01*
X9773333Y-9800476D01*
X9782857Y-9805238D01*
X9801905Y-9805238D01*
X9811429Y-9800476D01*
X9816190Y-9795714D01*
X9820952Y-9786190D01*
X9820952Y-9705238D01*
X9911429Y-9738571D02*
X9911429Y-9805238D01*
X9887619Y-9700476D02*
X9863810Y-9771905D01*
X9925714Y-9771905D01*
%TO.C,R4*%
X8091400Y-9862771D02*
X8091400Y-9929438D01*
X8067590Y-9824676D02*
X8043781Y-9896105D01*
X8105686Y-9896105D01*
X8148543Y-9929438D02*
X8167590Y-9929438D01*
X8177114Y-9924676D01*
X8181876Y-9919914D01*
X8191400Y-9905629D01*
X8196162Y-9886581D01*
X8196162Y-9848486D01*
X8191400Y-9838962D01*
X8186638Y-9834200D01*
X8177114Y-9829438D01*
X8158067Y-9829438D01*
X8148543Y-9834200D01*
X8143781Y-9838962D01*
X8139019Y-9848486D01*
X8139019Y-9872295D01*
X8143781Y-9881819D01*
X8148543Y-9886581D01*
X8158067Y-9891343D01*
X8177114Y-9891343D01*
X8186638Y-9886581D01*
X8191400Y-9881819D01*
X8196162Y-9872295D01*
X8239019Y-9919914D02*
X8243781Y-9924676D01*
X8239019Y-9929438D01*
X8234257Y-9924676D01*
X8239019Y-9919914D01*
X8239019Y-9929438D01*
X8291400Y-9929438D02*
X8310448Y-9929438D01*
X8319971Y-9924676D01*
X8324733Y-9919914D01*
X8334257Y-9905629D01*
X8339019Y-9886581D01*
X8339019Y-9848486D01*
X8334257Y-9838962D01*
X8329495Y-9834200D01*
X8319971Y-9829438D01*
X8300924Y-9829438D01*
X8291400Y-9834200D01*
X8286638Y-9838962D01*
X8281876Y-9848486D01*
X8281876Y-9872295D01*
X8286638Y-9881819D01*
X8291400Y-9886581D01*
X8300924Y-9891343D01*
X8319971Y-9891343D01*
X8329495Y-9886581D01*
X8334257Y-9881819D01*
X8339019Y-9872295D01*
D11*
X8178067Y-10102390D02*
X8151400Y-10064295D01*
X8132352Y-10102390D02*
X8132352Y-10022390D01*
X8162828Y-10022390D01*
X8170448Y-10026200D01*
X8174257Y-10030010D01*
X8178067Y-10037629D01*
X8178067Y-10049057D01*
X8174257Y-10056676D01*
X8170448Y-10060486D01*
X8162828Y-10064295D01*
X8132352Y-10064295D01*
X8246638Y-10049057D02*
X8246638Y-10102390D01*
X8227590Y-10018581D02*
X8208543Y-10075724D01*
X8258067Y-10075724D01*
%TO.C,R7*%
D12*
X10830476Y-9770238D02*
X10773333Y-9770238D01*
X10801905Y-9770238D02*
X10801905Y-9670238D01*
X10792381Y-9684524D01*
X10782857Y-9694048D01*
X10773333Y-9698810D01*
X10892381Y-9670238D02*
X10901905Y-9670238D01*
X10911429Y-9675000D01*
X10916190Y-9679762D01*
X10920952Y-9689286D01*
X10925714Y-9708333D01*
X10925714Y-9732143D01*
X10920952Y-9751190D01*
X10916190Y-9760714D01*
X10911429Y-9765476D01*
X10901905Y-9770238D01*
X10892381Y-9770238D01*
X10882857Y-9765476D01*
X10878095Y-9760714D01*
X10873333Y-9751190D01*
X10868571Y-9732143D01*
X10868571Y-9708333D01*
X10873333Y-9689286D01*
X10878095Y-9679762D01*
X10882857Y-9675000D01*
X10892381Y-9670238D01*
X10968571Y-9770238D02*
X10968571Y-9670238D01*
X10978095Y-9732143D02*
X11006667Y-9770238D01*
X11006667Y-9703571D02*
X10968571Y-9741667D01*
D14*
X10881667Y-9582619D02*
X10865000Y-9558810D01*
X10853095Y-9582619D02*
X10853095Y-9532619D01*
X10872143Y-9532619D01*
X10876905Y-9535000D01*
X10879286Y-9537381D01*
X10881667Y-9542143D01*
X10881667Y-9549286D01*
X10879286Y-9554048D01*
X10876905Y-9556429D01*
X10872143Y-9558810D01*
X10853095Y-9558810D01*
X10898333Y-9532619D02*
X10931667Y-9532619D01*
X10910238Y-9582619D01*
%TO.C,R2*%
D12*
X8091400Y-9362771D02*
X8091400Y-9429438D01*
X8067590Y-9324676D02*
X8043781Y-9396105D01*
X8105686Y-9396105D01*
X8148543Y-9429438D02*
X8167590Y-9429438D01*
X8177114Y-9424676D01*
X8181876Y-9419914D01*
X8191400Y-9405629D01*
X8196162Y-9386581D01*
X8196162Y-9348486D01*
X8191400Y-9338962D01*
X8186638Y-9334200D01*
X8177114Y-9329438D01*
X8158067Y-9329438D01*
X8148543Y-9334200D01*
X8143781Y-9338962D01*
X8139019Y-9348486D01*
X8139019Y-9372295D01*
X8143781Y-9381819D01*
X8148543Y-9386581D01*
X8158067Y-9391343D01*
X8177114Y-9391343D01*
X8186638Y-9386581D01*
X8191400Y-9381819D01*
X8196162Y-9372295D01*
X8239019Y-9419914D02*
X8243781Y-9424676D01*
X8239019Y-9429438D01*
X8234257Y-9424676D01*
X8239019Y-9419914D01*
X8239019Y-9429438D01*
X8291400Y-9429438D02*
X8310448Y-9429438D01*
X8319971Y-9424676D01*
X8324733Y-9419914D01*
X8334257Y-9405629D01*
X8339019Y-9386581D01*
X8339019Y-9348486D01*
X8334257Y-9338962D01*
X8329495Y-9334200D01*
X8319971Y-9329438D01*
X8300924Y-9329438D01*
X8291400Y-9334200D01*
X8286638Y-9338962D01*
X8281876Y-9348486D01*
X8281876Y-9372295D01*
X8286638Y-9381819D01*
X8291400Y-9386581D01*
X8300924Y-9391343D01*
X8319971Y-9391343D01*
X8329495Y-9386581D01*
X8334257Y-9381819D01*
X8339019Y-9372295D01*
D11*
X8178067Y-9602390D02*
X8151400Y-9564295D01*
X8132352Y-9602390D02*
X8132352Y-9522390D01*
X8162828Y-9522390D01*
X8170448Y-9526200D01*
X8174257Y-9530010D01*
X8178067Y-9537629D01*
X8178067Y-9549057D01*
X8174257Y-9556676D01*
X8170448Y-9560486D01*
X8162828Y-9564295D01*
X8132352Y-9564295D01*
X8208543Y-9530010D02*
X8212352Y-9526200D01*
X8219971Y-9522390D01*
X8239019Y-9522390D01*
X8246638Y-9526200D01*
X8250448Y-9530010D01*
X8254257Y-9537629D01*
X8254257Y-9545248D01*
X8250448Y-9556676D01*
X8204733Y-9602390D01*
X8254257Y-9602390D01*
%TO.C,R9*%
D12*
X10830476Y-10295238D02*
X10773333Y-10295238D01*
X10801905Y-10295238D02*
X10801905Y-10195238D01*
X10792381Y-10209524D01*
X10782857Y-10219048D01*
X10773333Y-10223810D01*
X10892381Y-10195238D02*
X10901905Y-10195238D01*
X10911429Y-10200000D01*
X10916190Y-10204762D01*
X10920952Y-10214286D01*
X10925714Y-10233333D01*
X10925714Y-10257143D01*
X10920952Y-10276190D01*
X10916190Y-10285714D01*
X10911429Y-10290476D01*
X10901905Y-10295238D01*
X10892381Y-10295238D01*
X10882857Y-10290476D01*
X10878095Y-10285714D01*
X10873333Y-10276190D01*
X10868571Y-10257143D01*
X10868571Y-10233333D01*
X10873333Y-10214286D01*
X10878095Y-10204762D01*
X10882857Y-10200000D01*
X10892381Y-10195238D01*
X10968571Y-10295238D02*
X10968571Y-10195238D01*
X10978095Y-10257143D02*
X11006667Y-10295238D01*
X11006667Y-10228571D02*
X10968571Y-10266667D01*
D14*
X10881667Y-10107619D02*
X10865000Y-10083810D01*
X10853095Y-10107619D02*
X10853095Y-10057619D01*
X10872143Y-10057619D01*
X10876905Y-10060000D01*
X10879286Y-10062381D01*
X10881667Y-10067143D01*
X10881667Y-10074286D01*
X10879286Y-10079048D01*
X10876905Y-10081429D01*
X10872143Y-10083810D01*
X10853095Y-10083810D01*
X10905476Y-10107619D02*
X10915000Y-10107619D01*
X10919762Y-10105238D01*
X10922143Y-10102857D01*
X10926905Y-10095714D01*
X10929286Y-10086190D01*
X10929286Y-10067143D01*
X10926905Y-10062381D01*
X10924524Y-10060000D01*
X10919762Y-10057619D01*
X10910238Y-10057619D01*
X10905476Y-10060000D01*
X10903095Y-10062381D01*
X10900714Y-10067143D01*
X10900714Y-10079048D01*
X10903095Y-10083810D01*
X10905476Y-10086190D01*
X10910238Y-10088571D01*
X10919762Y-10088571D01*
X10924524Y-10086190D01*
X10926905Y-10083810D01*
X10929286Y-10079048D01*
%TO.C,R17*%
D12*
X6688821Y-7197798D02*
X6755488Y-7197798D01*
X6650726Y-7221607D02*
X6722155Y-7245417D01*
X6722155Y-7183512D01*
X6655488Y-7154940D02*
X6655488Y-7088274D01*
X6755488Y-7131131D01*
X6755488Y-7050178D02*
X6655488Y-7050178D01*
X6717393Y-7040655D02*
X6755488Y-7012083D01*
X6688821Y-7012083D02*
X6726917Y-7050178D01*
D14*
X6567869Y-7160893D02*
X6544059Y-7177559D01*
X6567869Y-7189464D02*
X6517869Y-7189464D01*
X6517869Y-7170417D01*
X6520250Y-7165655D01*
X6522631Y-7163274D01*
X6527393Y-7160893D01*
X6534536Y-7160893D01*
X6539298Y-7163274D01*
X6541678Y-7165655D01*
X6544059Y-7170417D01*
X6544059Y-7189464D01*
X6567869Y-7113274D02*
X6567869Y-7141845D01*
X6567869Y-7127559D02*
X6517869Y-7127559D01*
X6525012Y-7132321D01*
X6529774Y-7137083D01*
X6532155Y-7141845D01*
X6517869Y-7096607D02*
X6517869Y-7063274D01*
X6567869Y-7084702D01*
%TO.C,R16*%
D12*
X6353571Y-7710298D02*
X6420238Y-7710298D01*
X6315476Y-7734107D02*
X6386905Y-7757917D01*
X6386905Y-7696012D01*
X6320238Y-7667440D02*
X6320238Y-7600774D01*
X6420238Y-7643631D01*
X6420238Y-7562678D02*
X6320238Y-7562678D01*
X6382143Y-7553155D02*
X6420238Y-7524583D01*
X6353571Y-7524583D02*
X6391667Y-7562678D01*
D14*
X6562619Y-7673393D02*
X6538809Y-7690059D01*
X6562619Y-7701964D02*
X6512619Y-7701964D01*
X6512619Y-7682917D01*
X6515000Y-7678155D01*
X6517381Y-7675774D01*
X6522143Y-7673393D01*
X6529286Y-7673393D01*
X6534048Y-7675774D01*
X6536428Y-7678155D01*
X6538809Y-7682917D01*
X6538809Y-7701964D01*
X6562619Y-7625774D02*
X6562619Y-7654345D01*
X6562619Y-7640059D02*
X6512619Y-7640059D01*
X6519762Y-7644821D01*
X6524524Y-7649583D01*
X6526905Y-7654345D01*
X6512619Y-7582917D02*
X6512619Y-7592440D01*
X6515000Y-7597202D01*
X6517381Y-7599583D01*
X6524524Y-7604345D01*
X6534048Y-7606726D01*
X6553095Y-7606726D01*
X6557857Y-7604345D01*
X6560238Y-7601964D01*
X6562619Y-7597202D01*
X6562619Y-7587678D01*
X6560238Y-7582917D01*
X6557857Y-7580536D01*
X6553095Y-7578155D01*
X6541190Y-7578155D01*
X6536428Y-7580536D01*
X6534048Y-7582917D01*
X6531667Y-7587678D01*
X6531667Y-7597202D01*
X6534048Y-7601964D01*
X6536428Y-7604345D01*
X6541190Y-7606726D01*
%TO.C,J10*%
D12*
X11236667Y-12934714D02*
X11231905Y-12939476D01*
X11217619Y-12944238D01*
X11208095Y-12944238D01*
X11193809Y-12939476D01*
X11184286Y-12929952D01*
X11179524Y-12920428D01*
X11174762Y-12901381D01*
X11174762Y-12887095D01*
X11179524Y-12868048D01*
X11184286Y-12858524D01*
X11193809Y-12849000D01*
X11208095Y-12844238D01*
X11217619Y-12844238D01*
X11231905Y-12849000D01*
X11236667Y-12853762D01*
X11293809Y-12944238D02*
X11284286Y-12939476D01*
X11279524Y-12934714D01*
X11274762Y-12925190D01*
X11274762Y-12896619D01*
X11279524Y-12887095D01*
X11284286Y-12882333D01*
X11293809Y-12877571D01*
X11308095Y-12877571D01*
X11317619Y-12882333D01*
X11322381Y-12887095D01*
X11327143Y-12896619D01*
X11327143Y-12925190D01*
X11322381Y-12934714D01*
X11317619Y-12939476D01*
X11308095Y-12944238D01*
X11293809Y-12944238D01*
X11370000Y-12877571D02*
X11370000Y-12944238D01*
X11370000Y-12887095D02*
X11374762Y-12882333D01*
X11384286Y-12877571D01*
X11398571Y-12877571D01*
X11408095Y-12882333D01*
X11412857Y-12891857D01*
X11412857Y-12944238D01*
X11460476Y-12877571D02*
X11460476Y-12944238D01*
X11460476Y-12887095D02*
X11465238Y-12882333D01*
X11474762Y-12877571D01*
X11489048Y-12877571D01*
X11498571Y-12882333D01*
X11503333Y-12891857D01*
X11503333Y-12944238D01*
X11527143Y-12953762D02*
X11603333Y-12953762D01*
X11646190Y-12844238D02*
X11655714Y-12844238D01*
X11665238Y-12849000D01*
X11670000Y-12853762D01*
X11674762Y-12863286D01*
X11679524Y-12882333D01*
X11679524Y-12906143D01*
X11674762Y-12925190D01*
X11670000Y-12934714D01*
X11665238Y-12939476D01*
X11655714Y-12944238D01*
X11646190Y-12944238D01*
X11636667Y-12939476D01*
X11631905Y-12934714D01*
X11627143Y-12925190D01*
X11622381Y-12906143D01*
X11622381Y-12882333D01*
X11627143Y-12863286D01*
X11631905Y-12853762D01*
X11636667Y-12849000D01*
X11646190Y-12844238D01*
X11774762Y-12944238D02*
X11717619Y-12944238D01*
X11746190Y-12944238D02*
X11746190Y-12844238D01*
X11736667Y-12858524D01*
X11727143Y-12868048D01*
X11717619Y-12872809D01*
X11808095Y-12944238D02*
X11860476Y-12877571D01*
X11808095Y-12877571D02*
X11860476Y-12944238D01*
X11893809Y-12853762D02*
X11898571Y-12849000D01*
X11908095Y-12844238D01*
X11931905Y-12844238D01*
X11941428Y-12849000D01*
X11946190Y-12853762D01*
X11950952Y-12863286D01*
X11950952Y-12872809D01*
X11946190Y-12887095D01*
X11889048Y-12944238D01*
X11950952Y-12944238D01*
X12012857Y-12844238D02*
X12022381Y-12844238D01*
X12031905Y-12849000D01*
X12036667Y-12853762D01*
X12041428Y-12863286D01*
X12046190Y-12882333D01*
X12046190Y-12906143D01*
X12041428Y-12925190D01*
X12036667Y-12934714D01*
X12031905Y-12939476D01*
X12022381Y-12944238D01*
X12012857Y-12944238D01*
X12003333Y-12939476D01*
X11998571Y-12934714D01*
X11993809Y-12925190D01*
X11989048Y-12906143D01*
X11989048Y-12882333D01*
X11993809Y-12863286D01*
X11998571Y-12853762D01*
X12003333Y-12849000D01*
X12012857Y-12844238D01*
X12065238Y-12953762D02*
X12141428Y-12953762D01*
X12165238Y-12944238D02*
X12165238Y-12844238D01*
X12198571Y-12915667D01*
X12231905Y-12844238D01*
X12231905Y-12944238D01*
X12322381Y-12944238D02*
X12322381Y-12891857D01*
X12317619Y-12882333D01*
X12308095Y-12877571D01*
X12289048Y-12877571D01*
X12279524Y-12882333D01*
X12322381Y-12939476D02*
X12312857Y-12944238D01*
X12289048Y-12944238D01*
X12279524Y-12939476D01*
X12274762Y-12929952D01*
X12274762Y-12920428D01*
X12279524Y-12910905D01*
X12289048Y-12906143D01*
X12312857Y-12906143D01*
X12322381Y-12901381D01*
X12384286Y-12944238D02*
X12374762Y-12939476D01*
X12370000Y-12929952D01*
X12370000Y-12844238D01*
X12460476Y-12939476D02*
X12450952Y-12944238D01*
X12431905Y-12944238D01*
X12422381Y-12939476D01*
X12417619Y-12929952D01*
X12417619Y-12891857D01*
X12422381Y-12882333D01*
X12431905Y-12877571D01*
X12450952Y-12877571D01*
X12460476Y-12882333D01*
X12465238Y-12891857D01*
X12465238Y-12901381D01*
X12417619Y-12910905D01*
X11765238Y-10333952D02*
X11836667Y-10333952D01*
X11850952Y-10338714D01*
X11860476Y-10348238D01*
X11865238Y-10362524D01*
X11865238Y-10372048D01*
X11865238Y-10233952D02*
X11865238Y-10291095D01*
X11865238Y-10262524D02*
X11765238Y-10262524D01*
X11779524Y-10272048D01*
X11789048Y-10281571D01*
X11793809Y-10291095D01*
X11765238Y-10172048D02*
X11765238Y-10162524D01*
X11770000Y-10153000D01*
X11774762Y-10148238D01*
X11784286Y-10143476D01*
X11803333Y-10138714D01*
X11827143Y-10138714D01*
X11846190Y-10143476D01*
X11855714Y-10148238D01*
X11860476Y-10153000D01*
X11865238Y-10162524D01*
X11865238Y-10172048D01*
X11860476Y-10181571D01*
X11855714Y-10186333D01*
X11846190Y-10191095D01*
X11827143Y-10195857D01*
X11803333Y-10195857D01*
X11784286Y-10191095D01*
X11774762Y-10186333D01*
X11770000Y-10181571D01*
X11765238Y-10172048D01*
%TO.C,J1*%
X4486714Y-8882714D02*
X4481952Y-8887476D01*
X4467667Y-8892238D01*
X4458143Y-8892238D01*
X4443857Y-8887476D01*
X4434333Y-8877952D01*
X4429571Y-8868429D01*
X4424810Y-8849381D01*
X4424810Y-8835095D01*
X4429571Y-8816048D01*
X4434333Y-8806524D01*
X4443857Y-8797000D01*
X4458143Y-8792238D01*
X4467667Y-8792238D01*
X4481952Y-8797000D01*
X4486714Y-8801762D01*
X4543857Y-8892238D02*
X4534333Y-8887476D01*
X4529571Y-8882714D01*
X4524810Y-8873190D01*
X4524810Y-8844619D01*
X4529571Y-8835095D01*
X4534333Y-8830333D01*
X4543857Y-8825571D01*
X4558143Y-8825571D01*
X4567667Y-8830333D01*
X4572429Y-8835095D01*
X4577190Y-8844619D01*
X4577190Y-8873190D01*
X4572429Y-8882714D01*
X4567667Y-8887476D01*
X4558143Y-8892238D01*
X4543857Y-8892238D01*
X4620048Y-8825571D02*
X4620048Y-8892238D01*
X4620048Y-8835095D02*
X4624810Y-8830333D01*
X4634333Y-8825571D01*
X4648619Y-8825571D01*
X4658143Y-8830333D01*
X4662905Y-8839857D01*
X4662905Y-8892238D01*
X4710524Y-8825571D02*
X4710524Y-8892238D01*
X4710524Y-8835095D02*
X4715286Y-8830333D01*
X4724810Y-8825571D01*
X4739095Y-8825571D01*
X4748619Y-8830333D01*
X4753381Y-8839857D01*
X4753381Y-8892238D01*
X4777190Y-8901762D02*
X4853381Y-8901762D01*
X4896238Y-8792238D02*
X4905762Y-8792238D01*
X4915286Y-8797000D01*
X4920048Y-8801762D01*
X4924810Y-8811286D01*
X4929571Y-8830333D01*
X4929571Y-8854143D01*
X4924810Y-8873190D01*
X4920048Y-8882714D01*
X4915286Y-8887476D01*
X4905762Y-8892238D01*
X4896238Y-8892238D01*
X4886714Y-8887476D01*
X4881952Y-8882714D01*
X4877190Y-8873190D01*
X4872429Y-8854143D01*
X4872429Y-8830333D01*
X4877190Y-8811286D01*
X4881952Y-8801762D01*
X4886714Y-8797000D01*
X4896238Y-8792238D01*
X4967667Y-8801762D02*
X4972429Y-8797000D01*
X4981952Y-8792238D01*
X5005762Y-8792238D01*
X5015286Y-8797000D01*
X5020048Y-8801762D01*
X5024810Y-8811286D01*
X5024810Y-8820810D01*
X5020048Y-8835095D01*
X4962905Y-8892238D01*
X5024810Y-8892238D01*
X5058143Y-8892238D02*
X5110524Y-8825571D01*
X5058143Y-8825571D02*
X5110524Y-8892238D01*
X5167667Y-8792238D02*
X5177190Y-8792238D01*
X5186714Y-8797000D01*
X5191476Y-8801762D01*
X5196238Y-8811286D01*
X5201000Y-8830333D01*
X5201000Y-8854143D01*
X5196238Y-8873190D01*
X5191476Y-8882714D01*
X5186714Y-8887476D01*
X5177190Y-8892238D01*
X5167667Y-8892238D01*
X5158143Y-8887476D01*
X5153381Y-8882714D01*
X5148619Y-8873190D01*
X5143857Y-8854143D01*
X5143857Y-8830333D01*
X5148619Y-8811286D01*
X5153381Y-8801762D01*
X5158143Y-8797000D01*
X5167667Y-8792238D01*
X5286714Y-8792238D02*
X5267667Y-8792238D01*
X5258143Y-8797000D01*
X5253381Y-8801762D01*
X5243857Y-8816048D01*
X5239095Y-8835095D01*
X5239095Y-8873190D01*
X5243857Y-8882714D01*
X5248619Y-8887476D01*
X5258143Y-8892238D01*
X5277190Y-8892238D01*
X5286714Y-8887476D01*
X5291476Y-8882714D01*
X5296238Y-8873190D01*
X5296238Y-8849381D01*
X5291476Y-8839857D01*
X5286714Y-8835095D01*
X5277190Y-8830333D01*
X5258143Y-8830333D01*
X5248619Y-8835095D01*
X5243857Y-8839857D01*
X5239095Y-8849381D01*
X5315286Y-8901762D02*
X5391476Y-8901762D01*
X5434333Y-8792238D02*
X5453381Y-8792238D01*
X5462905Y-8797000D01*
X5472429Y-8806524D01*
X5477190Y-8825571D01*
X5477190Y-8858905D01*
X5472429Y-8877952D01*
X5462905Y-8887476D01*
X5453381Y-8892238D01*
X5434333Y-8892238D01*
X5424810Y-8887476D01*
X5415286Y-8877952D01*
X5410524Y-8858905D01*
X5410524Y-8825571D01*
X5415286Y-8806524D01*
X5424810Y-8797000D01*
X5434333Y-8792238D01*
X5562905Y-8892238D02*
X5562905Y-8792238D01*
X5562905Y-8887476D02*
X5553381Y-8892238D01*
X5534333Y-8892238D01*
X5524810Y-8887476D01*
X5520048Y-8882714D01*
X5515286Y-8873190D01*
X5515286Y-8844619D01*
X5520048Y-8835095D01*
X5524810Y-8830333D01*
X5534333Y-8825571D01*
X5553381Y-8825571D01*
X5562905Y-8830333D01*
X5653381Y-8892238D02*
X5653381Y-8792238D01*
X5653381Y-8887476D02*
X5643857Y-8892238D01*
X5624809Y-8892238D01*
X5615286Y-8887476D01*
X5610524Y-8882714D01*
X5605762Y-8873190D01*
X5605762Y-8844619D01*
X5610524Y-8835095D01*
X5615286Y-8830333D01*
X5624809Y-8825571D01*
X5643857Y-8825571D01*
X5653381Y-8830333D01*
X5677190Y-8901762D02*
X5753381Y-8901762D01*
X5777190Y-8839857D02*
X5810524Y-8839857D01*
X5824809Y-8892238D02*
X5777190Y-8892238D01*
X5777190Y-8792238D01*
X5824809Y-8792238D01*
X5858143Y-8825571D02*
X5881952Y-8892238D01*
X5905762Y-8825571D01*
X5981952Y-8887476D02*
X5972428Y-8892238D01*
X5953381Y-8892238D01*
X5943857Y-8887476D01*
X5939095Y-8877952D01*
X5939095Y-8839857D01*
X5943857Y-8830333D01*
X5953381Y-8825571D01*
X5972428Y-8825571D01*
X5981952Y-8830333D01*
X5986714Y-8839857D01*
X5986714Y-8849381D01*
X5939095Y-8858905D01*
X6029571Y-8825571D02*
X6029571Y-8892238D01*
X6029571Y-8835095D02*
X6034333Y-8830333D01*
X6043857Y-8825571D01*
X6058143Y-8825571D01*
X6067667Y-8830333D01*
X6072428Y-8839857D01*
X6072428Y-8892238D01*
X4929738Y-7968333D02*
X5001167Y-7968333D01*
X5015452Y-7973095D01*
X5024976Y-7982619D01*
X5029738Y-7996905D01*
X5029738Y-8006428D01*
X5029738Y-7868333D02*
X5029738Y-7925476D01*
X5029738Y-7896905D02*
X4929738Y-7896905D01*
X4944024Y-7906428D01*
X4953548Y-7915952D01*
X4958310Y-7925476D01*
%TO.C,U3*%
X17623810Y-10808238D02*
X17690476Y-10808238D01*
X17647619Y-10908238D01*
X17742857Y-10851095D02*
X17733333Y-10846333D01*
X17728571Y-10841571D01*
X17723810Y-10832048D01*
X17723810Y-10827286D01*
X17728571Y-10817762D01*
X17733333Y-10813000D01*
X17742857Y-10808238D01*
X17761905Y-10808238D01*
X17771429Y-10813000D01*
X17776190Y-10817762D01*
X17780952Y-10827286D01*
X17780952Y-10832048D01*
X17776190Y-10841571D01*
X17771429Y-10846333D01*
X17761905Y-10851095D01*
X17742857Y-10851095D01*
X17733333Y-10855857D01*
X17728571Y-10860619D01*
X17723810Y-10870143D01*
X17723810Y-10889190D01*
X17728571Y-10898714D01*
X17733333Y-10903476D01*
X17742857Y-10908238D01*
X17761905Y-10908238D01*
X17771429Y-10903476D01*
X17776190Y-10898714D01*
X17780952Y-10889190D01*
X17780952Y-10870143D01*
X17776190Y-10860619D01*
X17771429Y-10855857D01*
X17761905Y-10851095D01*
X17842857Y-10808238D02*
X17852381Y-10808238D01*
X17861905Y-10813000D01*
X17866667Y-10817762D01*
X17871429Y-10827286D01*
X17876190Y-10846333D01*
X17876190Y-10870143D01*
X17871429Y-10889190D01*
X17866667Y-10898714D01*
X17861905Y-10903476D01*
X17852381Y-10908238D01*
X17842857Y-10908238D01*
X17833333Y-10903476D01*
X17828571Y-10898714D01*
X17823810Y-10889190D01*
X17819048Y-10870143D01*
X17819048Y-10846333D01*
X17823810Y-10827286D01*
X17828571Y-10817762D01*
X17833333Y-10813000D01*
X17842857Y-10808238D01*
X17966667Y-10808238D02*
X17919048Y-10808238D01*
X17914286Y-10855857D01*
X17919048Y-10851095D01*
X17928571Y-10846333D01*
X17952381Y-10846333D01*
X17961905Y-10851095D01*
X17966667Y-10855857D01*
X17971429Y-10865381D01*
X17971429Y-10889190D01*
X17966667Y-10898714D01*
X17961905Y-10903476D01*
X17952381Y-10908238D01*
X17928571Y-10908238D01*
X17919048Y-10903476D01*
X17914286Y-10898714D01*
X17723810Y-13066238D02*
X17723810Y-13147190D01*
X17728571Y-13156714D01*
X17733333Y-13161476D01*
X17742857Y-13166238D01*
X17761905Y-13166238D01*
X17771429Y-13161476D01*
X17776190Y-13156714D01*
X17780952Y-13147190D01*
X17780952Y-13066238D01*
X17819048Y-13066238D02*
X17880952Y-13066238D01*
X17847619Y-13104333D01*
X17861905Y-13104333D01*
X17871429Y-13109095D01*
X17876190Y-13113857D01*
X17880952Y-13123381D01*
X17880952Y-13147190D01*
X17876190Y-13156714D01*
X17871429Y-13161476D01*
X17861905Y-13166238D01*
X17833333Y-13166238D01*
X17823810Y-13161476D01*
X17819048Y-13156714D01*
%TO.C,U1*%
X13541905Y-10511138D02*
X13541905Y-10411138D01*
X13580000Y-10411138D01*
X13589524Y-10415900D01*
X13594286Y-10420662D01*
X13599048Y-10430186D01*
X13599048Y-10444471D01*
X13594286Y-10453995D01*
X13589524Y-10458757D01*
X13580000Y-10463519D01*
X13541905Y-10463519D01*
X13641905Y-10511138D02*
X13641905Y-10444471D01*
X13641905Y-10411138D02*
X13637143Y-10415900D01*
X13641905Y-10420662D01*
X13646667Y-10415900D01*
X13641905Y-10411138D01*
X13641905Y-10420662D01*
X13732381Y-10506376D02*
X13722857Y-10511138D01*
X13703809Y-10511138D01*
X13694286Y-10506376D01*
X13689524Y-10501614D01*
X13684762Y-10492090D01*
X13684762Y-10463519D01*
X13689524Y-10453995D01*
X13694286Y-10449233D01*
X13703809Y-10444471D01*
X13722857Y-10444471D01*
X13732381Y-10449233D01*
X13789524Y-10511138D02*
X13780000Y-10506376D01*
X13775238Y-10501614D01*
X13770476Y-10492090D01*
X13770476Y-10463519D01*
X13775238Y-10453995D01*
X13780000Y-10449233D01*
X13789524Y-10444471D01*
X13803809Y-10444471D01*
X13813333Y-10449233D01*
X13818095Y-10453995D01*
X13822857Y-10463519D01*
X13822857Y-10492090D01*
X13818095Y-10501614D01*
X13813333Y-10506376D01*
X13803809Y-10511138D01*
X13789524Y-10511138D01*
X13603809Y-10195238D02*
X13603809Y-10276190D01*
X13608571Y-10285714D01*
X13613333Y-10290476D01*
X13622857Y-10295238D01*
X13641905Y-10295238D01*
X13651428Y-10290476D01*
X13656190Y-10285714D01*
X13660952Y-10276190D01*
X13660952Y-10195238D01*
X13760952Y-10295238D02*
X13703809Y-10295238D01*
X13732381Y-10295238D02*
X13732381Y-10195238D01*
X13722857Y-10209524D01*
X13713333Y-10219048D01*
X13703809Y-10223810D01*
%TO.C,J9*%
X14206714Y-14123333D02*
X14211476Y-14128095D01*
X14216238Y-14142381D01*
X14216238Y-14151905D01*
X14211476Y-14166190D01*
X14201952Y-14175714D01*
X14192428Y-14180476D01*
X14173381Y-14185238D01*
X14159095Y-14185238D01*
X14140048Y-14180476D01*
X14130524Y-14175714D01*
X14121000Y-14166190D01*
X14116238Y-14151905D01*
X14116238Y-14142381D01*
X14121000Y-14128095D01*
X14125762Y-14123333D01*
X14216238Y-14066190D02*
X14211476Y-14075714D01*
X14206714Y-14080476D01*
X14197190Y-14085238D01*
X14168619Y-14085238D01*
X14159095Y-14080476D01*
X14154333Y-14075714D01*
X14149571Y-14066190D01*
X14149571Y-14051905D01*
X14154333Y-14042381D01*
X14159095Y-14037619D01*
X14168619Y-14032857D01*
X14197190Y-14032857D01*
X14206714Y-14037619D01*
X14211476Y-14042381D01*
X14216238Y-14051905D01*
X14216238Y-14066190D01*
X14149571Y-13990000D02*
X14216238Y-13990000D01*
X14159095Y-13990000D02*
X14154333Y-13985238D01*
X14149571Y-13975714D01*
X14149571Y-13961428D01*
X14154333Y-13951905D01*
X14163857Y-13947143D01*
X14216238Y-13947143D01*
X14149571Y-13899524D02*
X14216238Y-13899524D01*
X14159095Y-13899524D02*
X14154333Y-13894762D01*
X14149571Y-13885238D01*
X14149571Y-13870952D01*
X14154333Y-13861428D01*
X14163857Y-13856667D01*
X14216238Y-13856667D01*
X14225762Y-13832857D02*
X14225762Y-13756667D01*
X14116238Y-13713809D02*
X14116238Y-13704286D01*
X14121000Y-13694762D01*
X14125762Y-13690000D01*
X14135286Y-13685238D01*
X14154333Y-13680476D01*
X14178143Y-13680476D01*
X14197190Y-13685238D01*
X14206714Y-13690000D01*
X14211476Y-13694762D01*
X14216238Y-13704286D01*
X14216238Y-13713809D01*
X14211476Y-13723333D01*
X14206714Y-13728095D01*
X14197190Y-13732857D01*
X14178143Y-13737619D01*
X14154333Y-13737619D01*
X14135286Y-13732857D01*
X14125762Y-13728095D01*
X14121000Y-13723333D01*
X14116238Y-13713809D01*
X14216238Y-13585238D02*
X14216238Y-13642381D01*
X14216238Y-13613809D02*
X14116238Y-13613809D01*
X14130524Y-13623333D01*
X14140048Y-13632857D01*
X14144809Y-13642381D01*
X14216238Y-13551905D02*
X14149571Y-13499524D01*
X14149571Y-13551905D02*
X14216238Y-13499524D01*
X14116238Y-13442381D02*
X14116238Y-13432857D01*
X14121000Y-13423333D01*
X14125762Y-13418571D01*
X14135286Y-13413809D01*
X14154333Y-13409048D01*
X14178143Y-13409048D01*
X14197190Y-13413809D01*
X14206714Y-13418571D01*
X14211476Y-13423333D01*
X14216238Y-13432857D01*
X14216238Y-13442381D01*
X14211476Y-13451905D01*
X14206714Y-13456667D01*
X14197190Y-13461428D01*
X14178143Y-13466190D01*
X14154333Y-13466190D01*
X14135286Y-13461428D01*
X14125762Y-13456667D01*
X14121000Y-13451905D01*
X14116238Y-13442381D01*
X14116238Y-13375714D02*
X14116238Y-13313809D01*
X14154333Y-13347143D01*
X14154333Y-13332857D01*
X14159095Y-13323333D01*
X14163857Y-13318571D01*
X14173381Y-13313809D01*
X14197190Y-13313809D01*
X14206714Y-13318571D01*
X14211476Y-13323333D01*
X14216238Y-13332857D01*
X14216238Y-13361428D01*
X14211476Y-13370952D01*
X14206714Y-13375714D01*
X14225762Y-13294762D02*
X14225762Y-13218571D01*
X14216238Y-13194762D02*
X14116238Y-13194762D01*
X14187667Y-13161428D01*
X14116238Y-13128095D01*
X14216238Y-13128095D01*
X14216238Y-13037619D02*
X14163857Y-13037619D01*
X14154333Y-13042381D01*
X14149571Y-13051905D01*
X14149571Y-13070952D01*
X14154333Y-13080476D01*
X14211476Y-13037619D02*
X14216238Y-13047143D01*
X14216238Y-13070952D01*
X14211476Y-13080476D01*
X14201952Y-13085238D01*
X14192428Y-13085238D01*
X14182905Y-13080476D01*
X14178143Y-13070952D01*
X14178143Y-13047143D01*
X14173381Y-13037619D01*
X14216238Y-12975714D02*
X14211476Y-12985238D01*
X14201952Y-12990000D01*
X14116238Y-12990000D01*
X14211476Y-12899524D02*
X14216238Y-12909048D01*
X14216238Y-12928095D01*
X14211476Y-12937619D01*
X14201952Y-12942381D01*
X14163857Y-12942381D01*
X14154333Y-12937619D01*
X14149571Y-12928095D01*
X14149571Y-12909048D01*
X14154333Y-12899524D01*
X14163857Y-12894762D01*
X14173381Y-12894762D01*
X14182905Y-12942381D01*
X13650667Y-13485238D02*
X13650667Y-13556667D01*
X13645905Y-13570952D01*
X13636381Y-13580476D01*
X13622095Y-13585238D01*
X13612571Y-13585238D01*
X13703048Y-13585238D02*
X13722095Y-13585238D01*
X13731619Y-13580476D01*
X13736381Y-13575714D01*
X13745905Y-13561428D01*
X13750667Y-13542381D01*
X13750667Y-13504286D01*
X13745905Y-13494762D01*
X13741143Y-13490000D01*
X13731619Y-13485238D01*
X13712571Y-13485238D01*
X13703048Y-13490000D01*
X13698286Y-13494762D01*
X13693524Y-13504286D01*
X13693524Y-13528095D01*
X13698286Y-13537619D01*
X13703048Y-13542381D01*
X13712571Y-13547143D01*
X13731619Y-13547143D01*
X13741143Y-13542381D01*
X13745905Y-13537619D01*
X13750667Y-13528095D01*
%TO.C,J8*%
X14986667Y-7639714D02*
X14981905Y-7644476D01*
X14967619Y-7649238D01*
X14958095Y-7649238D01*
X14943809Y-7644476D01*
X14934286Y-7634952D01*
X14929524Y-7625428D01*
X14924762Y-7606381D01*
X14924762Y-7592095D01*
X14929524Y-7573048D01*
X14934286Y-7563524D01*
X14943809Y-7554000D01*
X14958095Y-7549238D01*
X14967619Y-7549238D01*
X14981905Y-7554000D01*
X14986667Y-7558762D01*
X15043809Y-7649238D02*
X15034286Y-7644476D01*
X15029524Y-7639714D01*
X15024762Y-7630190D01*
X15024762Y-7601619D01*
X15029524Y-7592095D01*
X15034286Y-7587333D01*
X15043809Y-7582571D01*
X15058095Y-7582571D01*
X15067619Y-7587333D01*
X15072381Y-7592095D01*
X15077143Y-7601619D01*
X15077143Y-7630190D01*
X15072381Y-7639714D01*
X15067619Y-7644476D01*
X15058095Y-7649238D01*
X15043809Y-7649238D01*
X15120000Y-7582571D02*
X15120000Y-7649238D01*
X15120000Y-7592095D02*
X15124762Y-7587333D01*
X15134286Y-7582571D01*
X15148571Y-7582571D01*
X15158095Y-7587333D01*
X15162857Y-7596857D01*
X15162857Y-7649238D01*
X15210476Y-7582571D02*
X15210476Y-7649238D01*
X15210476Y-7592095D02*
X15215238Y-7587333D01*
X15224762Y-7582571D01*
X15239048Y-7582571D01*
X15248571Y-7587333D01*
X15253333Y-7596857D01*
X15253333Y-7649238D01*
X15277143Y-7658762D02*
X15353333Y-7658762D01*
X15396190Y-7549238D02*
X15405714Y-7549238D01*
X15415238Y-7554000D01*
X15420000Y-7558762D01*
X15424762Y-7568286D01*
X15429524Y-7587333D01*
X15429524Y-7611143D01*
X15424762Y-7630190D01*
X15420000Y-7639714D01*
X15415238Y-7644476D01*
X15405714Y-7649238D01*
X15396190Y-7649238D01*
X15386667Y-7644476D01*
X15381905Y-7639714D01*
X15377143Y-7630190D01*
X15372381Y-7611143D01*
X15372381Y-7587333D01*
X15377143Y-7568286D01*
X15381905Y-7558762D01*
X15386667Y-7554000D01*
X15396190Y-7549238D01*
X15524762Y-7649238D02*
X15467619Y-7649238D01*
X15496190Y-7649238D02*
X15496190Y-7549238D01*
X15486667Y-7563524D01*
X15477143Y-7573048D01*
X15467619Y-7577809D01*
X15558095Y-7649238D02*
X15610476Y-7582571D01*
X15558095Y-7582571D02*
X15610476Y-7649238D01*
X15643809Y-7558762D02*
X15648571Y-7554000D01*
X15658095Y-7549238D01*
X15681905Y-7549238D01*
X15691428Y-7554000D01*
X15696190Y-7558762D01*
X15700952Y-7568286D01*
X15700952Y-7577809D01*
X15696190Y-7592095D01*
X15639048Y-7649238D01*
X15700952Y-7649238D01*
X15762857Y-7549238D02*
X15772381Y-7549238D01*
X15781905Y-7554000D01*
X15786667Y-7558762D01*
X15791428Y-7568286D01*
X15796190Y-7587333D01*
X15796190Y-7611143D01*
X15791428Y-7630190D01*
X15786667Y-7639714D01*
X15781905Y-7644476D01*
X15772381Y-7649238D01*
X15762857Y-7649238D01*
X15753333Y-7644476D01*
X15748571Y-7639714D01*
X15743809Y-7630190D01*
X15739048Y-7611143D01*
X15739048Y-7587333D01*
X15743809Y-7568286D01*
X15748571Y-7558762D01*
X15753333Y-7554000D01*
X15762857Y-7549238D01*
X15815238Y-7658762D02*
X15891428Y-7658762D01*
X15915238Y-7649238D02*
X15915238Y-7549238D01*
X15948571Y-7620667D01*
X15981905Y-7549238D01*
X15981905Y-7649238D01*
X16072381Y-7649238D02*
X16072381Y-7596857D01*
X16067619Y-7587333D01*
X16058095Y-7582571D01*
X16039048Y-7582571D01*
X16029524Y-7587333D01*
X16072381Y-7644476D02*
X16062857Y-7649238D01*
X16039048Y-7649238D01*
X16029524Y-7644476D01*
X16024762Y-7634952D01*
X16024762Y-7625428D01*
X16029524Y-7615905D01*
X16039048Y-7611143D01*
X16062857Y-7611143D01*
X16072381Y-7606381D01*
X16134286Y-7649238D02*
X16124762Y-7644476D01*
X16120000Y-7634952D01*
X16120000Y-7549238D01*
X16210476Y-7644476D02*
X16200952Y-7649238D01*
X16181905Y-7649238D01*
X16172381Y-7644476D01*
X16167619Y-7634952D01*
X16167619Y-7596857D01*
X16172381Y-7587333D01*
X16181905Y-7582571D01*
X16200952Y-7582571D01*
X16210476Y-7587333D01*
X16215238Y-7596857D01*
X16215238Y-7606381D01*
X16167619Y-7615905D01*
X15515238Y-10283333D02*
X15586667Y-10283333D01*
X15600952Y-10288095D01*
X15610476Y-10297619D01*
X15615238Y-10311905D01*
X15615238Y-10321429D01*
X15558095Y-10221429D02*
X15553333Y-10230952D01*
X15548571Y-10235714D01*
X15539048Y-10240476D01*
X15534286Y-10240476D01*
X15524762Y-10235714D01*
X15520000Y-10230952D01*
X15515238Y-10221429D01*
X15515238Y-10202381D01*
X15520000Y-10192857D01*
X15524762Y-10188095D01*
X15534286Y-10183333D01*
X15539048Y-10183333D01*
X15548571Y-10188095D01*
X15553333Y-10192857D01*
X15558095Y-10202381D01*
X15558095Y-10221429D01*
X15562857Y-10230952D01*
X15567619Y-10235714D01*
X15577143Y-10240476D01*
X15596190Y-10240476D01*
X15605714Y-10235714D01*
X15610476Y-10230952D01*
X15615238Y-10221429D01*
X15615238Y-10202381D01*
X15610476Y-10192857D01*
X15605714Y-10188095D01*
X15596190Y-10183333D01*
X15577143Y-10183333D01*
X15567619Y-10188095D01*
X15562857Y-10192857D01*
X15558095Y-10202381D01*
%TO.C,U2*%
X10852857Y-7980238D02*
X10919524Y-7980238D01*
X10876667Y-8080238D01*
X11000476Y-8013571D02*
X11000476Y-8080238D01*
X10976667Y-7975476D02*
X10952857Y-8046905D01*
X11014762Y-8046905D01*
X11100476Y-8080238D02*
X11052857Y-8080238D01*
X11052857Y-7980238D01*
X11119524Y-7980238D02*
X11152857Y-8080238D01*
X11186190Y-7980238D01*
X11276667Y-8070714D02*
X11271905Y-8075476D01*
X11257619Y-8080238D01*
X11248095Y-8080238D01*
X11233809Y-8075476D01*
X11224286Y-8065952D01*
X11219524Y-8056428D01*
X11214762Y-8037381D01*
X11214762Y-8023095D01*
X11219524Y-8004048D01*
X11224286Y-7994524D01*
X11233809Y-7985000D01*
X11248095Y-7980238D01*
X11257619Y-7980238D01*
X11271905Y-7985000D01*
X11276667Y-7989762D01*
X11371905Y-8080238D02*
X11314762Y-8080238D01*
X11343333Y-8080238D02*
X11343333Y-7980238D01*
X11333809Y-7994524D01*
X11324286Y-8004048D01*
X11314762Y-8008809D01*
X11467143Y-7985000D02*
X11457619Y-7980238D01*
X11443333Y-7980238D01*
X11429048Y-7985000D01*
X11419524Y-7994524D01*
X11414762Y-8004048D01*
X11410000Y-8023095D01*
X11410000Y-8037381D01*
X11414762Y-8056428D01*
X11419524Y-8065952D01*
X11429048Y-8075476D01*
X11443333Y-8080238D01*
X11452857Y-8080238D01*
X11467143Y-8075476D01*
X11471905Y-8070714D01*
X11471905Y-8037381D01*
X11452857Y-8037381D01*
X11533809Y-7980238D02*
X11543333Y-7980238D01*
X11552857Y-7985000D01*
X11557619Y-7989762D01*
X11562381Y-7999286D01*
X11567143Y-8018333D01*
X11567143Y-8042143D01*
X11562381Y-8061190D01*
X11557619Y-8070714D01*
X11552857Y-8075476D01*
X11543333Y-8080238D01*
X11533809Y-8080238D01*
X11524286Y-8075476D01*
X11519524Y-8070714D01*
X11514762Y-8061190D01*
X11510000Y-8042143D01*
X11510000Y-8018333D01*
X11514762Y-7999286D01*
X11519524Y-7989762D01*
X11524286Y-7985000D01*
X11533809Y-7980238D01*
X11600476Y-7980238D02*
X11667143Y-7980238D01*
X11624286Y-8080238D01*
D15*
X11232619Y-7783095D02*
X11273095Y-7783095D01*
X11277857Y-7780714D01*
X11280238Y-7778333D01*
X11282619Y-7773571D01*
X11282619Y-7764048D01*
X11280238Y-7759286D01*
X11277857Y-7756905D01*
X11273095Y-7754524D01*
X11232619Y-7754524D01*
X11237381Y-7733095D02*
X11235000Y-7730714D01*
X11232619Y-7725952D01*
X11232619Y-7714048D01*
X11235000Y-7709286D01*
X11237381Y-7706905D01*
X11242143Y-7704524D01*
X11246905Y-7704524D01*
X11254048Y-7706905D01*
X11282619Y-7735476D01*
X11282619Y-7704524D01*
%TO.C,J6*%
D12*
X20621714Y-9957143D02*
X20626476Y-9961905D01*
X20631238Y-9976190D01*
X20631238Y-9985714D01*
X20626476Y-10000000D01*
X20616952Y-10009524D01*
X20607429Y-10014286D01*
X20588381Y-10019048D01*
X20574095Y-10019048D01*
X20555048Y-10014286D01*
X20545524Y-10009524D01*
X20536000Y-10000000D01*
X20531238Y-9985714D01*
X20531238Y-9976190D01*
X20536000Y-9961905D01*
X20540762Y-9957143D01*
X20531238Y-9871429D02*
X20531238Y-9890476D01*
X20536000Y-9900000D01*
X20540762Y-9904762D01*
X20555048Y-9914286D01*
X20574095Y-9919048D01*
X20612190Y-9919048D01*
X20621714Y-9914286D01*
X20626476Y-9909524D01*
X20631238Y-9900000D01*
X20631238Y-9880952D01*
X20626476Y-9871429D01*
X20621714Y-9866667D01*
X20612190Y-9861905D01*
X20588381Y-9861905D01*
X20578857Y-9866667D01*
X20574095Y-9871429D01*
X20569333Y-9880952D01*
X20569333Y-9900000D01*
X20574095Y-9909524D01*
X20578857Y-9914286D01*
X20588381Y-9919048D01*
X20564571Y-9776190D02*
X20631238Y-9776190D01*
X20526476Y-9800000D02*
X20597905Y-9823810D01*
X20597905Y-9761905D01*
X20602667Y-9728571D02*
X20602667Y-9680952D01*
X20631238Y-9738095D02*
X20531238Y-9704762D01*
X20631238Y-9671429D01*
X20621714Y-9580952D02*
X20626476Y-9585714D01*
X20631238Y-9600000D01*
X20631238Y-9609524D01*
X20626476Y-9623810D01*
X20616952Y-9633333D01*
X20607429Y-9638095D01*
X20588381Y-9642857D01*
X20574095Y-9642857D01*
X20555048Y-9638095D01*
X20545524Y-9633333D01*
X20536000Y-9623810D01*
X20531238Y-9609524D01*
X20531238Y-9600000D01*
X20536000Y-9585714D01*
X20540762Y-9580952D01*
%TO.C,LOGO1*%
X17179905Y-5692238D02*
X17132286Y-5692238D01*
X17132286Y-5592238D01*
X17227524Y-5692238D02*
X17218000Y-5687476D01*
X17213238Y-5682714D01*
X17208476Y-5673190D01*
X17208476Y-5644619D01*
X17213238Y-5635095D01*
X17218000Y-5630333D01*
X17227524Y-5625571D01*
X17241810Y-5625571D01*
X17251333Y-5630333D01*
X17256095Y-5635095D01*
X17260857Y-5644619D01*
X17260857Y-5673190D01*
X17256095Y-5682714D01*
X17251333Y-5687476D01*
X17241810Y-5692238D01*
X17227524Y-5692238D01*
X17346571Y-5625571D02*
X17346571Y-5706524D01*
X17341810Y-5716048D01*
X17337048Y-5720809D01*
X17327524Y-5725571D01*
X17313238Y-5725571D01*
X17303714Y-5720809D01*
X17346571Y-5687476D02*
X17337048Y-5692238D01*
X17318000Y-5692238D01*
X17308476Y-5687476D01*
X17303714Y-5682714D01*
X17298952Y-5673190D01*
X17298952Y-5644619D01*
X17303714Y-5635095D01*
X17308476Y-5630333D01*
X17318000Y-5625571D01*
X17337048Y-5625571D01*
X17346571Y-5630333D01*
X17408476Y-5692238D02*
X17398952Y-5687476D01*
X17394190Y-5682714D01*
X17389429Y-5673190D01*
X17389429Y-5644619D01*
X17394190Y-5635095D01*
X17398952Y-5630333D01*
X17408476Y-5625571D01*
X17422762Y-5625571D01*
X17432286Y-5630333D01*
X17437048Y-5635095D01*
X17441810Y-5644619D01*
X17441810Y-5673190D01*
X17437048Y-5682714D01*
X17432286Y-5687476D01*
X17422762Y-5692238D01*
X17408476Y-5692238D01*
X17460857Y-5701762D02*
X17537048Y-5701762D01*
X17556095Y-5663667D02*
X17603714Y-5663667D01*
X17546571Y-5692238D02*
X17579905Y-5592238D01*
X17613238Y-5692238D01*
X17646571Y-5692238D02*
X17646571Y-5592238D01*
X17684667Y-5592238D01*
X17694190Y-5597000D01*
X17698952Y-5601762D01*
X17703714Y-5611286D01*
X17703714Y-5625571D01*
X17698952Y-5635095D01*
X17694190Y-5639857D01*
X17684667Y-5644619D01*
X17646571Y-5644619D01*
X17813238Y-5701762D02*
X17803714Y-5697000D01*
X17794190Y-5687476D01*
X17779905Y-5673190D01*
X17770381Y-5668428D01*
X17760857Y-5668428D01*
X17765619Y-5692238D02*
X17756095Y-5687476D01*
X17746571Y-5677952D01*
X17741810Y-5658905D01*
X17741810Y-5625571D01*
X17746571Y-5606524D01*
X17756095Y-5597000D01*
X17765619Y-5592238D01*
X17784667Y-5592238D01*
X17794190Y-5597000D01*
X17803714Y-5606524D01*
X17808476Y-5625571D01*
X17808476Y-5658905D01*
X17803714Y-5677952D01*
X17794190Y-5687476D01*
X17784667Y-5692238D01*
X17765619Y-5692238D01*
%TO.C,C2*%
X17355190Y-9201571D02*
X17355190Y-9268238D01*
X17331381Y-9163476D02*
X17307571Y-9234905D01*
X17369476Y-9234905D01*
X17398048Y-9168238D02*
X17464714Y-9168238D01*
X17421857Y-9268238D01*
X17545667Y-9201571D02*
X17545667Y-9268238D01*
X17502810Y-9201571D02*
X17502810Y-9253952D01*
X17507571Y-9263476D01*
X17517095Y-9268238D01*
X17531381Y-9268238D01*
X17540905Y-9263476D01*
X17545667Y-9258714D01*
X17412333Y-9698714D02*
X17407571Y-9703476D01*
X17393286Y-9708238D01*
X17383762Y-9708238D01*
X17369476Y-9703476D01*
X17359952Y-9693952D01*
X17355190Y-9684429D01*
X17350429Y-9665381D01*
X17350429Y-9651095D01*
X17355190Y-9632048D01*
X17359952Y-9622524D01*
X17369476Y-9613000D01*
X17383762Y-9608238D01*
X17393286Y-9608238D01*
X17407571Y-9613000D01*
X17412333Y-9617762D01*
X17450429Y-9617762D02*
X17455190Y-9613000D01*
X17464714Y-9608238D01*
X17488524Y-9608238D01*
X17498048Y-9613000D01*
X17502810Y-9617762D01*
X17507571Y-9627286D01*
X17507571Y-9636810D01*
X17502810Y-9651095D01*
X17445667Y-9708238D01*
X17507571Y-9708238D01*
%TO.C,C1*%
X18055190Y-10081571D02*
X18055190Y-10148238D01*
X18031381Y-10043476D02*
X18007571Y-10114905D01*
X18069476Y-10114905D01*
X18098048Y-10048238D02*
X18164714Y-10048238D01*
X18121857Y-10148238D01*
X18245667Y-10081571D02*
X18245667Y-10148238D01*
X18202810Y-10081571D02*
X18202810Y-10133952D01*
X18207571Y-10143476D01*
X18217095Y-10148238D01*
X18231381Y-10148238D01*
X18240905Y-10143476D01*
X18245667Y-10138714D01*
X18112333Y-9698714D02*
X18107571Y-9703476D01*
X18093286Y-9708238D01*
X18083762Y-9708238D01*
X18069476Y-9703476D01*
X18059952Y-9693952D01*
X18055190Y-9684429D01*
X18050429Y-9665381D01*
X18050429Y-9651095D01*
X18055190Y-9632048D01*
X18059952Y-9622524D01*
X18069476Y-9613000D01*
X18083762Y-9608238D01*
X18093286Y-9608238D01*
X18107571Y-9613000D01*
X18112333Y-9617762D01*
X18207571Y-9708238D02*
X18150429Y-9708238D01*
X18179000Y-9708238D02*
X18179000Y-9608238D01*
X18169476Y-9622524D01*
X18159952Y-9632048D01*
X18150429Y-9636810D01*
%TO.C,D2*%
X17286857Y-8868238D02*
X17286857Y-8768238D01*
X17320190Y-8839667D01*
X17353524Y-8768238D01*
X17353524Y-8868238D01*
X17401143Y-8868238D02*
X17401143Y-8768238D01*
X17434476Y-8839667D01*
X17467810Y-8768238D01*
X17467810Y-8868238D01*
X17505905Y-8768238D02*
X17567810Y-8768238D01*
X17534476Y-8806333D01*
X17548762Y-8806333D01*
X17558286Y-8811095D01*
X17563048Y-8815857D01*
X17567810Y-8825381D01*
X17567810Y-8849190D01*
X17563048Y-8858714D01*
X17558286Y-8863476D01*
X17548762Y-8868238D01*
X17520190Y-8868238D01*
X17510667Y-8863476D01*
X17505905Y-8858714D01*
X17601143Y-8768238D02*
X17667810Y-8768238D01*
X17601143Y-8868238D01*
X17667810Y-8868238D01*
X17758286Y-8868238D02*
X17701143Y-8868238D01*
X17729714Y-8868238D02*
X17729714Y-8768238D01*
X17720190Y-8782524D01*
X17710667Y-8792048D01*
X17701143Y-8796810D01*
X17848762Y-8768238D02*
X17801143Y-8768238D01*
X17796381Y-8815857D01*
X17801143Y-8811095D01*
X17810667Y-8806333D01*
X17834476Y-8806333D01*
X17844000Y-8811095D01*
X17848762Y-8815857D01*
X17853524Y-8825381D01*
X17853524Y-8849190D01*
X17848762Y-8858714D01*
X17844000Y-8863476D01*
X17834476Y-8868238D01*
X17810667Y-8868238D01*
X17801143Y-8863476D01*
X17796381Y-8858714D01*
X17882095Y-8768238D02*
X17915429Y-8868238D01*
X17948762Y-8768238D01*
X17977333Y-8863476D02*
X17991619Y-8868238D01*
X18015429Y-8868238D01*
X18024952Y-8863476D01*
X18029714Y-8858714D01*
X18034476Y-8849190D01*
X18034476Y-8839667D01*
X18029714Y-8830143D01*
X18024952Y-8825381D01*
X18015429Y-8820619D01*
X17996381Y-8815857D01*
X17986857Y-8811095D01*
X17982095Y-8806333D01*
X17977333Y-8796810D01*
X17977333Y-8787286D01*
X17982095Y-8777762D01*
X17986857Y-8773000D01*
X17996381Y-8768238D01*
X18020190Y-8768238D01*
X18034476Y-8773000D01*
X18063048Y-8768238D02*
X18120190Y-8768238D01*
X18091619Y-8868238D02*
X18091619Y-8768238D01*
X18205905Y-8868238D02*
X18148762Y-8868238D01*
X18177333Y-8868238D02*
X18177333Y-8768238D01*
X18167810Y-8782524D01*
X18158286Y-8792048D01*
X18148762Y-8796810D01*
X18301143Y-8773000D02*
X18291619Y-8768238D01*
X18277333Y-8768238D01*
X18263048Y-8773000D01*
X18253524Y-8782524D01*
X18248762Y-8792048D01*
X18244000Y-8811095D01*
X18244000Y-8825381D01*
X18248762Y-8844429D01*
X18253524Y-8853952D01*
X18263048Y-8863476D01*
X18277333Y-8868238D01*
X18286857Y-8868238D01*
X18301143Y-8863476D01*
X18305905Y-8858714D01*
X18305905Y-8825381D01*
X18286857Y-8825381D01*
X17730190Y-9243238D02*
X17730190Y-9143238D01*
X17754000Y-9143238D01*
X17768286Y-9148000D01*
X17777810Y-9157524D01*
X17782571Y-9167048D01*
X17787333Y-9186095D01*
X17787333Y-9200381D01*
X17782571Y-9219429D01*
X17777810Y-9228952D01*
X17768286Y-9238476D01*
X17754000Y-9243238D01*
X17730190Y-9243238D01*
X17825429Y-9152762D02*
X17830190Y-9148000D01*
X17839714Y-9143238D01*
X17863524Y-9143238D01*
X17873048Y-9148000D01*
X17877810Y-9152762D01*
X17882571Y-9162286D01*
X17882571Y-9171810D01*
X17877810Y-9186095D01*
X17820667Y-9243238D01*
X17882571Y-9243238D01*
%TO.C,D1*%
X17827810Y-10198238D02*
X17827810Y-10098238D01*
X17851619Y-10098238D01*
X17865905Y-10103000D01*
X17875429Y-10112524D01*
X17880190Y-10122048D01*
X17884952Y-10141095D01*
X17884952Y-10155381D01*
X17880190Y-10174429D01*
X17875429Y-10183952D01*
X17865905Y-10193476D01*
X17851619Y-10198238D01*
X17827810Y-10198238D01*
X17780190Y-10808238D02*
X17780190Y-10708238D01*
X17804000Y-10708238D01*
X17818286Y-10713000D01*
X17827810Y-10722524D01*
X17832571Y-10732048D01*
X17837333Y-10751095D01*
X17837333Y-10765381D01*
X17832571Y-10784429D01*
X17827810Y-10793952D01*
X17818286Y-10803476D01*
X17804000Y-10808238D01*
X17780190Y-10808238D01*
X17932571Y-10808238D02*
X17875429Y-10808238D01*
X17904000Y-10808238D02*
X17904000Y-10708238D01*
X17894476Y-10722524D01*
X17884952Y-10732048D01*
X17875429Y-10736810D01*
%TO.C,Q1*%
X18249238Y-8722524D02*
X18149238Y-8722524D01*
X18149238Y-8698714D01*
X18154000Y-8684429D01*
X18163524Y-8674905D01*
X18173048Y-8670143D01*
X18192095Y-8665381D01*
X18206381Y-8665381D01*
X18225429Y-8670143D01*
X18234952Y-8674905D01*
X18244476Y-8684429D01*
X18249238Y-8698714D01*
X18249238Y-8722524D01*
X18249238Y-8622524D02*
X18149238Y-8622524D01*
X18220667Y-8589190D01*
X18149238Y-8555857D01*
X18249238Y-8555857D01*
X18249238Y-8508238D02*
X18149238Y-8508238D01*
X18149238Y-8470143D01*
X18154000Y-8460619D01*
X18158762Y-8455857D01*
X18168286Y-8451095D01*
X18182571Y-8451095D01*
X18192095Y-8455857D01*
X18196857Y-8460619D01*
X18201619Y-8470143D01*
X18201619Y-8508238D01*
X18149238Y-8365381D02*
X18149238Y-8384428D01*
X18154000Y-8393952D01*
X18158762Y-8398714D01*
X18173048Y-8408238D01*
X18192095Y-8413000D01*
X18230190Y-8413000D01*
X18239714Y-8408238D01*
X18244476Y-8403476D01*
X18249238Y-8393952D01*
X18249238Y-8374905D01*
X18244476Y-8365381D01*
X18239714Y-8360619D01*
X18230190Y-8355857D01*
X18206381Y-8355857D01*
X18196857Y-8360619D01*
X18192095Y-8365381D01*
X18187333Y-8374905D01*
X18187333Y-8393952D01*
X18192095Y-8403476D01*
X18196857Y-8408238D01*
X18206381Y-8413000D01*
X18149238Y-8293952D02*
X18149238Y-8284428D01*
X18154000Y-8274905D01*
X18158762Y-8270143D01*
X18168286Y-8265381D01*
X18187333Y-8260619D01*
X18211143Y-8260619D01*
X18230190Y-8265381D01*
X18239714Y-8270143D01*
X18244476Y-8274905D01*
X18249238Y-8284428D01*
X18249238Y-8293952D01*
X18244476Y-8303476D01*
X18239714Y-8308238D01*
X18230190Y-8313000D01*
X18211143Y-8317762D01*
X18187333Y-8317762D01*
X18168286Y-8313000D01*
X18158762Y-8308238D01*
X18154000Y-8303476D01*
X18149238Y-8293952D01*
X18158762Y-8222524D02*
X18154000Y-8217762D01*
X18149238Y-8208238D01*
X18149238Y-8184428D01*
X18154000Y-8174905D01*
X18158762Y-8170143D01*
X18168286Y-8165381D01*
X18177810Y-8165381D01*
X18192095Y-8170143D01*
X18249238Y-8227286D01*
X18249238Y-8165381D01*
X18149238Y-8132048D02*
X18149238Y-8070143D01*
X18187333Y-8103476D01*
X18187333Y-8089190D01*
X18192095Y-8079667D01*
X18196857Y-8074905D01*
X18206381Y-8070143D01*
X18230190Y-8070143D01*
X18239714Y-8074905D01*
X18244476Y-8079667D01*
X18249238Y-8089190D01*
X18249238Y-8117762D01*
X18244476Y-8127286D01*
X18239714Y-8132048D01*
X18249238Y-7979667D02*
X18249238Y-8027286D01*
X18149238Y-8027286D01*
X18196857Y-7946333D02*
X18196857Y-7913000D01*
X18249238Y-7898714D02*
X18249238Y-7946333D01*
X18149238Y-7946333D01*
X18149238Y-7898714D01*
D11*
X17746381Y-8356809D02*
X17738762Y-8353000D01*
X17731143Y-8345381D01*
X17719714Y-8333952D01*
X17712095Y-8330143D01*
X17704476Y-8330143D01*
X17708286Y-8349190D02*
X17700667Y-8345381D01*
X17693048Y-8337762D01*
X17689238Y-8322524D01*
X17689238Y-8295857D01*
X17693048Y-8280619D01*
X17700667Y-8273000D01*
X17708286Y-8269190D01*
X17723524Y-8269190D01*
X17731143Y-8273000D01*
X17738762Y-8280619D01*
X17742571Y-8295857D01*
X17742571Y-8322524D01*
X17738762Y-8337762D01*
X17731143Y-8345381D01*
X17723524Y-8349190D01*
X17708286Y-8349190D01*
X17818762Y-8349190D02*
X17773048Y-8349190D01*
X17795905Y-8349190D02*
X17795905Y-8269190D01*
X17788286Y-8280619D01*
X17780667Y-8288238D01*
X17773048Y-8292048D01*
%TO.C,R5*%
D12*
X17384238Y-9211393D02*
X17384238Y-9268536D01*
X17384238Y-9239964D02*
X17284238Y-9239964D01*
X17298524Y-9249488D01*
X17308048Y-9259012D01*
X17312810Y-9268536D01*
X17284238Y-9149488D02*
X17284238Y-9139964D01*
X17289000Y-9130440D01*
X17293762Y-9125679D01*
X17303286Y-9120917D01*
X17322333Y-9116155D01*
X17346143Y-9116155D01*
X17365190Y-9120917D01*
X17374714Y-9125679D01*
X17379476Y-9130440D01*
X17384238Y-9139964D01*
X17384238Y-9149488D01*
X17379476Y-9159012D01*
X17374714Y-9163774D01*
X17365190Y-9168536D01*
X17346143Y-9173298D01*
X17322333Y-9173298D01*
X17303286Y-9168536D01*
X17293762Y-9163774D01*
X17289000Y-9159012D01*
X17284238Y-9149488D01*
X17284238Y-9054250D02*
X17284238Y-9044726D01*
X17289000Y-9035202D01*
X17293762Y-9030440D01*
X17303286Y-9025679D01*
X17322333Y-9020917D01*
X17346143Y-9020917D01*
X17365190Y-9025679D01*
X17374714Y-9030440D01*
X17379476Y-9035202D01*
X17384238Y-9044726D01*
X17384238Y-9054250D01*
X17379476Y-9063774D01*
X17374714Y-9068536D01*
X17365190Y-9073298D01*
X17346143Y-9078060D01*
X17322333Y-9078060D01*
X17303286Y-9073298D01*
X17293762Y-9068536D01*
X17289000Y-9063774D01*
X17284238Y-9054250D01*
X17384238Y-8978060D02*
X17284238Y-8978060D01*
X17346143Y-8968536D02*
X17384238Y-8939964D01*
X17317571Y-8939964D02*
X17355667Y-8978060D01*
D14*
X17526619Y-9112583D02*
X17502810Y-9129250D01*
X17526619Y-9141155D02*
X17476619Y-9141155D01*
X17476619Y-9122107D01*
X17479000Y-9117345D01*
X17481381Y-9114964D01*
X17486143Y-9112583D01*
X17493286Y-9112583D01*
X17498048Y-9114964D01*
X17500429Y-9117345D01*
X17502810Y-9122107D01*
X17502810Y-9141155D01*
X17476619Y-9067345D02*
X17476619Y-9091155D01*
X17500429Y-9093536D01*
X17498048Y-9091155D01*
X17495667Y-9086393D01*
X17495667Y-9074488D01*
X17498048Y-9069726D01*
X17500429Y-9067345D01*
X17505190Y-9064964D01*
X17517095Y-9064964D01*
X17521857Y-9067345D01*
X17524238Y-9069726D01*
X17526619Y-9074488D01*
X17526619Y-9086393D01*
X17524238Y-9091155D01*
X17521857Y-9093536D01*
%TD*%
M02*
