M48
; DRILL file {KiCad 5.1.10-88a1d61d58~90~ubuntu20.04.1} date Fri Nov 12 13:44:35 2021
; FORMAT={-:-/ absolute / metric / decimal}
; #@! TF.CreationDate,2021-11-12T13:44:35+01:00
; #@! TF.GenerationSoftware,Kicad,Pcbnew,5.1.10-88a1d61d58~90~ubuntu20.04.1
; #@! TF.FileFunction,Plated,1,2,PTH
FMAT,2
METRIC
T1C0.300
T2C0.800
T3C1.000
T4C1.020
T5C1.100
T6C2.500
%
G90
G05
T1
X34.2Y-84.4
X43.24Y-50.92
X43.24Y-55.92
X43.24Y-60.92
X43.24Y-65.92
X43.24Y-70.92
X43.24Y-75.92
X43.24Y-80.92
X43.24Y-85.92
X43.24Y-90.92
X43.24Y-95.92
X43.24Y-100.92
X43.24Y-105.92
X43.24Y-110.92
X43.24Y-115.92
X43.24Y-120.92
X43.24Y-125.92
X43.24Y-130.92
X43.24Y-135.92
X43.24Y-140.92
X43.24Y-145.92
X48.24Y-50.92
X48.24Y-55.92
X48.24Y-60.92
X48.24Y-65.92
X48.24Y-70.92
X48.24Y-75.92
X48.24Y-80.92
X48.24Y-85.92
X48.24Y-90.92
X48.24Y-95.92
X48.24Y-100.92
X48.24Y-105.92
X48.24Y-110.92
X48.24Y-120.92
X48.24Y-125.92
X48.24Y-130.92
X48.24Y-135.92
X48.24Y-145.92
X53.24Y-50.92
X53.24Y-55.92
X53.24Y-60.92
X53.24Y-65.92
X53.24Y-70.92
X53.24Y-90.92
X53.24Y-95.92
X53.24Y-100.92
X53.24Y-105.92
X53.24Y-110.92
X53.24Y-115.92
X53.24Y-120.92
X53.24Y-125.92
X53.24Y-130.92
X53.24Y-135.92
X53.24Y-140.92
X53.24Y-145.92
X57.8Y-76.7
X57.9Y-74.3
X58.2Y-87.3
X58.24Y-50.92
X58.24Y-55.92
X58.24Y-60.92
X58.24Y-65.92
X58.24Y-70.92
X58.24Y-100.92
X58.24Y-105.92
X58.24Y-110.92
X58.24Y-115.92
X58.24Y-120.92
X58.24Y-125.92
X58.24Y-130.92
X58.24Y-135.92
X58.24Y-140.92
X58.24Y-145.92
X58.4Y-92.5
X59.8Y-73.8
X60.4Y-76.7
X60.6Y-74.7
X62.5Y-73.9
X62.6Y-76.8
X62.9Y-87.3
X63.24Y-50.92
X63.24Y-55.92
X63.24Y-60.92
X63.24Y-65.92
X63.24Y-90.92
X63.24Y-95.92
X63.24Y-100.92
X63.24Y-105.92
X63.24Y-110.92
X63.24Y-115.92
X63.24Y-120.92
X63.24Y-125.92
X63.24Y-130.92
X63.24Y-135.92
X63.24Y-140.92
X63.24Y-145.92
X63.8Y-70.5
X63.9Y-77.3
X65.2Y-79.9
X67.4Y-73.9
X67.5Y-78.9
X68.24Y-50.92
X68.24Y-55.92
X68.24Y-60.92
X68.24Y-65.92
X68.24Y-70.92
X68.24Y-95.92
X68.24Y-100.92
X68.24Y-110.92
X68.24Y-115.92
X68.24Y-120.92
X68.24Y-125.92
X68.24Y-130.92
X68.24Y-135.92
X68.24Y-140.92
X68.24Y-145.92
X68.4Y-92.4
X68.9Y-82.2
X70.0Y-98.9
X70.5Y-73.7
X71.2Y-106.7
X72.8Y-102.0
X73.24Y-50.92
X73.24Y-55.92
X73.24Y-60.92
X73.24Y-65.92
X73.24Y-70.92
X73.24Y-80.92
X73.24Y-115.92
X73.24Y-120.92
X73.24Y-125.92
X73.24Y-130.92
X73.24Y-135.92
X73.24Y-140.92
X73.24Y-145.92
X73.6Y-76.7
X74.2Y-110.2
X75.1Y-93.7
X75.4Y-72.2
X75.9Y-82.4
X76.0Y-103.0
X76.0Y-108.0
X76.0Y-113.0
X77.6Y-79.1
X77.9Y-96.8
X77.9Y-125.6
X78.24Y-50.92
X78.24Y-55.92
X78.24Y-60.92
X78.24Y-65.92
X78.24Y-70.92
X78.24Y-75.92
X78.24Y-130.92
X78.24Y-135.92
X78.24Y-140.92
X78.24Y-145.92
X78.4Y-120.0
X78.6Y-100.9
X81.0Y-103.0
X81.0Y-108.0
X81.0Y-113.0
X81.0Y-118.0
X81.0Y-123.0
X81.3Y-93.1
X82.6Y-82.5
X82.7Y-125.4
X83.24Y-50.92
X83.24Y-55.92
X83.24Y-60.92
X83.24Y-65.92
X83.24Y-70.92
X83.24Y-75.92
X83.24Y-135.92
X83.24Y-140.92
X83.24Y-145.92
X83.8Y-97.2
X84.8Y-78.9
X86.0Y-93.1
X86.0Y-103.0
X86.0Y-108.0
X86.0Y-113.0
X86.0Y-118.0
X86.0Y-123.0
X87.2Y-100.1
X87.4Y-125.4
X87.6Y-95.9
X87.7Y-82.4
X88.24Y-50.92
X88.24Y-55.92
X88.24Y-60.92
X88.24Y-65.92
X88.24Y-70.92
X88.24Y-75.92
X88.24Y-130.92
X88.24Y-135.92
X88.24Y-140.92
X88.24Y-145.92
X89.5Y-92.5
X90.25Y-96.5
X90.96Y-98.33
X91.0Y-103.0
X91.0Y-108.0
X91.3Y-111.3
X91.3Y-120.5
X92.1Y-125.1
X92.4Y-78.9
X93.1Y-83.1
X93.2Y-90.1
X93.24Y-50.92
X93.24Y-55.92
X93.24Y-60.92
X93.24Y-65.92
X93.24Y-70.92
X93.24Y-75.92
X93.24Y-130.92
X93.24Y-135.92
X93.24Y-140.92
X93.24Y-145.92
X93.3Y-86.6
X93.4Y-94.1
X94.3Y-97.0
X95.3Y-100.8
X95.5Y-105.3
X95.5Y-111.0
X97.0Y-96.8
X97.2Y-116.1
X97.8Y-120.1
X97.9Y-130.6
X98.2Y-125.1
X98.24Y-50.92
X98.24Y-55.92
X98.24Y-60.92
X98.24Y-65.92
X98.24Y-70.92
X98.24Y-75.92
X98.24Y-135.92
X98.24Y-140.92
X98.24Y-145.92
X98.6Y-83.0
X98.6Y-85.7
X98.7Y-89.4
X98.8Y-105.5
X98.9Y-100.6
X98.9Y-110.6
X99.0Y-94.7
X100.3Y-97.6
X100.4Y-78.9
X100.6Y-112.9
X101.0Y-73.0
X101.0Y-103.0
X101.0Y-108.0
X102.0Y-95.9
X102.0Y-120.8
X102.3Y-115.7
X102.5Y-82.3
X102.6Y-99.2
X102.7Y-93.4
X103.2Y-124.6
X103.24Y-50.92
X103.24Y-55.92
X103.24Y-60.92
X103.24Y-65.92
X103.24Y-70.92
X103.24Y-130.92
X103.24Y-135.92
X103.24Y-140.92
X103.24Y-145.92
X103.6Y-111.8
X104.5Y-92.5
X104.5Y-96.2
X104.6Y-100.1
X104.9Y-114.8
X105.5Y-119.0
X106.0Y-73.0
X106.0Y-103.0
X106.0Y-108.0
X106.6Y-96.2
X106.7Y-83.5
X106.7Y-86.0
X106.7Y-88.8
X106.73Y-91.23
X106.8Y-113.2
X106.9Y-78.8
X107.0Y-117.1
X107.6Y-99.1
X107.7Y-104.1
X107.7Y-109.7
X108.24Y-50.92
X108.24Y-55.92
X108.24Y-60.92
X108.24Y-65.92
X108.24Y-70.92
X108.24Y-130.92
X108.24Y-135.92
X108.24Y-140.92
X108.24Y-145.92
X108.5Y-122.1
X108.9Y-118.9
X109.2Y-83.2
X110.9Y-86.2
X111.0Y-73.0
X111.6Y-121.5
X111.7Y-125.0
X112.35Y-78.39
X112.9Y-80.3
X113.24Y-50.92
X113.24Y-55.92
X113.24Y-60.92
X113.24Y-65.92
X113.24Y-70.92
X113.24Y-130.92
X113.24Y-135.92
X113.24Y-140.92
X113.24Y-145.92
X113.5Y-88.3
X113.7Y-72.2
X113.9Y-91.1
X113.9Y-96.3
X114.0Y-101.1
X114.2Y-124.2
X115.3Y-128.7
X116.1Y-81.5
X116.1Y-97.6
X116.3Y-86.4
X116.3Y-91.7
X116.3Y-103.5
X116.4Y-126.6
X118.24Y-50.92
X118.24Y-55.92
X118.24Y-60.92
X118.24Y-65.92
X118.24Y-70.92
X118.24Y-75.92
X118.24Y-130.92
X118.24Y-135.92
X118.24Y-140.92
X118.24Y-145.92
X119.1Y-128.0
X121.0Y-73.0
X122.9Y-127.8
X123.24Y-50.92
X123.24Y-55.92
X123.24Y-60.92
X123.24Y-65.92
X123.24Y-70.92
X123.24Y-75.92
X123.24Y-125.92
X123.24Y-130.92
X123.24Y-135.92
X123.24Y-140.92
X123.24Y-145.92
X126.0Y-73.0
X127.7Y-128.3
X128.24Y-50.92
X128.24Y-55.92
X128.24Y-60.92
X128.24Y-65.92
X128.24Y-70.92
X128.24Y-75.92
X128.24Y-130.92
X128.24Y-135.92
X128.24Y-140.92
X128.24Y-145.92
X131.0Y-73.0
X133.24Y-50.92
X133.24Y-55.92
X133.24Y-60.92
X133.24Y-65.92
X133.24Y-70.92
X133.24Y-75.92
X133.24Y-80.92
X133.24Y-85.92
X133.24Y-90.92
X133.24Y-95.92
X133.24Y-100.92
X133.24Y-105.92
X133.24Y-110.92
X133.24Y-115.92
X133.24Y-120.92
X133.24Y-130.92
X133.24Y-140.92
X133.24Y-145.92
X135.3Y-129.8
X135.3Y-133.8
X135.4Y-131.8
X136.0Y-73.0
X138.2Y-131.9
X138.24Y-50.92
X138.24Y-55.92
X138.24Y-60.92
X138.24Y-65.92
X138.24Y-70.92
X138.24Y-75.92
X138.24Y-85.92
X138.24Y-90.92
X138.24Y-95.92
X138.24Y-100.92
X138.24Y-105.92
X138.24Y-110.92
X138.24Y-115.92
X138.24Y-120.92
X138.24Y-140.92
X138.24Y-145.92
X138.3Y-133.8
X138.4Y-129.9
X141.0Y-73.0
X143.24Y-50.92
X143.24Y-55.92
X143.24Y-60.92
X143.24Y-65.92
X143.24Y-70.92
X143.24Y-75.92
X143.24Y-80.92
X143.24Y-85.92
X143.24Y-90.92
X143.24Y-95.92
X143.24Y-100.92
X143.24Y-105.92
X143.24Y-110.92
X143.24Y-115.92
X143.24Y-120.92
X143.24Y-125.92
X143.24Y-130.92
X143.24Y-135.92
X143.24Y-140.92
X143.24Y-145.92
X146.0Y-73.0
X148.24Y-50.92
X148.24Y-55.92
X148.24Y-60.92
X148.24Y-65.92
X148.24Y-70.92
X148.24Y-75.92
X148.24Y-130.92
X148.24Y-135.92
X148.24Y-140.92
X148.24Y-145.92
X151.0Y-73.0
X153.24Y-50.92
X153.24Y-55.92
X153.24Y-60.92
X153.24Y-65.92
X153.24Y-70.92
X153.24Y-75.92
X153.24Y-130.92
X153.24Y-135.92
X153.24Y-140.92
X153.24Y-145.92
X156.0Y-73.0
X158.24Y-50.92
X158.24Y-55.92
X158.24Y-60.92
X158.24Y-65.92
X158.24Y-70.92
X158.24Y-85.92
X158.24Y-90.92
X158.24Y-95.92
X158.24Y-100.92
X158.24Y-105.92
X158.24Y-115.92
X158.24Y-120.92
X158.24Y-125.92
X158.24Y-130.92
X158.24Y-135.92
X158.24Y-140.92
X158.24Y-145.92
X159.9Y-80.9
X161.6Y-94.9
X163.24Y-50.92
X163.24Y-55.92
X163.24Y-60.92
X163.24Y-65.92
X163.24Y-70.92
X163.24Y-75.92
X163.24Y-85.92
X163.24Y-90.92
X163.24Y-95.92
X163.24Y-100.92
X163.24Y-105.92
X163.24Y-120.92
X163.24Y-125.92
X163.24Y-130.92
X163.24Y-135.92
X163.24Y-140.92
X163.24Y-145.92
X164.04Y-115.82
X167.5Y-120.1
X167.8Y-114.0
X168.1Y-104.9
X168.2Y-109.9
X168.24Y-50.92
X168.24Y-55.92
X168.24Y-60.92
X168.24Y-65.92
X168.24Y-70.92
X168.24Y-75.92
X168.24Y-85.92
X168.24Y-90.92
X168.24Y-95.92
X168.24Y-130.92
X168.24Y-135.92
X168.24Y-140.92
X168.24Y-145.92
X168.3Y-100.9
X172.94Y-55.92
X173.24Y-50.92
X173.24Y-60.92
X173.24Y-65.92
X173.24Y-70.92
X173.24Y-75.92
X173.24Y-80.92
X173.24Y-85.92
X173.24Y-100.92
X173.24Y-105.92
X173.24Y-110.92
X173.24Y-115.92
X173.24Y-120.92
X173.24Y-125.92
X173.24Y-130.92
X173.24Y-135.92
X173.24Y-140.92
X173.24Y-145.92
X173.79Y-91.38
X175.7Y-93.6
X176.4Y-88.2
X177.94Y-55.92
X178.24Y-50.92
X178.24Y-60.92
X178.24Y-65.92
X178.24Y-70.92
X178.24Y-90.92
X178.24Y-95.92
X178.24Y-100.92
X178.24Y-105.92
X178.24Y-115.92
X178.24Y-120.92
X178.24Y-130.92
X178.24Y-135.92
X178.24Y-140.92
X178.24Y-145.92
X178.6Y-88.2
X182.94Y-55.92
X183.24Y-50.92
X183.24Y-60.92
X183.24Y-65.92
X183.24Y-70.92
X183.24Y-75.92
X183.24Y-80.92
X183.24Y-85.92
X183.24Y-90.92
X183.24Y-100.92
X183.24Y-105.92
X183.24Y-110.92
X183.24Y-115.92
X183.24Y-120.92
X183.24Y-125.92
X183.24Y-130.92
X183.24Y-135.92
X183.24Y-140.92
X183.24Y-145.92
X188.24Y-50.92
X188.24Y-55.92
X188.24Y-60.92
X188.24Y-65.92
X188.24Y-70.92
X188.24Y-75.92
X188.24Y-80.92
X188.24Y-85.92
X188.24Y-90.92
X188.24Y-95.92
X188.24Y-100.92
X188.24Y-105.92
X188.24Y-110.92
X188.24Y-115.92
X188.24Y-120.92
X188.24Y-125.92
X188.24Y-130.92
X188.24Y-135.92
X188.24Y-140.92
X188.24Y-145.92
X193.24Y-50.92
X193.24Y-55.92
X193.24Y-60.92
X193.24Y-65.92
X193.24Y-70.92
X193.24Y-75.92
X193.24Y-80.92
X193.24Y-85.92
X193.24Y-90.92
X193.24Y-95.92
X193.24Y-100.92
X193.24Y-105.92
X193.24Y-110.92
X193.24Y-115.92
X193.24Y-120.92
X193.24Y-125.92
X193.24Y-130.92
X193.24Y-135.92
X193.24Y-140.92
X193.24Y-145.92
X198.24Y-50.92
X198.24Y-55.92
X198.24Y-60.92
X198.24Y-65.92
X198.24Y-70.92
X198.24Y-75.92
X198.24Y-80.92
X198.24Y-85.92
X198.24Y-90.92
X198.24Y-95.92
X198.24Y-100.92
X198.24Y-105.92
X198.24Y-110.92
X198.24Y-115.92
X198.24Y-120.92
X198.24Y-125.92
X198.24Y-130.92
X198.24Y-135.92
X198.24Y-145.92
T2
X173.04Y-96.63
X175.54Y-96.63
X180.04Y-96.63
X182.54Y-96.63
T3
X54.16Y-73.0
X54.16Y-75.54
X54.16Y-78.08
X54.16Y-80.62
X54.16Y-83.16
X54.16Y-85.7
X56.7Y-73.0
X56.7Y-75.54
X56.7Y-78.08
X56.7Y-80.62
X56.7Y-83.16
X56.7Y-85.7
X118.2Y-78.4
X118.2Y-80.94
X118.2Y-83.48
X118.2Y-86.02
X118.2Y-88.56
X118.2Y-91.1
X118.2Y-93.64
X118.2Y-96.18
X118.2Y-98.72
X118.2Y-101.26
X118.2Y-103.8
X118.2Y-106.34
X118.2Y-108.88
X118.2Y-111.42
X118.2Y-113.96
X118.2Y-116.5
X118.2Y-119.04
X118.2Y-121.58
X118.2Y-124.12
X118.2Y-126.66
X134.3Y-135.4
X136.84Y-135.4
X139.38Y-135.4
X155.7Y-78.37
X155.7Y-80.91
X155.7Y-83.45
X155.7Y-85.99
X155.7Y-88.53
X155.7Y-91.07
X155.7Y-93.61
X155.7Y-96.15
X155.7Y-98.69
X155.7Y-101.23
X155.7Y-103.77
X155.7Y-106.31
X155.7Y-108.85
X155.7Y-111.39
X155.7Y-113.93
X155.7Y-116.47
X155.7Y-119.01
X155.7Y-121.55
X155.7Y-124.09
X155.7Y-126.63
X190.62Y-58.63
X190.62Y-61.17
X190.62Y-63.71
X190.62Y-66.25
X190.62Y-68.79
X190.62Y-71.33
X190.62Y-73.87
X190.62Y-76.41
X190.62Y-78.95
X190.62Y-81.49
X190.62Y-84.03
X190.62Y-86.57
X190.62Y-89.11
X190.62Y-91.65
X190.62Y-94.19
X190.62Y-96.73
X190.62Y-99.27
X190.62Y-101.81
X190.62Y-104.35
X190.62Y-106.89
X190.62Y-109.43
X190.62Y-111.97
X190.62Y-114.51
X190.62Y-117.05
X190.62Y-119.59
X190.62Y-122.13
X190.62Y-124.67
X190.62Y-127.21
X190.62Y-129.75
X190.62Y-132.29
X190.62Y-134.83
X190.62Y-137.37
X195.7Y-58.63
X195.7Y-61.17
X195.7Y-63.71
X195.7Y-66.25
X195.7Y-68.79
X195.7Y-71.33
X195.7Y-73.87
X195.7Y-76.41
X195.7Y-78.95
X195.7Y-81.49
X195.7Y-84.03
X195.7Y-86.57
X195.7Y-89.11
X195.7Y-91.65
X195.7Y-94.19
X195.7Y-96.73
X195.7Y-99.27
X195.7Y-101.81
X195.7Y-104.35
X195.7Y-106.89
X195.7Y-109.43
X195.7Y-111.97
X195.7Y-114.51
X195.7Y-117.05
X195.7Y-119.59
X195.7Y-122.13
X195.7Y-124.67
X195.7Y-127.21
X195.7Y-129.75
X195.7Y-132.29
X195.7Y-134.83
X195.7Y-137.37
T4
X127.91Y-78.37
X127.91Y-80.91
X127.91Y-83.45
X127.91Y-85.99
X127.91Y-88.53
X127.91Y-91.07
X127.91Y-93.61
X127.91Y-96.15
X127.91Y-98.69
X127.91Y-101.23
X127.91Y-103.77
X127.91Y-106.31
X127.91Y-108.85
X127.91Y-111.39
X127.91Y-113.93
X127.91Y-116.47
X127.91Y-119.01
X127.91Y-121.55
X127.91Y-124.09
X127.91Y-126.63
X134.26Y-126.4
X136.8Y-126.4
X139.34Y-126.4
X145.69Y-78.37
X145.69Y-80.91
X145.69Y-83.45
X145.69Y-85.99
X145.69Y-88.53
X145.69Y-91.07
X145.69Y-93.61
X145.69Y-96.15
X145.69Y-98.69
X145.69Y-101.23
X145.69Y-103.77
X145.69Y-106.31
X145.69Y-108.85
X145.69Y-111.39
X145.69Y-113.93
X145.69Y-116.47
X145.69Y-119.01
X145.69Y-121.55
X145.69Y-124.09
X145.69Y-126.63
T5
X175.46Y-110.63
X178.0Y-110.63
X180.54Y-110.63
T6
X45.41Y-106.6
X45.41Y-129.46
X83.51Y-106.6
X83.51Y-129.46
T0
M30
