M48
; DRILL file {KiCad 5.1.10-88a1d61d58~90~ubuntu20.04.1} date Wed Oct  6 13:31:15 2021
; FORMAT={-:-/ absolute / inch / decimal}
; #@! TF.CreationDate,2021-10-06T13:31:15+02:00
; #@! TF.GenerationSoftware,Kicad,Pcbnew,5.1.10-88a1d61d58~90~ubuntu20.04.1
; #@! TF.FileFunction,Plated,1,2,PTH
FMAT,2
INCH
T1C0.0118
T2C0.0315
T3C0.0394
T4C0.0402
T5C0.0433
%
G90
G05
T1
X1.7024Y-2.0047
X1.7024Y-2.2016
X1.7024Y-2.3984
X1.7024Y-2.5953
X1.7024Y-2.7921
X1.7024Y-2.989
X1.7024Y-3.1858
X1.7024Y-3.3827
X1.7024Y-3.5795
X1.7024Y-3.7764
X1.7024Y-3.9732
X1.7024Y-4.1701
X1.7024Y-4.3669
X1.7024Y-4.5638
X1.7024Y-4.7606
X1.7024Y-4.9575
X1.7024Y-5.1543
X1.7024Y-5.3512
X1.7024Y-5.548
X1.7024Y-5.7449
X1.8992Y-2.0047
X1.8992Y-2.2016
X1.8992Y-2.3984
X1.8992Y-2.5953
X1.8992Y-2.7921
X1.8992Y-2.989
X1.8992Y-3.1858
X1.8992Y-3.3827
X1.8992Y-3.5795
X1.8992Y-3.7764
X1.8992Y-3.9732
X1.8992Y-4.1701
X1.8992Y-4.3669
X1.8992Y-4.5638
X1.8992Y-4.7606
X1.8992Y-4.9575
X1.8992Y-5.1543
X1.8992Y-5.3512
X1.8992Y-5.548
X1.8992Y-5.7449
X2.0961Y-2.0047
X2.0961Y-2.2016
X2.0961Y-2.3984
X2.0961Y-2.5953
X2.0961Y-2.7921
X2.0961Y-2.989
X2.0961Y-3.1858
X2.0961Y-3.3827
X2.0961Y-3.5795
X2.0961Y-3.7764
X2.0961Y-3.9732
X2.0961Y-4.1701
X2.0961Y-4.3669
X2.0961Y-4.5638
X2.0961Y-4.7606
X2.0961Y-4.9575
X2.0961Y-5.1543
X2.0961Y-5.3512
X2.0961Y-5.548
X2.0961Y-5.7449
X2.2929Y-2.0047
X2.2929Y-2.2016
X2.2929Y-2.3984
X2.2929Y-2.5953
X2.2929Y-2.7921
X2.2929Y-3.5795
X2.2929Y-3.7764
X2.2929Y-3.9732
X2.2929Y-4.1701
X2.2929Y-4.3669
X2.2929Y-4.5638
X2.2929Y-4.7606
X2.2929Y-4.9575
X2.2929Y-5.1543
X2.2929Y-5.3512
X2.2929Y-5.548
X2.2929Y-5.7449
X2.4898Y-2.0047
X2.4898Y-2.2016
X2.4898Y-2.3984
X2.4898Y-2.5953
X2.4898Y-2.7921
X2.4898Y-2.989
X2.4898Y-3.1858
X2.4898Y-3.3827
X2.4898Y-3.5795
X2.4898Y-3.7764
X2.4898Y-3.9732
X2.4898Y-4.1701
X2.4898Y-4.3669
X2.4898Y-4.5638
X2.4898Y-4.7606
X2.4898Y-4.9575
X2.4898Y-5.1543
X2.4898Y-5.3512
X2.4898Y-5.548
X2.4898Y-5.7449
X2.6866Y-2.0047
X2.6866Y-2.2016
X2.6866Y-2.3984
X2.6866Y-2.5953
X2.6866Y-2.7921
X2.6866Y-2.989
X2.6866Y-3.1858
X2.6866Y-3.3827
X2.6866Y-3.5795
X2.6866Y-3.7764
X2.6866Y-3.9732
X2.6866Y-4.1701
X2.6866Y-4.3669
X2.6866Y-4.5638
X2.6866Y-4.7606
X2.6866Y-4.9575
X2.6866Y-5.1543
X2.6866Y-5.3512
X2.6866Y-5.548
X2.6866Y-5.7449
X2.8835Y-2.0047
X2.8835Y-2.2016
X2.8835Y-2.3984
X2.8835Y-2.5953
X2.8835Y-2.7921
X2.8835Y-2.989
X2.8835Y-3.1858
X2.8835Y-3.3827
X2.8835Y-3.5795
X2.8835Y-3.7764
X2.8835Y-4.3669
X2.8835Y-4.5638
X2.8835Y-4.7606
X2.8835Y-4.9575
X2.8835Y-5.1543
X2.8835Y-5.3512
X2.8835Y-5.548
X2.8835Y-5.7449
X3.0803Y-2.0047
X3.0803Y-2.2016
X3.0803Y-2.3984
X3.0803Y-2.5953
X3.0803Y-2.7921
X3.0803Y-2.989
X3.0803Y-3.1858
X3.0803Y-3.3827
X3.0803Y-3.5795
X3.0803Y-3.7764
X3.0803Y-3.9732
X3.0803Y-4.1701
X3.0803Y-4.3669
X3.0803Y-4.5638
X3.0803Y-4.7606
X3.0803Y-4.9575
X3.0803Y-5.1543
X3.0803Y-5.3512
X3.0803Y-5.548
X3.0803Y-5.7449
X3.2772Y-2.0047
X3.2772Y-2.2016
X3.2772Y-2.3984
X3.2772Y-2.5953
X3.2772Y-2.7921
X3.2772Y-2.989
X3.2772Y-3.1858
X3.2772Y-3.3827
X3.2772Y-3.5795
X3.2772Y-3.7764
X3.2772Y-3.9732
X3.2772Y-4.1701
X3.2772Y-4.3669
X3.2772Y-4.5638
X3.2772Y-4.7606
X3.2772Y-4.9575
X3.2772Y-5.1543
X3.2772Y-5.3512
X3.2772Y-5.548
X3.2772Y-5.7449
X3.474Y-2.0047
X3.474Y-2.2016
X3.474Y-2.3984
X3.474Y-2.5953
X3.474Y-2.7921
X3.474Y-2.989
X3.474Y-3.1858
X3.474Y-3.3827
X3.474Y-3.5795
X3.474Y-3.7764
X3.474Y-3.9732
X3.474Y-4.1701
X3.474Y-4.3669
X3.474Y-4.5638
X3.474Y-4.7606
X3.474Y-4.9575
X3.474Y-5.1543
X3.474Y-5.3512
X3.474Y-5.548
X3.474Y-5.7449
X3.6024Y-4.7835
X3.6319Y-4.9409
X3.6709Y-2.0047
X3.6709Y-2.2016
X3.6709Y-2.3984
X3.6709Y-2.5953
X3.6709Y-2.7921
X3.6709Y-2.989
X3.6709Y-3.1858
X3.6709Y-3.3827
X3.6709Y-3.5795
X3.6709Y-3.7764
X3.6709Y-3.9732
X3.6709Y-4.1701
X3.6709Y-4.9575
X3.6709Y-5.1543
X3.6709Y-5.3512
X3.6709Y-5.548
X3.6709Y-5.7449
X3.8677Y-2.0047
X3.8677Y-2.2016
X3.8677Y-2.3984
X3.8677Y-2.5953
X3.8677Y-2.7921
X3.8677Y-2.989
X3.8677Y-3.1858
X3.8677Y-3.3827
X3.8677Y-3.5795
X3.8677Y-3.7764
X3.8677Y-3.9732
X3.8677Y-4.1701
X3.8677Y-4.3669
X3.8677Y-4.5638
X3.8677Y-4.7606
X3.8677Y-5.1543
X3.8677Y-5.3512
X3.8677Y-5.548
X3.8677Y-5.7449
X4.0646Y-2.0047
X4.0646Y-2.2016
X4.0646Y-2.3984
X4.0646Y-2.5953
X4.0646Y-3.1858
X4.0646Y-3.3827
X4.0646Y-3.5795
X4.0646Y-3.7764
X4.0646Y-3.9732
X4.0646Y-4.1701
X4.0646Y-4.3669
X4.0646Y-4.9575
X4.0646Y-5.1543
X4.0646Y-5.3512
X4.0646Y-5.548
X4.0646Y-5.7449
X4.1142Y-4.3819
X4.2614Y-2.0047
X4.2614Y-2.2016
X4.2614Y-2.3984
X4.2614Y-2.5953
X4.2614Y-2.989
X4.2614Y-3.1858
X4.2614Y-3.3827
X4.2614Y-3.5795
X4.2614Y-3.7764
X4.2614Y-3.9732
X4.2614Y-4.1701
X4.2614Y-4.3669
X4.2614Y-4.5638
X4.2614Y-4.7606
X4.2614Y-4.9575
X4.2614Y-5.1543
X4.2614Y-5.3512
X4.2614Y-5.548
X4.2614Y-5.7449
X4.2795Y-4.4291
X4.2795Y-4.5276
X4.2795Y-4.6378
X4.4583Y-2.0047
X4.4583Y-2.2016
X4.4583Y-2.3984
X4.4583Y-2.5953
X4.4583Y-2.7921
X4.4583Y-2.989
X4.4583Y-3.1858
X4.4583Y-3.3827
X4.4583Y-3.5795
X4.4583Y-3.7764
X4.4583Y-3.9732
X4.4583Y-4.3669
X4.4583Y-4.7606
X4.4583Y-4.9575
X4.4583Y-5.1543
X4.4583Y-5.3512
X4.4583Y-5.548
X4.4583Y-5.7449
X4.6551Y-2.0047
X4.6551Y-2.2016
X4.6551Y-2.3984
X4.6551Y-2.5953
X4.6551Y-2.7921
X4.6551Y-2.989
X4.6551Y-5.1543
X4.6551Y-5.3512
X4.6551Y-5.548
X4.6551Y-5.7449
X4.852Y-2.0047
X4.852Y-2.2016
X4.852Y-2.3984
X4.852Y-2.5953
X4.852Y-2.7921
X4.852Y-2.989
X4.852Y-3.1858
X4.852Y-3.3827
X4.852Y-3.5795
X4.852Y-3.7764
X4.852Y-4.7606
X4.852Y-4.9575
X4.852Y-5.1543
X4.852Y-5.3512
X4.852Y-5.548
X4.852Y-5.7449
X5.0488Y-2.0047
X5.0488Y-2.2016
X5.0488Y-2.3984
X5.0488Y-2.5953
X5.0488Y-2.7921
X5.0488Y-2.989
X5.0488Y-5.1543
X5.0488Y-5.3512
X5.0488Y-5.548
X5.0488Y-5.7449
X5.2457Y-2.0047
X5.2457Y-2.2016
X5.2457Y-2.3984
X5.2457Y-2.5953
X5.2457Y-2.7921
X5.2457Y-2.989
X5.2457Y-3.1858
X5.2457Y-3.3827
X5.2457Y-3.5795
X5.2457Y-3.7764
X5.2457Y-3.9732
X5.2457Y-4.1701
X5.2457Y-4.3669
X5.2457Y-4.5638
X5.2457Y-4.7606
X5.2457Y-5.1543
X5.2457Y-5.548
X5.2457Y-5.7449
X5.4425Y-2.0047
X5.4425Y-2.2016
X5.4425Y-2.3984
X5.4425Y-2.5953
X5.4425Y-2.7921
X5.4425Y-2.989
X5.4425Y-3.3827
X5.4425Y-3.5795
X5.4425Y-3.7764
X5.4425Y-3.9732
X5.4425Y-4.1701
X5.4425Y-4.3669
X5.4425Y-4.5638
X5.4425Y-4.7606
X5.4425Y-5.1543
X5.4425Y-5.548
X5.4425Y-5.7449
X5.6394Y-2.0047
X5.6394Y-2.2016
X5.6394Y-2.3984
X5.6394Y-2.5953
X5.6394Y-2.7921
X5.6394Y-2.989
X5.6394Y-3.1858
X5.6394Y-3.3827
X5.6394Y-3.5795
X5.6394Y-3.7764
X5.6394Y-3.9732
X5.6394Y-4.1701
X5.6394Y-4.3669
X5.6394Y-4.5638
X5.6394Y-4.7606
X5.6394Y-4.9575
X5.6394Y-5.1543
X5.6394Y-5.3512
X5.6394Y-5.548
X5.6394Y-5.7449
X5.8362Y-2.0047
X5.8362Y-2.2016
X5.8362Y-2.3984
X5.8362Y-2.5953
X5.8362Y-2.7921
X5.8362Y-2.989
X5.8362Y-3.1858
X5.8362Y-3.3827
X5.8362Y-3.5795
X5.8362Y-3.7764
X5.8362Y-3.9732
X5.8362Y-4.1701
X5.8362Y-4.3669
X5.8362Y-4.5638
X5.8362Y-4.7606
X5.8362Y-4.9575
X5.8362Y-5.1543
X5.8362Y-5.3512
X5.8362Y-5.548
X5.8362Y-5.7449
X6.0331Y-2.0047
X6.0331Y-2.2016
X6.0331Y-2.3984
X6.0331Y-2.5953
X6.0331Y-2.7921
X6.0331Y-2.989
X6.0331Y-3.1858
X6.0331Y-3.3827
X6.0331Y-3.5795
X6.0331Y-4.7606
X6.0331Y-4.9575
X6.0331Y-5.1543
X6.0331Y-5.3512
X6.0331Y-5.548
X6.0331Y-5.7449
X6.2299Y-2.0047
X6.2299Y-2.2016
X6.2299Y-2.3984
X6.2299Y-2.5953
X6.2299Y-2.7921
X6.2299Y-2.989
X6.2299Y-3.1858
X6.2299Y-3.3827
X6.2299Y-3.5795
X6.2299Y-3.7764
X6.2299Y-3.9732
X6.2299Y-4.1701
X6.2299Y-4.5638
X6.2299Y-4.7606
X6.2299Y-4.9575
X6.2299Y-5.1543
X6.2299Y-5.3512
X6.2299Y-5.548
X6.2299Y-5.7449
X6.4268Y-2.0047
X6.4268Y-2.2016
X6.4268Y-2.3984
X6.4268Y-2.5953
X6.4268Y-2.7921
X6.4268Y-2.989
X6.4268Y-3.1858
X6.4268Y-3.3827
X6.4268Y-3.5795
X6.4268Y-3.7764
X6.4268Y-3.9732
X6.4268Y-4.1701
X6.4268Y-4.3669
X6.4268Y-4.5638
X6.4268Y-4.7606
X6.4268Y-4.9575
X6.4268Y-5.1543
X6.4268Y-5.3512
X6.4268Y-5.548
X6.4268Y-5.7449
X6.6236Y-2.0047
X6.6236Y-2.2016
X6.6236Y-2.3984
X6.6236Y-2.5953
X6.6236Y-2.7921
X6.6236Y-2.989
X6.6236Y-3.1858
X6.6236Y-3.3827
X6.6236Y-3.5795
X6.6236Y-3.7764
X6.6236Y-5.1543
X6.6236Y-5.3512
X6.6236Y-5.548
X6.6236Y-5.7449
X6.8205Y-2.0047
X6.8205Y-2.2016
X6.8205Y-2.3984
X6.8205Y-2.5953
X6.8205Y-2.7921
X6.8205Y-2.989
X6.8205Y-3.1858
X6.8205Y-3.3827
X6.8205Y-3.5795
X6.8205Y-3.9732
X6.8205Y-4.1701
X6.8205Y-4.3669
X6.8205Y-4.5638
X6.8205Y-4.7606
X6.8205Y-4.9575
X6.8205Y-5.1543
X6.8205Y-5.3512
X6.8205Y-5.548
X6.8205Y-5.7449
X6.8421Y-3.5976
X7.0173Y-2.0047
X7.0173Y-2.2016
X7.0173Y-2.3984
X7.0173Y-2.5953
X7.0173Y-2.7921
X7.0173Y-3.1858
X7.0173Y-3.3827
X7.0173Y-3.5795
X7.0173Y-3.7764
X7.0173Y-3.9732
X7.0173Y-4.1701
X7.0173Y-4.5638
X7.0173Y-4.7606
X7.0173Y-5.1543
X7.0173Y-5.3512
X7.0173Y-5.548
X7.0173Y-5.7449
X7.2142Y-2.0047
X7.2142Y-2.2016
X7.2142Y-2.3984
X7.2142Y-2.5953
X7.2142Y-2.7921
X7.2142Y-2.989
X7.2142Y-3.1858
X7.2142Y-3.3827
X7.2142Y-3.5795
X7.2142Y-3.7764
X7.2142Y-3.9732
X7.2142Y-4.1701
X7.2142Y-4.3669
X7.2142Y-4.5638
X7.2142Y-4.7606
X7.2142Y-4.9575
X7.2142Y-5.1543
X7.2142Y-5.3512
X7.2142Y-5.548
X7.2142Y-5.7449
X7.411Y-2.0047
X7.411Y-2.2016
X7.411Y-2.3984
X7.411Y-2.5953
X7.411Y-2.7921
X7.411Y-2.989
X7.411Y-3.1858
X7.411Y-3.3827
X7.411Y-3.5795
X7.411Y-3.7764
X7.411Y-3.9732
X7.411Y-4.1701
X7.411Y-4.3669
X7.411Y-4.5638
X7.411Y-4.7606
X7.411Y-4.9575
X7.411Y-5.1543
X7.411Y-5.3512
X7.411Y-5.548
X7.411Y-5.7449
X7.6079Y-2.0047
X7.6079Y-2.2016
X7.6079Y-2.3984
X7.6079Y-2.5953
X7.6079Y-2.7921
X7.6079Y-2.989
X7.6079Y-3.1858
X7.6079Y-3.3827
X7.6079Y-3.5795
X7.6079Y-3.7764
X7.6079Y-3.9732
X7.6079Y-4.1701
X7.6079Y-4.3669
X7.6079Y-4.5638
X7.6079Y-4.7606
X7.6079Y-4.9575
X7.6079Y-5.1543
X7.6079Y-5.3512
X7.6079Y-5.548
X7.6079Y-5.7449
X7.8047Y-2.0047
X7.8047Y-2.2016
X7.8047Y-2.3984
X7.8047Y-2.5953
X7.8047Y-2.7921
X7.8047Y-2.989
X7.8047Y-3.1858
X7.8047Y-3.3827
X7.8047Y-3.5795
X7.8047Y-3.7764
X7.8047Y-3.9732
X7.8047Y-4.1701
X7.8047Y-4.3669
X7.8047Y-4.5638
X7.8047Y-4.7606
X7.8047Y-4.9575
X7.8047Y-5.1543
X7.8047Y-5.3512
X7.8047Y-5.7449
T2
X6.8126Y-3.8043
X6.911Y-3.8043
X7.0882Y-3.8043
X7.1866Y-3.8043
T3
X2.1898Y-2.874
X2.1898Y-2.974
X2.1898Y-3.074
X2.1898Y-3.174
X2.1898Y-3.274
X2.1898Y-3.374
X2.2898Y-2.874
X2.2898Y-2.974
X2.2898Y-3.074
X2.2898Y-3.174
X2.2898Y-3.274
X2.2898Y-3.374
X4.6535Y-3.0866
X4.6535Y-3.1866
X4.6535Y-3.2866
X4.6535Y-3.3866
X4.6535Y-3.4866
X4.6535Y-3.5866
X4.6535Y-3.6866
X4.6535Y-3.7866
X4.6535Y-3.8866
X4.6535Y-3.9866
X4.6535Y-4.0866
X4.6535Y-4.1866
X4.6535Y-4.2866
X4.6535Y-4.3866
X4.6535Y-4.4866
X4.6535Y-4.5866
X4.6535Y-4.6866
X4.6535Y-4.7866
X4.6535Y-4.8866
X4.6535Y-4.9866
X5.2874Y-5.3307
X5.3874Y-5.3307
X5.4874Y-5.3307
X6.1299Y-3.0854
X6.1299Y-3.1854
X6.1299Y-3.2854
X6.1299Y-3.3854
X6.1299Y-3.4854
X6.1299Y-3.5854
X6.1299Y-3.6854
X6.1299Y-3.7854
X6.1299Y-3.8854
X6.1299Y-3.9854
X6.1299Y-4.0854
X6.1299Y-4.1854
X6.1299Y-4.2854
X6.1299Y-4.3854
X6.1299Y-4.4854
X6.1299Y-4.5854
X6.1299Y-4.6854
X6.1299Y-4.7854
X6.1299Y-4.8854
X6.1299Y-4.9854
X7.5047Y-2.3083
X7.5047Y-2.4083
X7.5047Y-2.5083
X7.5047Y-2.6083
X7.5047Y-2.7083
X7.5047Y-2.8083
X7.5047Y-2.9083
X7.5047Y-3.0083
X7.5047Y-3.1083
X7.5047Y-3.2083
X7.5047Y-3.3083
X7.5047Y-3.4083
X7.5047Y-3.5083
X7.5047Y-3.6083
X7.5047Y-3.7083
X7.5047Y-3.8083
X7.5047Y-3.9083
X7.5047Y-4.0083
X7.5047Y-4.1083
X7.5047Y-4.2083
X7.5047Y-4.3083
X7.5047Y-4.4083
X7.5047Y-4.5083
X7.5047Y-4.6083
X7.5047Y-4.7083
X7.5047Y-4.8083
X7.5047Y-4.9083
X7.5047Y-5.0083
X7.5047Y-5.1083
X7.5047Y-5.2083
X7.5047Y-5.3083
X7.5047Y-5.4083
X7.7047Y-2.3083
X7.7047Y-2.4083
X7.7047Y-2.5083
X7.7047Y-2.6083
X7.7047Y-2.7083
X7.7047Y-2.8083
X7.7047Y-2.9083
X7.7047Y-3.0083
X7.7047Y-3.1083
X7.7047Y-3.2083
X7.7047Y-3.3083
X7.7047Y-3.4083
X7.7047Y-3.5083
X7.7047Y-3.6083
X7.7047Y-3.7083
X7.7047Y-3.8083
X7.7047Y-3.9083
X7.7047Y-4.0083
X7.7047Y-4.1083
X7.7047Y-4.2083
X7.7047Y-4.3083
X7.7047Y-4.4083
X7.7047Y-4.5083
X7.7047Y-4.6083
X7.7047Y-4.7083
X7.7047Y-4.8083
X7.7047Y-4.9083
X7.7047Y-5.0083
X7.7047Y-5.1083
X7.7047Y-5.2083
X7.7047Y-5.3083
X7.7047Y-5.4083
T4
X5.0358Y-3.0854
X5.0358Y-3.1854
X5.0358Y-3.2854
X5.0358Y-3.3854
X5.0358Y-3.4854
X5.0358Y-3.5854
X5.0358Y-3.6854
X5.0358Y-3.7854
X5.0358Y-3.8854
X5.0358Y-3.9854
X5.0358Y-4.0854
X5.0358Y-4.1854
X5.0358Y-4.2854
X5.0358Y-4.3854
X5.0358Y-4.4854
X5.0358Y-4.5854
X5.0358Y-4.6854
X5.0358Y-4.7854
X5.0358Y-4.8854
X5.0358Y-4.9854
X5.2858Y-4.9764
X5.3858Y-4.9764
X5.4858Y-4.9764
X5.7358Y-3.0854
X5.7358Y-3.1854
X5.7358Y-3.2854
X5.7358Y-3.3854
X5.7358Y-3.4854
X5.7358Y-3.5854
X5.7358Y-3.6854
X5.7358Y-3.7854
X5.7358Y-3.8854
X5.7358Y-3.9854
X5.7358Y-4.0854
X5.7358Y-4.1854
X5.7358Y-4.2854
X5.7358Y-4.3854
X5.7358Y-4.4854
X5.7358Y-4.5854
X5.7358Y-4.6854
X5.7358Y-4.7854
X5.7358Y-4.8854
X5.7358Y-4.9854
T5
X6.9079Y-4.3555
X7.0079Y-4.3555
X7.1079Y-4.3555
T0
M30
