%TF.GenerationSoftware,KiCad,Pcbnew,5.1.10-88a1d61d58~90~ubuntu20.04.1*%
%TF.CreationDate,2021-10-06T13:31:21+02:00*%
%TF.ProjectId,PrawnBlaster,50726177-6e42-46c6-9173-7465722e6b69,v1.0*%
%TF.SameCoordinates,Original*%
%TF.FileFunction,Paste,Top*%
%TF.FilePolarity,Positive*%
%FSLAX45Y45*%
G04 Gerber Fmt 4.5, Leading zero omitted, Abs format (unit mm)*
G04 Created by KiCad (PCBNEW 5.1.10-88a1d61d58~90~ubuntu20.04.1) date 2021-10-06 13:31:21*
%MOMM*%
%LPD*%
G01*
G04 APERTURE LIST*
%ADD10R,1.060000X0.650000*%
%ADD11R,0.600000X0.450000*%
%ADD12R,2.500000X2.300000*%
%ADD13R,3.800000X2.000000*%
%ADD14R,1.500000X2.000000*%
G04 APERTURE END LIST*
%TO.C,C6*%
G36*
G01*
X10951000Y-7592500D02*
X11171000Y-7592500D01*
G75*
G02*
X11196000Y-7617500I0J-25000D01*
G01*
X11196000Y-7682500D01*
G75*
G02*
X11171000Y-7707500I-25000J0D01*
G01*
X10951000Y-7707500D01*
G75*
G02*
X10926000Y-7682500I0J25000D01*
G01*
X10926000Y-7617500D01*
G75*
G02*
X10951000Y-7592500I25000J0D01*
G01*
G37*
G36*
G01*
X10951000Y-7297500D02*
X11171000Y-7297500D01*
G75*
G02*
X11196000Y-7322500I0J-25000D01*
G01*
X11196000Y-7387500D01*
G75*
G02*
X11171000Y-7412500I-25000J0D01*
G01*
X10951000Y-7412500D01*
G75*
G02*
X10926000Y-7387500I0J25000D01*
G01*
X10926000Y-7322500D01*
G75*
G02*
X10951000Y-7297500I25000J0D01*
G01*
G37*
%TD*%
%TO.C,C5*%
G36*
G01*
X10790000Y-7465500D02*
X10840000Y-7465500D01*
G75*
G02*
X10862500Y-7488000I0J-22500D01*
G01*
X10862500Y-7533000D01*
G75*
G02*
X10840000Y-7555500I-22500J0D01*
G01*
X10790000Y-7555500D01*
G75*
G02*
X10767500Y-7533000I0J22500D01*
G01*
X10767500Y-7488000D01*
G75*
G02*
X10790000Y-7465500I22500J0D01*
G01*
G37*
G36*
G01*
X10790000Y-7310500D02*
X10840000Y-7310500D01*
G75*
G02*
X10862500Y-7333000I0J-22500D01*
G01*
X10862500Y-7378000D01*
G75*
G02*
X10840000Y-7400500I-22500J0D01*
G01*
X10790000Y-7400500D01*
G75*
G02*
X10767500Y-7378000I0J22500D01*
G01*
X10767500Y-7333000D01*
G75*
G02*
X10790000Y-7310500I22500J0D01*
G01*
G37*
%TD*%
D10*
%TO.C,U5*%
X10500000Y-7172000D03*
X10500000Y-7362000D03*
X10280000Y-7362000D03*
X10280000Y-7267000D03*
X10280000Y-7172000D03*
%TD*%
%TO.C,U2*%
X10500000Y-7650000D03*
X10500000Y-7840000D03*
X10280000Y-7840000D03*
X10280000Y-7745000D03*
X10280000Y-7650000D03*
%TD*%
%TO.C,R1*%
G36*
G01*
X8353900Y-11193700D02*
X8353900Y-11318700D01*
G75*
G02*
X8328900Y-11343700I-25000J0D01*
G01*
X8266400Y-11343700D01*
G75*
G02*
X8241400Y-11318700I0J25000D01*
G01*
X8241400Y-11193700D01*
G75*
G02*
X8266400Y-11168700I25000J0D01*
G01*
X8328900Y-11168700D01*
G75*
G02*
X8353900Y-11193700I0J-25000D01*
G01*
G37*
G36*
G01*
X8061400Y-11193700D02*
X8061400Y-11318700D01*
G75*
G02*
X8036400Y-11343700I-25000J0D01*
G01*
X7973900Y-11343700D01*
G75*
G02*
X7948900Y-11318700I0J25000D01*
G01*
X7948900Y-11193700D01*
G75*
G02*
X7973900Y-11168700I25000J0D01*
G01*
X8036400Y-11168700D01*
G75*
G02*
X8061400Y-11193700I0J-25000D01*
G01*
G37*
%TD*%
%TO.C,R4*%
G36*
G01*
X8353900Y-11943700D02*
X8353900Y-12068700D01*
G75*
G02*
X8328900Y-12093700I-25000J0D01*
G01*
X8266400Y-12093700D01*
G75*
G02*
X8241400Y-12068700I0J25000D01*
G01*
X8241400Y-11943700D01*
G75*
G02*
X8266400Y-11918700I25000J0D01*
G01*
X8328900Y-11918700D01*
G75*
G02*
X8353900Y-11943700I0J-25000D01*
G01*
G37*
G36*
G01*
X8061400Y-11943700D02*
X8061400Y-12068700D01*
G75*
G02*
X8036400Y-12093700I-25000J0D01*
G01*
X7973900Y-12093700D01*
G75*
G02*
X7948900Y-12068700I0J25000D01*
G01*
X7948900Y-11943700D01*
G75*
G02*
X7973900Y-11918700I25000J0D01*
G01*
X8036400Y-11918700D01*
G75*
G02*
X8061400Y-11943700I0J-25000D01*
G01*
G37*
%TD*%
%TO.C,R3*%
G36*
G01*
X8353900Y-11693700D02*
X8353900Y-11818700D01*
G75*
G02*
X8328900Y-11843700I-25000J0D01*
G01*
X8266400Y-11843700D01*
G75*
G02*
X8241400Y-11818700I0J25000D01*
G01*
X8241400Y-11693700D01*
G75*
G02*
X8266400Y-11668700I25000J0D01*
G01*
X8328900Y-11668700D01*
G75*
G02*
X8353900Y-11693700I0J-25000D01*
G01*
G37*
G36*
G01*
X8061400Y-11693700D02*
X8061400Y-11818700D01*
G75*
G02*
X8036400Y-11843700I-25000J0D01*
G01*
X7973900Y-11843700D01*
G75*
G02*
X7948900Y-11818700I0J25000D01*
G01*
X7948900Y-11693700D01*
G75*
G02*
X7973900Y-11668700I25000J0D01*
G01*
X8036400Y-11668700D01*
G75*
G02*
X8061400Y-11693700I0J-25000D01*
G01*
G37*
%TD*%
%TO.C,R2*%
G36*
G01*
X8353900Y-11443700D02*
X8353900Y-11568700D01*
G75*
G02*
X8328900Y-11593700I-25000J0D01*
G01*
X8266400Y-11593700D01*
G75*
G02*
X8241400Y-11568700I0J25000D01*
G01*
X8241400Y-11443700D01*
G75*
G02*
X8266400Y-11418700I25000J0D01*
G01*
X8328900Y-11418700D01*
G75*
G02*
X8353900Y-11443700I0J-25000D01*
G01*
G37*
G36*
G01*
X8061400Y-11443700D02*
X8061400Y-11568700D01*
G75*
G02*
X8036400Y-11593700I-25000J0D01*
G01*
X7973900Y-11593700D01*
G75*
G02*
X7948900Y-11568700I0J25000D01*
G01*
X7948900Y-11443700D01*
G75*
G02*
X7973900Y-11418700I25000J0D01*
G01*
X8036400Y-11418700D01*
G75*
G02*
X8061400Y-11443700I0J-25000D01*
G01*
G37*
%TD*%
%TO.C,C4*%
G36*
G01*
X9555000Y-12640000D02*
X9555000Y-12860000D01*
G75*
G02*
X9530000Y-12885000I-25000J0D01*
G01*
X9465000Y-12885000D01*
G75*
G02*
X9440000Y-12860000I0J25000D01*
G01*
X9440000Y-12640000D01*
G75*
G02*
X9465000Y-12615000I25000J0D01*
G01*
X9530000Y-12615000D01*
G75*
G02*
X9555000Y-12640000I0J-25000D01*
G01*
G37*
G36*
G01*
X9260000Y-12640000D02*
X9260000Y-12860000D01*
G75*
G02*
X9235000Y-12885000I-25000J0D01*
G01*
X9170000Y-12885000D01*
G75*
G02*
X9145000Y-12860000I0J25000D01*
G01*
X9145000Y-12640000D01*
G75*
G02*
X9170000Y-12615000I25000J0D01*
G01*
X9235000Y-12615000D01*
G75*
G02*
X9260000Y-12640000I0J-25000D01*
G01*
G37*
%TD*%
D11*
%TO.C,D2*%
X17909000Y-9013000D03*
X17699000Y-9013000D03*
%TD*%
D12*
%TO.C,D1*%
X17639000Y-10463000D03*
X18069000Y-10463000D03*
%TD*%
%TO.C,C3*%
G36*
G01*
X9372500Y-12425000D02*
X9372500Y-12475000D01*
G75*
G02*
X9350000Y-12497500I-22500J0D01*
G01*
X9305000Y-12497500D01*
G75*
G02*
X9282500Y-12475000I0J22500D01*
G01*
X9282500Y-12425000D01*
G75*
G02*
X9305000Y-12402500I22500J0D01*
G01*
X9350000Y-12402500D01*
G75*
G02*
X9372500Y-12425000I0J-22500D01*
G01*
G37*
G36*
G01*
X9217500Y-12425000D02*
X9217500Y-12475000D01*
G75*
G02*
X9195000Y-12497500I-22500J0D01*
G01*
X9150000Y-12497500D01*
G75*
G02*
X9127500Y-12475000I0J22500D01*
G01*
X9127500Y-12425000D01*
G75*
G02*
X9150000Y-12402500I22500J0D01*
G01*
X9195000Y-12402500D01*
G75*
G02*
X9217500Y-12425000I0J-22500D01*
G01*
G37*
%TD*%
D13*
%TO.C,Q1*%
X17754000Y-7998000D03*
D14*
X17754000Y-8628000D03*
X17984000Y-8628000D03*
X17524000Y-8628000D03*
%TD*%
%TO.C,R5*%
G36*
G01*
X17459000Y-8961750D02*
X17549000Y-8961750D01*
G75*
G02*
X17574000Y-8986750I0J-25000D01*
G01*
X17574000Y-9039250D01*
G75*
G02*
X17549000Y-9064250I-25000J0D01*
G01*
X17459000Y-9064250D01*
G75*
G02*
X17434000Y-9039250I0J25000D01*
G01*
X17434000Y-8986750D01*
G75*
G02*
X17459000Y-8961750I25000J0D01*
G01*
G37*
G36*
G01*
X17459000Y-9144250D02*
X17549000Y-9144250D01*
G75*
G02*
X17574000Y-9169250I0J-25000D01*
G01*
X17574000Y-9221750D01*
G75*
G02*
X17549000Y-9246750I-25000J0D01*
G01*
X17459000Y-9246750D01*
G75*
G02*
X17434000Y-9221750I0J25000D01*
G01*
X17434000Y-9169250D01*
G75*
G02*
X17459000Y-9144250I25000J0D01*
G01*
G37*
%TD*%
%TO.C,U4*%
G36*
G01*
X10367500Y-12256500D02*
X10367500Y-12286500D01*
G75*
G02*
X10352500Y-12301500I-15000J0D01*
G01*
X10177500Y-12301500D01*
G75*
G02*
X10162500Y-12286500I0J15000D01*
G01*
X10162500Y-12256500D01*
G75*
G02*
X10177500Y-12241500I15000J0D01*
G01*
X10352500Y-12241500D01*
G75*
G02*
X10367500Y-12256500I0J-15000D01*
G01*
G37*
G36*
G01*
X10367500Y-12129500D02*
X10367500Y-12159500D01*
G75*
G02*
X10352500Y-12174500I-15000J0D01*
G01*
X10177500Y-12174500D01*
G75*
G02*
X10162500Y-12159500I0J15000D01*
G01*
X10162500Y-12129500D01*
G75*
G02*
X10177500Y-12114500I15000J0D01*
G01*
X10352500Y-12114500D01*
G75*
G02*
X10367500Y-12129500I0J-15000D01*
G01*
G37*
G36*
G01*
X10367500Y-12002500D02*
X10367500Y-12032500D01*
G75*
G02*
X10352500Y-12047500I-15000J0D01*
G01*
X10177500Y-12047500D01*
G75*
G02*
X10162500Y-12032500I0J15000D01*
G01*
X10162500Y-12002500D01*
G75*
G02*
X10177500Y-11987500I15000J0D01*
G01*
X10352500Y-11987500D01*
G75*
G02*
X10367500Y-12002500I0J-15000D01*
G01*
G37*
G36*
G01*
X10367500Y-11875500D02*
X10367500Y-11905500D01*
G75*
G02*
X10352500Y-11920500I-15000J0D01*
G01*
X10177500Y-11920500D01*
G75*
G02*
X10162500Y-11905500I0J15000D01*
G01*
X10162500Y-11875500D01*
G75*
G02*
X10177500Y-11860500I15000J0D01*
G01*
X10352500Y-11860500D01*
G75*
G02*
X10367500Y-11875500I0J-15000D01*
G01*
G37*
G36*
G01*
X10367500Y-11748500D02*
X10367500Y-11778500D01*
G75*
G02*
X10352500Y-11793500I-15000J0D01*
G01*
X10177500Y-11793500D01*
G75*
G02*
X10162500Y-11778500I0J15000D01*
G01*
X10162500Y-11748500D01*
G75*
G02*
X10177500Y-11733500I15000J0D01*
G01*
X10352500Y-11733500D01*
G75*
G02*
X10367500Y-11748500I0J-15000D01*
G01*
G37*
G36*
G01*
X10367500Y-11621500D02*
X10367500Y-11651500D01*
G75*
G02*
X10352500Y-11666500I-15000J0D01*
G01*
X10177500Y-11666500D01*
G75*
G02*
X10162500Y-11651500I0J15000D01*
G01*
X10162500Y-11621500D01*
G75*
G02*
X10177500Y-11606500I15000J0D01*
G01*
X10352500Y-11606500D01*
G75*
G02*
X10367500Y-11621500I0J-15000D01*
G01*
G37*
G36*
G01*
X10367500Y-11494500D02*
X10367500Y-11524500D01*
G75*
G02*
X10352500Y-11539500I-15000J0D01*
G01*
X10177500Y-11539500D01*
G75*
G02*
X10162500Y-11524500I0J15000D01*
G01*
X10162500Y-11494500D01*
G75*
G02*
X10177500Y-11479500I15000J0D01*
G01*
X10352500Y-11479500D01*
G75*
G02*
X10367500Y-11494500I0J-15000D01*
G01*
G37*
G36*
G01*
X10367500Y-11367500D02*
X10367500Y-11397500D01*
G75*
G02*
X10352500Y-11412500I-15000J0D01*
G01*
X10177500Y-11412500D01*
G75*
G02*
X10162500Y-11397500I0J15000D01*
G01*
X10162500Y-11367500D01*
G75*
G02*
X10177500Y-11352500I15000J0D01*
G01*
X10352500Y-11352500D01*
G75*
G02*
X10367500Y-11367500I0J-15000D01*
G01*
G37*
G36*
G01*
X10367500Y-11240500D02*
X10367500Y-11270500D01*
G75*
G02*
X10352500Y-11285500I-15000J0D01*
G01*
X10177500Y-11285500D01*
G75*
G02*
X10162500Y-11270500I0J15000D01*
G01*
X10162500Y-11240500D01*
G75*
G02*
X10177500Y-11225500I15000J0D01*
G01*
X10352500Y-11225500D01*
G75*
G02*
X10367500Y-11240500I0J-15000D01*
G01*
G37*
G36*
G01*
X10367500Y-11113500D02*
X10367500Y-11143500D01*
G75*
G02*
X10352500Y-11158500I-15000J0D01*
G01*
X10177500Y-11158500D01*
G75*
G02*
X10162500Y-11143500I0J15000D01*
G01*
X10162500Y-11113500D01*
G75*
G02*
X10177500Y-11098500I15000J0D01*
G01*
X10352500Y-11098500D01*
G75*
G02*
X10367500Y-11113500I0J-15000D01*
G01*
G37*
G36*
G01*
X9437500Y-11113500D02*
X9437500Y-11143500D01*
G75*
G02*
X9422500Y-11158500I-15000J0D01*
G01*
X9247500Y-11158500D01*
G75*
G02*
X9232500Y-11143500I0J15000D01*
G01*
X9232500Y-11113500D01*
G75*
G02*
X9247500Y-11098500I15000J0D01*
G01*
X9422500Y-11098500D01*
G75*
G02*
X9437500Y-11113500I0J-15000D01*
G01*
G37*
G36*
G01*
X9437500Y-11240500D02*
X9437500Y-11270500D01*
G75*
G02*
X9422500Y-11285500I-15000J0D01*
G01*
X9247500Y-11285500D01*
G75*
G02*
X9232500Y-11270500I0J15000D01*
G01*
X9232500Y-11240500D01*
G75*
G02*
X9247500Y-11225500I15000J0D01*
G01*
X9422500Y-11225500D01*
G75*
G02*
X9437500Y-11240500I0J-15000D01*
G01*
G37*
G36*
G01*
X9437500Y-11367500D02*
X9437500Y-11397500D01*
G75*
G02*
X9422500Y-11412500I-15000J0D01*
G01*
X9247500Y-11412500D01*
G75*
G02*
X9232500Y-11397500I0J15000D01*
G01*
X9232500Y-11367500D01*
G75*
G02*
X9247500Y-11352500I15000J0D01*
G01*
X9422500Y-11352500D01*
G75*
G02*
X9437500Y-11367500I0J-15000D01*
G01*
G37*
G36*
G01*
X9437500Y-11494500D02*
X9437500Y-11524500D01*
G75*
G02*
X9422500Y-11539500I-15000J0D01*
G01*
X9247500Y-11539500D01*
G75*
G02*
X9232500Y-11524500I0J15000D01*
G01*
X9232500Y-11494500D01*
G75*
G02*
X9247500Y-11479500I15000J0D01*
G01*
X9422500Y-11479500D01*
G75*
G02*
X9437500Y-11494500I0J-15000D01*
G01*
G37*
G36*
G01*
X9437500Y-11621500D02*
X9437500Y-11651500D01*
G75*
G02*
X9422500Y-11666500I-15000J0D01*
G01*
X9247500Y-11666500D01*
G75*
G02*
X9232500Y-11651500I0J15000D01*
G01*
X9232500Y-11621500D01*
G75*
G02*
X9247500Y-11606500I15000J0D01*
G01*
X9422500Y-11606500D01*
G75*
G02*
X9437500Y-11621500I0J-15000D01*
G01*
G37*
G36*
G01*
X9437500Y-11748500D02*
X9437500Y-11778500D01*
G75*
G02*
X9422500Y-11793500I-15000J0D01*
G01*
X9247500Y-11793500D01*
G75*
G02*
X9232500Y-11778500I0J15000D01*
G01*
X9232500Y-11748500D01*
G75*
G02*
X9247500Y-11733500I15000J0D01*
G01*
X9422500Y-11733500D01*
G75*
G02*
X9437500Y-11748500I0J-15000D01*
G01*
G37*
G36*
G01*
X9437500Y-11875500D02*
X9437500Y-11905500D01*
G75*
G02*
X9422500Y-11920500I-15000J0D01*
G01*
X9247500Y-11920500D01*
G75*
G02*
X9232500Y-11905500I0J15000D01*
G01*
X9232500Y-11875500D01*
G75*
G02*
X9247500Y-11860500I15000J0D01*
G01*
X9422500Y-11860500D01*
G75*
G02*
X9437500Y-11875500I0J-15000D01*
G01*
G37*
G36*
G01*
X9437500Y-12002500D02*
X9437500Y-12032500D01*
G75*
G02*
X9422500Y-12047500I-15000J0D01*
G01*
X9247500Y-12047500D01*
G75*
G02*
X9232500Y-12032500I0J15000D01*
G01*
X9232500Y-12002500D01*
G75*
G02*
X9247500Y-11987500I15000J0D01*
G01*
X9422500Y-11987500D01*
G75*
G02*
X9437500Y-12002500I0J-15000D01*
G01*
G37*
G36*
G01*
X9437500Y-12129500D02*
X9437500Y-12159500D01*
G75*
G02*
X9422500Y-12174500I-15000J0D01*
G01*
X9247500Y-12174500D01*
G75*
G02*
X9232500Y-12159500I0J15000D01*
G01*
X9232500Y-12129500D01*
G75*
G02*
X9247500Y-12114500I15000J0D01*
G01*
X9422500Y-12114500D01*
G75*
G02*
X9437500Y-12129500I0J-15000D01*
G01*
G37*
G36*
G01*
X9437500Y-12256500D02*
X9437500Y-12286500D01*
G75*
G02*
X9422500Y-12301500I-15000J0D01*
G01*
X9247500Y-12301500D01*
G75*
G02*
X9232500Y-12286500I0J15000D01*
G01*
X9232500Y-12256500D01*
G75*
G02*
X9247500Y-12241500I15000J0D01*
G01*
X9422500Y-12241500D01*
G75*
G02*
X9437500Y-12256500I0J-15000D01*
G01*
G37*
%TD*%
%TO.C,R9*%
G36*
G01*
X10707500Y-12070000D02*
X10707500Y-11980000D01*
G75*
G02*
X10732500Y-11955000I25000J0D01*
G01*
X10785000Y-11955000D01*
G75*
G02*
X10810000Y-11980000I0J-25000D01*
G01*
X10810000Y-12070000D01*
G75*
G02*
X10785000Y-12095000I-25000J0D01*
G01*
X10732500Y-12095000D01*
G75*
G02*
X10707500Y-12070000I0J25000D01*
G01*
G37*
G36*
G01*
X10890000Y-12070000D02*
X10890000Y-11980000D01*
G75*
G02*
X10915000Y-11955000I25000J0D01*
G01*
X10967500Y-11955000D01*
G75*
G02*
X10992500Y-11980000I0J-25000D01*
G01*
X10992500Y-12070000D01*
G75*
G02*
X10967500Y-12095000I-25000J0D01*
G01*
X10915000Y-12095000D01*
G75*
G02*
X10890000Y-12070000I0J25000D01*
G01*
G37*
%TD*%
%TO.C,R8*%
G36*
G01*
X10707500Y-11820000D02*
X10707500Y-11730000D01*
G75*
G02*
X10732500Y-11705000I25000J0D01*
G01*
X10785000Y-11705000D01*
G75*
G02*
X10810000Y-11730000I0J-25000D01*
G01*
X10810000Y-11820000D01*
G75*
G02*
X10785000Y-11845000I-25000J0D01*
G01*
X10732500Y-11845000D01*
G75*
G02*
X10707500Y-11820000I0J25000D01*
G01*
G37*
G36*
G01*
X10890000Y-11820000D02*
X10890000Y-11730000D01*
G75*
G02*
X10915000Y-11705000I25000J0D01*
G01*
X10967500Y-11705000D01*
G75*
G02*
X10992500Y-11730000I0J-25000D01*
G01*
X10992500Y-11820000D01*
G75*
G02*
X10967500Y-11845000I-25000J0D01*
G01*
X10915000Y-11845000D01*
G75*
G02*
X10890000Y-11820000I0J25000D01*
G01*
G37*
%TD*%
%TO.C,R7*%
G36*
G01*
X10707500Y-11545000D02*
X10707500Y-11455000D01*
G75*
G02*
X10732500Y-11430000I25000J0D01*
G01*
X10785000Y-11430000D01*
G75*
G02*
X10810000Y-11455000I0J-25000D01*
G01*
X10810000Y-11545000D01*
G75*
G02*
X10785000Y-11570000I-25000J0D01*
G01*
X10732500Y-11570000D01*
G75*
G02*
X10707500Y-11545000I0J25000D01*
G01*
G37*
G36*
G01*
X10890000Y-11545000D02*
X10890000Y-11455000D01*
G75*
G02*
X10915000Y-11430000I25000J0D01*
G01*
X10967500Y-11430000D01*
G75*
G02*
X10992500Y-11455000I0J-25000D01*
G01*
X10992500Y-11545000D01*
G75*
G02*
X10967500Y-11570000I-25000J0D01*
G01*
X10915000Y-11570000D01*
G75*
G02*
X10890000Y-11545000I0J25000D01*
G01*
G37*
%TD*%
%TO.C,R6*%
G36*
G01*
X10707500Y-11295000D02*
X10707500Y-11205000D01*
G75*
G02*
X10732500Y-11180000I25000J0D01*
G01*
X10785000Y-11180000D01*
G75*
G02*
X10810000Y-11205000I0J-25000D01*
G01*
X10810000Y-11295000D01*
G75*
G02*
X10785000Y-11320000I-25000J0D01*
G01*
X10732500Y-11320000D01*
G75*
G02*
X10707500Y-11295000I0J25000D01*
G01*
G37*
G36*
G01*
X10890000Y-11295000D02*
X10890000Y-11205000D01*
G75*
G02*
X10915000Y-11180000I25000J0D01*
G01*
X10967500Y-11180000D01*
G75*
G02*
X10992500Y-11205000I0J-25000D01*
G01*
X10992500Y-11295000D01*
G75*
G02*
X10967500Y-11320000I-25000J0D01*
G01*
X10915000Y-11320000D01*
G75*
G02*
X10890000Y-11295000I0J25000D01*
G01*
G37*
%TD*%
M02*
